<?xml version="1.0" encoding="utf-8" standalone="no"?>
<!DOCTYPE svg PUBLIC "-//W3C//DTD SVG 1.1//EN"
  "http://www.w3.org/Graphics/SVG/1.1/DTD/svg11.dtd">
<svg xmlns:xlink="http://www.w3.org/1999/xlink" width="432pt" height="216pt" viewBox="0 0 432 216" xmlns="http://www.w3.org/2000/svg" version="1.1">
 <metadata>
  <rdf:RDF xmlns:dc="http://purl.org/dc/elements/1.1/" xmlns:cc="http://creativecommons.org/ns#" xmlns:rdf="http://www.w3.org/1999/02/22-rdf-syntax-ns#">
   <cc:Work>
    <dc:type rdf:resource="http://purl.org/dc/dcmitype/StillImage"/>
    <dc:date>2025-06-21T07:00:13.055291</dc:date>
    <dc:format>image/svg+xml</dc:format>
    <dc:creator>
     <cc:Agent>
      <dc:title>Matplotlib v3.9.2, https://matplotlib.org/</dc:title>
     </cc:Agent>
    </dc:creator>
   </cc:Work>
  </rdf:RDF>
 </metadata>
 <defs>
  <style type="text/css">*{stroke-linejoin: round; stroke-linecap: butt}</style>
 </defs>
 <g id="figure_1">
  <g id="patch_1">
   <path d="M 0 216 
L 432 216 
L 432 0 
L 0 0 
z
" style="fill: #ffffff"/>
  </g>
  <g id="axes_1">
   <g id="patch_2">
    <path d="M 54 192.24 
L 206.181818 192.24 
L 206.181818 25.92 
L 54 25.92 
z
" style="fill: #ffffff"/>
   </g>
   <g id="matplotlib.axis_1"/>
   <g id="matplotlib.axis_2">
    <g id="ytick_1">
     <g id="line2d_1">
      <defs>
       <path id="md810ba01f5" d="M 0 0 
L -3.5 0 
" style="stroke: #000000; stroke-width: 0.8"/>
      </defs>
      <g>
       <use xlink:href="#md810ba01f5" x="54" y="184.68" style="stroke: #000000; stroke-width: 0.8"/>
      </g>
     </g>
     <g id="text_1">
      <!-- 0.00 -->
      <g transform="translate(24.734375 188.479219) scale(0.1 -0.1)">
       <defs>
        <path id="DejaVuSans-30" d="M 2034 4250 
Q 1547 4250 1301 3770 
Q 1056 3291 1056 2328 
Q 1056 1369 1301 889 
Q 1547 409 2034 409 
Q 2525 409 2770 889 
Q 3016 1369 3016 2328 
Q 3016 3291 2770 3770 
Q 2525 4250 2034 4250 
z
M 2034 4750 
Q 2819 4750 3233 4129 
Q 3647 3509 3647 2328 
Q 3647 1150 3233 529 
Q 2819 -91 2034 -91 
Q 1250 -91 836 529 
Q 422 1150 422 2328 
Q 422 3509 836 4129 
Q 1250 4750 2034 4750 
z
" transform="scale(0.015625)"/>
        <path id="DejaVuSans-2e" d="M 684 794 
L 1344 794 
L 1344 0 
L 684 0 
L 684 794 
z
" transform="scale(0.015625)"/>
       </defs>
       <use xlink:href="#DejaVuSans-30"/>
       <use xlink:href="#DejaVuSans-2e" x="63.623047"/>
       <use xlink:href="#DejaVuSans-30" x="95.410156"/>
       <use xlink:href="#DejaVuSans-30" x="159.033203"/>
      </g>
     </g>
    </g>
    <g id="ytick_2">
     <g id="line2d_2">
      <g>
       <use xlink:href="#md810ba01f5" x="54" y="163.338554" style="stroke: #000000; stroke-width: 0.8"/>
      </g>
     </g>
     <g id="text_2">
      <!-- 0.05 -->
      <g transform="translate(24.734375 167.137772) scale(0.1 -0.1)">
       <defs>
        <path id="DejaVuSans-35" d="M 691 4666 
L 3169 4666 
L 3169 4134 
L 1269 4134 
L 1269 2991 
Q 1406 3038 1543 3061 
Q 1681 3084 1819 3084 
Q 2600 3084 3056 2656 
Q 3513 2228 3513 1497 
Q 3513 744 3044 326 
Q 2575 -91 1722 -91 
Q 1428 -91 1123 -41 
Q 819 9 494 109 
L 494 744 
Q 775 591 1075 516 
Q 1375 441 1709 441 
Q 2250 441 2565 725 
Q 2881 1009 2881 1497 
Q 2881 1984 2565 2268 
Q 2250 2553 1709 2553 
Q 1456 2553 1204 2497 
Q 953 2441 691 2322 
L 691 4666 
z
" transform="scale(0.015625)"/>
       </defs>
       <use xlink:href="#DejaVuSans-30"/>
       <use xlink:href="#DejaVuSans-2e" x="63.623047"/>
       <use xlink:href="#DejaVuSans-30" x="95.410156"/>
       <use xlink:href="#DejaVuSans-35" x="159.033203"/>
      </g>
     </g>
    </g>
    <g id="ytick_3">
     <g id="line2d_3">
      <g>
       <use xlink:href="#md810ba01f5" x="54" y="141.997107" style="stroke: #000000; stroke-width: 0.8"/>
      </g>
     </g>
     <g id="text_3">
      <!-- 0.10 -->
      <g transform="translate(24.734375 145.796326) scale(0.1 -0.1)">
       <defs>
        <path id="DejaVuSans-31" d="M 794 531 
L 1825 531 
L 1825 4091 
L 703 3866 
L 703 4441 
L 1819 4666 
L 2450 4666 
L 2450 531 
L 3481 531 
L 3481 0 
L 794 0 
L 794 531 
z
" transform="scale(0.015625)"/>
       </defs>
       <use xlink:href="#DejaVuSans-30"/>
       <use xlink:href="#DejaVuSans-2e" x="63.623047"/>
       <use xlink:href="#DejaVuSans-31" x="95.410156"/>
       <use xlink:href="#DejaVuSans-30" x="159.033203"/>
      </g>
     </g>
    </g>
    <g id="ytick_4">
     <g id="line2d_4">
      <g>
       <use xlink:href="#md810ba01f5" x="54" y="120.655661" style="stroke: #000000; stroke-width: 0.8"/>
      </g>
     </g>
     <g id="text_4">
      <!-- 0.15 -->
      <g transform="translate(24.734375 124.45488) scale(0.1 -0.1)">
       <use xlink:href="#DejaVuSans-30"/>
       <use xlink:href="#DejaVuSans-2e" x="63.623047"/>
       <use xlink:href="#DejaVuSans-31" x="95.410156"/>
       <use xlink:href="#DejaVuSans-35" x="159.033203"/>
      </g>
     </g>
    </g>
    <g id="ytick_5">
     <g id="line2d_5">
      <g>
       <use xlink:href="#md810ba01f5" x="54" y="99.314214" style="stroke: #000000; stroke-width: 0.8"/>
      </g>
     </g>
     <g id="text_5">
      <!-- 0.20 -->
      <g transform="translate(24.734375 103.113433) scale(0.1 -0.1)">
       <defs>
        <path id="DejaVuSans-32" d="M 1228 531 
L 3431 531 
L 3431 0 
L 469 0 
L 469 531 
Q 828 903 1448 1529 
Q 2069 2156 2228 2338 
Q 2531 2678 2651 2914 
Q 2772 3150 2772 3378 
Q 2772 3750 2511 3984 
Q 2250 4219 1831 4219 
Q 1534 4219 1204 4116 
Q 875 4013 500 3803 
L 500 4441 
Q 881 4594 1212 4672 
Q 1544 4750 1819 4750 
Q 2544 4750 2975 4387 
Q 3406 4025 3406 3419 
Q 3406 3131 3298 2873 
Q 3191 2616 2906 2266 
Q 2828 2175 2409 1742 
Q 1991 1309 1228 531 
z
" transform="scale(0.015625)"/>
       </defs>
       <use xlink:href="#DejaVuSans-30"/>
       <use xlink:href="#DejaVuSans-2e" x="63.623047"/>
       <use xlink:href="#DejaVuSans-32" x="95.410156"/>
       <use xlink:href="#DejaVuSans-30" x="159.033203"/>
      </g>
     </g>
    </g>
    <g id="ytick_6">
     <g id="line2d_6">
      <g>
       <use xlink:href="#md810ba01f5" x="54" y="77.972768" style="stroke: #000000; stroke-width: 0.8"/>
      </g>
     </g>
     <g id="text_6">
      <!-- 0.25 -->
      <g transform="translate(24.734375 81.771987) scale(0.1 -0.1)">
       <use xlink:href="#DejaVuSans-30"/>
       <use xlink:href="#DejaVuSans-2e" x="63.623047"/>
       <use xlink:href="#DejaVuSans-32" x="95.410156"/>
       <use xlink:href="#DejaVuSans-35" x="159.033203"/>
      </g>
     </g>
    </g>
    <g id="ytick_7">
     <g id="line2d_7">
      <g>
       <use xlink:href="#md810ba01f5" x="54" y="56.631322" style="stroke: #000000; stroke-width: 0.8"/>
      </g>
     </g>
     <g id="text_7">
      <!-- 0.30 -->
      <g transform="translate(24.734375 60.43054) scale(0.1 -0.1)">
       <defs>
        <path id="DejaVuSans-33" d="M 2597 2516 
Q 3050 2419 3304 2112 
Q 3559 1806 3559 1356 
Q 3559 666 3084 287 
Q 2609 -91 1734 -91 
Q 1441 -91 1130 -33 
Q 819 25 488 141 
L 488 750 
Q 750 597 1062 519 
Q 1375 441 1716 441 
Q 2309 441 2620 675 
Q 2931 909 2931 1356 
Q 2931 1769 2642 2001 
Q 2353 2234 1838 2234 
L 1294 2234 
L 1294 2753 
L 1863 2753 
Q 2328 2753 2575 2939 
Q 2822 3125 2822 3475 
Q 2822 3834 2567 4026 
Q 2313 4219 1838 4219 
Q 1578 4219 1281 4162 
Q 984 4106 628 3988 
L 628 4550 
Q 988 4650 1302 4700 
Q 1616 4750 1894 4750 
Q 2613 4750 3031 4423 
Q 3450 4097 3450 3541 
Q 3450 3153 3228 2886 
Q 3006 2619 2597 2516 
z
" transform="scale(0.015625)"/>
       </defs>
       <use xlink:href="#DejaVuSans-30"/>
       <use xlink:href="#DejaVuSans-2e" x="63.623047"/>
       <use xlink:href="#DejaVuSans-33" x="95.410156"/>
       <use xlink:href="#DejaVuSans-30" x="159.033203"/>
      </g>
     </g>
    </g>
    <g id="ytick_8">
     <g id="line2d_8">
      <g>
       <use xlink:href="#md810ba01f5" x="54" y="35.289875" style="stroke: #000000; stroke-width: 0.8"/>
      </g>
     </g>
     <g id="text_8">
      <!-- 0.35 -->
      <g transform="translate(24.734375 39.089094) scale(0.1 -0.1)">
       <use xlink:href="#DejaVuSans-30"/>
       <use xlink:href="#DejaVuSans-2e" x="63.623047"/>
       <use xlink:href="#DejaVuSans-33" x="95.410156"/>
       <use xlink:href="#DejaVuSans-35" x="159.033203"/>
      </g>
     </g>
    </g>
   </g>
   <g id="LineCollection_1">
    <path d="M 60.917355 177.43928 
L 88.586777 177.43928 
" clip-path="url(#p2c67b37ba3)" style="fill: none; stroke: #000000; stroke-width: 1.5"/>
   </g>
   <g id="LineCollection_2">
    <path d="M 116.256198 174.827914 
L 143.92562 174.827914 
" clip-path="url(#p2c67b37ba3)" style="fill: none; stroke: #000000; stroke-width: 1.5"/>
   </g>
   <g id="LineCollection_3">
    <path d="M 171.595041 176.369428 
L 199.264463 176.369428 
" clip-path="url(#p2c67b37ba3)" style="fill: none; stroke: #000000; stroke-width: 1.5"/>
   </g>
   <g id="patch_3">
    <path d="M 54 192.24 
L 54 25.92 
" style="fill: none; stroke: #000000; stroke-width: 0.8; stroke-linejoin: miter; stroke-linecap: square"/>
   </g>
   <g id="patch_4">
    <path d="M 54 192.24 
L 206.181818 192.24 
" style="fill: none; stroke: #000000; stroke-width: 0.8; stroke-linejoin: miter; stroke-linecap: square"/>
   </g>
   <g id="PathCollection_1">
    <defs>
     <path id="m7a685a534f" d="M 0 2.5 
C 0.663008 2.5 1.29895 2.236584 1.767767 1.767767 
C 2.236584 1.29895 2.5 0.663008 2.5 0 
C 2.5 -0.663008 2.236584 -1.29895 1.767767 -1.767767 
C 1.29895 -2.236584 0.663008 -2.5 0 -2.5 
C -0.663008 -2.5 -1.29895 -2.236584 -1.767767 -1.767767 
C -2.236584 -1.29895 -2.5 -0.663008 -2.5 0 
C -2.5 0.663008 -2.236584 1.29895 -1.767767 1.767767 
C -1.29895 2.236584 -0.663008 2.5 0 2.5 
z
" style="stroke: #6c6c6c"/>
    </defs>
    <g clip-path="url(#p2c67b37ba3)">
     <use xlink:href="#m7a685a534f" x="74.12618" y="170.745264" style="fill: #aba2c6; stroke: #6c6c6c"/>
     <use xlink:href="#m7a685a534f" x="70.881468" y="165.345756" style="fill: #aba2c6; stroke: #6c6c6c"/>
     <use xlink:href="#m7a685a534f" x="72.79067" y="166.660452" style="fill: #aba2c6; stroke: #6c6c6c"/>
     <use xlink:href="#m7a685a534f" x="73.945353" y="184.68" style="fill: #aba2c6; stroke: #6c6c6c"/>
     <use xlink:href="#m7a685a534f" x="76.88267" y="184.68" style="fill: #aba2c6; stroke: #6c6c6c"/>
     <use xlink:href="#m7a685a534f" x="75.946245" y="182.110461" style="fill: #aba2c6; stroke: #6c6c6c"/>
     <use xlink:href="#m7a685a534f" x="69.933684" y="184.68" style="fill: #aba2c6; stroke: #6c6c6c"/>
     <use xlink:href="#m7a685a534f" x="69.342703" y="181.857566" style="fill: #aba2c6; stroke: #6c6c6c"/>
     <use xlink:href="#m7a685a534f" x="75.95414" y="183.915983" style="fill: #aba2c6; stroke: #6c6c6c"/>
     <use xlink:href="#m7a685a534f" x="73.63317" y="178.790405" style="fill: #aba2c6; stroke: #6c6c6c"/>
     <use xlink:href="#m7a685a534f" x="72.028867" y="124.329829" style="fill: #aba2c6; stroke: #6c6c6c"/>
     <use xlink:href="#m7a685a534f" x="72.800346" y="180.599292" style="fill: #aba2c6; stroke: #6c6c6c"/>
     <use xlink:href="#m7a685a534f" x="70.646469" y="165.693541" style="fill: #aba2c6; stroke: #6c6c6c"/>
     <use xlink:href="#m7a685a534f" x="69.500582" y="175.911135" style="fill: #aba2c6; stroke: #6c6c6c"/>
     <use xlink:href="#m7a685a534f" x="69.873989" y="154.338164" style="fill: #aba2c6; stroke: #6c6c6c"/>
     <use xlink:href="#m7a685a534f" x="78.5454" y="130.580739" style="fill: #aba2c6; stroke: #6c6c6c"/>
     <use xlink:href="#m7a685a534f" x="76.686708" y="178.1134" style="fill: #aba2c6; stroke: #6c6c6c"/>
     <use xlink:href="#m7a685a534f" x="70.894829" y="176.765161" style="fill: #aba2c6; stroke: #6c6c6c"/>
     <use xlink:href="#m7a685a534f" x="78.659336" y="135.528217" style="fill: #aba2c6; stroke: #6c6c6c"/>
     <use xlink:href="#m7a685a534f" x="79.818768" y="184.68" style="fill: #aba2c6; stroke: #6c6c6c"/>
    </g>
   </g>
   <g id="PathCollection_2">
    <g clip-path="url(#p2c67b37ba3)">
     <use xlink:href="#m7a685a534f" x="135.289616" y="176.837684" style="fill: #aba2c6; stroke: #6c6c6c"/>
     <use xlink:href="#m7a685a534f" x="125.484817" y="138.68907" style="fill: #aba2c6; stroke: #6c6c6c"/>
     <use xlink:href="#m7a685a534f" x="133.259405" y="172.461085" style="fill: #aba2c6; stroke: #6c6c6c"/>
     <use xlink:href="#m7a685a534f" x="135.265773" y="180.442508" style="fill: #aba2c6; stroke: #6c6c6c"/>
     <use xlink:href="#m7a685a534f" x="126.195863" y="182.341638" style="fill: #aba2c6; stroke: #6c6c6c"/>
     <use xlink:href="#m7a685a534f" x="133.15194" y="184.68" style="fill: #aba2c6; stroke: #6c6c6c"/>
     <use xlink:href="#m7a685a534f" x="126.877539" y="184.68" style="fill: #aba2c6; stroke: #6c6c6c"/>
     <use xlink:href="#m7a685a534f" x="131.128474" y="176.997787" style="fill: #aba2c6; stroke: #6c6c6c"/>
     <use xlink:href="#m7a685a534f" x="129.033848" y="166.591812" style="fill: #aba2c6; stroke: #6c6c6c"/>
     <use xlink:href="#m7a685a534f" x="129.834193" y="172.901938" style="fill: #aba2c6; stroke: #6c6c6c"/>
     <use xlink:href="#m7a685a534f" x="129.927675" y="166.250377" style="fill: #aba2c6; stroke: #6c6c6c"/>
     <use xlink:href="#m7a685a534f" x="129.322304" y="171.892628" style="fill: #aba2c6; stroke: #6c6c6c"/>
     <use xlink:href="#m7a685a534f" x="133.244958" y="173.313147" style="fill: #aba2c6; stroke: #6c6c6c"/>
     <use xlink:href="#m7a685a534f" x="129.100432" y="164.093226" style="fill: #aba2c6; stroke: #6c6c6c"/>
     <use xlink:href="#m7a685a534f" x="129.520048" y="169.67824" style="fill: #aba2c6; stroke: #6c6c6c"/>
     <use xlink:href="#m7a685a534f" x="134.410463" y="176.342682" style="fill: #aba2c6; stroke: #6c6c6c"/>
     <use xlink:href="#m7a685a534f" x="131.704892" y="180.262961" style="fill: #aba2c6; stroke: #6c6c6c"/>
     <use xlink:href="#m7a685a534f" x="132.274816" y="184.68" style="fill: #aba2c6; stroke: #6c6c6c"/>
    </g>
   </g>
   <g id="PathCollection_3">
    <g clip-path="url(#p2c67b37ba3)">
     <use xlink:href="#m7a685a534f" x="179.968295" y="162.902948" style="fill: #aba2c6; stroke: #6c6c6c"/>
     <use xlink:href="#m7a685a534f" x="187.408414" y="153.470244" style="fill: #aba2c6; stroke: #6c6c6c"/>
     <use xlink:href="#m7a685a534f" x="182.122728" y="154.441537" style="fill: #aba2c6; stroke: #6c6c6c"/>
     <use xlink:href="#m7a685a534f" x="183.226897" y="180.442508" style="fill: #aba2c6; stroke: #6c6c6c"/>
     <use xlink:href="#m7a685a534f" x="182.149046" y="182.341638" style="fill: #aba2c6; stroke: #6c6c6c"/>
     <use xlink:href="#m7a685a534f" x="189.135671" y="182.110461" style="fill: #aba2c6; stroke: #6c6c6c"/>
     <use xlink:href="#m7a685a534f" x="189.34844" y="184.68" style="fill: #aba2c6; stroke: #6c6c6c"/>
     <use xlink:href="#m7a685a534f" x="190.268912" y="177.444354" style="fill: #aba2c6; stroke: #6c6c6c"/>
     <use xlink:href="#m7a685a534f" x="182.218244" y="165.827796" style="fill: #aba2c6; stroke: #6c6c6c"/>
     <use xlink:href="#m7a685a534f" x="190.257025" y="130.77253" style="fill: #aba2c6; stroke: #6c6c6c"/>
     <use xlink:href="#m7a685a534f" x="186.407225" y="168.253597" style="fill: #aba2c6; stroke: #6c6c6c"/>
     <use xlink:href="#m7a685a534f" x="185.259055" y="175.294501" style="fill: #aba2c6; stroke: #6c6c6c"/>
     <use xlink:href="#m7a685a534f" x="189.694906" y="178.850873" style="fill: #aba2c6; stroke: #6c6c6c"/>
     <use xlink:href="#m7a685a534f" x="186.105259" y="141.039703" style="fill: #aba2c6; stroke: #6c6c6c"/>
     <use xlink:href="#m7a685a534f" x="182.252143" y="138.809453" style="fill: #aba2c6; stroke: #6c6c6c"/>
     <use xlink:href="#m7a685a534f" x="189.720714" y="182.240956" style="fill: #aba2c6; stroke: #6c6c6c"/>
     <use xlink:href="#m7a685a534f" x="181.040958" y="181.182199" style="fill: #aba2c6; stroke: #6c6c6c"/>
     <use xlink:href="#m7a685a534f" x="182.847318" y="184.68" style="fill: #aba2c6; stroke: #6c6c6c"/>
    </g>
   </g>
  </g>
  <g id="axes_2">
   <g id="patch_5">
    <path d="M 236.618182 192.24 
L 388.8 192.24 
L 388.8 25.92 
L 236.618182 25.92 
z
" style="fill: #ffffff"/>
   </g>
   <g id="matplotlib.axis_3"/>
   <g id="matplotlib.axis_4">
    <g id="ytick_9">
     <g id="line2d_9">
      <g>
       <use xlink:href="#md810ba01f5" x="236.618182" y="184.68" style="stroke: #000000; stroke-width: 0.8"/>
      </g>
     </g>
    </g>
    <g id="ytick_10">
     <g id="line2d_10">
      <g>
       <use xlink:href="#md810ba01f5" x="236.618182" y="163.338554" style="stroke: #000000; stroke-width: 0.8"/>
      </g>
     </g>
    </g>
    <g id="ytick_11">
     <g id="line2d_11">
      <g>
       <use xlink:href="#md810ba01f5" x="236.618182" y="141.997107" style="stroke: #000000; stroke-width: 0.8"/>
      </g>
     </g>
    </g>
    <g id="ytick_12">
     <g id="line2d_12">
      <g>
       <use xlink:href="#md810ba01f5" x="236.618182" y="120.655661" style="stroke: #000000; stroke-width: 0.8"/>
      </g>
     </g>
    </g>
    <g id="ytick_13">
     <g id="line2d_13">
      <g>
       <use xlink:href="#md810ba01f5" x="236.618182" y="99.314214" style="stroke: #000000; stroke-width: 0.8"/>
      </g>
     </g>
    </g>
    <g id="ytick_14">
     <g id="line2d_14">
      <g>
       <use xlink:href="#md810ba01f5" x="236.618182" y="77.972768" style="stroke: #000000; stroke-width: 0.8"/>
      </g>
     </g>
    </g>
    <g id="ytick_15">
     <g id="line2d_15">
      <g>
       <use xlink:href="#md810ba01f5" x="236.618182" y="56.631322" style="stroke: #000000; stroke-width: 0.8"/>
      </g>
     </g>
    </g>
    <g id="ytick_16">
     <g id="line2d_16">
      <g>
       <use xlink:href="#md810ba01f5" x="236.618182" y="35.289875" style="stroke: #000000; stroke-width: 0.8"/>
      </g>
     </g>
    </g>
   </g>
   <g id="LineCollection_4">
    <path d="M 243.535537 171.993649 
L 271.204959 171.993649 
" clip-path="url(#p27ff7ce599)" style="fill: none; stroke: #000000; stroke-width: 1.5"/>
   </g>
   <g id="LineCollection_5">
    <path d="M 298.87438 173.412154 
L 326.543802 173.412154 
" clip-path="url(#p27ff7ce599)" style="fill: none; stroke: #000000; stroke-width: 1.5"/>
   </g>
   <g id="LineCollection_6">
    <path d="M 354.213223 178.626386 
L 381.882645 178.626386 
" clip-path="url(#p27ff7ce599)" style="fill: none; stroke: #000000; stroke-width: 1.5"/>
   </g>
   <g id="patch_6">
    <path d="M 236.618182 192.24 
L 388.8 192.24 
" style="fill: none; stroke: #000000; stroke-width: 0.8; stroke-linejoin: miter; stroke-linecap: square"/>
   </g>
   <g id="PathCollection_4">
    <g clip-path="url(#p27ff7ce599)">
     <use xlink:href="#m7a685a534f" x="259.715217" y="99.374598" style="fill: #aba2c6; stroke: #6c6c6c"/>
     <use xlink:href="#m7a685a534f" x="254.372656" y="184.68" style="fill: #aba2c6; stroke: #6c6c6c"/>
     <use xlink:href="#m7a685a534f" x="258.628907" y="173.921709" style="fill: #aba2c6; stroke: #6c6c6c"/>
     <use xlink:href="#m7a685a534f" x="260.364929" y="149.186467" style="fill: #aba2c6; stroke: #6c6c6c"/>
     <use xlink:href="#m7a685a534f" x="256.000372" y="184.68" style="fill: #aba2c6; stroke: #6c6c6c"/>
     <use xlink:href="#m7a685a534f" x="257.868112" y="152.758442" style="fill: #aba2c6; stroke: #6c6c6c"/>
     <use xlink:href="#m7a685a534f" x="253.581817" y="163.391481" style="fill: #aba2c6; stroke: #6c6c6c"/>
     <use xlink:href="#m7a685a534f" x="262.530238" y="161.011057" style="fill: #aba2c6; stroke: #6c6c6c"/>
     <use xlink:href="#m7a685a534f" x="257.830417" y="178.213919" style="fill: #aba2c6; stroke: #6c6c6c"/>
     <use xlink:href="#m7a685a534f" x="256.196934" y="33.48" style="fill: #aba2c6; stroke: #6c6c6c"/>
     <use xlink:href="#m7a685a534f" x="253.976861" y="184.68" style="fill: #aba2c6; stroke: #6c6c6c"/>
     <use xlink:href="#m7a685a534f" x="261.330683" y="166.838765" style="fill: #aba2c6; stroke: #6c6c6c"/>
     <use xlink:href="#m7a685a534f" x="259.206124" y="170.065589" style="fill: #aba2c6; stroke: #6c6c6c"/>
     <use xlink:href="#m7a685a534f" x="260.410764" y="184.68" style="fill: #aba2c6; stroke: #6c6c6c"/>
     <use xlink:href="#m7a685a534f" x="262.058868" y="184.68" style="fill: #aba2c6; stroke: #6c6c6c"/>
     <use xlink:href="#m7a685a534f" x="258.284876" y="184.68" style="fill: #aba2c6; stroke: #6c6c6c"/>
    </g>
   </g>
   <g id="PathCollection_5">
    <g clip-path="url(#p27ff7ce599)">
     <use xlink:href="#m7a685a534f" x="310.050313" y="82.289764" style="fill: #aba2c6; stroke: #6c6c6c"/>
     <use xlink:href="#m7a685a534f" x="318.164343" y="138.111332" style="fill: #aba2c6; stroke: #6c6c6c"/>
     <use xlink:href="#m7a685a534f" x="312.759354" y="182.152322" style="fill: #aba2c6; stroke: #6c6c6c"/>
     <use xlink:href="#m7a685a534f" x="311.385538" y="158.033926" style="fill: #aba2c6; stroke: #6c6c6c"/>
     <use xlink:href="#m7a685a534f" x="310.997325" y="174.066049" style="fill: #aba2c6; stroke: #6c6c6c"/>
     <use xlink:href="#m7a685a534f" x="316.764641" y="181.544398" style="fill: #aba2c6; stroke: #6c6c6c"/>
     <use xlink:href="#m7a685a534f" x="315.527695" y="161.300087" style="fill: #aba2c6; stroke: #6c6c6c"/>
     <use xlink:href="#m7a685a534f" x="310.759547" y="182.346442" style="fill: #aba2c6; stroke: #6c6c6c"/>
     <use xlink:href="#m7a685a534f" x="309.992023" y="51.528017" style="fill: #aba2c6; stroke: #6c6c6c"/>
     <use xlink:href="#m7a685a534f" x="314.162227" y="184.68" style="fill: #aba2c6; stroke: #6c6c6c"/>
     <use xlink:href="#m7a685a534f" x="316.820669" y="168.401808" style="fill: #aba2c6; stroke: #6c6c6c"/>
     <use xlink:href="#m7a685a534f" x="314.2441" y="173.412154" style="fill: #aba2c6; stroke: #6c6c6c"/>
     <use xlink:href="#m7a685a534f" x="309.600765" y="173.436169" style="fill: #aba2c6; stroke: #6c6c6c"/>
     <use xlink:href="#m7a685a534f" x="314.455442" y="173.271926" style="fill: #aba2c6; stroke: #6c6c6c"/>
     <use xlink:href="#m7a685a534f" x="308.653178" y="182.648449" style="fill: #aba2c6; stroke: #6c6c6c"/>
    </g>
   </g>
   <g id="PathCollection_6">
    <g clip-path="url(#p27ff7ce599)">
     <use xlink:href="#m7a685a534f" x="368.595357" y="162.161424" style="fill: #aba2c6; stroke: #6c6c6c"/>
     <use xlink:href="#m7a685a534f" x="364.623548" y="172.331782" style="fill: #aba2c6; stroke: #6c6c6c"/>
     <use xlink:href="#m7a685a534f" x="373.358232" y="182.152322" style="fill: #aba2c6; stroke: #6c6c6c"/>
     <use xlink:href="#m7a685a534f" x="365.844752" y="179.322444" style="fill: #aba2c6; stroke: #6c6c6c"/>
     <use xlink:href="#m7a685a534f" x="367.133848" y="118.172661" style="fill: #aba2c6; stroke: #6c6c6c"/>
     <use xlink:href="#m7a685a534f" x="371.52838" y="174.475303" style="fill: #aba2c6; stroke: #6c6c6c"/>
     <use xlink:href="#m7a685a534f" x="370.910583" y="180.547477" style="fill: #aba2c6; stroke: #6c6c6c"/>
     <use xlink:href="#m7a685a534f" x="371.523496" y="179.121218" style="fill: #aba2c6; stroke: #6c6c6c"/>
     <use xlink:href="#m7a685a534f" x="371.199428" y="158.333571" style="fill: #aba2c6; stroke: #6c6c6c"/>
     <use xlink:href="#m7a685a534f" x="368.093591" y="184.68" style="fill: #aba2c6; stroke: #6c6c6c"/>
     <use xlink:href="#m7a685a534f" x="363.337183" y="178.626386" style="fill: #aba2c6; stroke: #6c6c6c"/>
     <use xlink:href="#m7a685a534f" x="365.983453" y="181.33229" style="fill: #aba2c6; stroke: #6c6c6c"/>
     <use xlink:href="#m7a685a534f" x="369.184874" y="173.436169" style="fill: #aba2c6; stroke: #6c6c6c"/>
     <use xlink:href="#m7a685a534f" x="367.588144" y="173.271926" style="fill: #aba2c6; stroke: #6c6c6c"/>
     <use xlink:href="#m7a685a534f" x="367.308864" y="182.648449" style="fill: #aba2c6; stroke: #6c6c6c"/>
    </g>
   </g>
  </g>
 </g>
 <defs>
  <clipPath id="p2c67b37ba3">
   <rect x="54" y="25.92" width="152.181818" height="166.32"/>
  </clipPath>
  <clipPath id="p27ff7ce599">
   <rect x="236.618182" y="25.92" width="152.181818" height="166.32"/>
  </clipPath>
 </defs>
</svg>
