<?xml version="1.0" encoding="utf-8" standalone="no"?>
<!DOCTYPE svg PUBLIC "-//W3C//DTD SVG 1.1//EN"
  "http://www.w3.org/Graphics/SVG/1.1/DTD/svg11.dtd">
<svg xmlns:xlink="http://www.w3.org/1999/xlink" width="260.978125pt" height="188.684205pt" viewBox="0 0 260.978125 188.684205" xmlns="http://www.w3.org/2000/svg" version="1.1">
 <metadata>
  <rdf:RDF xmlns:dc="http://purl.org/dc/elements/1.1/" xmlns:cc="http://creativecommons.org/ns#" xmlns:rdf="http://www.w3.org/1999/02/22-rdf-syntax-ns#">
   <cc:Work>
    <dc:type rdf:resource="http://purl.org/dc/dcmitype/StillImage"/>
    <dc:date>2025-06-21T07:04:02.641083</dc:date>
    <dc:format>image/svg+xml</dc:format>
    <dc:creator>
     <cc:Agent>
      <dc:title>Matplotlib v3.9.2, https://matplotlib.org/</dc:title>
     </cc:Agent>
    </dc:creator>
   </cc:Work>
  </rdf:RDF>
 </metadata>
 <defs>
  <style type="text/css">*{stroke-linejoin: round; stroke-linecap: butt}</style>
 </defs>
 <g id="figure_1">
  <g id="patch_1">
   <path d="M 0 188.684205 
L 260.978125 188.684205 
L 260.978125 0 
L 0 0 
z
" style="fill: #ffffff"/>
  </g>
  <g id="axes_1">
   <g id="patch_2">
    <path d="M 30.578125 175.672486 
L 253.778125 175.672486 
L 253.778125 9.352486 
L 30.578125 9.352486 
z
" style="fill: #ffffff"/>
   </g>
   <g id="patch_3">
    <path d="M 58.478125 175.672486 
L 58.478125 175.672486 
L 58.478125 175.672486 
L 58.478125 175.672486 
z
" clip-path="url(#p37c071c77a)" style="fill: #3274a1; stroke: #3f3f3f; stroke-linejoin: miter"/>
   </g>
   <g id="patch_4">
    <path d="M 58.478125 175.672486 
L 58.478125 175.672486 
L 58.478125 175.672486 
L 58.478125 175.672486 
z
" clip-path="url(#p37c071c77a)" style="fill: #e1812c; stroke: #3f3f3f; stroke-linejoin: miter"/>
   </g>
   <g id="matplotlib.axis_1"/>
   <g id="matplotlib.axis_2">
    <g id="ytick_1">
     <g id="line2d_1">
      <defs>
       <path id="m99cab0b0bb" d="M 0 0 
L -3.5 0 
" style="stroke: #000000; stroke-width: 0.8"/>
      </defs>
      <g>
       <use xlink:href="#m99cab0b0bb" x="30.578125" y="175.672486" style="stroke: #000000; stroke-width: 0.8"/>
      </g>
     </g>
     <g id="text_1">
      <!-- 0 -->
      <g transform="translate(18.11875 179.471705) scale(0.1 -0.1)">
       <defs>
        <path id="Tahoma-30" d="M 3234 2328 
Q 3234 1075 2870 489 
Q 2506 -97 1747 -97 
Q 978 -97 618 500 
Q 259 1097 259 2322 
Q 259 3581 623 4164 
Q 988 4747 1747 4747 
Q 2516 4747 2875 4144 
Q 3234 3541 3234 2328 
z
M 2434 909 
Q 2525 1141 2562 1494 
Q 2600 1847 2600 2328 
Q 2600 2806 2562 3159 
Q 2525 3513 2431 3747 
Q 2338 3984 2173 4107 
Q 2009 4231 1747 4231 
Q 1488 4231 1320 4107 
Q 1153 3984 1056 3741 
Q 963 3503 928 3140 
Q 894 2778 894 2322 
Q 894 1834 923 1506 
Q 953 1178 1053 919 
Q 1144 678 1311 548 
Q 1478 419 1747 419 
Q 2006 419 2173 542 
Q 2341 666 2434 909 
z
" transform="scale(0.015625)"/>
       </defs>
       <use xlink:href="#Tahoma-30"/>
      </g>
     </g>
    </g>
    <g id="ytick_2">
     <g id="line2d_2">
      <g>
       <use xlink:href="#m99cab0b0bb" x="30.578125" y="142.737833" style="stroke: #000000; stroke-width: 0.8"/>
      </g>
     </g>
     <g id="text_2">
      <!-- 20 -->
      <g transform="translate(12.659375 146.537051) scale(0.1 -0.1)">
       <defs>
        <path id="Tahoma-32" d="M 3213 0 
L 341 0 
L 341 653 
Q 650 947 925 1215 
Q 1200 1484 1463 1775 
Q 1994 2359 2187 2711 
Q 2381 3063 2381 3438 
Q 2381 3631 2320 3778 
Q 2259 3925 2153 4022 
Q 2044 4116 1900 4162 
Q 1756 4209 1584 4209 
Q 1419 4209 1248 4167 
Q 1078 4125 922 4063 
Q 791 4009 669 3934 
Q 547 3859 472 3806 
L 438 3806 
L 438 4469 
Q 631 4566 976 4658 
Q 1322 4750 1631 4750 
Q 2281 4750 2650 4404 
Q 3019 4059 3019 3469 
Q 3019 3197 2955 2965 
Q 2891 2734 2778 2538 
Q 2663 2334 2500 2134 
Q 2338 1934 2156 1741 
Q 1863 1422 1502 1078 
Q 1141 734 925 534 
L 3213 534 
L 3213 0 
z
" transform="scale(0.015625)"/>
       </defs>
       <use xlink:href="#Tahoma-32"/>
       <use xlink:href="#Tahoma-30" x="54.589844"/>
      </g>
     </g>
    </g>
    <g id="ytick_3">
     <g id="line2d_3">
      <g>
       <use xlink:href="#m99cab0b0bb" x="30.578125" y="109.803179" style="stroke: #000000; stroke-width: 0.8"/>
      </g>
     </g>
     <g id="text_3">
      <!-- 40 -->
      <g transform="translate(12.659375 113.602398) scale(0.1 -0.1)">
       <defs>
        <path id="Tahoma-34" d="M 3334 1600 
L 2781 1600 
L 2781 0 
L 2181 0 
L 2181 1600 
L 125 1600 
L 125 2256 
L 2206 4653 
L 2781 4653 
L 2781 2100 
L 3334 2100 
L 3334 1600 
z
M 2181 2100 
L 2181 3919 
L 613 2100 
L 2181 2100 
z
" transform="scale(0.015625)"/>
       </defs>
       <use xlink:href="#Tahoma-34"/>
       <use xlink:href="#Tahoma-30" x="54.589844"/>
      </g>
     </g>
    </g>
    <g id="ytick_4">
     <g id="line2d_4">
      <g>
       <use xlink:href="#m99cab0b0bb" x="30.578125" y="76.868526" style="stroke: #000000; stroke-width: 0.8"/>
      </g>
     </g>
     <g id="text_4">
      <!-- 60 -->
      <g transform="translate(12.659375 80.667744) scale(0.1 -0.1)">
       <defs>
        <path id="Tahoma-36" d="M 3284 1509 
Q 3284 1150 3165 847 
Q 3047 544 2847 341 
Q 2638 125 2378 14 
Q 2119 -97 1806 -97 
Q 1491 -97 1233 9 
Q 975 116 778 325 
Q 538 578 402 1001 
Q 266 1425 266 2044 
Q 266 2650 391 3139 
Q 516 3628 775 3991 
Q 1028 4344 1428 4542 
Q 1828 4741 2353 4741 
Q 2509 4741 2643 4725 
Q 2778 4709 2881 4675 
L 2881 4078 
L 2853 4078 
Q 2769 4125 2609 4164 
Q 2450 4203 2269 4203 
Q 1688 4203 1330 3811 
Q 972 3419 906 2647 
Q 1128 2803 1362 2887 
Q 1597 2972 1875 2972 
Q 2147 2972 2351 2917 
Q 2556 2863 2778 2697 
Q 3034 2503 3159 2206 
Q 3284 1909 3284 1509 
z
M 2650 1484 
Q 2650 1772 2575 1965 
Q 2500 2159 2331 2297 
Q 2209 2397 2054 2428 
Q 1900 2459 1738 2459 
Q 1519 2459 1312 2393 
Q 1106 2328 906 2203 
Q 900 2134 897 2070 
Q 894 2006 894 1909 
Q 894 1425 989 1128 
Q 1084 831 1225 678 
Q 1359 531 1501 472 
Q 1644 413 1809 413 
Q 2184 413 2417 681 
Q 2650 950 2650 1484 
z
" transform="scale(0.015625)"/>
       </defs>
       <use xlink:href="#Tahoma-36"/>
       <use xlink:href="#Tahoma-30" x="54.589844"/>
      </g>
     </g>
    </g>
    <g id="ytick_5">
     <g id="line2d_5">
      <g>
       <use xlink:href="#m99cab0b0bb" x="30.578125" y="43.933872" style="stroke: #000000; stroke-width: 0.8"/>
      </g>
     </g>
     <g id="text_5">
      <!-- 80 -->
      <g transform="translate(12.659375 47.733091) scale(0.1 -0.1)">
       <defs>
        <path id="Tahoma-38" d="M 2534 3569 
Q 2534 3881 2325 4090 
Q 2116 4300 1744 4300 
Q 1403 4300 1186 4112 
Q 969 3925 969 3606 
Q 969 3375 1080 3215 
Q 1191 3056 1413 2928 
Q 1509 2875 1707 2781 
Q 1906 2688 2069 2634 
Q 2341 2844 2437 3064 
Q 2534 3284 2534 3569 
z
M 2622 1238 
Q 2622 1525 2509 1694 
Q 2397 1863 2075 2038 
Q 1969 2097 1792 2165 
Q 1616 2234 1394 2328 
Q 1134 2156 996 1904 
Q 859 1653 859 1331 
Q 859 909 1114 634 
Q 1369 359 1753 359 
Q 2147 359 2384 595 
Q 2622 831 2622 1238 
z
M 1747 -106 
Q 1400 -106 1115 -3 
Q 831 100 631 294 
Q 434 481 332 739 
Q 231 997 231 1284 
Q 231 1663 432 1980 
Q 634 2297 1019 2484 
L 1019 2503 
Q 675 2703 509 2940 
Q 344 3178 344 3534 
Q 344 4059 741 4409 
Q 1138 4759 1747 4759 
Q 2381 4759 2764 4426 
Q 3147 4094 3147 3575 
Q 3147 3263 2964 2956 
Q 2781 2650 2438 2478 
L 2438 2459 
Q 2844 2269 3053 1997 
Q 3263 1725 3263 1297 
Q 3263 700 2830 297 
Q 2397 -106 1747 -106 
z
" transform="scale(0.015625)"/>
       </defs>
       <use xlink:href="#Tahoma-38"/>
       <use xlink:href="#Tahoma-30" x="54.589844"/>
      </g>
     </g>
    </g>
    <g id="ytick_6">
     <g id="line2d_6">
      <g>
       <use xlink:href="#m99cab0b0bb" x="30.578125" y="10.999219" style="stroke: #000000; stroke-width: 0.8"/>
      </g>
     </g>
     <g id="text_6">
      <!-- 100 -->
      <g transform="translate(7.2 14.798437) scale(0.1 -0.1)">
       <defs>
        <path id="Tahoma-31" d="M 2975 0 
L 706 0 
L 706 475 
L 1550 475 
L 1550 3594 
L 706 3594 
L 706 4019 
Q 1184 4019 1411 4155 
Q 1638 4291 1666 4669 
L 2150 4669 
L 2150 475 
L 2975 475 
L 2975 0 
z
" transform="scale(0.015625)"/>
       </defs>
       <use xlink:href="#Tahoma-31"/>
       <use xlink:href="#Tahoma-30" x="54.589844"/>
       <use xlink:href="#Tahoma-30" x="109.179688"/>
      </g>
     </g>
    </g>
   </g>
   <g id="patch_5">
    <path d="M 30.578125 175.672486 
L 30.578125 9.352486 
" style="fill: none; stroke: #000000; stroke-width: 0.8; stroke-linejoin: miter; stroke-linecap: square"/>
   </g>
   <g id="patch_6">
    <path d="M 253.778125 175.672486 
L 253.778125 9.352486 
" style="fill: none; stroke: #000000; stroke-width: 0.8; stroke-linejoin: miter; stroke-linecap: square"/>
   </g>
   <g id="patch_7">
    <path d="M 30.578125 175.672486 
L 253.778125 175.672486 
" style="fill: none; stroke: #000000; stroke-width: 0.8; stroke-linejoin: miter; stroke-linecap: square"/>
   </g>
   <g id="patch_8">
    <path d="M 30.578125 9.352486 
L 253.778125 9.352486 
" style="fill: none; stroke: #000000; stroke-width: 0.8; stroke-linejoin: miter; stroke-linecap: square"/>
   </g>
   <g id="PathCollection_1">
    <defs>
     <path id="C0_0_b91eb33349" d="M 0 4 
C 1.060812 4 2.078319 3.578535 2.828427 2.828427 
C 3.578535 2.078319 4 1.060812 4 -0 
C 4 -1.060812 3.578535 -2.078319 2.828427 -2.828427 
C 2.078319 -3.578535 1.060812 -4 0 -4 
C -1.060812 -4 -2.078319 -3.578535 -2.828427 -2.828427 
C -3.578535 -2.078319 -4 -1.060812 -4 0 
C -4 1.060812 -3.578535 2.078319 -2.828427 2.828427 
C -2.078319 3.578535 -1.060812 4 0 4 
z
"/>
    </defs>
    <g clip-path="url(#p37c071c77a)">
     <use xlink:href="#C0_0_b91eb33349" x="45.510844" y="20.497784" style="fill: #b2849a; stroke: #343434"/>
    </g>
    <g clip-path="url(#p37c071c77a)">
     <use xlink:href="#C0_0_b91eb33349" x="45.730346" y="44.829475" style="fill: #b2849a; stroke: #343434"/>
    </g>
    <g clip-path="url(#p37c071c77a)">
     <use xlink:href="#C0_0_b91eb33349" x="49.15349" y="16.189114" style="fill: #b2849a; stroke: #343434"/>
    </g>
    <g clip-path="url(#p37c071c77a)">
     <use xlink:href="#C0_0_b91eb33349" x="45.045903" y="31.585664" style="fill: #b2849a; stroke: #343434"/>
    </g>
    <g clip-path="url(#p37c071c77a)">
     <use xlink:href="#C0_0_b91eb33349" x="44.845853" y="33.395657" style="fill: #b2849a; stroke: #343434"/>
    </g>
    <g clip-path="url(#p37c071c77a)">
     <use xlink:href="#C0_0_b91eb33349" x="46.664643" y="32.81841" style="fill: #b2849a; stroke: #343434"/>
    </g>
    <g clip-path="url(#p37c071c77a)">
     <use xlink:href="#C0_0_b91eb33349" x="47.783163" y="87.638107" style="fill: #b2849a; stroke: #343434"/>
    </g>
    <g clip-path="url(#p37c071c77a)">
     <use xlink:href="#C0_0_b91eb33349" x="44.576858" y="54.486044" style="fill: #b2849a; stroke: #343434"/>
    </g>
    <g clip-path="url(#p37c071c77a)">
     <use xlink:href="#C0_0_b91eb33349" x="44.749093" y="42.938733" style="fill: #b2849a; stroke: #343434"/>
    </g>
    <g clip-path="url(#p37c071c77a)">
     <use xlink:href="#C0_0_b91eb33349" x="46.009931" y="67.077828" style="fill: #b2849a; stroke: #343434"/>
    </g>
    <g clip-path="url(#p37c071c77a)">
     <use xlink:href="#C0_0_b91eb33349" x="46.519228" y="30.215426" style="fill: #b2849a; stroke: #343434"/>
    </g>
    <g clip-path="url(#p37c071c77a)">
     <use xlink:href="#C0_0_b91eb33349" x="48.038852" y="39.8218" style="fill: #b2849a; stroke: #343434"/>
    </g>
    <g clip-path="url(#p37c071c77a)">
     <use xlink:href="#C0_0_b91eb33349" x="49.620439" y="36.048396" style="fill: #b2849a; stroke: #343434"/>
    </g>
    <g clip-path="url(#p37c071c77a)">
     <use xlink:href="#C0_0_b91eb33349" x="44.68394" y="53.786296" style="fill: #b2849a; stroke: #343434"/>
    </g>
    <g clip-path="url(#p37c071c77a)">
     <use xlink:href="#C0_0_b91eb33349" x="49.454473" y="58.28995" style="fill: #b2849a; stroke: #343434"/>
    </g>
    <g clip-path="url(#p37c071c77a)">
     <use xlink:href="#C0_0_b91eb33349" x="46.076662" y="47.610436" style="fill: #b2849a; stroke: #343434"/>
    </g>
    <g clip-path="url(#p37c071c77a)">
     <use xlink:href="#C0_0_b91eb33349" x="46.753419" y="50.059907" style="fill: #b2849a; stroke: #343434"/>
    </g>
    <g clip-path="url(#p37c071c77a)">
     <use xlink:href="#C0_0_b91eb33349" x="47.090341" y="37.501943" style="fill: #b2849a; stroke: #343434"/>
    </g>
    <g clip-path="url(#p37c071c77a)">
     <use xlink:href="#C0_0_b91eb33349" x="47.172381" y="37.156233" style="fill: #b2849a; stroke: #343434"/>
    </g>
   </g>
   <g id="PathCollection_2">
    <defs>
     <path id="C1_0_5da7d285cc" d="M 0 4 
C 1.060812 4 2.078319 3.578535 2.828427 2.828427 
C 3.578535 2.078319 4 1.060812 4 -0 
C 4 -1.060812 3.578535 -2.078319 2.828427 -2.828427 
C 2.078319 -3.578535 1.060812 -4 0 -4 
C -1.060812 -4 -2.078319 -3.578535 -2.828427 -2.828427 
C -3.578535 -2.078319 -4 -1.060812 -4 0 
C -4 1.060812 -3.578535 2.078319 -2.828427 2.828427 
C -2.078319 3.578535 -1.060812 4 0 4 
z
"/>
    </defs>
    <g clip-path="url(#p37c071c77a)">
     <use xlink:href="#C1_0_5da7d285cc" x="68.610834" y="14.93243" style="fill: #911c1c; stroke: #343434"/>
    </g>
    <g clip-path="url(#p37c071c77a)">
     <use xlink:href="#C1_0_5da7d285cc" x="70.416405" y="11.611661" style="fill: #911c1c; stroke: #343434"/>
    </g>
    <g clip-path="url(#p37c071c77a)">
     <use xlink:href="#C1_0_5da7d285cc" x="70.549322" y="12.967214" style="fill: #911c1c; stroke: #343434"/>
    </g>
    <g clip-path="url(#p37c071c77a)">
     <use xlink:href="#C1_0_5da7d285cc" x="69.898268" y="20.074509" style="fill: #911c1c; stroke: #343434"/>
    </g>
    <g clip-path="url(#p37c071c77a)">
     <use xlink:href="#C1_0_5da7d285cc" x="70.769044" y="16.190017" style="fill: #911c1c; stroke: #343434"/>
    </g>
    <g clip-path="url(#p37c071c77a)">
     <use xlink:href="#C1_0_5da7d285cc" x="71.430327" y="16.742804" style="fill: #911c1c; stroke: #343434"/>
    </g>
    <g clip-path="url(#p37c071c77a)">
     <use xlink:href="#C1_0_5da7d285cc" x="70.849882" y="11.81975" style="fill: #911c1c; stroke: #343434"/>
    </g>
    <g clip-path="url(#p37c071c77a)">
     <use xlink:href="#C1_0_5da7d285cc" x="71.930424" y="30.673724" style="fill: #911c1c; stroke: #343434"/>
    </g>
    <g clip-path="url(#p37c071c77a)">
     <use xlink:href="#C1_0_5da7d285cc" x="67.135245" y="15.921488" style="fill: #911c1c; stroke: #343434"/>
    </g>
    <g clip-path="url(#p37c071c77a)">
     <use xlink:href="#C1_0_5da7d285cc" x="71.67127" y="13.842419" style="fill: #911c1c; stroke: #343434"/>
    </g>
    <g clip-path="url(#p37c071c77a)">
     <use xlink:href="#C1_0_5da7d285cc" x="67.603498" y="13.790254" style="fill: #911c1c; stroke: #343434"/>
    </g>
    <g clip-path="url(#p37c071c77a)">
     <use xlink:href="#C1_0_5da7d285cc" x="67.785637" y="11.357526" style="fill: #911c1c; stroke: #343434"/>
    </g>
    <g clip-path="url(#p37c071c77a)">
     <use xlink:href="#C1_0_5da7d285cc" x="72.083379" y="12.068562" style="fill: #911c1c; stroke: #343434"/>
    </g>
    <g clip-path="url(#p37c071c77a)">
     <use xlink:href="#C1_0_5da7d285cc" x="67.435803" y="21.231921" style="fill: #911c1c; stroke: #343434"/>
    </g>
    <g clip-path="url(#p37c071c77a)">
     <use xlink:href="#C1_0_5da7d285cc" x="67.284696" y="14.498196" style="fill: #911c1c; stroke: #343434"/>
    </g>
    <g clip-path="url(#p37c071c77a)">
     <use xlink:href="#C1_0_5da7d285cc" x="68.631593" y="20.508482" style="fill: #911c1c; stroke: #343434"/>
    </g>
    <g clip-path="url(#p37c071c77a)">
     <use xlink:href="#C1_0_5da7d285cc" x="67.069691" y="13.143986" style="fill: #911c1c; stroke: #343434"/>
    </g>
    <g clip-path="url(#p37c071c77a)">
     <use xlink:href="#C1_0_5da7d285cc" x="67.987082" y="28.353835" style="fill: #911c1c; stroke: #343434"/>
    </g>
    <g clip-path="url(#p37c071c77a)">
     <use xlink:href="#C1_0_5da7d285cc" x="70.466107" y="11.784249" style="fill: #911c1c; stroke: #343434"/>
    </g>
    <g clip-path="url(#p37c071c77a)">
     <use xlink:href="#C1_0_5da7d285cc" x="68.39618" y="11.300939" style="fill: #911c1c; stroke: #343434"/>
    </g>
   </g>
   <g id="PathCollection_3">
    <defs>
     <path id="C2_0_3983d8efe6" d="M 0 4 
C 1.060812 4 2.078319 3.578535 2.828427 2.828427 
C 3.578535 2.078319 4 1.060812 4 -0 
C 4 -1.060812 3.578535 -2.078319 2.828427 -2.828427 
C 2.078319 -3.578535 1.060812 -4 0 -4 
C -1.060812 -4 -2.078319 -3.578535 -2.828427 -2.828427 
C -3.578535 -2.078319 -4 -1.060812 -4 0 
C -4 1.060812 -3.578535 2.078319 -2.828427 2.828427 
C -2.078319 3.578535 -1.060812 4 0 4 
z
"/>
    </defs>
    <g clip-path="url(#p37c071c77a)">
     <use xlink:href="#C2_0_3983d8efe6" x="104.125641" y="112.934119" style="fill: #b2849a; stroke: #343434"/>
    </g>
    <g clip-path="url(#p37c071c77a)">
     <use xlink:href="#C2_0_3983d8efe6" x="104.330863" y="92.659297" style="fill: #b2849a; stroke: #343434"/>
    </g>
    <g clip-path="url(#p37c071c77a)">
     <use xlink:href="#C2_0_3983d8efe6" x="104.134518" y="96.923763" style="fill: #b2849a; stroke: #343434"/>
    </g>
    <g clip-path="url(#p37c071c77a)">
     <use xlink:href="#C2_0_3983d8efe6" x="103.575749" y="48.640257" style="fill: #b2849a; stroke: #343434"/>
    </g>
    <g clip-path="url(#p37c071c77a)">
     <use xlink:href="#C2_0_3983d8efe6" x="105.271152" y="56.504884" style="fill: #b2849a; stroke: #343434"/>
    </g>
    <g clip-path="url(#p37c071c77a)">
     <use xlink:href="#C2_0_3983d8efe6" x="104.376162" y="42.508957" style="fill: #b2849a; stroke: #343434"/>
    </g>
    <g clip-path="url(#p37c071c77a)">
     <use xlink:href="#C2_0_3983d8efe6" x="102.99535" y="44.844317" style="fill: #b2849a; stroke: #343434"/>
    </g>
    <g clip-path="url(#p37c071c77a)">
     <use xlink:href="#C2_0_3983d8efe6" x="101.145409" y="82.075462" style="fill: #b2849a; stroke: #343434"/>
    </g>
    <g clip-path="url(#p37c071c77a)">
     <use xlink:href="#C2_0_3983d8efe6" x="103.672599" y="103.956927" style="fill: #b2849a; stroke: #343434"/>
    </g>
    <g clip-path="url(#p37c071c77a)">
     <use xlink:href="#C2_0_3983d8efe6" x="104.176175" y="45.241275" style="fill: #b2849a; stroke: #343434"/>
    </g>
    <g clip-path="url(#p37c071c77a)">
     <use xlink:href="#C2_0_3983d8efe6" x="101.054995" y="123.703412" style="fill: #b2849a; stroke: #343434"/>
    </g>
    <g clip-path="url(#p37c071c77a)">
     <use xlink:href="#C2_0_3983d8efe6" x="103.149826" y="81.419052" style="fill: #b2849a; stroke: #343434"/>
    </g>
    <g clip-path="url(#p37c071c77a)">
     <use xlink:href="#C2_0_3983d8efe6" x="103.636664" y="35.280173" style="fill: #b2849a; stroke: #343434"/>
    </g>
    <g clip-path="url(#p37c071c77a)">
     <use xlink:href="#C2_0_3983d8efe6" x="102.108302" y="82.923983" style="fill: #b2849a; stroke: #343434"/>
    </g>
    <g clip-path="url(#p37c071c77a)">
     <use xlink:href="#C2_0_3983d8efe6" x="104.367606" y="36.37464" style="fill: #b2849a; stroke: #343434"/>
    </g>
    <g clip-path="url(#p37c071c77a)">
     <use xlink:href="#C2_0_3983d8efe6" x="104.344963" y="45.438464" style="fill: #b2849a; stroke: #343434"/>
    </g>
    <g clip-path="url(#p37c071c77a)">
     <use xlink:href="#C2_0_3983d8efe6" x="103.733322" y="59.526401" style="fill: #b2849a; stroke: #343434"/>
    </g>
    <g clip-path="url(#p37c071c77a)">
     <use xlink:href="#C2_0_3983d8efe6" x="102.073157" y="92.568357" style="fill: #b2849a; stroke: #343434"/>
    </g>
    <g clip-path="url(#p37c071c77a)">
     <use xlink:href="#C2_0_3983d8efe6" x="102.042947" y="108.425781" style="fill: #b2849a; stroke: #343434"/>
    </g>
   </g>
   <g id="PathCollection_4">
    <defs>
     <path id="C3_0_e1bac82c1c" d="M 0 4 
C 1.060812 4 2.078319 3.578535 2.828427 2.828427 
C 3.578535 2.078319 4 1.060812 4 -0 
C 4 -1.060812 3.578535 -2.078319 2.828427 -2.828427 
C 2.078319 -3.578535 1.060812 -4 0 -4 
C -1.060812 -4 -2.078319 -3.578535 -2.828427 -2.828427 
C -3.578535 -2.078319 -4 -1.060812 -4 0 
C -4 1.060812 -3.578535 2.078319 -2.828427 2.828427 
C -2.078319 3.578535 -1.060812 4 0 4 
z
"/>
    </defs>
    <g clip-path="url(#p37c071c77a)">
     <use xlink:href="#C3_0_e1bac82c1c" x="124.023356" y="166.482669" style="fill: #911c1c; stroke: #343434"/>
    </g>
    <g clip-path="url(#p37c071c77a)">
     <use xlink:href="#C3_0_e1bac82c1c" x="126.323223" y="173.172885" style="fill: #911c1c; stroke: #343434"/>
    </g>
    <g clip-path="url(#p37c071c77a)">
     <use xlink:href="#C3_0_e1bac82c1c" x="126.4369" y="169.414454" style="fill: #911c1c; stroke: #343434"/>
    </g>
    <g clip-path="url(#p37c071c77a)">
     <use xlink:href="#C3_0_e1bac82c1c" x="126.616911" y="159.684182" style="fill: #911c1c; stroke: #343434"/>
    </g>
    <g clip-path="url(#p37c071c77a)">
     <use xlink:href="#C3_0_e1bac82c1c" x="123.574676" y="161.034539" style="fill: #911c1c; stroke: #343434"/>
    </g>
    <g clip-path="url(#p37c071c77a)">
     <use xlink:href="#C3_0_e1bac82c1c" x="124.839699" y="161.038174" style="fill: #911c1c; stroke: #343434"/>
    </g>
    <g clip-path="url(#p37c071c77a)">
     <use xlink:href="#C3_0_e1bac82c1c" x="125.718341" y="170.936023" style="fill: #911c1c; stroke: #343434"/>
    </g>
    <g clip-path="url(#p37c071c77a)">
     <use xlink:href="#C3_0_e1bac82c1c" x="127.073235" y="147.83157" style="fill: #911c1c; stroke: #343434"/>
    </g>
    <g clip-path="url(#p37c071c77a)">
     <use xlink:href="#C3_0_e1bac82c1c" x="123.815654" y="165.459362" style="fill: #911c1c; stroke: #343434"/>
    </g>
    <g clip-path="url(#p37c071c77a)">
     <use xlink:href="#C3_0_e1bac82c1c" x="124.173101" y="167.989134" style="fill: #911c1c; stroke: #343434"/>
    </g>
    <g clip-path="url(#p37c071c77a)">
     <use xlink:href="#C3_0_e1bac82c1c" x="125.533553" y="168.526063" style="fill: #911c1c; stroke: #343434"/>
    </g>
    <g clip-path="url(#p37c071c77a)">
     <use xlink:href="#C3_0_e1bac82c1c" x="126.748678" y="174.406584" style="fill: #911c1c; stroke: #343434"/>
    </g>
    <g clip-path="url(#p37c071c77a)">
     <use xlink:href="#C3_0_e1bac82c1c" x="126.114941" y="172.584617" style="fill: #911c1c; stroke: #343434"/>
    </g>
    <g clip-path="url(#p37c071c77a)">
     <use xlink:href="#C3_0_e1bac82c1c" x="127.19829" y="152.788959" style="fill: #911c1c; stroke: #343434"/>
    </g>
    <g clip-path="url(#p37c071c77a)">
     <use xlink:href="#C3_0_e1bac82c1c" x="126.845152" y="164.798185" style="fill: #911c1c; stroke: #343434"/>
    </g>
    <g clip-path="url(#p37c071c77a)">
     <use xlink:href="#C3_0_e1bac82c1c" x="122.977182" y="150.494718" style="fill: #911c1c; stroke: #343434"/>
    </g>
    <g clip-path="url(#p37c071c77a)">
     <use xlink:href="#C3_0_e1bac82c1c" x="127.894293" y="171.122419" style="fill: #911c1c; stroke: #343434"/>
    </g>
    <g clip-path="url(#p37c071c77a)">
     <use xlink:href="#C3_0_e1bac82c1c" x="125.868676" y="90.537026" style="fill: #911c1c; stroke: #343434"/>
    </g>
    <g clip-path="url(#p37c071c77a)">
     <use xlink:href="#C3_0_e1bac82c1c" x="123.340906" y="171.635336" style="fill: #911c1c; stroke: #343434"/>
    </g>
    <g clip-path="url(#p37c071c77a)">
     <use xlink:href="#C3_0_e1bac82c1c" x="125.53498" y="174.73884" style="fill: #911c1c; stroke: #343434"/>
    </g>
   </g>
   <g id="PathCollection_5">
    <defs>
     <path id="C4_0_8924804b5d" d="M 0 4 
C 1.060812 4 2.078319 3.578535 2.828427 2.828427 
C 3.578535 2.078319 4 1.060812 4 -0 
C 4 -1.060812 3.578535 -2.078319 2.828427 -2.828427 
C 2.078319 -3.578535 1.060812 -4 0 -4 
C -1.060812 -4 -2.078319 -3.578535 -2.828427 -2.828427 
C -3.578535 -2.078319 -4 -1.060812 -4 0 
C -4 1.060812 -3.578535 2.078319 -2.828427 2.828427 
C -2.078319 3.578535 -1.060812 4 0 4 
z
"/>
    </defs>
    <g clip-path="url(#p37c071c77a)">
     <use xlink:href="#C4_0_8924804b5d" x="160.812281" y="74.01455" style="fill: #b2849a; stroke: #343434"/>
    </g>
    <g clip-path="url(#p37c071c77a)">
     <use xlink:href="#C4_0_8924804b5d" x="157.71755" y="89.594076" style="fill: #b2849a; stroke: #343434"/>
    </g>
    <g clip-path="url(#p37c071c77a)">
     <use xlink:href="#C4_0_8924804b5d" x="161.35764" y="93.825715" style="fill: #b2849a; stroke: #343434"/>
    </g>
    <g clip-path="url(#p37c071c77a)">
     <use xlink:href="#C4_0_8924804b5d" x="161.346509" y="130.319737" style="fill: #b2849a; stroke: #343434"/>
    </g>
    <g clip-path="url(#p37c071c77a)">
     <use xlink:href="#C4_0_8924804b5d" x="156.963032" y="45.876346" style="fill: #b2849a; stroke: #343434"/>
    </g>
    <g clip-path="url(#p37c071c77a)">
     <use xlink:href="#C4_0_8924804b5d" x="159.525822" y="118.00784" style="fill: #b2849a; stroke: #343434"/>
    </g>
    <g clip-path="url(#p37c071c77a)">
     <use xlink:href="#C4_0_8924804b5d" x="159.24868" y="132.961927" style="fill: #b2849a; stroke: #343434"/>
    </g>
    <g clip-path="url(#p37c071c77a)">
     <use xlink:href="#C4_0_8924804b5d" x="157.35396" y="87.955453" style="fill: #b2849a; stroke: #343434"/>
    </g>
    <g clip-path="url(#p37c071c77a)">
     <use xlink:href="#C4_0_8924804b5d" x="156.536944" y="78.867593" style="fill: #b2849a; stroke: #343434"/>
    </g>
    <g clip-path="url(#p37c071c77a)">
     <use xlink:href="#C4_0_8924804b5d" x="158.339487" y="128.956579" style="fill: #b2849a; stroke: #343434"/>
    </g>
    <g clip-path="url(#p37c071c77a)">
     <use xlink:href="#C4_0_8924804b5d" x="159.141615" y="60.207738" style="fill: #b2849a; stroke: #343434"/>
    </g>
    <g clip-path="url(#p37c071c77a)">
     <use xlink:href="#C4_0_8924804b5d" x="158.999036" y="85.780883" style="fill: #b2849a; stroke: #343434"/>
    </g>
    <g clip-path="url(#p37c071c77a)">
     <use xlink:href="#C4_0_8924804b5d" x="160.573746" y="91.787858" style="fill: #b2849a; stroke: #343434"/>
    </g>
    <g clip-path="url(#p37c071c77a)">
     <use xlink:href="#C4_0_8924804b5d" x="161.272607" y="104.291623" style="fill: #b2849a; stroke: #343434"/>
    </g>
    <g clip-path="url(#p37c071c77a)">
     <use xlink:href="#C4_0_8924804b5d" x="158.997093" y="127.377442" style="fill: #b2849a; stroke: #343434"/>
    </g>
    <g clip-path="url(#p37c071c77a)">
     <use xlink:href="#C4_0_8924804b5d" x="160.802676" y="136.354241" style="fill: #b2849a; stroke: #343434"/>
    </g>
    <g clip-path="url(#p37c071c77a)">
     <use xlink:href="#C4_0_8924804b5d" x="157.640558" y="111.507885" style="fill: #b2849a; stroke: #343434"/>
    </g>
    <g clip-path="url(#p37c071c77a)">
     <use xlink:href="#C4_0_8924804b5d" x="157.74882" y="87.555489" style="fill: #b2849a; stroke: #343434"/>
    </g>
    <g clip-path="url(#p37c071c77a)">
     <use xlink:href="#C4_0_8924804b5d" x="159.315155" y="74.189308" style="fill: #b2849a; stroke: #343434"/>
    </g>
   </g>
   <g id="PathCollection_6">
    <defs>
     <path id="C5_0_a3eb3e24f9" d="M 0 4 
C 1.060812 4 2.078319 3.578535 2.828427 2.828427 
C 3.578535 2.078319 4 1.060812 4 -0 
C 4 -1.060812 3.578535 -2.078319 2.828427 -2.828427 
C 2.078319 -3.578535 1.060812 -4 0 -4 
C -1.060812 -4 -2.078319 -3.578535 -2.828427 -2.828427 
C -3.578535 -2.078319 -4 -1.060812 -4 0 
C -4 1.060812 -3.578535 2.078319 -2.828427 2.828427 
C -2.078319 3.578535 -1.060812 4 0 4 
z
"/>
    </defs>
    <g clip-path="url(#p37c071c77a)">
     <use xlink:href="#C5_0_a3eb3e24f9" x="183.074646" y="19.932005" style="fill: #911c1c; stroke: #343434"/>
    </g>
    <g clip-path="url(#p37c071c77a)">
     <use xlink:href="#C5_0_a3eb3e24f9" x="181.401728" y="13.547896" style="fill: #911c1c; stroke: #343434"/>
    </g>
    <g clip-path="url(#p37c071c77a)">
     <use xlink:href="#C5_0_a3eb3e24f9" x="181.622662" y="20.015669" style="fill: #911c1c; stroke: #343434"/>
    </g>
    <g clip-path="url(#p37c071c77a)">
     <use xlink:href="#C5_0_a3eb3e24f9" x="180.783834" y="26.976016" style="fill: #911c1c; stroke: #343434"/>
    </g>
    <g clip-path="url(#p37c071c77a)">
     <use xlink:href="#C5_0_a3eb3e24f9" x="178.813839" y="22.03142" style="fill: #911c1c; stroke: #343434"/>
    </g>
    <g clip-path="url(#p37c071c77a)">
     <use xlink:href="#C5_0_a3eb3e24f9" x="181.801073" y="25.624312" style="fill: #911c1c; stroke: #343434"/>
    </g>
    <g clip-path="url(#p37c071c77a)">
     <use xlink:href="#C5_0_a3eb3e24f9" x="183.084679" y="16.660565" style="fill: #911c1c; stroke: #343434"/>
    </g>
    <g clip-path="url(#p37c071c77a)">
     <use xlink:href="#C5_0_a3eb3e24f9" x="179.747292" y="44.62905" style="fill: #911c1c; stroke: #343434"/>
    </g>
    <g clip-path="url(#p37c071c77a)">
     <use xlink:href="#C5_0_a3eb3e24f9" x="181.848257" y="21.226939" style="fill: #911c1c; stroke: #343434"/>
    </g>
    <g clip-path="url(#p37c071c77a)">
     <use xlink:href="#C5_0_a3eb3e24f9" x="180.548805" y="18.973994" style="fill: #911c1c; stroke: #343434"/>
    </g>
    <g clip-path="url(#p37c071c77a)">
     <use xlink:href="#C5_0_a3eb3e24f9" x="183.17613" y="18.21992" style="fill: #911c1c; stroke: #343434"/>
    </g>
    <g clip-path="url(#p37c071c77a)">
     <use xlink:href="#C5_0_a3eb3e24f9" x="180.878882" y="12.372888" style="fill: #911c1c; stroke: #343434"/>
    </g>
    <g clip-path="url(#p37c071c77a)">
     <use xlink:href="#C5_0_a3eb3e24f9" x="181.83242" y="17.31555" style="fill: #911c1c; stroke: #343434"/>
    </g>
    <g clip-path="url(#p37c071c77a)">
     <use xlink:href="#C5_0_a3eb3e24f9" x="183.374022" y="34.91629" style="fill: #911c1c; stroke: #343434"/>
    </g>
    <g clip-path="url(#p37c071c77a)">
     <use xlink:href="#C5_0_a3eb3e24f9" x="179.475132" y="22.21244" style="fill: #911c1c; stroke: #343434"/>
    </g>
    <g clip-path="url(#p37c071c77a)">
     <use xlink:href="#C5_0_a3eb3e24f9" x="181.330184" y="38.267592" style="fill: #911c1c; stroke: #343434"/>
    </g>
    <g clip-path="url(#p37c071c77a)">
     <use xlink:href="#C5_0_a3eb3e24f9" x="180.454997" y="15.83101" style="fill: #911c1c; stroke: #343434"/>
    </g>
    <g clip-path="url(#p37c071c77a)">
     <use xlink:href="#C5_0_a3eb3e24f9" x="179.133678" y="66.877267" style="fill: #911c1c; stroke: #343434"/>
    </g>
    <g clip-path="url(#p37c071c77a)">
     <use xlink:href="#C5_0_a3eb3e24f9" x="181.410115" y="13.475935" style="fill: #911c1c; stroke: #343434"/>
    </g>
    <g clip-path="url(#p37c071c77a)">
     <use xlink:href="#C5_0_a3eb3e24f9" x="180.879641" y="12.340382" style="fill: #911c1c; stroke: #343434"/>
    </g>
   </g>
   <g id="PathCollection_7">
    <defs>
     <path id="C6_0_771535a7b7" d="M 0 4 
C 1.060812 4 2.078319 3.578535 2.828427 2.828427 
C 3.578535 2.078319 4 1.060812 4 -0 
C 4 -1.060812 3.578535 -2.078319 2.828427 -2.828427 
C 2.078319 -3.578535 1.060812 -4 0 -4 
C -1.060812 -4 -2.078319 -3.578535 -2.828427 -2.828427 
C -3.578535 -2.078319 -4 -1.060812 -4 0 
C -4 1.060812 -3.578535 2.078319 -2.828427 2.828427 
C -2.078319 3.578535 -1.060812 4 0 4 
z
"/>
    </defs>
    <g clip-path="url(#p37c071c77a)">
     <use xlink:href="#C6_0_771535a7b7" x="216.401464" y="11.049577" style="fill: #b2849a; stroke: #343434"/>
    </g>
    <g clip-path="url(#p37c071c77a)">
     <use xlink:href="#C6_0_771535a7b7" x="214.229931" y="11.227837" style="fill: #b2849a; stroke: #343434"/>
    </g>
    <g clip-path="url(#p37c071c77a)">
     <use xlink:href="#C6_0_771535a7b7" x="215.433963" y="11.055958" style="fill: #b2849a; stroke: #343434"/>
    </g>
    <g clip-path="url(#p37c071c77a)">
     <use xlink:href="#C6_0_771535a7b7" x="217.335611" y="11.147632" style="fill: #b2849a; stroke: #343434"/>
    </g>
    <g clip-path="url(#p37c071c77a)">
     <use xlink:href="#C6_0_771535a7b7" x="215.900171" y="11.15361" style="fill: #b2849a; stroke: #343434"/>
    </g>
    <g clip-path="url(#p37c071c77a)">
     <use xlink:href="#C6_0_771535a7b7" x="213.128319" y="11.1358" style="fill: #b2849a; stroke: #343434"/>
    </g>
    <g clip-path="url(#p37c071c77a)">
     <use xlink:href="#C6_0_771535a7b7" x="213.727388" y="11.953459" style="fill: #b2849a; stroke: #343434"/>
    </g>
    <g clip-path="url(#p37c071c77a)">
     <use xlink:href="#C6_0_771535a7b7" x="217.42495" y="11.245644" style="fill: #b2849a; stroke: #343434"/>
    </g>
    <g clip-path="url(#p37c071c77a)">
     <use xlink:href="#C6_0_771535a7b7" x="212.766307" y="11.279566" style="fill: #b2849a; stroke: #343434"/>
    </g>
    <g clip-path="url(#p37c071c77a)">
     <use xlink:href="#C6_0_771535a7b7" x="216.063454" y="11.362787" style="fill: #b2849a; stroke: #343434"/>
    </g>
    <g clip-path="url(#p37c071c77a)">
     <use xlink:href="#C6_0_771535a7b7" x="217.009095" y="11.196159" style="fill: #b2849a; stroke: #343434"/>
    </g>
    <g clip-path="url(#p37c071c77a)">
     <use xlink:href="#C6_0_771535a7b7" x="216.232473" y="11.282131" style="fill: #b2849a; stroke: #343434"/>
    </g>
    <g clip-path="url(#p37c071c77a)">
     <use xlink:href="#C6_0_771535a7b7" x="216.522022" y="11.189951" style="fill: #b2849a; stroke: #343434"/>
    </g>
    <g clip-path="url(#p37c071c77a)">
     <use xlink:href="#C6_0_771535a7b7" x="217.386255" y="12.087024" style="fill: #b2849a; stroke: #343434"/>
    </g>
    <g clip-path="url(#p37c071c77a)">
     <use xlink:href="#C6_0_771535a7b7" x="215.110236" y="11.269252" style="fill: #b2849a; stroke: #343434"/>
    </g>
    <g clip-path="url(#p37c071c77a)">
     <use xlink:href="#C6_0_771535a7b7" x="212.406594" y="11.205559" style="fill: #b2849a; stroke: #343434"/>
    </g>
    <g clip-path="url(#p37c071c77a)">
     <use xlink:href="#C6_0_771535a7b7" x="215.929234" y="11.395332" style="fill: #b2849a; stroke: #343434"/>
    </g>
    <g clip-path="url(#p37c071c77a)">
     <use xlink:href="#C6_0_771535a7b7" x="215.559978" y="11.933093" style="fill: #b2849a; stroke: #343434"/>
    </g>
    <g clip-path="url(#p37c071c77a)">
     <use xlink:href="#C6_0_771535a7b7" x="213.13949" y="11.16937" style="fill: #b2849a; stroke: #343434"/>
    </g>
   </g>
   <g id="PathCollection_8">
    <defs>
     <path id="C7_0_af559f0b74" d="M 0 4 
C 1.060812 4 2.078319 3.578535 2.828427 2.828427 
C 3.578535 2.078319 4 1.060812 4 -0 
C 4 -1.060812 3.578535 -2.078319 2.828427 -2.828427 
C 2.078319 -3.578535 1.060812 -4 0 -4 
C -1.060812 -4 -2.078319 -3.578535 -2.828427 -2.828427 
C -3.578535 -2.078319 -4 -1.060812 -4 0 
C -4 1.060812 -3.578535 2.078319 -2.828427 2.828427 
C -2.078319 3.578535 -1.060812 4 0 4 
z
"/>
    </defs>
    <g clip-path="url(#p37c071c77a)">
     <use xlink:href="#C7_0_af559f0b74" x="237.381986" y="11.034105" style="fill: #911c1c; stroke: #343434"/>
    </g>
    <g clip-path="url(#p37c071c77a)">
     <use xlink:href="#C7_0_af559f0b74" x="237.354741" y="11.010499" style="fill: #911c1c; stroke: #343434"/>
    </g>
    <g clip-path="url(#p37c071c77a)">
     <use xlink:href="#C7_0_af559f0b74" x="236.384131" y="11.030975" style="fill: #911c1c; stroke: #343434"/>
    </g>
    <g clip-path="url(#p37c071c77a)">
     <use xlink:href="#C7_0_af559f0b74" x="236.237759" y="11.112114" style="fill: #911c1c; stroke: #343434"/>
    </g>
    <g clip-path="url(#p37c071c77a)">
     <use xlink:href="#C7_0_af559f0b74" x="235.31197" y="11.024736" style="fill: #911c1c; stroke: #343434"/>
    </g>
    <g clip-path="url(#p37c071c77a)">
     <use xlink:href="#C7_0_af559f0b74" x="234.847643" y="11.021271" style="fill: #911c1c; stroke: #343434"/>
    </g>
    <g clip-path="url(#p37c071c77a)">
     <use xlink:href="#C7_0_af559f0b74" x="239.545194" y="11.016697" style="fill: #911c1c; stroke: #343434"/>
    </g>
    <g clip-path="url(#p37c071c77a)">
     <use xlink:href="#C7_0_af559f0b74" x="236.138113" y="11.190471" style="fill: #911c1c; stroke: #343434"/>
    </g>
    <g clip-path="url(#p37c071c77a)">
     <use xlink:href="#C7_0_af559f0b74" x="239.410363" y="11.200562" style="fill: #911c1c; stroke: #343434"/>
    </g>
    <g clip-path="url(#p37c071c77a)">
     <use xlink:href="#C7_0_af559f0b74" x="238.732531" y="11.060251" style="fill: #911c1c; stroke: #343434"/>
    </g>
    <g clip-path="url(#p37c071c77a)">
     <use xlink:href="#C7_0_af559f0b74" x="237.048749" y="11.020863" style="fill: #911c1c; stroke: #343434"/>
    </g>
    <g clip-path="url(#p37c071c77a)">
     <use xlink:href="#C7_0_af559f0b74" x="239.629538" y="11.001796" style="fill: #911c1c; stroke: #343434"/>
    </g>
    <g clip-path="url(#p37c071c77a)">
     <use xlink:href="#C7_0_af559f0b74" x="236.576686" y="11.009167" style="fill: #911c1c; stroke: #343434"/>
    </g>
    <g clip-path="url(#p37c071c77a)">
     <use xlink:href="#C7_0_af559f0b74" x="236.536095" y="11.173877" style="fill: #911c1c; stroke: #343434"/>
    </g>
    <g clip-path="url(#p37c071c77a)">
     <use xlink:href="#C7_0_af559f0b74" x="238.538333" y="11.024316" style="fill: #911c1c; stroke: #343434"/>
    </g>
    <g clip-path="url(#p37c071c77a)">
     <use xlink:href="#C7_0_af559f0b74" x="237.13936" y="11.097779" style="fill: #911c1c; stroke: #343434"/>
    </g>
    <g clip-path="url(#p37c071c77a)">
     <use xlink:href="#C7_0_af559f0b74" x="237.23708" y="11.014441" style="fill: #911c1c; stroke: #343434"/>
    </g>
    <g clip-path="url(#p37c071c77a)">
     <use xlink:href="#C7_0_af559f0b74" x="236.627714" y="11.099175" style="fill: #911c1c; stroke: #343434"/>
    </g>
    <g clip-path="url(#p37c071c77a)">
     <use xlink:href="#C7_0_af559f0b74" x="237.812285" y="11.006658" style="fill: #911c1c; stroke: #343434"/>
    </g>
    <g clip-path="url(#p37c071c77a)">
     <use xlink:href="#C7_0_af559f0b74" x="235.910798" y="11.004124" style="fill: #911c1c; stroke: #343434"/>
    </g>
   </g>
   <g id="line2d_7"/>
   <g id="line2d_8"/>
   <g id="legend_1">
    <g id="patch_9">
     <path d="M 175.829687 170.672486 
L 246.778125 170.672486 
Q 248.778125 170.672486 248.778125 168.672486 
L 248.778125 96.511549 
Q 248.778125 94.511549 246.778125 94.511549 
L 175.829687 94.511549 
Q 173.829687 94.511549 173.829687 96.511549 
L 173.829687 168.672486 
Q 173.829687 170.672486 175.829687 170.672486 
z
" style="fill: #ffffff; opacity: 0.8; stroke: #cccccc; stroke-linejoin: miter"/>
    </g>
    <g id="text_7">
     <!-- Source -->
     <g transform="translate(196.286719 106.109986) scale(0.1 -0.1)">
      <defs>
       <path id="Tahoma-53" d="M 1769 -84 
Q 1263 -84 908 20 
Q 553 125 241 278 
L 241 1053 
L 284 1053 
Q 591 766 978 608 
Q 1366 450 1725 450 
Q 2238 450 2500 664 
Q 2763 878 2763 1228 
Q 2763 1506 2625 1681 
Q 2488 1856 2188 1941 
Q 1972 2003 1794 2043 
Q 1616 2084 1347 2153 
Q 1106 2216 915 2312 
Q 725 2409 578 2566 
Q 434 2719 354 2926 
Q 275 3134 275 3406 
Q 275 3972 715 4355 
Q 1156 4738 1841 4738 
Q 2231 4738 2579 4659 
Q 2928 4581 3225 4438 
L 3225 3697 
L 3178 3697 
Q 2956 3900 2609 4051 
Q 2263 4203 1881 4203 
Q 1450 4203 1184 4001 
Q 919 3800 919 3472 
Q 919 3175 1075 3000 
Q 1231 2825 1528 2744 
Q 1725 2691 2009 2623 
Q 2294 2556 2481 2500 
Q 2963 2353 3184 2056 
Q 3406 1759 3406 1325 
Q 3406 1053 3295 787 
Q 3184 522 2984 338 
Q 2759 134 2476 25 
Q 2194 -84 1769 -84 
z
" transform="scale(0.015625)"/>
       <path id="Tahoma-6f" d="M 3297 1744 
Q 3297 863 2872 383 
Q 2447 -97 1741 -97 
Q 1013 -97 595 398 
Q 178 894 178 1744 
Q 178 2619 608 3103 
Q 1038 3588 1741 3588 
Q 2447 3588 2872 3105 
Q 3297 2622 3297 1744 
z
M 2691 1744 
Q 2691 2422 2444 2751 
Q 2197 3081 1741 3081 
Q 1281 3081 1032 2751 
Q 784 2422 784 1744 
Q 784 1088 1032 748 
Q 1281 409 1741 409 
Q 2194 409 2442 742 
Q 2691 1075 2691 1744 
z
" transform="scale(0.015625)"/>
       <path id="Tahoma-75" d="M 3144 0 
L 2556 0 
L 2556 388 
Q 2284 150 2040 26 
Q 1797 -97 1497 -97 
Q 1269 -97 1067 -22 
Q 866 53 716 216 
Q 566 378 483 625 
Q 400 872 400 1225 
L 400 3491 
L 988 3491 
L 988 1503 
Q 988 1225 1008 1042 
Q 1028 859 1100 722 
Q 1172 588 1295 525 
Q 1419 463 1650 463 
Q 1866 463 2109 584 
Q 2353 706 2556 884 
L 2556 3491 
L 3144 3491 
L 3144 0 
z
" transform="scale(0.015625)"/>
       <path id="Tahoma-72" d="M 2275 2859 
L 2244 2859 
Q 2178 2878 2104 2883 
Q 2031 2888 1928 2888 
Q 1691 2888 1456 2784 
Q 1222 2681 1013 2478 
L 1013 0 
L 425 0 
L 425 3491 
L 1013 3491 
L 1013 2972 
Q 1334 3256 1573 3373 
Q 1813 3491 2038 3491 
Q 2128 3491 2173 3486 
Q 2219 3481 2275 3472 
L 2275 2859 
z
" transform="scale(0.015625)"/>
       <path id="Tahoma-63" d="M 1813 -78 
Q 1453 -78 1153 33 
Q 853 144 638 369 
Q 422 594 303 936 
Q 184 1278 184 1741 
Q 184 2200 307 2534 
Q 431 2869 638 3097 
Q 844 3325 1151 3448 
Q 1459 3572 1813 3572 
Q 2100 3572 2367 3490 
Q 2634 3409 2844 3303 
L 2844 2644 
L 2809 2644 
Q 2747 2697 2648 2765 
Q 2550 2834 2409 2906 
Q 2288 2969 2122 3016 
Q 1956 3063 1803 3063 
Q 1347 3063 1070 2717 
Q 794 2372 794 1741 
Q 794 1122 1061 776 
Q 1328 431 1803 431 
Q 2091 431 2350 550 
Q 2609 669 2809 856 
L 2844 856 
L 2844 197 
Q 2756 156 2625 98 
Q 2494 41 2388 13 
Q 2238 -31 2119 -54 
Q 2000 -78 1813 -78 
z
" transform="scale(0.015625)"/>
       <path id="Tahoma-65" d="M 1941 -81 
Q 1106 -81 645 389 
Q 184 859 184 1725 
Q 184 2578 631 3083 
Q 1078 3588 1800 3588 
Q 2125 3588 2375 3494 
Q 2625 3400 2813 3200 
Q 3000 3000 3100 2711 
Q 3200 2422 3200 2003 
L 3200 1684 
L 781 1684 
Q 781 1075 1087 753 
Q 1394 431 1934 431 
Q 2128 431 2314 475 
Q 2500 519 2650 588 
Q 2809 659 2918 726 
Q 3028 794 3100 853 
L 3134 853 
L 3134 213 
Q 3031 172 2878 111 
Q 2725 50 2603 16 
Q 2431 -31 2292 -56 
Q 2153 -81 1941 -81 
z
M 2628 2134 
Q 2622 2372 2572 2544 
Q 2522 2716 2428 2834 
Q 2325 2966 2164 3034 
Q 2003 3103 1766 3103 
Q 1531 3103 1367 3033 
Q 1203 2963 1069 2828 
Q 938 2691 869 2523 
Q 800 2356 781 2134 
L 2628 2134 
z
" transform="scale(0.015625)"/>
      </defs>
      <use xlink:href="#Tahoma-53"/>
      <use xlink:href="#Tahoma-6f" x="55.962891"/>
      <use xlink:href="#Tahoma-75" x="110.259766"/>
      <use xlink:href="#Tahoma-72" x="166.021484"/>
      <use xlink:href="#Tahoma-63" x="201.556641"/>
      <use xlink:href="#Tahoma-65" x="247.699219"/>
     </g>
    </g>
    <g id="line2d_9">
     <defs>
      <path id="ma0eac894c7" d="M 0 4 
C 1.060812 4 2.078319 3.578535 2.828427 2.828427 
C 3.578535 2.078319 4 1.060812 4 0 
C 4 -1.060812 3.578535 -2.078319 2.828427 -2.828427 
C 2.078319 -3.578535 1.060812 -4 0 -4 
C -1.060812 -4 -2.078319 -3.578535 -2.828427 -2.828427 
C -3.578535 -2.078319 -4 -1.060812 -4 0 
C -4 1.060812 -3.578535 2.078319 -2.828427 2.828427 
C -2.078319 3.578535 -1.060812 4 0 4 
z
" style="stroke: #343434"/>
     </defs>
     <g>
      <use xlink:href="#ma0eac894c7" x="187.829687" y="117.220924" style="fill: #b2849a; stroke: #343434"/>
     </g>
    </g>
    <g id="text_8">
     <!-- leg -->
     <g transform="translate(205.829687 120.720924) scale(0.1 -0.1)">
      <defs>
       <path id="Tahoma-6c" d="M 1025 0 
L 438 0 
L 438 4863 
L 1025 4863 
L 1025 0 
z
" transform="scale(0.015625)"/>
       <path id="Tahoma-67" d="M 2525 947 
L 2525 2863 
Q 2306 2969 2120 3014 
Q 1934 3059 1750 3059 
Q 1303 3059 1047 2731 
Q 791 2403 791 1791 
Q 791 1209 986 906 
Q 1181 603 1619 603 
Q 1847 603 2089 693 
Q 2331 784 2525 947 
z
M 550 -559 
Q 609 -584 725 -626 
Q 841 -669 988 -706 
Q 1150 -747 1287 -772 
Q 1425 -797 1588 -797 
Q 1859 -797 2048 -725 
Q 2238 -653 2344 -525 
Q 2444 -397 2484 -228 
Q 2525 -59 2525 156 
L 2525 463 
Q 2288 256 2059 157 
Q 1831 59 1488 59 
Q 891 59 537 503 
Q 184 947 184 1778 
Q 184 2213 306 2548 
Q 428 2884 634 3119 
Q 831 3344 1100 3466 
Q 1369 3588 1656 3588 
Q 1928 3588 2126 3523 
Q 2325 3459 2525 3341 
L 2559 3491 
L 3113 3491 
L 3113 397 
Q 3113 -491 2725 -906 
Q 2338 -1322 1541 -1322 
Q 1284 -1322 1017 -1281 
Q 750 -1241 519 -1172 
L 519 -559 
L 550 -559 
z
" transform="scale(0.015625)"/>
      </defs>
      <use xlink:href="#Tahoma-6c"/>
      <use xlink:href="#Tahoma-65" x="22.851562"/>
      <use xlink:href="#Tahoma-67" x="75.488281"/>
     </g>
    </g>
    <g id="line2d_10">
     <defs>
      <path id="mc74dde925f" d="M 0 4 
C 1.060812 4 2.078319 3.578535 2.828427 2.828427 
C 3.578535 2.078319 4 1.060812 4 0 
C 4 -1.060812 3.578535 -2.078319 2.828427 -2.828427 
C 2.078319 -3.578535 1.060812 -4 0 -4 
C -1.060812 -4 -2.078319 -3.578535 -2.828427 -2.828427 
C -3.578535 -2.078319 -4 -1.060812 -4 0 
C -4 1.060812 -3.578535 2.078319 -2.828427 2.828427 
C -2.078319 3.578535 -1.060812 4 0 4 
z
" style="stroke: #343434"/>
     </defs>
     <g>
      <use xlink:href="#mc74dde925f" x="187.829687" y="131.884986" style="fill: #911c1c; stroke: #343434"/>
     </g>
    </g>
    <g id="text_9">
     <!-- forehead -->
     <g transform="translate(205.829687 135.384986) scale(0.1 -0.1)">
      <defs>
       <path id="Tahoma-66" d="M 2263 4300 
L 2231 4300 
Q 2153 4328 2006 4354 
Q 1859 4381 1744 4381 
Q 1372 4381 1214 4214 
Q 1056 4047 1056 3609 
L 1056 3491 
L 2028 3491 
L 2028 3003 
L 1075 3003 
L 1075 0 
L 488 0 
L 488 3003 
L 91 3003 
L 91 3491 
L 488 3491 
L 488 3606 
Q 488 4238 791 4566 
Q 1094 4894 1659 4894 
Q 1822 4894 1978 4876 
Q 2134 4859 2263 4838 
L 2263 4300 
z
" transform="scale(0.015625)"/>
       <path id="Tahoma-68" d="M 3169 0 
L 2581 0 
L 2581 1988 
Q 2581 2228 2557 2436 
Q 2534 2644 2469 2769 
Q 2397 2900 2269 2964 
Q 2141 3028 1919 3028 
Q 1700 3028 1467 2911 
Q 1234 2794 1013 2606 
L 1013 0 
L 425 0 
L 425 4863 
L 1013 4863 
L 1013 3103 
Q 1275 3338 1531 3463 
Q 1788 3588 2072 3588 
Q 2588 3588 2878 3248 
Q 3169 2909 3169 2266 
L 3169 0 
z
" transform="scale(0.015625)"/>
       <path id="Tahoma-61" d="M 2375 859 
L 2375 1828 
Q 2166 1809 1845 1776 
Q 1525 1744 1328 1684 
Q 1094 1613 941 1464 
Q 788 1316 788 1050 
Q 788 750 956 597 
Q 1125 444 1450 444 
Q 1728 444 1953 564 
Q 2178 684 2375 859 
z
M 2375 372 
Q 2303 319 2183 223 
Q 2063 128 1950 72 
Q 1794 -9 1648 -53 
Q 1503 -97 1241 -97 
Q 1025 -97 831 -15 
Q 638 66 491 213 
Q 350 356 265 567 
Q 181 778 181 1013 
Q 181 1375 334 1629 
Q 488 1884 819 2034 
Q 1113 2169 1513 2220 
Q 1913 2272 2375 2297 
L 2375 2409 
Q 2375 2616 2312 2742 
Q 2250 2869 2138 2938 
Q 2025 3009 1862 3032 
Q 1700 3056 1528 3056 
Q 1325 3056 1050 2995 
Q 775 2934 500 2819 
L 466 2819 
L 466 3416 
Q 628 3463 931 3519 
Q 1234 3575 1531 3575 
Q 1891 3575 2137 3519 
Q 2384 3463 2581 3316 
Q 2772 3172 2865 2944 
Q 2959 2716 2959 2388 
L 2959 0 
L 2375 0 
L 2375 372 
z
" transform="scale(0.015625)"/>
       <path id="Tahoma-64" d="M 3113 0 
L 2525 0 
L 2525 356 
Q 2388 241 2288 166 
Q 2188 91 2053 28 
Q 1928 -31 1793 -64 
Q 1659 -97 1481 -97 
Q 1197 -97 955 22 
Q 713 141 544 369 
Q 372 600 278 939 
Q 184 1278 184 1719 
Q 184 2178 303 2514 
Q 422 2850 631 3100 
Q 822 3328 1092 3458 
Q 1363 3588 1659 3588 
Q 1922 3588 2115 3530 
Q 2309 3472 2525 3350 
L 2525 4863 
L 3113 4863 
L 3113 0 
z
M 2525 850 
L 2525 2863 
Q 2306 2969 2132 3009 
Q 1959 3050 1756 3050 
Q 1303 3050 1047 2711 
Q 791 2372 791 1731 
Q 791 1116 987 789 
Q 1184 463 1619 463 
Q 1850 463 2084 567 
Q 2319 672 2525 850 
z
" transform="scale(0.015625)"/>
      </defs>
      <use xlink:href="#Tahoma-66"/>
      <use xlink:href="#Tahoma-6f" x="30.835938"/>
      <use xlink:href="#Tahoma-72" x="85.132812"/>
      <use xlink:href="#Tahoma-65" x="120.667969"/>
      <use xlink:href="#Tahoma-68" x="173.304688"/>
      <use xlink:href="#Tahoma-65" x="229.066406"/>
      <use xlink:href="#Tahoma-61" x="281.703125"/>
      <use xlink:href="#Tahoma-64" x="334.193359"/>
     </g>
    </g>
    <g id="patch_10">
     <path d="M 177.829687 149.995924 
L 197.829687 149.995924 
L 197.829687 142.995924 
L 177.829687 142.995924 
z
" style="fill: #3274a1; stroke: #3f3f3f; stroke-linejoin: miter"/>
    </g>
    <g id="text_10">
     <!-- leg -->
     <g transform="translate(205.829687 149.995924) scale(0.1 -0.1)">
      <use xlink:href="#Tahoma-6c"/>
      <use xlink:href="#Tahoma-65" x="22.851562"/>
      <use xlink:href="#Tahoma-67" x="75.488281"/>
     </g>
    </g>
    <g id="patch_11">
     <path d="M 177.829687 164.659986 
L 197.829687 164.659986 
L 197.829687 157.659986 
L 177.829687 157.659986 
z
" style="fill: #e1812c; stroke: #3f3f3f; stroke-linejoin: miter"/>
    </g>
    <g id="text_11">
     <!-- forehead -->
     <g transform="translate(205.829687 164.659986) scale(0.1 -0.1)">
      <use xlink:href="#Tahoma-66"/>
      <use xlink:href="#Tahoma-6f" x="30.835938"/>
      <use xlink:href="#Tahoma-72" x="85.132812"/>
      <use xlink:href="#Tahoma-65" x="120.667969"/>
      <use xlink:href="#Tahoma-68" x="173.304688"/>
      <use xlink:href="#Tahoma-65" x="229.066406"/>
      <use xlink:href="#Tahoma-61" x="281.703125"/>
      <use xlink:href="#Tahoma-64" x="334.193359"/>
     </g>
    </g>
   </g>
   <g id="line2d_11">
    <path d="M 36.158125 39.8218 
L 58.478125 39.8218 
" clip-path="url(#p37c071c77a)" style="fill: none; stroke: #3f3f3f"/>
   </g>
   <g id="line2d_12">
    <path d="M 91.958125 81.419052 
L 114.278125 81.419052 
" clip-path="url(#p37c071c77a)" style="fill: none; stroke: #3f3f3f"/>
   </g>
   <g id="line2d_13">
    <path d="M 147.758125 91.787858 
L 170.078125 91.787858 
" clip-path="url(#p37c071c77a)" style="fill: none; stroke: #3f3f3f"/>
   </g>
   <g id="line2d_14">
    <path d="M 203.558125 11.227837 
L 225.878125 11.227837 
" clip-path="url(#p37c071c77a)" style="fill: none; stroke: #3f3f3f"/>
   </g>
   <g id="line2d_15">
    <path d="M 58.478125 14.170308 
L 80.798125 14.170308 
" clip-path="url(#p37c071c77a)" style="fill: none; stroke: #3f3f3f"/>
   </g>
   <g id="line2d_16">
    <path d="M 114.278125 167.235901 
L 136.598125 167.235901 
" clip-path="url(#p37c071c77a)" style="fill: none; stroke: #3f3f3f"/>
   </g>
   <g id="line2d_17">
    <path d="M 170.078125 19.973837 
L 192.398125 19.973837 
" clip-path="url(#p37c071c77a)" style="fill: none; stroke: #3f3f3f"/>
   </g>
   <g id="line2d_18">
    <path d="M 225.878125 11.024526 
L 248.198125 11.024526 
" clip-path="url(#p37c071c77a)" style="fill: none; stroke: #3f3f3f"/>
   </g>
  </g>
 </g>
 <defs>
  <clipPath id="p37c071c77a">
   <rect x="30.578125" y="9.352486" width="223.2" height="166.32"/>
  </clipPath>
 </defs>
</svg>
