<?xml version="1.0" encoding="utf-8" standalone="no"?>
<!DOCTYPE svg PUBLIC "-//W3C//DTD SVG 1.1//EN"
  "http://www.w3.org/Graphics/SVG/1.1/DTD/svg11.dtd">
<svg xmlns:xlink="http://www.w3.org/1999/xlink" width="288pt" height="216pt" viewBox="0 0 288 216" xmlns="http://www.w3.org/2000/svg" version="1.1">
 <metadata>
  <rdf:RDF xmlns:dc="http://purl.org/dc/elements/1.1/" xmlns:cc="http://creativecommons.org/ns#" xmlns:rdf="http://www.w3.org/1999/02/22-rdf-syntax-ns#">
   <cc:Work>
    <dc:type rdf:resource="http://purl.org/dc/dcmitype/StillImage"/>
    <dc:date>2025-06-21T07:00:27.715420</dc:date>
    <dc:format>image/svg+xml</dc:format>
    <dc:creator>
     <cc:Agent>
      <dc:title>Matplotlib v3.9.2, https://matplotlib.org/</dc:title>
     </cc:Agent>
    </dc:creator>
   </cc:Work>
  </rdf:RDF>
 </metadata>
 <defs>
  <style type="text/css">*{stroke-linejoin: round; stroke-linecap: butt}</style>
 </defs>
 <g id="figure_1">
  <g id="patch_1">
   <path d="M 0 216 
L 288 216 
L 288 0 
L 0 0 
z
" style="fill: #ffffff"/>
  </g>
  <g id="axes_1">
   <g id="patch_2">
    <path d="M 36 192.24 
L 259.2 192.24 
L 259.2 25.92 
L 36 25.92 
z
" style="fill: #ffffff"/>
   </g>
   <g id="patch_3">
    <path d="M 39.875 192.24 
L 53.825 192.24 
L 53.825 192.24 
L 39.875 192.24 
z
" clip-path="url(#pc62c2463cf)" style="fill: #ffd700; stroke: #808080; stroke-linejoin: miter"/>
   </g>
   <g id="patch_4">
    <path d="M 55.375 192.24 
L 69.325 192.24 
L 69.325 131.256 
L 55.375 131.256 
z
" clip-path="url(#pc62c2463cf)" style="fill: #ffd700; stroke: #808080; stroke-linejoin: miter"/>
   </g>
   <g id="patch_5">
    <path d="M 70.875 192.24 
L 84.825 192.24 
L 84.825 136.8 
L 70.875 136.8 
z
" clip-path="url(#pc62c2463cf)" style="fill: #ffd700; stroke: #808080; stroke-linejoin: miter"/>
   </g>
   <g id="patch_6">
    <path d="M 86.375 192.24 
L 100.325 192.24 
L 100.325 192.24 
L 86.375 192.24 
z
" clip-path="url(#pc62c2463cf)" style="fill: #ffd700; stroke: #808080; stroke-linejoin: miter"/>
   </g>
   <g id="patch_7">
    <path d="M 101.875 192.24 
L 115.825 192.24 
L 115.825 191.331148 
L 101.875 191.331148 
z
" clip-path="url(#pc62c2463cf)" style="fill: #ffd700; stroke: #808080; stroke-linejoin: miter"/>
   </g>
   <g id="patch_8">
    <path d="M 117.375 192.24 
L 131.325 192.24 
L 131.325 183.078305 
L 117.375 183.078305 
z
" clip-path="url(#pc62c2463cf)" style="fill: #ffd700; stroke: #808080; stroke-linejoin: miter"/>
   </g>
   <g id="patch_9">
    <path d="M 132.875 192.24 
L 146.825 192.24 
L 146.825 148.9968 
L 132.875 148.9968 
z
" clip-path="url(#pc62c2463cf)" style="fill: #ffd700; stroke: #808080; stroke-linejoin: miter"/>
   </g>
   <g id="patch_10">
    <path d="M 148.375 192.24 
L 162.325 192.24 
L 162.325 131.76 
L 148.375 131.76 
z
" clip-path="url(#pc62c2463cf)" style="fill: #ffd700; stroke: #808080; stroke-linejoin: miter"/>
   </g>
   <g id="patch_11">
    <path d="M 163.875 192.24 
L 177.825 192.24 
L 177.825 192.24 
L 163.875 192.24 
z
" clip-path="url(#pc62c2463cf)" style="fill: #ffd700; stroke: #808080; stroke-linejoin: miter"/>
   </g>
   <g id="patch_12">
    <path d="M 179.375 192.24 
L 193.325 192.24 
L 193.325 192.24 
L 179.375 192.24 
z
" clip-path="url(#pc62c2463cf)" style="fill: #ffd700; stroke: #808080; stroke-linejoin: miter"/>
   </g>
   <g id="patch_13">
    <path d="M 194.875 192.24 
L 208.825 192.24 
L 208.825 192.24 
L 194.875 192.24 
z
" clip-path="url(#pc62c2463cf)" style="fill: #ffd700; stroke: #808080; stroke-linejoin: miter"/>
   </g>
   <g id="patch_14">
    <path d="M 210.375 192.24 
L 224.325 192.24 
L 224.325 62.88 
L 210.375 62.88 
z
" clip-path="url(#pc62c2463cf)" style="fill: #ffd700; stroke: #808080; stroke-linejoin: miter"/>
   </g>
   <g id="patch_15">
    <path d="M 225.875 192.24 
L 239.825 192.24 
L 239.825 192.24 
L 225.875 192.24 
z
" clip-path="url(#pc62c2463cf)" style="fill: #ffd700; stroke: #808080; stroke-linejoin: miter"/>
   </g>
   <g id="patch_16">
    <path d="M 241.375 192.24 
L 255.325 192.24 
L 255.325 156.282225 
L 241.375 156.282225 
z
" clip-path="url(#pc62c2463cf)" style="fill: #ffd700; stroke: #808080; stroke-linejoin: miter"/>
   </g>
   <g id="patch_17">
    <path d="M 39.875 192.24 
L 53.825 192.24 
L 53.825 25.92 
L 39.875 25.92 
z
" clip-path="url(#pc62c2463cf)" style="fill: #7393b3; stroke: #808080; stroke-linejoin: miter"/>
   </g>
   <g id="patch_18">
    <path d="M 55.375 131.256 
L 69.325 131.256 
L 69.325 25.92 
L 55.375 25.92 
z
" clip-path="url(#pc62c2463cf)" style="fill: #7393b3; stroke: #808080; stroke-linejoin: miter"/>
   </g>
   <g id="patch_19">
    <path d="M 70.875 192.24 
L 84.825 192.24 
L 84.825 192.24 
L 70.875 192.24 
z
" clip-path="url(#pc62c2463cf)" style="fill: #7393b3; stroke: #808080; stroke-linejoin: miter"/>
   </g>
   <g id="patch_20">
    <path d="M 86.375 192.24 
L 100.325 192.24 
L 100.325 192.24 
L 86.375 192.24 
z
" clip-path="url(#pc62c2463cf)" style="fill: #7393b3; stroke: #808080; stroke-linejoin: miter"/>
   </g>
   <g id="patch_21">
    <path d="M 101.875 191.331148 
L 115.825 191.331148 
L 115.825 25.92 
L 101.875 25.92 
z
" clip-path="url(#pc62c2463cf)" style="fill: #7393b3; stroke: #808080; stroke-linejoin: miter"/>
   </g>
   <g id="patch_22">
    <path d="M 117.375 183.078305 
L 131.325 183.078305 
L 131.325 29.443729 
L 117.375 29.443729 
z
" clip-path="url(#pc62c2463cf)" style="fill: #7393b3; stroke: #808080; stroke-linejoin: miter"/>
   </g>
   <g id="patch_23">
    <path d="M 132.875 148.9968 
L 146.825 148.9968 
L 146.825 65.8368 
L 132.875 65.8368 
z
" clip-path="url(#pc62c2463cf)" style="fill: #7393b3; stroke: #808080; stroke-linejoin: miter"/>
   </g>
   <g id="patch_24">
    <path d="M 148.375 131.76 
L 162.325 131.76 
L 162.325 114.12 
L 148.375 114.12 
z
" clip-path="url(#pc62c2463cf)" style="fill: #7393b3; stroke: #808080; stroke-linejoin: miter"/>
   </g>
   <g id="patch_25">
    <path d="M 163.875 192.24 
L 177.825 192.24 
L 177.825 192.24 
L 163.875 192.24 
z
" clip-path="url(#pc62c2463cf)" style="fill: #7393b3; stroke: #808080; stroke-linejoin: miter"/>
   </g>
   <g id="patch_26">
    <path d="M 179.375 192.24 
L 193.325 192.24 
L 193.325 25.92 
L 179.375 25.92 
z
" clip-path="url(#pc62c2463cf)" style="fill: #7393b3; stroke: #808080; stroke-linejoin: miter"/>
   </g>
   <g id="patch_27">
    <path d="M 194.875 192.24 
L 208.825 192.24 
L 208.825 192.24 
L 194.875 192.24 
z
" clip-path="url(#pc62c2463cf)" style="fill: #7393b3; stroke: #808080; stroke-linejoin: miter"/>
   </g>
   <g id="patch_28">
    <path d="M 210.375 192.24 
L 224.325 192.24 
L 224.325 192.24 
L 210.375 192.24 
z
" clip-path="url(#pc62c2463cf)" style="fill: #7393b3; stroke: #808080; stroke-linejoin: miter"/>
   </g>
   <g id="patch_29">
    <path d="M 225.875 192.24 
L 239.825 192.24 
L 239.825 192.24 
L 225.875 192.24 
z
" clip-path="url(#pc62c2463cf)" style="fill: #7393b3; stroke: #808080; stroke-linejoin: miter"/>
   </g>
   <g id="patch_30">
    <path d="M 241.375 156.282225 
L 255.325 156.282225 
L 255.325 70.500053 
L 241.375 70.500053 
z
" clip-path="url(#pc62c2463cf)" style="fill: #7393b3; stroke: #808080; stroke-linejoin: miter"/>
   </g>
   <g id="patch_31">
    <path d="M 39.875 192.24 
L 53.825 192.24 
L 53.825 192.24 
L 39.875 192.24 
z
" clip-path="url(#pc62c2463cf)" style="fill: #7f6759; stroke: #808080; stroke-linejoin: miter"/>
   </g>
   <g id="patch_32">
    <path d="M 55.375 192.24 
L 69.325 192.24 
L 69.325 192.24 
L 55.375 192.24 
z
" clip-path="url(#pc62c2463cf)" style="fill: #7f6759; stroke: #808080; stroke-linejoin: miter"/>
   </g>
   <g id="patch_33">
    <path d="M 70.875 192.24 
L 84.825 192.24 
L 84.825 192.24 
L 70.875 192.24 
z
" clip-path="url(#pc62c2463cf)" style="fill: #7f6759; stroke: #808080; stroke-linejoin: miter"/>
   </g>
   <g id="patch_34">
    <path d="M 86.375 192.24 
L 100.325 192.24 
L 100.325 192.24 
L 86.375 192.24 
z
" clip-path="url(#pc62c2463cf)" style="fill: #7f6759; stroke: #808080; stroke-linejoin: miter"/>
   </g>
   <g id="patch_35">
    <path d="M 101.875 192.24 
L 115.825 192.24 
L 115.825 192.24 
L 101.875 192.24 
z
" clip-path="url(#pc62c2463cf)" style="fill: #7f6759; stroke: #808080; stroke-linejoin: miter"/>
   </g>
   <g id="patch_36">
    <path d="M 117.375 192.24 
L 131.325 192.24 
L 131.325 192.24 
L 117.375 192.24 
z
" clip-path="url(#pc62c2463cf)" style="fill: #7f6759; stroke: #808080; stroke-linejoin: miter"/>
   </g>
   <g id="patch_37">
    <path d="M 132.875 65.8368 
L 146.825 65.8368 
L 146.825 45.8784 
L 132.875 45.8784 
z
" clip-path="url(#pc62c2463cf)" style="fill: #7f6759; stroke: #808080; stroke-linejoin: miter"/>
   </g>
   <g id="patch_38">
    <path d="M 148.375 192.24 
L 162.325 192.24 
L 162.325 192.24 
L 148.375 192.24 
z
" clip-path="url(#pc62c2463cf)" style="fill: #7f6759; stroke: #808080; stroke-linejoin: miter"/>
   </g>
   <g id="patch_39">
    <path d="M 163.875 192.24 
L 177.825 192.24 
L 177.825 192.24 
L 163.875 192.24 
z
" clip-path="url(#pc62c2463cf)" style="fill: #7f6759; stroke: #808080; stroke-linejoin: miter"/>
   </g>
   <g id="patch_40">
    <path d="M 179.375 192.24 
L 193.325 192.24 
L 193.325 192.24 
L 179.375 192.24 
z
" clip-path="url(#pc62c2463cf)" style="fill: #7f6759; stroke: #808080; stroke-linejoin: miter"/>
   </g>
   <g id="patch_41">
    <path d="M 194.875 192.24 
L 208.825 192.24 
L 208.825 192.24 
L 194.875 192.24 
z
" clip-path="url(#pc62c2463cf)" style="fill: #7f6759; stroke: #808080; stroke-linejoin: miter"/>
   </g>
   <g id="patch_42">
    <path d="M 210.375 192.24 
L 224.325 192.24 
L 224.325 192.24 
L 210.375 192.24 
z
" clip-path="url(#pc62c2463cf)" style="fill: #7f6759; stroke: #808080; stroke-linejoin: miter"/>
   </g>
   <g id="patch_43">
    <path d="M 225.875 192.24 
L 239.825 192.24 
L 239.825 73.44 
L 225.875 73.44 
z
" clip-path="url(#pc62c2463cf)" style="fill: #7f6759; stroke: #808080; stroke-linejoin: miter"/>
   </g>
   <g id="patch_44">
    <path d="M 241.375 70.500053 
L 255.325 70.500053 
L 255.325 56.624213 
L 241.375 56.624213 
z
" clip-path="url(#pc62c2463cf)" style="fill: #7f6759; stroke: #808080; stroke-linejoin: miter"/>
   </g>
   <g id="patch_45">
    <path d="M 39.875 192.24 
L 53.825 192.24 
L 53.825 192.24 
L 39.875 192.24 
z
" clip-path="url(#pc62c2463cf)" style="fill: #e5b8ff; stroke: #808080; stroke-linejoin: miter"/>
   </g>
   <g id="patch_46">
    <path d="M 55.375 192.24 
L 69.325 192.24 
L 69.325 192.24 
L 55.375 192.24 
z
" clip-path="url(#pc62c2463cf)" style="fill: #e5b8ff; stroke: #808080; stroke-linejoin: miter"/>
   </g>
   <g id="patch_47">
    <path d="M 70.875 136.8 
L 84.825 136.8 
L 84.825 122.94 
L 70.875 122.94 
z
" clip-path="url(#pc62c2463cf)" style="fill: #e5b8ff; stroke: #808080; stroke-linejoin: miter"/>
   </g>
   <g id="patch_48">
    <path d="M 86.375 192.24 
L 100.325 192.24 
L 100.325 192.24 
L 86.375 192.24 
z
" clip-path="url(#pc62c2463cf)" style="fill: #e5b8ff; stroke: #808080; stroke-linejoin: miter"/>
   </g>
   <g id="patch_49">
    <path d="M 101.875 192.24 
L 115.825 192.24 
L 115.825 192.24 
L 101.875 192.24 
z
" clip-path="url(#pc62c2463cf)" style="fill: #e5b8ff; stroke: #808080; stroke-linejoin: miter"/>
   </g>
   <g id="patch_50">
    <path d="M 117.375 192.24 
L 131.325 192.24 
L 131.325 192.24 
L 117.375 192.24 
z
" clip-path="url(#pc62c2463cf)" style="fill: #e5b8ff; stroke: #808080; stroke-linejoin: miter"/>
   </g>
   <g id="patch_51">
    <path d="M 132.875 45.8784 
L 146.825 45.8784 
L 146.825 32.5728 
L 132.875 32.5728 
z
" clip-path="url(#pc62c2463cf)" style="fill: #e5b8ff; stroke: #808080; stroke-linejoin: miter"/>
   </g>
   <g id="patch_52">
    <path d="M 148.375 192.24 
L 162.325 192.24 
L 162.325 192.24 
L 148.375 192.24 
z
" clip-path="url(#pc62c2463cf)" style="fill: #e5b8ff; stroke: #808080; stroke-linejoin: miter"/>
   </g>
   <g id="patch_53">
    <path d="M 163.875 192.24 
L 177.825 192.24 
L 177.825 192.24 
L 163.875 192.24 
z
" clip-path="url(#pc62c2463cf)" style="fill: #e5b8ff; stroke: #808080; stroke-linejoin: miter"/>
   </g>
   <g id="patch_54">
    <path d="M 179.375 192.24 
L 193.325 192.24 
L 193.325 192.24 
L 179.375 192.24 
z
" clip-path="url(#pc62c2463cf)" style="fill: #e5b8ff; stroke: #808080; stroke-linejoin: miter"/>
   </g>
   <g id="patch_55">
    <path d="M 194.875 192.24 
L 208.825 192.24 
L 208.825 192.24 
L 194.875 192.24 
z
" clip-path="url(#pc62c2463cf)" style="fill: #e5b8ff; stroke: #808080; stroke-linejoin: miter"/>
   </g>
   <g id="patch_56">
    <path d="M 210.375 192.24 
L 224.325 192.24 
L 224.325 192.24 
L 210.375 192.24 
z
" clip-path="url(#pc62c2463cf)" style="fill: #e5b8ff; stroke: #808080; stroke-linejoin: miter"/>
   </g>
   <g id="patch_57">
    <path d="M 225.875 192.24 
L 239.825 192.24 
L 239.825 192.24 
L 225.875 192.24 
z
" clip-path="url(#pc62c2463cf)" style="fill: #e5b8ff; stroke: #808080; stroke-linejoin: miter"/>
   </g>
   <g id="patch_58">
    <path d="M 241.375 56.624213 
L 255.325 56.624213 
L 255.325 53.907653 
L 241.375 53.907653 
z
" clip-path="url(#pc62c2463cf)" style="fill: #e5b8ff; stroke: #808080; stroke-linejoin: miter"/>
   </g>
   <g id="patch_59">
    <path d="M 39.875 192.24 
L 53.825 192.24 
L 53.825 192.24 
L 39.875 192.24 
z
" clip-path="url(#pc62c2463cf)" style="fill: #46889d; stroke: #808080; stroke-linejoin: miter"/>
   </g>
   <g id="patch_60">
    <path d="M 55.375 192.24 
L 69.325 192.24 
L 69.325 192.24 
L 55.375 192.24 
z
" clip-path="url(#pc62c2463cf)" style="fill: #46889d; stroke: #808080; stroke-linejoin: miter"/>
   </g>
   <g id="patch_61">
    <path d="M 70.875 192.24 
L 84.825 192.24 
L 84.825 192.24 
L 70.875 192.24 
z
" clip-path="url(#pc62c2463cf)" style="fill: #46889d; stroke: #808080; stroke-linejoin: miter"/>
   </g>
   <g id="patch_62">
    <path d="M 86.375 192.24 
L 100.325 192.24 
L 100.325 192.24 
L 86.375 192.24 
z
" clip-path="url(#pc62c2463cf)" style="fill: #46889d; stroke: #808080; stroke-linejoin: miter"/>
   </g>
   <g id="patch_63">
    <path d="M 101.875 192.24 
L 115.825 192.24 
L 115.825 192.24 
L 101.875 192.24 
z
" clip-path="url(#pc62c2463cf)" style="fill: #46889d; stroke: #808080; stroke-linejoin: miter"/>
   </g>
   <g id="patch_64">
    <path d="M 117.375 29.443729 
L 131.325 29.443729 
L 131.325 25.92 
L 117.375 25.92 
z
" clip-path="url(#pc62c2463cf)" style="fill: #46889d; stroke: #808080; stroke-linejoin: miter"/>
   </g>
   <g id="patch_65">
    <path d="M 132.875 192.24 
L 146.825 192.24 
L 146.825 192.24 
L 132.875 192.24 
z
" clip-path="url(#pc62c2463cf)" style="fill: #46889d; stroke: #808080; stroke-linejoin: miter"/>
   </g>
   <g id="patch_66">
    <path d="M 148.375 114.12 
L 162.325 114.12 
L 162.325 99 
L 148.375 99 
z
" clip-path="url(#pc62c2463cf)" style="fill: #46889d; stroke: #808080; stroke-linejoin: miter"/>
   </g>
   <g id="patch_67">
    <path d="M 163.875 192.24 
L 177.825 192.24 
L 177.825 192.24 
L 163.875 192.24 
z
" clip-path="url(#pc62c2463cf)" style="fill: #46889d; stroke: #808080; stroke-linejoin: miter"/>
   </g>
   <g id="patch_68">
    <path d="M 179.375 192.24 
L 193.325 192.24 
L 193.325 192.24 
L 179.375 192.24 
z
" clip-path="url(#pc62c2463cf)" style="fill: #46889d; stroke: #808080; stroke-linejoin: miter"/>
   </g>
   <g id="patch_69">
    <path d="M 194.875 192.24 
L 208.825 192.24 
L 208.825 192.24 
L 194.875 192.24 
z
" clip-path="url(#pc62c2463cf)" style="fill: #46889d; stroke: #808080; stroke-linejoin: miter"/>
   </g>
   <g id="patch_70">
    <path d="M 210.375 192.24 
L 224.325 192.24 
L 224.325 192.24 
L 210.375 192.24 
z
" clip-path="url(#pc62c2463cf)" style="fill: #46889d; stroke: #808080; stroke-linejoin: miter"/>
   </g>
   <g id="patch_71">
    <path d="M 225.875 192.24 
L 239.825 192.24 
L 239.825 192.24 
L 225.875 192.24 
z
" clip-path="url(#pc62c2463cf)" style="fill: #46889d; stroke: #808080; stroke-linejoin: miter"/>
   </g>
   <g id="patch_72">
    <path d="M 241.375 53.907653 
L 255.325 53.907653 
L 255.325 52.04328 
L 241.375 52.04328 
z
" clip-path="url(#pc62c2463cf)" style="fill: #46889d; stroke: #808080; stroke-linejoin: miter"/>
   </g>
   <g id="patch_73">
    <path d="M 39.875 192.24 
L 53.825 192.24 
L 53.825 192.24 
L 39.875 192.24 
z
" clip-path="url(#pc62c2463cf)" style="fill: #ae3f26; stroke: #808080; stroke-linejoin: miter"/>
   </g>
   <g id="patch_74">
    <path d="M 55.375 192.24 
L 69.325 192.24 
L 69.325 192.24 
L 55.375 192.24 
z
" clip-path="url(#pc62c2463cf)" style="fill: #ae3f26; stroke: #808080; stroke-linejoin: miter"/>
   </g>
   <g id="patch_75">
    <path d="M 70.875 192.24 
L 84.825 192.24 
L 84.825 192.24 
L 70.875 192.24 
z
" clip-path="url(#pc62c2463cf)" style="fill: #ae3f26; stroke: #808080; stroke-linejoin: miter"/>
   </g>
   <g id="patch_76">
    <path d="M 86.375 192.24 
L 100.325 192.24 
L 100.325 192.24 
L 86.375 192.24 
z
" clip-path="url(#pc62c2463cf)" style="fill: #ae3f26; stroke: #808080; stroke-linejoin: miter"/>
   </g>
   <g id="patch_77">
    <path d="M 101.875 192.24 
L 115.825 192.24 
L 115.825 192.24 
L 101.875 192.24 
z
" clip-path="url(#pc62c2463cf)" style="fill: #ae3f26; stroke: #808080; stroke-linejoin: miter"/>
   </g>
   <g id="patch_78">
    <path d="M 117.375 192.24 
L 131.325 192.24 
L 131.325 192.24 
L 117.375 192.24 
z
" clip-path="url(#pc62c2463cf)" style="fill: #ae3f26; stroke: #808080; stroke-linejoin: miter"/>
   </g>
   <g id="patch_79">
    <path d="M 132.875 192.24 
L 146.825 192.24 
L 146.825 192.24 
L 132.875 192.24 
z
" clip-path="url(#pc62c2463cf)" style="fill: #ae3f26; stroke: #808080; stroke-linejoin: miter"/>
   </g>
   <g id="patch_80">
    <path d="M 148.375 99 
L 162.325 99 
L 162.325 83.88 
L 148.375 83.88 
z
" clip-path="url(#pc62c2463cf)" style="fill: #ae3f26; stroke: #808080; stroke-linejoin: miter"/>
   </g>
   <g id="patch_81">
    <path d="M 163.875 192.24 
L 177.825 192.24 
L 177.825 192.24 
L 163.875 192.24 
z
" clip-path="url(#pc62c2463cf)" style="fill: #ae3f26; stroke: #808080; stroke-linejoin: miter"/>
   </g>
   <g id="patch_82">
    <path d="M 179.375 192.24 
L 193.325 192.24 
L 193.325 192.24 
L 179.375 192.24 
z
" clip-path="url(#pc62c2463cf)" style="fill: #ae3f26; stroke: #808080; stroke-linejoin: miter"/>
   </g>
   <g id="patch_83">
    <path d="M 194.875 192.24 
L 208.825 192.24 
L 208.825 192.24 
L 194.875 192.24 
z
" clip-path="url(#pc62c2463cf)" style="fill: #ae3f26; stroke: #808080; stroke-linejoin: miter"/>
   </g>
   <g id="patch_84">
    <path d="M 210.375 192.24 
L 224.325 192.24 
L 224.325 192.24 
L 210.375 192.24 
z
" clip-path="url(#pc62c2463cf)" style="fill: #ae3f26; stroke: #808080; stroke-linejoin: miter"/>
   </g>
   <g id="patch_85">
    <path d="M 225.875 192.24 
L 239.825 192.24 
L 239.825 192.24 
L 225.875 192.24 
z
" clip-path="url(#pc62c2463cf)" style="fill: #ae3f26; stroke: #808080; stroke-linejoin: miter"/>
   </g>
   <g id="patch_86">
    <path d="M 241.375 52.04328 
L 255.325 52.04328 
L 255.325 50.53128 
L 241.375 50.53128 
z
" clip-path="url(#pc62c2463cf)" style="fill: #ae3f26; stroke: #808080; stroke-linejoin: miter"/>
   </g>
   <g id="patch_87">
    <path d="M 39.875 192.24 
L 53.825 192.24 
L 53.825 192.24 
L 39.875 192.24 
z
" clip-path="url(#pc62c2463cf)" style="fill: #3e27a9; stroke: #808080; stroke-linejoin: miter"/>
   </g>
   <g id="patch_88">
    <path d="M 55.375 192.24 
L 69.325 192.24 
L 69.325 192.24 
L 55.375 192.24 
z
" clip-path="url(#pc62c2463cf)" style="fill: #3e27a9; stroke: #808080; stroke-linejoin: miter"/>
   </g>
   <g id="patch_89">
    <path d="M 70.875 122.94 
L 84.825 122.94 
L 84.825 88.29 
L 70.875 88.29 
z
" clip-path="url(#pc62c2463cf)" style="fill: #3e27a9; stroke: #808080; stroke-linejoin: miter"/>
   </g>
   <g id="patch_90">
    <path d="M 86.375 192.24 
L 100.325 192.24 
L 100.325 192.24 
L 86.375 192.24 
z
" clip-path="url(#pc62c2463cf)" style="fill: #3e27a9; stroke: #808080; stroke-linejoin: miter"/>
   </g>
   <g id="patch_91">
    <path d="M 101.875 192.24 
L 115.825 192.24 
L 115.825 192.24 
L 101.875 192.24 
z
" clip-path="url(#pc62c2463cf)" style="fill: #3e27a9; stroke: #808080; stroke-linejoin: miter"/>
   </g>
   <g id="patch_92">
    <path d="M 117.375 192.24 
L 131.325 192.24 
L 131.325 192.24 
L 117.375 192.24 
z
" clip-path="url(#pc62c2463cf)" style="fill: #3e27a9; stroke: #808080; stroke-linejoin: miter"/>
   </g>
   <g id="patch_93">
    <path d="M 132.875 192.24 
L 146.825 192.24 
L 146.825 192.24 
L 132.875 192.24 
z
" clip-path="url(#pc62c2463cf)" style="fill: #3e27a9; stroke: #808080; stroke-linejoin: miter"/>
   </g>
   <g id="patch_94">
    <path d="M 148.375 83.88 
L 162.325 83.88 
L 162.325 73.8 
L 148.375 73.8 
z
" clip-path="url(#pc62c2463cf)" style="fill: #3e27a9; stroke: #808080; stroke-linejoin: miter"/>
   </g>
   <g id="patch_95">
    <path d="M 163.875 192.24 
L 177.825 192.24 
L 177.825 192.24 
L 163.875 192.24 
z
" clip-path="url(#pc62c2463cf)" style="fill: #3e27a9; stroke: #808080; stroke-linejoin: miter"/>
   </g>
   <g id="patch_96">
    <path d="M 179.375 192.24 
L 193.325 192.24 
L 193.325 192.24 
L 179.375 192.24 
z
" clip-path="url(#pc62c2463cf)" style="fill: #3e27a9; stroke: #808080; stroke-linejoin: miter"/>
   </g>
   <g id="patch_97">
    <path d="M 194.875 192.24 
L 208.825 192.24 
L 208.825 192.24 
L 194.875 192.24 
z
" clip-path="url(#pc62c2463cf)" style="fill: #3e27a9; stroke: #808080; stroke-linejoin: miter"/>
   </g>
   <g id="patch_98">
    <path d="M 210.375 62.88 
L 224.325 62.88 
L 224.325 25.92 
L 210.375 25.92 
z
" clip-path="url(#pc62c2463cf)" style="fill: #3e27a9; stroke: #808080; stroke-linejoin: miter"/>
   </g>
   <g id="patch_99">
    <path d="M 225.875 192.24 
L 239.825 192.24 
L 239.825 192.24 
L 225.875 192.24 
z
" clip-path="url(#pc62c2463cf)" style="fill: #3e27a9; stroke: #808080; stroke-linejoin: miter"/>
   </g>
   <g id="patch_100">
    <path d="M 241.375 50.53128 
L 255.325 50.53128 
L 255.325 42.36228 
L 241.375 42.36228 
z
" clip-path="url(#pc62c2463cf)" style="fill: #3e27a9; stroke: #808080; stroke-linejoin: miter"/>
   </g>
   <g id="patch_101">
    <path d="M 39.875 192.24 
L 53.825 192.24 
L 53.825 192.24 
L 39.875 192.24 
z
" clip-path="url(#pc62c2463cf)" style="fill: #306f60; stroke: #808080; stroke-linejoin: miter"/>
   </g>
   <g id="patch_102">
    <path d="M 55.375 192.24 
L 69.325 192.24 
L 69.325 192.24 
L 55.375 192.24 
z
" clip-path="url(#pc62c2463cf)" style="fill: #306f60; stroke: #808080; stroke-linejoin: miter"/>
   </g>
   <g id="patch_103">
    <path d="M 70.875 192.24 
L 84.825 192.24 
L 84.825 192.24 
L 70.875 192.24 
z
" clip-path="url(#pc62c2463cf)" style="fill: #306f60; stroke: #808080; stroke-linejoin: miter"/>
   </g>
   <g id="patch_104">
    <path d="M 86.375 192.24 
L 100.325 192.24 
L 100.325 192.24 
L 86.375 192.24 
z
" clip-path="url(#pc62c2463cf)" style="fill: #306f60; stroke: #808080; stroke-linejoin: miter"/>
   </g>
   <g id="patch_105">
    <path d="M 101.875 192.24 
L 115.825 192.24 
L 115.825 192.24 
L 101.875 192.24 
z
" clip-path="url(#pc62c2463cf)" style="fill: #306f60; stroke: #808080; stroke-linejoin: miter"/>
   </g>
   <g id="patch_106">
    <path d="M 117.375 192.24 
L 131.325 192.24 
L 131.325 192.24 
L 117.375 192.24 
z
" clip-path="url(#pc62c2463cf)" style="fill: #306f60; stroke: #808080; stroke-linejoin: miter"/>
   </g>
   <g id="patch_107">
    <path d="M 132.875 192.24 
L 146.825 192.24 
L 146.825 192.24 
L 132.875 192.24 
z
" clip-path="url(#pc62c2463cf)" style="fill: #306f60; stroke: #808080; stroke-linejoin: miter"/>
   </g>
   <g id="patch_108">
    <path d="M 148.375 73.8 
L 162.325 73.8 
L 162.325 61.2 
L 148.375 61.2 
z
" clip-path="url(#pc62c2463cf)" style="fill: #306f60; stroke: #808080; stroke-linejoin: miter"/>
   </g>
   <g id="patch_109">
    <path d="M 163.875 192.24 
L 177.825 192.24 
L 177.825 192.24 
L 163.875 192.24 
z
" clip-path="url(#pc62c2463cf)" style="fill: #306f60; stroke: #808080; stroke-linejoin: miter"/>
   </g>
   <g id="patch_110">
    <path d="M 179.375 192.24 
L 193.325 192.24 
L 193.325 192.24 
L 179.375 192.24 
z
" clip-path="url(#pc62c2463cf)" style="fill: #306f60; stroke: #808080; stroke-linejoin: miter"/>
   </g>
   <g id="patch_111">
    <path d="M 194.875 192.24 
L 208.825 192.24 
L 208.825 192.24 
L 194.875 192.24 
z
" clip-path="url(#pc62c2463cf)" style="fill: #306f60; stroke: #808080; stroke-linejoin: miter"/>
   </g>
   <g id="patch_112">
    <path d="M 210.375 192.24 
L 224.325 192.24 
L 224.325 192.24 
L 210.375 192.24 
z
" clip-path="url(#pc62c2463cf)" style="fill: #306f60; stroke: #808080; stroke-linejoin: miter"/>
   </g>
   <g id="patch_113">
    <path d="M 225.875 192.24 
L 239.825 192.24 
L 239.825 192.24 
L 225.875 192.24 
z
" clip-path="url(#pc62c2463cf)" style="fill: #306f60; stroke: #808080; stroke-linejoin: miter"/>
   </g>
   <g id="patch_114">
    <path d="M 241.375 42.36228 
L 255.325 42.36228 
L 255.325 41.10228 
L 241.375 41.10228 
z
" clip-path="url(#pc62c2463cf)" style="fill: #306f60; stroke: #808080; stroke-linejoin: miter"/>
   </g>
   <g id="patch_115">
    <path d="M 39.875 192.24 
L 53.825 192.24 
L 53.825 192.24 
L 39.875 192.24 
z
" clip-path="url(#pc62c2463cf)" style="fill: #20b2aa; stroke: #808080; stroke-linejoin: miter"/>
   </g>
   <g id="patch_116">
    <path d="M 55.375 192.24 
L 69.325 192.24 
L 69.325 192.24 
L 55.375 192.24 
z
" clip-path="url(#pc62c2463cf)" style="fill: #20b2aa; stroke: #808080; stroke-linejoin: miter"/>
   </g>
   <g id="patch_117">
    <path d="M 70.875 88.29 
L 84.825 88.29 
L 84.825 67.5 
L 70.875 67.5 
z
" clip-path="url(#pc62c2463cf)" style="fill: #20b2aa; stroke: #808080; stroke-linejoin: miter"/>
   </g>
   <g id="patch_118">
    <path d="M 86.375 192.24 
L 100.325 192.24 
L 100.325 192.24 
L 86.375 192.24 
z
" clip-path="url(#pc62c2463cf)" style="fill: #20b2aa; stroke: #808080; stroke-linejoin: miter"/>
   </g>
   <g id="patch_119">
    <path d="M 101.875 192.24 
L 115.825 192.24 
L 115.825 192.24 
L 101.875 192.24 
z
" clip-path="url(#pc62c2463cf)" style="fill: #20b2aa; stroke: #808080; stroke-linejoin: miter"/>
   </g>
   <g id="patch_120">
    <path d="M 117.375 192.24 
L 131.325 192.24 
L 131.325 192.24 
L 117.375 192.24 
z
" clip-path="url(#pc62c2463cf)" style="fill: #20b2aa; stroke: #808080; stroke-linejoin: miter"/>
   </g>
   <g id="patch_121">
    <path d="M 132.875 192.24 
L 146.825 192.24 
L 146.825 192.24 
L 132.875 192.24 
z
" clip-path="url(#pc62c2463cf)" style="fill: #20b2aa; stroke: #808080; stroke-linejoin: miter"/>
   </g>
   <g id="patch_122">
    <path d="M 148.375 61.2 
L 162.325 61.2 
L 162.325 48.6 
L 148.375 48.6 
z
" clip-path="url(#pc62c2463cf)" style="fill: #20b2aa; stroke: #808080; stroke-linejoin: miter"/>
   </g>
   <g id="patch_123">
    <path d="M 163.875 192.24 
L 177.825 192.24 
L 177.825 192.24 
L 163.875 192.24 
z
" clip-path="url(#pc62c2463cf)" style="fill: #20b2aa; stroke: #808080; stroke-linejoin: miter"/>
   </g>
   <g id="patch_124">
    <path d="M 179.375 192.24 
L 193.325 192.24 
L 193.325 192.24 
L 179.375 192.24 
z
" clip-path="url(#pc62c2463cf)" style="fill: #20b2aa; stroke: #808080; stroke-linejoin: miter"/>
   </g>
   <g id="patch_125">
    <path d="M 194.875 192.24 
L 208.825 192.24 
L 208.825 192.24 
L 194.875 192.24 
z
" clip-path="url(#pc62c2463cf)" style="fill: #20b2aa; stroke: #808080; stroke-linejoin: miter"/>
   </g>
   <g id="patch_126">
    <path d="M 210.375 192.24 
L 224.325 192.24 
L 224.325 192.24 
L 210.375 192.24 
z
" clip-path="url(#pc62c2463cf)" style="fill: #20b2aa; stroke: #808080; stroke-linejoin: miter"/>
   </g>
   <g id="patch_127">
    <path d="M 225.875 192.24 
L 239.825 192.24 
L 239.825 192.24 
L 225.875 192.24 
z
" clip-path="url(#pc62c2463cf)" style="fill: #20b2aa; stroke: #808080; stroke-linejoin: miter"/>
   </g>
   <g id="patch_128">
    <path d="M 241.375 41.10228 
L 255.325 41.10228 
L 255.325 37.76328 
L 241.375 37.76328 
z
" clip-path="url(#pc62c2463cf)" style="fill: #20b2aa; stroke: #808080; stroke-linejoin: miter"/>
   </g>
   <g id="patch_129">
    <path d="M 39.875 192.24 
L 53.825 192.24 
L 53.825 192.24 
L 39.875 192.24 
z
" clip-path="url(#pc62c2463cf)" style="fill: #ffd5c0; stroke: #808080; stroke-linejoin: miter"/>
   </g>
   <g id="patch_130">
    <path d="M 55.375 192.24 
L 69.325 192.24 
L 69.325 192.24 
L 55.375 192.24 
z
" clip-path="url(#pc62c2463cf)" style="fill: #ffd5c0; stroke: #808080; stroke-linejoin: miter"/>
   </g>
   <g id="patch_131">
    <path d="M 70.875 67.5 
L 84.825 67.5 
L 84.825 53.64 
L 70.875 53.64 
z
" clip-path="url(#pc62c2463cf)" style="fill: #ffd5c0; stroke: #808080; stroke-linejoin: miter"/>
   </g>
   <g id="patch_132">
    <path d="M 86.375 192.24 
L 100.325 192.24 
L 100.325 192.24 
L 86.375 192.24 
z
" clip-path="url(#pc62c2463cf)" style="fill: #ffd5c0; stroke: #808080; stroke-linejoin: miter"/>
   </g>
   <g id="patch_133">
    <path d="M 101.875 192.24 
L 115.825 192.24 
L 115.825 192.24 
L 101.875 192.24 
z
" clip-path="url(#pc62c2463cf)" style="fill: #ffd5c0; stroke: #808080; stroke-linejoin: miter"/>
   </g>
   <g id="patch_134">
    <path d="M 117.375 192.24 
L 131.325 192.24 
L 131.325 192.24 
L 117.375 192.24 
z
" clip-path="url(#pc62c2463cf)" style="fill: #ffd5c0; stroke: #808080; stroke-linejoin: miter"/>
   </g>
   <g id="patch_135">
    <path d="M 132.875 192.24 
L 146.825 192.24 
L 146.825 192.24 
L 132.875 192.24 
z
" clip-path="url(#pc62c2463cf)" style="fill: #ffd5c0; stroke: #808080; stroke-linejoin: miter"/>
   </g>
   <g id="patch_136">
    <path d="M 148.375 192.24 
L 162.325 192.24 
L 162.325 192.24 
L 148.375 192.24 
z
" clip-path="url(#pc62c2463cf)" style="fill: #ffd5c0; stroke: #808080; stroke-linejoin: miter"/>
   </g>
   <g id="patch_137">
    <path d="M 163.875 192.24 
L 177.825 192.24 
L 177.825 192.24 
L 163.875 192.24 
z
" clip-path="url(#pc62c2463cf)" style="fill: #ffd5c0; stroke: #808080; stroke-linejoin: miter"/>
   </g>
   <g id="patch_138">
    <path d="M 179.375 192.24 
L 193.325 192.24 
L 193.325 192.24 
L 179.375 192.24 
z
" clip-path="url(#pc62c2463cf)" style="fill: #ffd5c0; stroke: #808080; stroke-linejoin: miter"/>
   </g>
   <g id="patch_139">
    <path d="M 194.875 192.24 
L 208.825 192.24 
L 208.825 192.24 
L 194.875 192.24 
z
" clip-path="url(#pc62c2463cf)" style="fill: #ffd5c0; stroke: #808080; stroke-linejoin: miter"/>
   </g>
   <g id="patch_140">
    <path d="M 210.375 192.24 
L 224.325 192.24 
L 224.325 192.24 
L 210.375 192.24 
z
" clip-path="url(#pc62c2463cf)" style="fill: #ffd5c0; stroke: #808080; stroke-linejoin: miter"/>
   </g>
   <g id="patch_141">
    <path d="M 225.875 192.24 
L 239.825 192.24 
L 239.825 192.24 
L 225.875 192.24 
z
" clip-path="url(#pc62c2463cf)" style="fill: #ffd5c0; stroke: #808080; stroke-linejoin: miter"/>
   </g>
   <g id="patch_142">
    <path d="M 241.375 37.76328 
L 255.325 37.76328 
L 255.325 36.37728 
L 241.375 36.37728 
z
" clip-path="url(#pc62c2463cf)" style="fill: #ffd5c0; stroke: #808080; stroke-linejoin: miter"/>
   </g>
   <g id="patch_143">
    <path d="M 39.875 192.24 
L 53.825 192.24 
L 53.825 192.24 
L 39.875 192.24 
z
" clip-path="url(#pc62c2463cf)" style="fill: #cf7e6b; stroke: #808080; stroke-linejoin: miter"/>
   </g>
   <g id="patch_144">
    <path d="M 55.375 192.24 
L 69.325 192.24 
L 69.325 192.24 
L 55.375 192.24 
z
" clip-path="url(#pc62c2463cf)" style="fill: #cf7e6b; stroke: #808080; stroke-linejoin: miter"/>
   </g>
   <g id="patch_145">
    <path d="M 70.875 53.64 
L 84.825 53.64 
L 84.825 25.92 
L 70.875 25.92 
z
" clip-path="url(#pc62c2463cf)" style="fill: #cf7e6b; stroke: #808080; stroke-linejoin: miter"/>
   </g>
   <g id="patch_146">
    <path d="M 86.375 192.24 
L 100.325 192.24 
L 100.325 192.24 
L 86.375 192.24 
z
" clip-path="url(#pc62c2463cf)" style="fill: #cf7e6b; stroke: #808080; stroke-linejoin: miter"/>
   </g>
   <g id="patch_147">
    <path d="M 101.875 192.24 
L 115.825 192.24 
L 115.825 192.24 
L 101.875 192.24 
z
" clip-path="url(#pc62c2463cf)" style="fill: #cf7e6b; stroke: #808080; stroke-linejoin: miter"/>
   </g>
   <g id="patch_148">
    <path d="M 117.375 192.24 
L 131.325 192.24 
L 131.325 192.24 
L 117.375 192.24 
z
" clip-path="url(#pc62c2463cf)" style="fill: #cf7e6b; stroke: #808080; stroke-linejoin: miter"/>
   </g>
   <g id="patch_149">
    <path d="M 132.875 192.24 
L 146.825 192.24 
L 146.825 192.24 
L 132.875 192.24 
z
" clip-path="url(#pc62c2463cf)" style="fill: #cf7e6b; stroke: #808080; stroke-linejoin: miter"/>
   </g>
   <g id="patch_150">
    <path d="M 148.375 48.6 
L 162.325 48.6 
L 162.325 41.04 
L 148.375 41.04 
z
" clip-path="url(#pc62c2463cf)" style="fill: #cf7e6b; stroke: #808080; stroke-linejoin: miter"/>
   </g>
   <g id="patch_151">
    <path d="M 163.875 192.24 
L 177.825 192.24 
L 177.825 192.24 
L 163.875 192.24 
z
" clip-path="url(#pc62c2463cf)" style="fill: #cf7e6b; stroke: #808080; stroke-linejoin: miter"/>
   </g>
   <g id="patch_152">
    <path d="M 179.375 192.24 
L 193.325 192.24 
L 193.325 192.24 
L 179.375 192.24 
z
" clip-path="url(#pc62c2463cf)" style="fill: #cf7e6b; stroke: #808080; stroke-linejoin: miter"/>
   </g>
   <g id="patch_153">
    <path d="M 194.875 192.24 
L 208.825 192.24 
L 208.825 192.24 
L 194.875 192.24 
z
" clip-path="url(#pc62c2463cf)" style="fill: #cf7e6b; stroke: #808080; stroke-linejoin: miter"/>
   </g>
   <g id="patch_154">
    <path d="M 210.375 192.24 
L 224.325 192.24 
L 224.325 192.24 
L 210.375 192.24 
z
" clip-path="url(#pc62c2463cf)" style="fill: #cf7e6b; stroke: #808080; stroke-linejoin: miter"/>
   </g>
   <g id="patch_155">
    <path d="M 225.875 192.24 
L 239.825 192.24 
L 239.825 192.24 
L 225.875 192.24 
z
" clip-path="url(#pc62c2463cf)" style="fill: #cf7e6b; stroke: #808080; stroke-linejoin: miter"/>
   </g>
   <g id="patch_156">
    <path d="M 241.375 36.37728 
L 255.325 36.37728 
L 255.325 32.84928 
L 241.375 32.84928 
z
" clip-path="url(#pc62c2463cf)" style="fill: #cf7e6b; stroke: #808080; stroke-linejoin: miter"/>
   </g>
   <g id="patch_157">
    <path d="M 39.875 192.24 
L 53.825 192.24 
L 53.825 192.24 
L 39.875 192.24 
z
" clip-path="url(#pc62c2463cf)" style="fill: #c8c229; stroke: #808080; stroke-linejoin: miter"/>
   </g>
   <g id="patch_158">
    <path d="M 55.375 192.24 
L 69.325 192.24 
L 69.325 192.24 
L 55.375 192.24 
z
" clip-path="url(#pc62c2463cf)" style="fill: #c8c229; stroke: #808080; stroke-linejoin: miter"/>
   </g>
   <g id="patch_159">
    <path d="M 70.875 192.24 
L 84.825 192.24 
L 84.825 192.24 
L 70.875 192.24 
z
" clip-path="url(#pc62c2463cf)" style="fill: #c8c229; stroke: #808080; stroke-linejoin: miter"/>
   </g>
   <g id="patch_160">
    <path d="M 86.375 192.24 
L 100.325 192.24 
L 100.325 192.24 
L 86.375 192.24 
z
" clip-path="url(#pc62c2463cf)" style="fill: #c8c229; stroke: #808080; stroke-linejoin: miter"/>
   </g>
   <g id="patch_161">
    <path d="M 101.875 192.24 
L 115.825 192.24 
L 115.825 192.24 
L 101.875 192.24 
z
" clip-path="url(#pc62c2463cf)" style="fill: #c8c229; stroke: #808080; stroke-linejoin: miter"/>
   </g>
   <g id="patch_162">
    <path d="M 117.375 192.24 
L 131.325 192.24 
L 131.325 192.24 
L 117.375 192.24 
z
" clip-path="url(#pc62c2463cf)" style="fill: #c8c229; stroke: #808080; stroke-linejoin: miter"/>
   </g>
   <g id="patch_163">
    <path d="M 132.875 192.24 
L 146.825 192.24 
L 146.825 192.24 
L 132.875 192.24 
z
" clip-path="url(#pc62c2463cf)" style="fill: #c8c229; stroke: #808080; stroke-linejoin: miter"/>
   </g>
   <g id="patch_164">
    <path d="M 148.375 41.04 
L 162.325 41.04 
L 162.325 25.92 
L 148.375 25.92 
z
" clip-path="url(#pc62c2463cf)" style="fill: #c8c229; stroke: #808080; stroke-linejoin: miter"/>
   </g>
   <g id="patch_165">
    <path d="M 163.875 192.24 
L 177.825 192.24 
L 177.825 192.24 
L 163.875 192.24 
z
" clip-path="url(#pc62c2463cf)" style="fill: #c8c229; stroke: #808080; stroke-linejoin: miter"/>
   </g>
   <g id="patch_166">
    <path d="M 179.375 192.24 
L 193.325 192.24 
L 193.325 192.24 
L 179.375 192.24 
z
" clip-path="url(#pc62c2463cf)" style="fill: #c8c229; stroke: #808080; stroke-linejoin: miter"/>
   </g>
   <g id="patch_167">
    <path d="M 194.875 192.24 
L 208.825 192.24 
L 208.825 192.24 
L 194.875 192.24 
z
" clip-path="url(#pc62c2463cf)" style="fill: #c8c229; stroke: #808080; stroke-linejoin: miter"/>
   </g>
   <g id="patch_168">
    <path d="M 210.375 192.24 
L 224.325 192.24 
L 224.325 192.24 
L 210.375 192.24 
z
" clip-path="url(#pc62c2463cf)" style="fill: #c8c229; stroke: #808080; stroke-linejoin: miter"/>
   </g>
   <g id="patch_169">
    <path d="M 225.875 73.44 
L 239.825 73.44 
L 239.825 25.92 
L 225.875 25.92 
z
" clip-path="url(#pc62c2463cf)" style="fill: #c8c229; stroke: #808080; stroke-linejoin: miter"/>
   </g>
   <g id="patch_170">
    <path d="M 241.375 32.84928 
L 255.325 32.84928 
L 255.325 26.58528 
L 241.375 26.58528 
z
" clip-path="url(#pc62c2463cf)" style="fill: #c8c229; stroke: #808080; stroke-linejoin: miter"/>
   </g>
   <g id="patch_171">
    <path d="M 39.875 192.24 
L 53.825 192.24 
L 53.825 192.24 
L 39.875 192.24 
z
" clip-path="url(#pc62c2463cf)" style="fill: #911c1c; stroke: #808080; stroke-linejoin: miter"/>
   </g>
   <g id="patch_172">
    <path d="M 55.375 192.24 
L 69.325 192.24 
L 69.325 192.24 
L 55.375 192.24 
z
" clip-path="url(#pc62c2463cf)" style="fill: #911c1c; stroke: #808080; stroke-linejoin: miter"/>
   </g>
   <g id="patch_173">
    <path d="M 70.875 192.24 
L 84.825 192.24 
L 84.825 192.24 
L 70.875 192.24 
z
" clip-path="url(#pc62c2463cf)" style="fill: #911c1c; stroke: #808080; stroke-linejoin: miter"/>
   </g>
   <g id="patch_174">
    <path d="M 86.375 192.24 
L 100.325 192.24 
L 100.325 192.24 
L 86.375 192.24 
z
" clip-path="url(#pc62c2463cf)" style="fill: #911c1c; stroke: #808080; stroke-linejoin: miter"/>
   </g>
   <g id="patch_175">
    <path d="M 101.875 192.24 
L 115.825 192.24 
L 115.825 192.24 
L 101.875 192.24 
z
" clip-path="url(#pc62c2463cf)" style="fill: #911c1c; stroke: #808080; stroke-linejoin: miter"/>
   </g>
   <g id="patch_176">
    <path d="M 117.375 192.24 
L 131.325 192.24 
L 131.325 192.24 
L 117.375 192.24 
z
" clip-path="url(#pc62c2463cf)" style="fill: #911c1c; stroke: #808080; stroke-linejoin: miter"/>
   </g>
   <g id="patch_177">
    <path d="M 132.875 32.5728 
L 146.825 32.5728 
L 146.825 25.92 
L 132.875 25.92 
z
" clip-path="url(#pc62c2463cf)" style="fill: #911c1c; stroke: #808080; stroke-linejoin: miter"/>
   </g>
   <g id="patch_178">
    <path d="M 148.375 192.24 
L 162.325 192.24 
L 162.325 192.24 
L 148.375 192.24 
z
" clip-path="url(#pc62c2463cf)" style="fill: #911c1c; stroke: #808080; stroke-linejoin: miter"/>
   </g>
   <g id="patch_179">
    <path d="M 163.875 192.24 
L 177.825 192.24 
L 177.825 192.24 
L 163.875 192.24 
z
" clip-path="url(#pc62c2463cf)" style="fill: #911c1c; stroke: #808080; stroke-linejoin: miter"/>
   </g>
   <g id="patch_180">
    <path d="M 179.375 192.24 
L 193.325 192.24 
L 193.325 192.24 
L 179.375 192.24 
z
" clip-path="url(#pc62c2463cf)" style="fill: #911c1c; stroke: #808080; stroke-linejoin: miter"/>
   </g>
   <g id="patch_181">
    <path d="M 194.875 192.24 
L 208.825 192.24 
L 208.825 192.24 
L 194.875 192.24 
z
" clip-path="url(#pc62c2463cf)" style="fill: #911c1c; stroke: #808080; stroke-linejoin: miter"/>
   </g>
   <g id="patch_182">
    <path d="M 210.375 192.24 
L 224.325 192.24 
L 224.325 192.24 
L 210.375 192.24 
z
" clip-path="url(#pc62c2463cf)" style="fill: #911c1c; stroke: #808080; stroke-linejoin: miter"/>
   </g>
   <g id="patch_183">
    <path d="M 225.875 192.24 
L 239.825 192.24 
L 239.825 192.24 
L 225.875 192.24 
z
" clip-path="url(#pc62c2463cf)" style="fill: #911c1c; stroke: #808080; stroke-linejoin: miter"/>
   </g>
   <g id="patch_184">
    <path d="M 241.375 26.58528 
L 255.325 26.58528 
L 255.325 25.92 
L 241.375 25.92 
z
" clip-path="url(#pc62c2463cf)" style="fill: #911c1c; stroke: #808080; stroke-linejoin: miter"/>
   </g>
   <g id="matplotlib.axis_1"/>
   <g id="matplotlib.axis_2">
    <g id="ytick_1">
     <g id="line2d_1">
      <defs>
       <path id="m2a1c6dac02" d="M 0 0 
L -3.5 0 
" style="stroke: #000000; stroke-width: 0.8"/>
      </defs>
      <g>
       <use xlink:href="#m2a1c6dac02" x="36" y="192.24" style="stroke: #000000; stroke-width: 0.8"/>
      </g>
     </g>
     <g id="text_1">
      <!-- 0.0 -->
      <g transform="translate(15.053125 196.039219) scale(0.1 -0.1)">
       <defs>
        <path id="Tahoma-30" d="M 3234 2328 
Q 3234 1075 2870 489 
Q 2506 -97 1747 -97 
Q 978 -97 618 500 
Q 259 1097 259 2322 
Q 259 3581 623 4164 
Q 988 4747 1747 4747 
Q 2516 4747 2875 4144 
Q 3234 3541 3234 2328 
z
M 2434 909 
Q 2525 1141 2562 1494 
Q 2600 1847 2600 2328 
Q 2600 2806 2562 3159 
Q 2525 3513 2431 3747 
Q 2338 3984 2173 4107 
Q 2009 4231 1747 4231 
Q 1488 4231 1320 4107 
Q 1153 3984 1056 3741 
Q 963 3503 928 3140 
Q 894 2778 894 2322 
Q 894 1834 923 1506 
Q 953 1178 1053 919 
Q 1144 678 1311 548 
Q 1478 419 1747 419 
Q 2006 419 2173 542 
Q 2341 666 2434 909 
z
" transform="scale(0.015625)"/>
        <path id="Tahoma-2e" d="M 1341 0 
L 594 0 
L 594 891 
L 1341 891 
L 1341 0 
z
" transform="scale(0.015625)"/>
       </defs>
       <use xlink:href="#Tahoma-30"/>
       <use xlink:href="#Tahoma-2e" x="54.589844"/>
       <use xlink:href="#Tahoma-30" x="84.863281"/>
      </g>
     </g>
    </g>
    <g id="ytick_2">
     <g id="line2d_2">
      <g>
       <use xlink:href="#m2a1c6dac02" x="36" y="158.976" style="stroke: #000000; stroke-width: 0.8"/>
      </g>
     </g>
     <g id="text_2">
      <!-- 0.2 -->
      <g transform="translate(15.053125 162.775219) scale(0.1 -0.1)">
       <defs>
        <path id="Tahoma-32" d="M 3213 0 
L 341 0 
L 341 653 
Q 650 947 925 1215 
Q 1200 1484 1463 1775 
Q 1994 2359 2187 2711 
Q 2381 3063 2381 3438 
Q 2381 3631 2320 3778 
Q 2259 3925 2153 4022 
Q 2044 4116 1900 4162 
Q 1756 4209 1584 4209 
Q 1419 4209 1248 4167 
Q 1078 4125 922 4063 
Q 791 4009 669 3934 
Q 547 3859 472 3806 
L 438 3806 
L 438 4469 
Q 631 4566 976 4658 
Q 1322 4750 1631 4750 
Q 2281 4750 2650 4404 
Q 3019 4059 3019 3469 
Q 3019 3197 2955 2965 
Q 2891 2734 2778 2538 
Q 2663 2334 2500 2134 
Q 2338 1934 2156 1741 
Q 1863 1422 1502 1078 
Q 1141 734 925 534 
L 3213 534 
L 3213 0 
z
" transform="scale(0.015625)"/>
       </defs>
       <use xlink:href="#Tahoma-30"/>
       <use xlink:href="#Tahoma-2e" x="54.589844"/>
       <use xlink:href="#Tahoma-32" x="84.863281"/>
      </g>
     </g>
    </g>
    <g id="ytick_3">
     <g id="line2d_3">
      <g>
       <use xlink:href="#m2a1c6dac02" x="36" y="125.712" style="stroke: #000000; stroke-width: 0.8"/>
      </g>
     </g>
     <g id="text_3">
      <!-- 0.4 -->
      <g transform="translate(15.053125 129.511219) scale(0.1 -0.1)">
       <defs>
        <path id="Tahoma-34" d="M 3334 1600 
L 2781 1600 
L 2781 0 
L 2181 0 
L 2181 1600 
L 125 1600 
L 125 2256 
L 2206 4653 
L 2781 4653 
L 2781 2100 
L 3334 2100 
L 3334 1600 
z
M 2181 2100 
L 2181 3919 
L 613 2100 
L 2181 2100 
z
" transform="scale(0.015625)"/>
       </defs>
       <use xlink:href="#Tahoma-30"/>
       <use xlink:href="#Tahoma-2e" x="54.589844"/>
       <use xlink:href="#Tahoma-34" x="84.863281"/>
      </g>
     </g>
    </g>
    <g id="ytick_4">
     <g id="line2d_4">
      <g>
       <use xlink:href="#m2a1c6dac02" x="36" y="92.448" style="stroke: #000000; stroke-width: 0.8"/>
      </g>
     </g>
     <g id="text_4">
      <!-- 0.6 -->
      <g transform="translate(15.053125 96.247219) scale(0.1 -0.1)">
       <defs>
        <path id="Tahoma-36" d="M 3284 1509 
Q 3284 1150 3165 847 
Q 3047 544 2847 341 
Q 2638 125 2378 14 
Q 2119 -97 1806 -97 
Q 1491 -97 1233 9 
Q 975 116 778 325 
Q 538 578 402 1001 
Q 266 1425 266 2044 
Q 266 2650 391 3139 
Q 516 3628 775 3991 
Q 1028 4344 1428 4542 
Q 1828 4741 2353 4741 
Q 2509 4741 2643 4725 
Q 2778 4709 2881 4675 
L 2881 4078 
L 2853 4078 
Q 2769 4125 2609 4164 
Q 2450 4203 2269 4203 
Q 1688 4203 1330 3811 
Q 972 3419 906 2647 
Q 1128 2803 1362 2887 
Q 1597 2972 1875 2972 
Q 2147 2972 2351 2917 
Q 2556 2863 2778 2697 
Q 3034 2503 3159 2206 
Q 3284 1909 3284 1509 
z
M 2650 1484 
Q 2650 1772 2575 1965 
Q 2500 2159 2331 2297 
Q 2209 2397 2054 2428 
Q 1900 2459 1738 2459 
Q 1519 2459 1312 2393 
Q 1106 2328 906 2203 
Q 900 2134 897 2070 
Q 894 2006 894 1909 
Q 894 1425 989 1128 
Q 1084 831 1225 678 
Q 1359 531 1501 472 
Q 1644 413 1809 413 
Q 2184 413 2417 681 
Q 2650 950 2650 1484 
z
" transform="scale(0.015625)"/>
       </defs>
       <use xlink:href="#Tahoma-30"/>
       <use xlink:href="#Tahoma-2e" x="54.589844"/>
       <use xlink:href="#Tahoma-36" x="84.863281"/>
      </g>
     </g>
    </g>
    <g id="ytick_5">
     <g id="line2d_5">
      <g>
       <use xlink:href="#m2a1c6dac02" x="36" y="59.184" style="stroke: #000000; stroke-width: 0.8"/>
      </g>
     </g>
     <g id="text_5">
      <!-- 0.8 -->
      <g transform="translate(15.053125 62.983219) scale(0.1 -0.1)">
       <defs>
        <path id="Tahoma-38" d="M 2534 3569 
Q 2534 3881 2325 4090 
Q 2116 4300 1744 4300 
Q 1403 4300 1186 4112 
Q 969 3925 969 3606 
Q 969 3375 1080 3215 
Q 1191 3056 1413 2928 
Q 1509 2875 1707 2781 
Q 1906 2688 2069 2634 
Q 2341 2844 2437 3064 
Q 2534 3284 2534 3569 
z
M 2622 1238 
Q 2622 1525 2509 1694 
Q 2397 1863 2075 2038 
Q 1969 2097 1792 2165 
Q 1616 2234 1394 2328 
Q 1134 2156 996 1904 
Q 859 1653 859 1331 
Q 859 909 1114 634 
Q 1369 359 1753 359 
Q 2147 359 2384 595 
Q 2622 831 2622 1238 
z
M 1747 -106 
Q 1400 -106 1115 -3 
Q 831 100 631 294 
Q 434 481 332 739 
Q 231 997 231 1284 
Q 231 1663 432 1980 
Q 634 2297 1019 2484 
L 1019 2503 
Q 675 2703 509 2940 
Q 344 3178 344 3534 
Q 344 4059 741 4409 
Q 1138 4759 1747 4759 
Q 2381 4759 2764 4426 
Q 3147 4094 3147 3575 
Q 3147 3263 2964 2956 
Q 2781 2650 2438 2478 
L 2438 2459 
Q 2844 2269 3053 1997 
Q 3263 1725 3263 1297 
Q 3263 700 2830 297 
Q 2397 -106 1747 -106 
z
" transform="scale(0.015625)"/>
       </defs>
       <use xlink:href="#Tahoma-30"/>
       <use xlink:href="#Tahoma-2e" x="54.589844"/>
       <use xlink:href="#Tahoma-38" x="84.863281"/>
      </g>
     </g>
    </g>
    <g id="ytick_6">
     <g id="line2d_6">
      <g>
       <use xlink:href="#m2a1c6dac02" x="36" y="25.92" style="stroke: #000000; stroke-width: 0.8"/>
      </g>
     </g>
     <g id="text_6">
      <!-- 1.0 -->
      <g transform="translate(15.053125 29.719219) scale(0.1 -0.1)">
       <defs>
        <path id="Tahoma-31" d="M 2975 0 
L 706 0 
L 706 475 
L 1550 475 
L 1550 3594 
L 706 3594 
L 706 4019 
Q 1184 4019 1411 4155 
Q 1638 4291 1666 4669 
L 2150 4669 
L 2150 475 
L 2975 475 
L 2975 0 
z
" transform="scale(0.015625)"/>
       </defs>
       <use xlink:href="#Tahoma-31"/>
       <use xlink:href="#Tahoma-2e" x="54.589844"/>
       <use xlink:href="#Tahoma-30" x="84.863281"/>
      </g>
     </g>
    </g>
   </g>
   <g id="patch_185">
    <path d="M 36 192.24 
L 36 25.92 
" style="fill: none; stroke: #000000; stroke-width: 0.8; stroke-linejoin: miter; stroke-linecap: square"/>
   </g>
   <g id="patch_186">
    <path d="M 36 192.24 
L 259.2 192.24 
" style="fill: none; stroke: #000000; stroke-width: 0.8; stroke-linejoin: miter; stroke-linecap: square"/>
   </g>
   <g id="legend_1">
    <g id="patch_187">
     <path d="M 266.2 223.915313 
L 389.329687 223.915313 
Q 391.329687 223.915313 391.329687 221.915313 
L 391.329687 32.92 
Q 391.329687 30.92 389.329687 30.92 
L 266.2 30.92 
Q 264.2 30.92 264.2 32.92 
L 264.2 221.915313 
Q 264.2 223.915313 266.2 223.915313 
z
" style="fill: #ffffff; opacity: 0.8; stroke: #cccccc; stroke-linejoin: miter"/>
    </g>
    <g id="patch_188">
     <path d="M 268.2 42.518437 
L 288.2 42.518437 
L 288.2 35.518437 
L 268.2 35.518437 
z
" style="fill: #ffd700; stroke: #808080; stroke-linejoin: miter"/>
    </g>
    <g id="text_7">
     <!-- Streptococcus -->
     <g transform="translate(296.2 42.518437) scale(0.1 -0.1)">
      <defs>
       <path id="Tahoma-53" d="M 1769 -84 
Q 1263 -84 908 20 
Q 553 125 241 278 
L 241 1053 
L 284 1053 
Q 591 766 978 608 
Q 1366 450 1725 450 
Q 2238 450 2500 664 
Q 2763 878 2763 1228 
Q 2763 1506 2625 1681 
Q 2488 1856 2188 1941 
Q 1972 2003 1794 2043 
Q 1616 2084 1347 2153 
Q 1106 2216 915 2312 
Q 725 2409 578 2566 
Q 434 2719 354 2926 
Q 275 3134 275 3406 
Q 275 3972 715 4355 
Q 1156 4738 1841 4738 
Q 2231 4738 2579 4659 
Q 2928 4581 3225 4438 
L 3225 3697 
L 3178 3697 
Q 2956 3900 2609 4051 
Q 2263 4203 1881 4203 
Q 1450 4203 1184 4001 
Q 919 3800 919 3472 
Q 919 3175 1075 3000 
Q 1231 2825 1528 2744 
Q 1725 2691 2009 2623 
Q 2294 2556 2481 2500 
Q 2963 2353 3184 2056 
Q 3406 1759 3406 1325 
Q 3406 1053 3295 787 
Q 3184 522 2984 338 
Q 2759 134 2476 25 
Q 2194 -84 1769 -84 
z
" transform="scale(0.015625)"/>
       <path id="Tahoma-74" d="M 1481 -69 
Q 1000 -69 731 204 
Q 463 478 463 1069 
L 463 3003 
L 66 3003 
L 66 3491 
L 463 3491 
L 463 4494 
L 1050 4494 
L 1050 3491 
L 2131 3491 
L 2131 3003 
L 1050 3003 
L 1050 1344 
Q 1050 1078 1059 934 
Q 1069 791 1131 666 
Q 1184 556 1303 501 
Q 1422 447 1625 447 
Q 1769 447 1903 489 
Q 2038 531 2097 559 
L 2131 559 
L 2131 31 
Q 1966 -16 1795 -42 
Q 1625 -69 1481 -69 
z
" transform="scale(0.015625)"/>
       <path id="Tahoma-72" d="M 2275 2859 
L 2244 2859 
Q 2178 2878 2104 2883 
Q 2031 2888 1928 2888 
Q 1691 2888 1456 2784 
Q 1222 2681 1013 2478 
L 1013 0 
L 425 0 
L 425 3491 
L 1013 3491 
L 1013 2972 
Q 1334 3256 1573 3373 
Q 1813 3491 2038 3491 
Q 2128 3491 2173 3486 
Q 2219 3481 2275 3472 
L 2275 2859 
z
" transform="scale(0.015625)"/>
       <path id="Tahoma-65" d="M 1941 -81 
Q 1106 -81 645 389 
Q 184 859 184 1725 
Q 184 2578 631 3083 
Q 1078 3588 1800 3588 
Q 2125 3588 2375 3494 
Q 2625 3400 2813 3200 
Q 3000 3000 3100 2711 
Q 3200 2422 3200 2003 
L 3200 1684 
L 781 1684 
Q 781 1075 1087 753 
Q 1394 431 1934 431 
Q 2128 431 2314 475 
Q 2500 519 2650 588 
Q 2809 659 2918 726 
Q 3028 794 3100 853 
L 3134 853 
L 3134 213 
Q 3031 172 2878 111 
Q 2725 50 2603 16 
Q 2431 -31 2292 -56 
Q 2153 -81 1941 -81 
z
M 2628 2134 
Q 2622 2372 2572 2544 
Q 2522 2716 2428 2834 
Q 2325 2966 2164 3034 
Q 2003 3103 1766 3103 
Q 1531 3103 1367 3033 
Q 1203 2963 1069 2828 
Q 938 2691 869 2523 
Q 800 2356 781 2134 
L 2628 2134 
z
" transform="scale(0.015625)"/>
       <path id="Tahoma-70" d="M 3353 1838 
Q 3353 966 2936 448 
Q 2519 -69 1881 -69 
Q 1622 -69 1422 -9 
Q 1222 50 1013 175 
L 1013 -1288 
L 425 -1288 
L 425 3491 
L 1013 3491 
L 1013 3125 
Q 1231 3322 1498 3455 
Q 1766 3588 2081 3588 
Q 2681 3588 3017 3113 
Q 3353 2638 3353 1838 
z
M 2747 1772 
Q 2747 2369 2556 2698 
Q 2366 3028 1938 3028 
Q 1688 3028 1455 2917 
Q 1222 2806 1013 2631 
L 1013 653 
Q 1244 541 1408 500 
Q 1572 459 1784 459 
Q 2241 459 2494 793 
Q 2747 1128 2747 1772 
z
" transform="scale(0.015625)"/>
       <path id="Tahoma-6f" d="M 3297 1744 
Q 3297 863 2872 383 
Q 2447 -97 1741 -97 
Q 1013 -97 595 398 
Q 178 894 178 1744 
Q 178 2619 608 3103 
Q 1038 3588 1741 3588 
Q 2447 3588 2872 3105 
Q 3297 2622 3297 1744 
z
M 2691 1744 
Q 2691 2422 2444 2751 
Q 2197 3081 1741 3081 
Q 1281 3081 1032 2751 
Q 784 2422 784 1744 
Q 784 1088 1032 748 
Q 1281 409 1741 409 
Q 2194 409 2442 742 
Q 2691 1075 2691 1744 
z
" transform="scale(0.015625)"/>
       <path id="Tahoma-63" d="M 1813 -78 
Q 1453 -78 1153 33 
Q 853 144 638 369 
Q 422 594 303 936 
Q 184 1278 184 1741 
Q 184 2200 307 2534 
Q 431 2869 638 3097 
Q 844 3325 1151 3448 
Q 1459 3572 1813 3572 
Q 2100 3572 2367 3490 
Q 2634 3409 2844 3303 
L 2844 2644 
L 2809 2644 
Q 2747 2697 2648 2765 
Q 2550 2834 2409 2906 
Q 2288 2969 2122 3016 
Q 1956 3063 1803 3063 
Q 1347 3063 1070 2717 
Q 794 2372 794 1741 
Q 794 1122 1061 776 
Q 1328 431 1803 431 
Q 2091 431 2350 550 
Q 2609 669 2809 856 
L 2844 856 
L 2844 197 
Q 2756 156 2625 98 
Q 2494 41 2388 13 
Q 2238 -31 2119 -54 
Q 2000 -78 1813 -78 
z
" transform="scale(0.015625)"/>
       <path id="Tahoma-75" d="M 3144 0 
L 2556 0 
L 2556 388 
Q 2284 150 2040 26 
Q 1797 -97 1497 -97 
Q 1269 -97 1067 -22 
Q 866 53 716 216 
Q 566 378 483 625 
Q 400 872 400 1225 
L 400 3491 
L 988 3491 
L 988 1503 
Q 988 1225 1008 1042 
Q 1028 859 1100 722 
Q 1172 588 1295 525 
Q 1419 463 1650 463 
Q 1866 463 2109 584 
Q 2353 706 2556 884 
L 2556 3491 
L 3144 3491 
L 3144 0 
z
" transform="scale(0.015625)"/>
       <path id="Tahoma-73" d="M 1369 -84 
Q 1019 -84 714 9 
Q 409 103 209 209 
L 209 869 
L 241 869 
Q 316 809 417 737 
Q 519 666 688 588 
Q 838 519 1017 466 
Q 1197 413 1391 413 
Q 1531 413 1690 445 
Q 1850 478 1928 528 
Q 2038 600 2086 681 
Q 2134 763 2134 925 
Q 2134 1134 2020 1240 
Q 1906 1347 1616 1419 
Q 1503 1447 1322 1484 
Q 1141 1522 988 1566 
Q 588 1681 406 1923 
Q 225 2166 225 2509 
Q 225 2981 581 3278 
Q 938 3575 1528 3575 
Q 1819 3575 2112 3503 
Q 2406 3431 2606 3322 
L 2606 2694 
L 2575 2694 
Q 2350 2872 2073 2975 
Q 1797 3078 1516 3078 
Q 1225 3078 1025 2956 
Q 825 2834 825 2588 
Q 825 2369 944 2261 
Q 1063 2153 1325 2084 
Q 1456 2050 1617 2017 
Q 1778 1984 1956 1941 
Q 2344 1844 2539 1619 
Q 2734 1394 2734 1006 
Q 2734 781 2645 579 
Q 2556 378 2384 234 
Q 2197 78 1961 -3 
Q 1725 -84 1369 -84 
z
" transform="scale(0.015625)"/>
      </defs>
      <use xlink:href="#Tahoma-53"/>
      <use xlink:href="#Tahoma-74" x="55.712891"/>
      <use xlink:href="#Tahoma-72" x="89.160156"/>
      <use xlink:href="#Tahoma-65" x="124.695312"/>
      <use xlink:href="#Tahoma-70" x="177.332031"/>
      <use xlink:href="#Tahoma-74" x="232.605469"/>
      <use xlink:href="#Tahoma-6f" x="266.052734"/>
      <use xlink:href="#Tahoma-63" x="320.349609"/>
      <use xlink:href="#Tahoma-6f" x="366.492188"/>
      <use xlink:href="#Tahoma-63" x="420.789062"/>
      <use xlink:href="#Tahoma-63" x="466.681641"/>
      <use xlink:href="#Tahoma-75" x="512.824219"/>
      <use xlink:href="#Tahoma-73" x="568.585938"/>
     </g>
    </g>
    <g id="patch_189">
     <path d="M 268.2 57.129375 
L 288.2 57.129375 
L 288.2 50.129375 
L 268.2 50.129375 
z
" style="fill: #7393b3; stroke: #808080; stroke-linejoin: miter"/>
    </g>
    <g id="text_8">
     <!-- Enterobacteriaceae -->
     <g transform="translate(296.2 57.129375) scale(0.1 -0.1)">
      <defs>
       <path id="Tahoma-45" d="M 472 0 
L 472 4653 
L 3381 4653 
L 3381 4103 
L 1091 4103 
L 1091 2828 
L 3225 2828 
L 3225 2278 
L 1091 2278 
L 1091 550 
L 3381 550 
L 3381 0 
L 472 0 
z
" transform="scale(0.015625)"/>
       <path id="Tahoma-6e" d="M 3169 0 
L 2581 0 
L 2581 1988 
Q 2581 2228 2557 2436 
Q 2534 2644 2469 2769 
Q 2397 2900 2269 2964 
Q 2141 3028 1919 3028 
Q 1700 3028 1467 2911 
Q 1234 2794 1013 2606 
L 1013 0 
L 425 0 
L 425 3491 
L 1013 3491 
L 1013 3103 
Q 1275 3338 1531 3463 
Q 1788 3588 2072 3588 
Q 2588 3588 2878 3248 
Q 3169 2909 3169 2266 
L 3169 0 
z
" transform="scale(0.015625)"/>
       <path id="Tahoma-62" d="M 2747 1756 
Q 2747 2381 2556 2704 
Q 2366 3028 1944 3028 
Q 1703 3028 1458 2915 
Q 1213 2803 1013 2631 
L 1013 631 
Q 1234 522 1406 476 
Q 1578 431 1784 431 
Q 2234 431 2490 750 
Q 2747 1069 2747 1756 
z
M 3353 1803 
Q 3353 947 2937 425 
Q 2522 -97 1897 -97 
Q 1613 -97 1411 -26 
Q 1209 44 1013 163 
L 975 0 
L 425 0 
L 425 4863 
L 1013 4863 
L 1013 3125 
Q 1234 3325 1493 3456 
Q 1753 3588 2081 3588 
Q 2672 3588 3012 3114 
Q 3353 2641 3353 1803 
z
" transform="scale(0.015625)"/>
       <path id="Tahoma-61" d="M 2375 859 
L 2375 1828 
Q 2166 1809 1845 1776 
Q 1525 1744 1328 1684 
Q 1094 1613 941 1464 
Q 788 1316 788 1050 
Q 788 750 956 597 
Q 1125 444 1450 444 
Q 1728 444 1953 564 
Q 2178 684 2375 859 
z
M 2375 372 
Q 2303 319 2183 223 
Q 2063 128 1950 72 
Q 1794 -9 1648 -53 
Q 1503 -97 1241 -97 
Q 1025 -97 831 -15 
Q 638 66 491 213 
Q 350 356 265 567 
Q 181 778 181 1013 
Q 181 1375 334 1629 
Q 488 1884 819 2034 
Q 1113 2169 1513 2220 
Q 1913 2272 2375 2297 
L 2375 2409 
Q 2375 2616 2312 2742 
Q 2250 2869 2138 2938 
Q 2025 3009 1862 3032 
Q 1700 3056 1528 3056 
Q 1325 3056 1050 2995 
Q 775 2934 500 2819 
L 466 2819 
L 466 3416 
Q 628 3463 931 3519 
Q 1234 3575 1531 3575 
Q 1891 3575 2137 3519 
Q 2384 3463 2581 3316 
Q 2772 3172 2865 2944 
Q 2959 2716 2959 2388 
L 2959 0 
L 2375 0 
L 2375 372 
z
" transform="scale(0.015625)"/>
       <path id="Tahoma-69" d="M 1025 0 
L 438 0 
L 438 3491 
L 1025 3491 
L 1025 0 
z
M 1066 4075 
L 397 4075 
L 397 4684 
L 1066 4684 
L 1066 4075 
z
" transform="scale(0.015625)"/>
      </defs>
      <use xlink:href="#Tahoma-45"/>
      <use xlink:href="#Tahoma-6e" x="56.103516"/>
      <use xlink:href="#Tahoma-74" x="111.865234"/>
      <use xlink:href="#Tahoma-65" x="145.3125"/>
      <use xlink:href="#Tahoma-72" x="197.949219"/>
      <use xlink:href="#Tahoma-6f" x="233.484375"/>
      <use xlink:href="#Tahoma-62" x="287.78125"/>
      <use xlink:href="#Tahoma-61" x="343.054688"/>
      <use xlink:href="#Tahoma-63" x="395.544922"/>
      <use xlink:href="#Tahoma-74" x="441.6875"/>
      <use xlink:href="#Tahoma-65" x="475.134766"/>
      <use xlink:href="#Tahoma-72" x="527.771484"/>
      <use xlink:href="#Tahoma-69" x="563.806641"/>
      <use xlink:href="#Tahoma-61" x="586.658203"/>
      <use xlink:href="#Tahoma-63" x="639.148438"/>
      <use xlink:href="#Tahoma-65" x="685.291016"/>
      <use xlink:href="#Tahoma-61" x="737.927734"/>
      <use xlink:href="#Tahoma-65" x="790.417969"/>
     </g>
    </g>
    <g id="patch_190">
     <path d="M 268.2 71.740312 
L 288.2 71.740312 
L 288.2 64.740312 
L 268.2 64.740312 
z
" style="fill: #7f6759; stroke: #808080; stroke-linejoin: miter"/>
    </g>
    <g id="text_9">
     <!-- Micrococcus -->
     <g transform="translate(296.2 71.740312) scale(0.1 -0.1)">
      <defs>
       <path id="Tahoma-4d" d="M 4459 0 
L 3841 0 
L 3841 4009 
L 2628 1281 
L 2253 1281 
L 1050 4009 
L 1050 0 
L 472 0 
L 472 4653 
L 1316 4653 
L 2478 2063 
L 3600 4653 
L 4459 4653 
L 4459 0 
z
" transform="scale(0.015625)"/>
      </defs>
      <use xlink:href="#Tahoma-4d"/>
      <use xlink:href="#Tahoma-69" x="77.050781"/>
      <use xlink:href="#Tahoma-63" x="99.902344"/>
      <use xlink:href="#Tahoma-72" x="146.044922"/>
      <use xlink:href="#Tahoma-6f" x="181.580078"/>
      <use xlink:href="#Tahoma-63" x="235.876953"/>
      <use xlink:href="#Tahoma-6f" x="282.019531"/>
      <use xlink:href="#Tahoma-63" x="336.316406"/>
      <use xlink:href="#Tahoma-63" x="382.208984"/>
      <use xlink:href="#Tahoma-75" x="428.351562"/>
      <use xlink:href="#Tahoma-73" x="484.113281"/>
     </g>
    </g>
    <g id="patch_191">
     <path d="M 268.2 86.35125 
L 288.2 86.35125 
L 288.2 79.35125 
L 268.2 79.35125 
z
" style="fill: #e5b8ff; stroke: #808080; stroke-linejoin: miter"/>
    </g>
    <g id="text_10">
     <!-- Propionibacteriaceae -->
     <g transform="translate(296.2 86.35125) scale(0.1 -0.1)">
      <defs>
       <path id="Tahoma-50" d="M 3409 3250 
Q 3409 2947 3301 2676 
Q 3194 2406 3003 2216 
Q 2763 1978 2438 1856 
Q 2113 1734 1616 1734 
L 1091 1734 
L 1091 0 
L 472 0 
L 472 4653 
L 1641 4653 
Q 2053 4653 2343 4584 
Q 2634 4516 2856 4363 
Q 3116 4184 3262 3911 
Q 3409 3638 3409 3250 
z
M 2766 3234 
Q 2766 3475 2683 3653 
Q 2600 3831 2431 3944 
Q 2284 4041 2089 4081 
Q 1894 4122 1603 4122 
L 1091 4122 
L 1091 2263 
L 1513 2263 
Q 1888 2263 2119 2323 
Q 2350 2384 2503 2541 
Q 2641 2681 2703 2847 
Q 2766 3013 2766 3234 
z
" transform="scale(0.015625)"/>
      </defs>
      <use xlink:href="#Tahoma-50"/>
      <use xlink:href="#Tahoma-72" x="55.126953"/>
      <use xlink:href="#Tahoma-6f" x="90.662109"/>
      <use xlink:href="#Tahoma-70" x="144.958984"/>
      <use xlink:href="#Tahoma-69" x="200.232422"/>
      <use xlink:href="#Tahoma-6f" x="223.083984"/>
      <use xlink:href="#Tahoma-6e" x="277.380859"/>
      <use xlink:href="#Tahoma-69" x="333.142578"/>
      <use xlink:href="#Tahoma-62" x="355.994141"/>
      <use xlink:href="#Tahoma-61" x="411.267578"/>
      <use xlink:href="#Tahoma-63" x="463.757812"/>
      <use xlink:href="#Tahoma-74" x="509.900391"/>
      <use xlink:href="#Tahoma-65" x="543.347656"/>
      <use xlink:href="#Tahoma-72" x="595.984375"/>
      <use xlink:href="#Tahoma-69" x="632.019531"/>
      <use xlink:href="#Tahoma-61" x="654.871094"/>
      <use xlink:href="#Tahoma-63" x="707.361328"/>
      <use xlink:href="#Tahoma-65" x="753.503906"/>
      <use xlink:href="#Tahoma-61" x="806.140625"/>
      <use xlink:href="#Tahoma-65" x="858.630859"/>
     </g>
    </g>
    <g id="patch_192">
     <path d="M 268.2 100.962187 
L 288.2 100.962187 
L 288.2 93.962187 
L 268.2 93.962187 
z
" style="fill: #46889d; stroke: #808080; stroke-linejoin: miter"/>
    </g>
    <g id="text_11">
     <!-- Neisseria -->
     <g transform="translate(296.2 100.962187) scale(0.1 -0.1)">
      <defs>
       <path id="Tahoma-4e" d="M 3800 0 
L 3106 0 
L 1050 4013 
L 1050 0 
L 472 0 
L 472 4653 
L 1350 4653 
L 3222 969 
L 3222 4653 
L 3800 4653 
L 3800 0 
z
" transform="scale(0.015625)"/>
      </defs>
      <use xlink:href="#Tahoma-4e"/>
      <use xlink:href="#Tahoma-65" x="66.748047"/>
      <use xlink:href="#Tahoma-69" x="119.384766"/>
      <use xlink:href="#Tahoma-73" x="142.236328"/>
      <use xlink:href="#Tahoma-73" x="186.865234"/>
      <use xlink:href="#Tahoma-65" x="231.494141"/>
      <use xlink:href="#Tahoma-72" x="284.130859"/>
      <use xlink:href="#Tahoma-69" x="320.166016"/>
      <use xlink:href="#Tahoma-61" x="343.017578"/>
     </g>
    </g>
    <g id="patch_193">
     <path d="M 268.2 115.573125 
L 288.2 115.573125 
L 288.2 108.573125 
L 268.2 108.573125 
z
" style="fill: #ae3f26; stroke: #808080; stroke-linejoin: miter"/>
    </g>
    <g id="text_12">
     <!-- Fusobacterium -->
     <g transform="translate(296.2 115.573125) scale(0.1 -0.1)">
      <defs>
       <path id="Tahoma-46" d="M 3256 4103 
L 1091 4103 
L 1091 2791 
L 3166 2791 
L 3166 2241 
L 1091 2241 
L 1091 0 
L 472 0 
L 472 4653 
L 3256 4653 
L 3256 4103 
z
" transform="scale(0.015625)"/>
       <path id="Tahoma-6d" d="M 4388 0 
L 4388 2019 
Q 4388 2259 4369 2464 
Q 4350 2669 4291 2784 
Q 4228 2909 4112 2968 
Q 3997 3028 3800 3028 
Q 3619 3028 3411 2917 
Q 3203 2806 2981 2597 
Q 2984 2544 2989 2470 
Q 2994 2397 2994 2297 
L 2994 0 
L 2406 0 
L 2406 2019 
Q 2406 2259 2387 2464 
Q 2369 2669 2309 2784 
Q 2247 2909 2131 2968 
Q 2016 3028 1819 3028 
Q 1628 3028 1418 2909 
Q 1209 2791 1013 2606 
L 1013 0 
L 425 0 
L 425 3491 
L 1013 3491 
L 1013 3103 
Q 1244 3334 1470 3461 
Q 1697 3588 1969 3588 
Q 2278 3588 2517 3447 
Q 2756 3306 2881 2984 
Q 3147 3281 3400 3434 
Q 3653 3588 3950 3588 
Q 4175 3588 4359 3517 
Q 4544 3447 4681 3291 
Q 4822 3131 4898 2893 
Q 4975 2656 4975 2297 
L 4975 0 
L 4388 0 
z
" transform="scale(0.015625)"/>
      </defs>
      <use xlink:href="#Tahoma-46"/>
      <use xlink:href="#Tahoma-75" x="52.148438"/>
      <use xlink:href="#Tahoma-73" x="107.910156"/>
      <use xlink:href="#Tahoma-6f" x="152.539062"/>
      <use xlink:href="#Tahoma-62" x="206.835938"/>
      <use xlink:href="#Tahoma-61" x="262.109375"/>
      <use xlink:href="#Tahoma-63" x="314.599609"/>
      <use xlink:href="#Tahoma-74" x="360.742188"/>
      <use xlink:href="#Tahoma-65" x="394.189453"/>
      <use xlink:href="#Tahoma-72" x="446.826172"/>
      <use xlink:href="#Tahoma-69" x="482.861328"/>
      <use xlink:href="#Tahoma-75" x="505.712891"/>
      <use xlink:href="#Tahoma-6d" x="561.474609"/>
     </g>
    </g>
    <g id="patch_194">
     <path d="M 268.2 130.184062 
L 288.2 130.184062 
L 288.2 123.184062 
L 268.2 123.184062 
z
" style="fill: #3e27a9; stroke: #808080; stroke-linejoin: miter"/>
    </g>
    <g id="text_13">
     <!-- Gemella -->
     <g transform="translate(296.2 130.184062) scale(0.1 -0.1)">
      <defs>
       <path id="Tahoma-47" d="M 2419 -91 
Q 1925 -91 1515 59 
Q 1106 209 813 516 
Q 519 825 362 1281 
Q 206 1738 206 2331 
Q 206 2894 364 3339 
Q 522 3784 816 4100 
Q 1100 4406 1515 4572 
Q 1931 4738 2425 4738 
Q 2659 4738 2875 4703 
Q 3091 4669 3288 4609 
Q 3444 4563 3636 4480 
Q 3828 4397 3947 4338 
L 3947 3591 
L 3894 3591 
Q 3778 3694 3654 3786 
Q 3531 3878 3306 3984 
Q 3119 4078 2875 4140 
Q 2631 4203 2350 4203 
Q 1678 4203 1264 3697 
Q 850 3191 850 2350 
Q 850 1881 959 1531 
Q 1069 1181 1275 938 
Q 1475 697 1758 570 
Q 2041 444 2394 444 
Q 2656 444 2915 481 
Q 3175 519 3353 594 
L 3353 1797 
L 2278 1797 
L 2278 2341 
L 3966 2341 
L 3966 309 
Q 3847 256 3648 175 
Q 3450 94 3278 47 
Q 3050 -22 2865 -56 
Q 2681 -91 2419 -91 
z
" transform="scale(0.015625)"/>
       <path id="Tahoma-6c" d="M 1025 0 
L 438 0 
L 438 4863 
L 1025 4863 
L 1025 0 
z
" transform="scale(0.015625)"/>
      </defs>
      <use xlink:href="#Tahoma-47"/>
      <use xlink:href="#Tahoma-65" x="66.748047"/>
      <use xlink:href="#Tahoma-6d" x="119.384766"/>
      <use xlink:href="#Tahoma-65" x="203.369141"/>
      <use xlink:href="#Tahoma-6c" x="256.005859"/>
      <use xlink:href="#Tahoma-6c" x="279.107422"/>
      <use xlink:href="#Tahoma-61" x="301.958984"/>
     </g>
    </g>
    <g id="patch_195">
     <path d="M 268.2 144.795 
L 288.2 144.795 
L 288.2 137.795 
L 268.2 137.795 
z
" style="fill: #306f60; stroke: #808080; stroke-linejoin: miter"/>
    </g>
    <g id="text_14">
     <!-- Granulicatella -->
     <g transform="translate(296.2 144.795) scale(0.1 -0.1)">
      <use xlink:href="#Tahoma-47"/>
      <use xlink:href="#Tahoma-72" x="66.748047"/>
      <use xlink:href="#Tahoma-61" x="101.033203"/>
      <use xlink:href="#Tahoma-6e" x="153.523438"/>
      <use xlink:href="#Tahoma-75" x="209.285156"/>
      <use xlink:href="#Tahoma-6c" x="265.046875"/>
      <use xlink:href="#Tahoma-69" x="288.023438"/>
      <use xlink:href="#Tahoma-63" x="310.875"/>
      <use xlink:href="#Tahoma-61" x="357.017578"/>
      <use xlink:href="#Tahoma-74" x="409.507812"/>
      <use xlink:href="#Tahoma-65" x="442.955078"/>
      <use xlink:href="#Tahoma-6c" x="495.591797"/>
      <use xlink:href="#Tahoma-6c" x="518.693359"/>
      <use xlink:href="#Tahoma-61" x="541.544922"/>
     </g>
    </g>
    <g id="patch_196">
     <path d="M 268.2 159.405937 
L 288.2 159.405937 
L 288.2 152.405937 
L 268.2 152.405937 
z
" style="fill: #20b2aa; stroke: #808080; stroke-linejoin: miter"/>
    </g>
    <g id="text_15">
     <!-- Veillonella -->
     <g transform="translate(296.2 159.405937) scale(0.1 -0.1)">
      <defs>
       <path id="Tahoma-56" d="M 3844 4653 
L 2244 0 
L 1575 0 
L -25 4653 
L 638 4653 
L 1925 791 
L 3213 4653 
L 3844 4653 
z
" transform="scale(0.015625)"/>
      </defs>
      <use xlink:href="#Tahoma-56"/>
      <use xlink:href="#Tahoma-65" x="55.042969"/>
      <use xlink:href="#Tahoma-69" x="107.679688"/>
      <use xlink:href="#Tahoma-6c" x="130.65625"/>
      <use xlink:href="#Tahoma-6c" x="153.757812"/>
      <use xlink:href="#Tahoma-6f" x="176.609375"/>
      <use xlink:href="#Tahoma-6e" x="230.90625"/>
      <use xlink:href="#Tahoma-65" x="286.667969"/>
      <use xlink:href="#Tahoma-6c" x="339.304688"/>
      <use xlink:href="#Tahoma-6c" x="362.40625"/>
      <use xlink:href="#Tahoma-61" x="385.257812"/>
     </g>
    </g>
    <g id="patch_197">
     <path d="M 268.2 174.016875 
L 288.2 174.016875 
L 288.2 167.016875 
L 268.2 167.016875 
z
" style="fill: #ffd5c0; stroke: #808080; stroke-linejoin: miter"/>
    </g>
    <g id="text_16">
     <!-- Prevotellaceae -->
     <g transform="translate(296.2 174.016875) scale(0.1 -0.1)">
      <defs>
       <path id="Tahoma-76" d="M 3169 3491 
L 1853 0 
L 1325 0 
L 19 3491 
L 653 3491 
L 1609 797 
L 2556 3491 
L 3169 3491 
z
" transform="scale(0.015625)"/>
      </defs>
      <use xlink:href="#Tahoma-50"/>
      <use xlink:href="#Tahoma-72" x="55.126953"/>
      <use xlink:href="#Tahoma-65" x="90.662109"/>
      <use xlink:href="#Tahoma-76" x="143.298828"/>
      <use xlink:href="#Tahoma-6f" x="192.353516"/>
      <use xlink:href="#Tahoma-74" x="246.650391"/>
      <use xlink:href="#Tahoma-65" x="280.097656"/>
      <use xlink:href="#Tahoma-6c" x="332.734375"/>
      <use xlink:href="#Tahoma-6c" x="355.835938"/>
      <use xlink:href="#Tahoma-61" x="378.6875"/>
      <use xlink:href="#Tahoma-63" x="431.177734"/>
      <use xlink:href="#Tahoma-65" x="477.320312"/>
      <use xlink:href="#Tahoma-61" x="529.957031"/>
      <use xlink:href="#Tahoma-65" x="582.447266"/>
     </g>
    </g>
    <g id="patch_198">
     <path d="M 268.2 188.627813 
L 288.2 188.627813 
L 288.2 181.627813 
L 268.2 181.627813 
z
" style="fill: #cf7e6b; stroke: #808080; stroke-linejoin: miter"/>
    </g>
    <g id="text_17">
     <!-- Rothia -->
     <g transform="translate(296.2 188.627813) scale(0.1 -0.1)">
      <defs>
       <path id="Tahoma-52" d="M 4075 0 
L 3272 0 
L 1797 1850 
L 1091 1850 
L 1091 0 
L 472 0 
L 472 4653 
L 1672 4653 
Q 2072 4653 2342 4609 
Q 2613 4566 2856 4406 
Q 3100 4250 3242 4003 
Q 3384 3756 3384 3391 
Q 3384 2878 3125 2534 
Q 2866 2191 2419 2025 
L 4075 0 
z
M 2738 3344 
Q 2738 3547 2666 3705 
Q 2594 3863 2444 3963 
Q 2313 4050 2138 4086 
Q 1963 4122 1703 4122 
L 1091 4122 
L 1091 2366 
L 1634 2366 
Q 1900 2366 2112 2412 
Q 2325 2459 2475 2606 
Q 2609 2738 2673 2919 
Q 2738 3100 2738 3344 
z
" transform="scale(0.015625)"/>
       <path id="Tahoma-68" d="M 3169 0 
L 2581 0 
L 2581 1988 
Q 2581 2228 2557 2436 
Q 2534 2644 2469 2769 
Q 2397 2900 2269 2964 
Q 2141 3028 1919 3028 
Q 1700 3028 1467 2911 
Q 1234 2794 1013 2606 
L 1013 0 
L 425 0 
L 425 4863 
L 1013 4863 
L 1013 3103 
Q 1275 3338 1531 3463 
Q 1788 3588 2072 3588 
Q 2588 3588 2878 3248 
Q 3169 2909 3169 2266 
L 3169 0 
z
" transform="scale(0.015625)"/>
      </defs>
      <use xlink:href="#Tahoma-52"/>
      <use xlink:href="#Tahoma-6f" x="60.310547"/>
      <use xlink:href="#Tahoma-74" x="114.607422"/>
      <use xlink:href="#Tahoma-68" x="148.054688"/>
      <use xlink:href="#Tahoma-69" x="203.816406"/>
      <use xlink:href="#Tahoma-61" x="226.667969"/>
     </g>
    </g>
    <g id="patch_199">
     <path d="M 268.2 203.23875 
L 288.2 203.23875 
L 288.2 196.23875 
L 268.2 196.23875 
z
" style="fill: #c8c229; stroke: #808080; stroke-linejoin: miter"/>
    </g>
    <g id="text_18">
     <!-- Capnocytophaga -->
     <g transform="translate(296.2 203.23875) scale(0.1 -0.1)">
      <defs>
       <path id="Tahoma-43" d="M 2291 -84 
Q 1834 -84 1451 69 
Q 1069 222 791 525 
Q 513 828 359 1281 
Q 206 1734 206 2322 
Q 206 2906 354 3340 
Q 503 3775 788 4097 
Q 1066 4409 1447 4573 
Q 1828 4738 2300 4738 
Q 2534 4738 2739 4703 
Q 2944 4669 3119 4616 
Q 3269 4569 3426 4498 
Q 3584 4428 3738 4344 
L 3738 3597 
L 3688 3597 
Q 3606 3672 3478 3778 
Q 3350 3884 3166 3988 
Q 2988 4084 2778 4146 
Q 2569 4209 2294 4209 
Q 1997 4209 1731 4087 
Q 1466 3966 1266 3728 
Q 1069 3491 959 3131 
Q 850 2772 850 2322 
Q 850 1844 965 1498 
Q 1081 1153 1281 916 
Q 1475 684 1737 567 
Q 2000 450 2294 450 
Q 2563 450 2791 515 
Q 3019 581 3197 681 
Q 3369 778 3494 879 
Q 3619 981 3691 1053 
L 3738 1053 
L 3738 316 
Q 3584 244 3448 178 
Q 3313 113 3119 50 
Q 2916 -16 2742 -50 
Q 2569 -84 2291 -84 
z
" transform="scale(0.015625)"/>
       <path id="Tahoma-79" d="M 3169 3491 
L 1291 -1288 
L 663 -1288 
L 1288 169 
L 19 3491 
L 653 3491 
L 1606 906 
L 2556 3491 
L 3169 3491 
z
" transform="scale(0.015625)"/>
       <path id="Tahoma-67" d="M 2525 947 
L 2525 2863 
Q 2306 2969 2120 3014 
Q 1934 3059 1750 3059 
Q 1303 3059 1047 2731 
Q 791 2403 791 1791 
Q 791 1209 986 906 
Q 1181 603 1619 603 
Q 1847 603 2089 693 
Q 2331 784 2525 947 
z
M 550 -559 
Q 609 -584 725 -626 
Q 841 -669 988 -706 
Q 1150 -747 1287 -772 
Q 1425 -797 1588 -797 
Q 1859 -797 2048 -725 
Q 2238 -653 2344 -525 
Q 2444 -397 2484 -228 
Q 2525 -59 2525 156 
L 2525 463 
Q 2288 256 2059 157 
Q 1831 59 1488 59 
Q 891 59 537 503 
Q 184 947 184 1778 
Q 184 2213 306 2548 
Q 428 2884 634 3119 
Q 831 3344 1100 3466 
Q 1369 3588 1656 3588 
Q 1928 3588 2126 3523 
Q 2325 3459 2525 3341 
L 2559 3491 
L 3113 3491 
L 3113 397 
Q 3113 -491 2725 -906 
Q 2338 -1322 1541 -1322 
Q 1284 -1322 1017 -1281 
Q 750 -1241 519 -1172 
L 519 -559 
L 550 -559 
z
" transform="scale(0.015625)"/>
      </defs>
      <use xlink:href="#Tahoma-43"/>
      <use xlink:href="#Tahoma-61" x="60.058594"/>
      <use xlink:href="#Tahoma-70" x="112.548828"/>
      <use xlink:href="#Tahoma-6e" x="167.822266"/>
      <use xlink:href="#Tahoma-6f" x="223.583984"/>
      <use xlink:href="#Tahoma-63" x="277.880859"/>
      <use xlink:href="#Tahoma-79" x="324.023438"/>
      <use xlink:href="#Tahoma-74" x="373.828125"/>
      <use xlink:href="#Tahoma-6f" x="407.275391"/>
      <use xlink:href="#Tahoma-70" x="461.572266"/>
      <use xlink:href="#Tahoma-68" x="516.845703"/>
      <use xlink:href="#Tahoma-61" x="572.607422"/>
      <use xlink:href="#Tahoma-67" x="625.097656"/>
      <use xlink:href="#Tahoma-61" x="680.371094"/>
     </g>
    </g>
    <g id="patch_200">
     <path d="M 268.2 217.902813 
L 288.2 217.902813 
L 288.2 210.902813 
L 268.2 210.902813 
z
" style="fill: #911c1c; stroke: #808080; stroke-linejoin: miter"/>
    </g>
    <g id="text_19">
     <!-- Bacteroidia -->
     <g transform="translate(296.2 217.902813) scale(0.1 -0.1)">
      <defs>
       <path id="Tahoma-42" d="M 3628 1428 
Q 3628 1081 3497 815 
Q 3366 550 3144 378 
Q 2881 172 2581 86 
Q 2281 0 1806 0 
L 472 0 
L 472 4653 
L 1706 4653 
Q 2203 4653 2451 4620 
Q 2700 4588 2928 4466 
Q 3178 4331 3293 4114 
Q 3409 3897 3409 3603 
Q 3409 3275 3236 3015 
Q 3063 2756 2756 2609 
L 2756 2584 
Q 3172 2472 3400 2173 
Q 3628 1875 3628 1428 
z
M 2766 3516 
Q 2766 3684 2709 3807 
Q 2653 3931 2528 4003 
Q 2378 4088 2193 4106 
Q 2009 4125 1684 4125 
L 1091 4125 
L 1091 2763 
L 1794 2763 
Q 2084 2763 2221 2792 
Q 2359 2822 2506 2916 
Q 2647 3006 2706 3153 
Q 2766 3300 2766 3516 
z
M 2984 1403 
Q 2984 1666 2909 1836 
Q 2834 2006 2606 2125 
Q 2459 2203 2286 2225 
Q 2113 2247 1794 2247 
L 1091 2247 
L 1091 528 
L 1594 528 
Q 2000 528 2234 565 
Q 2469 603 2647 725 
Q 2822 847 2903 1001 
Q 2984 1156 2984 1403 
z
" transform="scale(0.015625)"/>
       <path id="Tahoma-64" d="M 3113 0 
L 2525 0 
L 2525 356 
Q 2388 241 2288 166 
Q 2188 91 2053 28 
Q 1928 -31 1793 -64 
Q 1659 -97 1481 -97 
Q 1197 -97 955 22 
Q 713 141 544 369 
Q 372 600 278 939 
Q 184 1278 184 1719 
Q 184 2178 303 2514 
Q 422 2850 631 3100 
Q 822 3328 1092 3458 
Q 1363 3588 1659 3588 
Q 1922 3588 2115 3530 
Q 2309 3472 2525 3350 
L 2525 4863 
L 3113 4863 
L 3113 0 
z
M 2525 850 
L 2525 2863 
Q 2306 2969 2132 3009 
Q 1959 3050 1756 3050 
Q 1303 3050 1047 2711 
Q 791 2372 791 1731 
Q 791 1116 987 789 
Q 1184 463 1619 463 
Q 1850 463 2084 567 
Q 2319 672 2525 850 
z
" transform="scale(0.015625)"/>
      </defs>
      <use xlink:href="#Tahoma-42"/>
      <use xlink:href="#Tahoma-61" x="59.435547"/>
      <use xlink:href="#Tahoma-63" x="111.925781"/>
      <use xlink:href="#Tahoma-74" x="158.068359"/>
      <use xlink:href="#Tahoma-65" x="191.515625"/>
      <use xlink:href="#Tahoma-72" x="244.152344"/>
      <use xlink:href="#Tahoma-6f" x="279.6875"/>
      <use xlink:href="#Tahoma-69" x="333.984375"/>
      <use xlink:href="#Tahoma-64" x="356.835938"/>
      <use xlink:href="#Tahoma-69" x="412.109375"/>
      <use xlink:href="#Tahoma-61" x="434.960938"/>
     </g>
    </g>
   </g>
  </g>
 </g>
 <defs>
  <clipPath id="pc62c2463cf">
   <rect x="36" y="25.92" width="223.2" height="166.32"/>
  </clipPath>
 </defs>
</svg>
