<?xml version="1.0" encoding="utf-8" standalone="no"?>
<!DOCTYPE svg PUBLIC "-//W3C//DTD SVG 1.1//EN"
  "http://www.w3.org/Graphics/SVG/1.1/DTD/svg11.dtd">
<svg xmlns:xlink="http://www.w3.org/1999/xlink" width="432pt" height="720pt" viewBox="0 0 432 720" xmlns="http://www.w3.org/2000/svg" version="1.1">
 <metadata>
  <rdf:RDF xmlns:dc="http://purl.org/dc/elements/1.1/" xmlns:cc="http://creativecommons.org/ns#" xmlns:rdf="http://www.w3.org/1999/02/22-rdf-syntax-ns#">
   <cc:Work>
    <dc:type rdf:resource="http://purl.org/dc/dcmitype/StillImage"/>
    <dc:date>2025-06-24T11:21:21.228313</dc:date>
    <dc:format>image/svg+xml</dc:format>
    <dc:creator>
     <cc:Agent>
      <dc:title>Matplotlib v3.9.2, https://matplotlib.org/</dc:title>
     </cc:Agent>
    </dc:creator>
   </cc:Work>
  </rdf:RDF>
 </metadata>
 <defs>
  <style type="text/css">*{stroke-linejoin: round; stroke-linecap: butt}</style>
 </defs>
 <g id="figure_1">
  <g id="patch_1">
   <path d="M 0 720 
L 432 720 
L 432 0 
L 0 0 
z
" style="fill: #ffffff"/>
  </g>
  <g id="axes_1">
   <g id="patch_2">
    <path d="M 54 338.4 
L 388.8 338.4 
L 388.8 86.4 
L 54 86.4 
z
" style="fill: #ffffff"/>
   </g>
   <g id="patch_3">
    <path d="M 61.342105 338.4 
L 87.773684 338.4 
L 87.773684 338.4 
L 61.342105 338.4 
z
" clip-path="url(#pe988a1f5a3)" style="fill: #808080; stroke: #808080; stroke-linejoin: miter"/>
   </g>
   <g id="patch_4">
    <path d="M 90.710526 338.4 
L 117.142105 338.4 
L 117.142105 334.876884 
L 90.710526 334.876884 
z
" clip-path="url(#pe988a1f5a3)" style="fill: #808080; stroke: #808080; stroke-linejoin: miter"/>
   </g>
   <g id="patch_5">
    <path d="M 120.078947 338.4 
L 146.510526 338.4 
L 146.510526 338.4 
L 120.078947 338.4 
z
" clip-path="url(#pe988a1f5a3)" style="fill: #808080; stroke: #808080; stroke-linejoin: miter"/>
   </g>
   <g id="patch_6">
    <path d="M 149.447368 338.4 
L 175.878947 338.4 
L 175.878947 338.4 
L 149.447368 338.4 
z
" clip-path="url(#pe988a1f5a3)" style="fill: #808080; stroke: #808080; stroke-linejoin: miter"/>
   </g>
   <g id="patch_7">
    <path d="M 178.815789 338.4 
L 205.247368 338.4 
L 205.247368 338.4 
L 178.815789 338.4 
z
" clip-path="url(#pe988a1f5a3)" style="fill: #808080; stroke: #808080; stroke-linejoin: miter"/>
   </g>
   <g id="patch_8">
    <path d="M 208.184211 338.4 
L 234.615789 338.4 
L 234.615789 338.4 
L 208.184211 338.4 
z
" clip-path="url(#pe988a1f5a3)" style="fill: #808080; stroke: #808080; stroke-linejoin: miter"/>
   </g>
   <g id="patch_9">
    <path d="M 237.552632 338.4 
L 263.984211 338.4 
L 263.984211 338.4 
L 237.552632 338.4 
z
" clip-path="url(#pe988a1f5a3)" style="fill: #808080; stroke: #808080; stroke-linejoin: miter"/>
   </g>
   <g id="patch_10">
    <path d="M 266.921053 338.4 
L 293.352632 338.4 
L 293.352632 338.4 
L 266.921053 338.4 
z
" clip-path="url(#pe988a1f5a3)" style="fill: #808080; stroke: #808080; stroke-linejoin: miter"/>
   </g>
   <g id="patch_11">
    <path d="M 296.289474 338.4 
L 322.721053 338.4 
L 322.721053 338.4 
L 296.289474 338.4 
z
" clip-path="url(#pe988a1f5a3)" style="fill: #808080; stroke: #808080; stroke-linejoin: miter"/>
   </g>
   <g id="patch_12">
    <path d="M 325.657895 338.4 
L 352.089474 338.4 
L 352.089474 338.4 
L 325.657895 338.4 
z
" clip-path="url(#pe988a1f5a3)" style="fill: #808080; stroke: #808080; stroke-linejoin: miter"/>
   </g>
   <g id="patch_13">
    <path d="M 355.026316 338.4 
L 381.457895 338.4 
L 381.457895 338.4 
L 355.026316 338.4 
z
" clip-path="url(#pe988a1f5a3)" style="fill: #808080; stroke: #808080; stroke-linejoin: miter"/>
   </g>
   <g id="patch_14">
    <path d="M 61.342105 338.4 
L 87.773684 338.4 
L 87.773684 338.4 
L 61.342105 338.4 
z
" clip-path="url(#pe988a1f5a3)" style="fill: #66c2a5; stroke: #808080; stroke-linejoin: miter"/>
   </g>
   <g id="patch_15">
    <path d="M 90.710526 334.876884 
L 117.142105 334.876884 
L 117.142105 207.163347 
L 90.710526 207.163347 
z
" clip-path="url(#pe988a1f5a3)" style="fill: #66c2a5; stroke: #808080; stroke-linejoin: miter"/>
   </g>
   <g id="patch_16">
    <path d="M 120.078947 338.4 
L 146.510526 338.4 
L 146.510526 338.4 
L 120.078947 338.4 
z
" clip-path="url(#pe988a1f5a3)" style="fill: #66c2a5; stroke: #808080; stroke-linejoin: miter"/>
   </g>
   <g id="patch_17">
    <path d="M 149.447368 338.4 
L 175.878947 338.4 
L 175.878947 338.4 
L 149.447368 338.4 
z
" clip-path="url(#pe988a1f5a3)" style="fill: #66c2a5; stroke: #808080; stroke-linejoin: miter"/>
   </g>
   <g id="patch_18">
    <path d="M 178.815789 338.4 
L 205.247368 338.4 
L 205.247368 266.113202 
L 178.815789 266.113202 
z
" clip-path="url(#pe988a1f5a3)" style="fill: #66c2a5; stroke: #808080; stroke-linejoin: miter"/>
   </g>
   <g id="patch_19">
    <path d="M 208.184211 338.4 
L 234.615789 338.4 
L 234.615789 303.114536 
L 208.184211 303.114536 
z
" clip-path="url(#pe988a1f5a3)" style="fill: #66c2a5; stroke: #808080; stroke-linejoin: miter"/>
   </g>
   <g id="patch_20">
    <path d="M 237.552632 338.4 
L 263.984211 338.4 
L 263.984211 288.684614 
L 237.552632 288.684614 
z
" clip-path="url(#pe988a1f5a3)" style="fill: #66c2a5; stroke: #808080; stroke-linejoin: miter"/>
   </g>
   <g id="patch_21">
    <path d="M 266.921053 338.4 
L 293.352632 338.4 
L 293.352632 223.420957 
L 266.921053 223.420957 
z
" clip-path="url(#pe988a1f5a3)" style="fill: #66c2a5; stroke: #808080; stroke-linejoin: miter"/>
   </g>
   <g id="patch_22">
    <path d="M 296.289474 338.4 
L 322.721053 338.4 
L 322.721053 338.4 
L 296.289474 338.4 
z
" clip-path="url(#pe988a1f5a3)" style="fill: #66c2a5; stroke: #808080; stroke-linejoin: miter"/>
   </g>
   <g id="patch_23">
    <path d="M 325.657895 338.4 
L 352.089474 338.4 
L 352.089474 338.4 
L 325.657895 338.4 
z
" clip-path="url(#pe988a1f5a3)" style="fill: #66c2a5; stroke: #808080; stroke-linejoin: miter"/>
   </g>
   <g id="patch_24">
    <path d="M 355.026316 338.4 
L 381.457895 338.4 
L 381.457895 338.4 
L 355.026316 338.4 
z
" clip-path="url(#pe988a1f5a3)" style="fill: #66c2a5; stroke: #808080; stroke-linejoin: miter"/>
   </g>
   <g id="patch_25">
    <path d="M 61.342105 338.4 
L 87.773684 338.4 
L 87.773684 338.4 
L 61.342105 338.4 
z
" clip-path="url(#pe988a1f5a3)" style="fill: #abdda4; stroke: #808080; stroke-linejoin: miter"/>
   </g>
   <g id="patch_26">
    <path d="M 90.710526 338.4 
L 117.142105 338.4 
L 117.142105 338.4 
L 90.710526 338.4 
z
" clip-path="url(#pe988a1f5a3)" style="fill: #abdda4; stroke: #808080; stroke-linejoin: miter"/>
   </g>
   <g id="patch_27">
    <path d="M 120.078947 338.4 
L 146.510526 338.4 
L 146.510526 338.4 
L 120.078947 338.4 
z
" clip-path="url(#pe988a1f5a3)" style="fill: #abdda4; stroke: #808080; stroke-linejoin: miter"/>
   </g>
   <g id="patch_28">
    <path d="M 149.447368 338.4 
L 175.878947 338.4 
L 175.878947 338.4 
L 149.447368 338.4 
z
" clip-path="url(#pe988a1f5a3)" style="fill: #abdda4; stroke: #808080; stroke-linejoin: miter"/>
   </g>
   <g id="patch_29">
    <path d="M 178.815789 266.113202 
L 205.247368 266.113202 
L 205.247368 232.658076 
L 178.815789 232.658076 
z
" clip-path="url(#pe988a1f5a3)" style="fill: #abdda4; stroke: #808080; stroke-linejoin: miter"/>
   </g>
   <g id="patch_30">
    <path d="M 208.184211 303.114536 
L 234.615789 303.114536 
L 234.615789 256.60971 
L 208.184211 256.60971 
z
" clip-path="url(#pe988a1f5a3)" style="fill: #abdda4; stroke: #808080; stroke-linejoin: miter"/>
   </g>
   <g id="patch_31">
    <path d="M 237.552632 288.684614 
L 263.984211 288.684614 
L 263.984211 200.332955 
L 237.552632 200.332955 
z
" clip-path="url(#pe988a1f5a3)" style="fill: #abdda4; stroke: #808080; stroke-linejoin: miter"/>
   </g>
   <g id="patch_32">
    <path d="M 266.921053 338.4 
L 293.352632 338.4 
L 293.352632 338.4 
L 266.921053 338.4 
z
" clip-path="url(#pe988a1f5a3)" style="fill: #abdda4; stroke: #808080; stroke-linejoin: miter"/>
   </g>
   <g id="patch_33">
    <path d="M 296.289474 338.4 
L 322.721053 338.4 
L 322.721053 338.4 
L 296.289474 338.4 
z
" clip-path="url(#pe988a1f5a3)" style="fill: #abdda4; stroke: #808080; stroke-linejoin: miter"/>
   </g>
   <g id="patch_34">
    <path d="M 325.657895 338.4 
L 352.089474 338.4 
L 352.089474 338.4 
L 325.657895 338.4 
z
" clip-path="url(#pe988a1f5a3)" style="fill: #abdda4; stroke: #808080; stroke-linejoin: miter"/>
   </g>
   <g id="patch_35">
    <path d="M 355.026316 338.4 
L 381.457895 338.4 
L 381.457895 338.4 
L 355.026316 338.4 
z
" clip-path="url(#pe988a1f5a3)" style="fill: #abdda4; stroke: #808080; stroke-linejoin: miter"/>
   </g>
   <g id="patch_36">
    <path d="M 61.342105 338.4 
L 87.773684 338.4 
L 87.773684 268.214192 
L 61.342105 268.214192 
z
" clip-path="url(#pe988a1f5a3)" style="fill: #83a79d; stroke: #808080; stroke-linejoin: miter"/>
   </g>
   <g id="patch_37">
    <path d="M 90.710526 338.4 
L 117.142105 338.4 
L 117.142105 338.4 
L 90.710526 338.4 
z
" clip-path="url(#pe988a1f5a3)" style="fill: #83a79d; stroke: #808080; stroke-linejoin: miter"/>
   </g>
   <g id="patch_38">
    <path d="M 120.078947 338.4 
L 146.510526 338.4 
L 146.510526 338.4 
L 120.078947 338.4 
z
" clip-path="url(#pe988a1f5a3)" style="fill: #83a79d; stroke: #808080; stroke-linejoin: miter"/>
   </g>
   <g id="patch_39">
    <path d="M 149.447368 338.4 
L 175.878947 338.4 
L 175.878947 305.769698 
L 149.447368 305.769698 
z
" clip-path="url(#pe988a1f5a3)" style="fill: #83a79d; stroke: #808080; stroke-linejoin: miter"/>
   </g>
   <g id="patch_40">
    <path d="M 178.815789 338.4 
L 205.247368 338.4 
L 205.247368 338.4 
L 178.815789 338.4 
z
" clip-path="url(#pe988a1f5a3)" style="fill: #83a79d; stroke: #808080; stroke-linejoin: miter"/>
   </g>
   <g id="patch_41">
    <path d="M 208.184211 338.4 
L 234.615789 338.4 
L 234.615789 338.4 
L 208.184211 338.4 
z
" clip-path="url(#pe988a1f5a3)" style="fill: #83a79d; stroke: #808080; stroke-linejoin: miter"/>
   </g>
   <g id="patch_42">
    <path d="M 237.552632 338.4 
L 263.984211 338.4 
L 263.984211 338.4 
L 237.552632 338.4 
z
" clip-path="url(#pe988a1f5a3)" style="fill: #83a79d; stroke: #808080; stroke-linejoin: miter"/>
   </g>
   <g id="patch_43">
    <path d="M 266.921053 338.4 
L 293.352632 338.4 
L 293.352632 338.4 
L 266.921053 338.4 
z
" clip-path="url(#pe988a1f5a3)" style="fill: #83a79d; stroke: #808080; stroke-linejoin: miter"/>
   </g>
   <g id="patch_44">
    <path d="M 296.289474 338.4 
L 322.721053 338.4 
L 322.721053 338.4 
L 296.289474 338.4 
z
" clip-path="url(#pe988a1f5a3)" style="fill: #83a79d; stroke: #808080; stroke-linejoin: miter"/>
   </g>
   <g id="patch_45">
    <path d="M 325.657895 338.4 
L 352.089474 338.4 
L 352.089474 338.4 
L 325.657895 338.4 
z
" clip-path="url(#pe988a1f5a3)" style="fill: #83a79d; stroke: #808080; stroke-linejoin: miter"/>
   </g>
   <g id="patch_46">
    <path d="M 355.026316 338.4 
L 381.457895 338.4 
L 381.457895 293.49565 
L 355.026316 293.49565 
z
" clip-path="url(#pe988a1f5a3)" style="fill: #83a79d; stroke: #808080; stroke-linejoin: miter"/>
   </g>
   <g id="patch_47">
    <path d="M 61.342105 338.4 
L 87.773684 338.4 
L 87.773684 338.4 
L 61.342105 338.4 
z
" clip-path="url(#pe988a1f5a3)" style="fill: #4d695d; stroke: #808080; stroke-linejoin: miter"/>
   </g>
   <g id="patch_48">
    <path d="M 90.710526 338.4 
L 117.142105 338.4 
L 117.142105 338.4 
L 90.710526 338.4 
z
" clip-path="url(#pe988a1f5a3)" style="fill: #4d695d; stroke: #808080; stroke-linejoin: miter"/>
   </g>
   <g id="patch_49">
    <path d="M 120.078947 338.4 
L 146.510526 338.4 
L 146.510526 338.4 
L 120.078947 338.4 
z
" clip-path="url(#pe988a1f5a3)" style="fill: #4d695d; stroke: #808080; stroke-linejoin: miter"/>
   </g>
   <g id="patch_50">
    <path d="M 149.447368 338.4 
L 175.878947 338.4 
L 175.878947 338.4 
L 149.447368 338.4 
z
" clip-path="url(#pe988a1f5a3)" style="fill: #4d695d; stroke: #808080; stroke-linejoin: miter"/>
   </g>
   <g id="patch_51">
    <path d="M 178.815789 338.4 
L 205.247368 338.4 
L 205.247368 338.4 
L 178.815789 338.4 
z
" clip-path="url(#pe988a1f5a3)" style="fill: #4d695d; stroke: #808080; stroke-linejoin: miter"/>
   </g>
   <g id="patch_52">
    <path d="M 208.184211 338.4 
L 234.615789 338.4 
L 234.615789 338.4 
L 208.184211 338.4 
z
" clip-path="url(#pe988a1f5a3)" style="fill: #4d695d; stroke: #808080; stroke-linejoin: miter"/>
   </g>
   <g id="patch_53">
    <path d="M 237.552632 338.4 
L 263.984211 338.4 
L 263.984211 338.4 
L 237.552632 338.4 
z
" clip-path="url(#pe988a1f5a3)" style="fill: #4d695d; stroke: #808080; stroke-linejoin: miter"/>
   </g>
   <g id="patch_54">
    <path d="M 266.921053 338.4 
L 293.352632 338.4 
L 293.352632 338.4 
L 266.921053 338.4 
z
" clip-path="url(#pe988a1f5a3)" style="fill: #4d695d; stroke: #808080; stroke-linejoin: miter"/>
   </g>
   <g id="patch_55">
    <path d="M 296.289474 338.4 
L 322.721053 338.4 
L 322.721053 313.655029 
L 296.289474 313.655029 
z
" clip-path="url(#pe988a1f5a3)" style="fill: #4d695d; stroke: #808080; stroke-linejoin: miter"/>
   </g>
   <g id="patch_56">
    <path d="M 325.657895 338.4 
L 352.089474 338.4 
L 352.089474 338.4 
L 325.657895 338.4 
z
" clip-path="url(#pe988a1f5a3)" style="fill: #4d695d; stroke: #808080; stroke-linejoin: miter"/>
   </g>
   <g id="patch_57">
    <path d="M 355.026316 338.4 
L 381.457895 338.4 
L 381.457895 338.4 
L 355.026316 338.4 
z
" clip-path="url(#pe988a1f5a3)" style="fill: #4d695d; stroke: #808080; stroke-linejoin: miter"/>
   </g>
   <g id="patch_58">
    <path d="M 61.342105 338.4 
L 87.773684 338.4 
L 87.773684 338.4 
L 61.342105 338.4 
z
" clip-path="url(#pe988a1f5a3)" style="fill: #d2d2cb; stroke: #808080; stroke-linejoin: miter"/>
   </g>
   <g id="patch_59">
    <path d="M 90.710526 207.163347 
L 117.142105 207.163347 
L 117.142105 197.081738 
L 90.710526 197.081738 
z
" clip-path="url(#pe988a1f5a3)" style="fill: #d2d2cb; stroke: #808080; stroke-linejoin: miter"/>
   </g>
   <g id="patch_60">
    <path d="M 120.078947 338.4 
L 146.510526 338.4 
L 146.510526 338.4 
L 120.078947 338.4 
z
" clip-path="url(#pe988a1f5a3)" style="fill: #d2d2cb; stroke: #808080; stroke-linejoin: miter"/>
   </g>
   <g id="patch_61">
    <path d="M 149.447368 305.769698 
L 175.878947 305.769698 
L 175.878947 235.793595 
L 149.447368 235.793595 
z
" clip-path="url(#pe988a1f5a3)" style="fill: #d2d2cb; stroke: #808080; stroke-linejoin: miter"/>
   </g>
   <g id="patch_62">
    <path d="M 178.815789 232.658076 
L 205.247368 232.658076 
L 205.247368 137.78072 
L 178.815789 137.78072 
z
" clip-path="url(#pe988a1f5a3)" style="fill: #d2d2cb; stroke: #808080; stroke-linejoin: miter"/>
   </g>
   <g id="patch_63">
    <path d="M 208.184211 256.60971 
L 234.615789 256.60971 
L 234.615789 95.370581 
L 208.184211 95.370581 
z
" clip-path="url(#pe988a1f5a3)" style="fill: #d2d2cb; stroke: #808080; stroke-linejoin: miter"/>
   </g>
   <g id="patch_64">
    <path d="M 237.552632 200.332955 
L 263.984211 200.332955 
L 263.984211 156.517644 
L 237.552632 156.517644 
z
" clip-path="url(#pe988a1f5a3)" style="fill: #d2d2cb; stroke: #808080; stroke-linejoin: miter"/>
   </g>
   <g id="patch_65">
    <path d="M 266.921053 223.420957 
L 293.352632 223.420957 
L 293.352632 121.1174 
L 266.921053 121.1174 
z
" clip-path="url(#pe988a1f5a3)" style="fill: #d2d2cb; stroke: #808080; stroke-linejoin: miter"/>
   </g>
   <g id="patch_66">
    <path d="M 296.289474 313.655029 
L 322.721053 313.655029 
L 322.721053 104.13836 
L 296.289474 104.13836 
z
" clip-path="url(#pe988a1f5a3)" style="fill: #d2d2cb; stroke: #808080; stroke-linejoin: miter"/>
   </g>
   <g id="patch_67">
    <path d="M 325.657895 338.4 
L 352.089474 338.4 
L 352.089474 213.266537 
L 325.657895 213.266537 
z
" clip-path="url(#pe988a1f5a3)" style="fill: #d2d2cb; stroke: #808080; stroke-linejoin: miter"/>
   </g>
   <g id="patch_68">
    <path d="M 355.026316 293.49565 
L 381.457895 293.49565 
L 381.457895 169.203514 
L 355.026316 169.203514 
z
" clip-path="url(#pe988a1f5a3)" style="fill: #d2d2cb; stroke: #808080; stroke-linejoin: miter"/>
   </g>
   <g id="patch_69">
    <path d="M 61.342105 338.4 
L 87.773684 338.4 
L 87.773684 338.4 
L 61.342105 338.4 
z
" clip-path="url(#pe988a1f5a3)" style="fill: #a1cde5; stroke: #808080; stroke-linejoin: miter"/>
   </g>
   <g id="patch_70">
    <path d="M 90.710526 197.081738 
L 117.142105 197.081738 
L 117.142105 146.129287 
L 90.710526 146.129287 
z
" clip-path="url(#pe988a1f5a3)" style="fill: #a1cde5; stroke: #808080; stroke-linejoin: miter"/>
   </g>
   <g id="patch_71">
    <path d="M 120.078947 338.4 
L 146.510526 338.4 
L 146.510526 191.12217 
L 120.078947 191.12217 
z
" clip-path="url(#pe988a1f5a3)" style="fill: #a1cde5; stroke: #808080; stroke-linejoin: miter"/>
   </g>
   <g id="patch_72">
    <path d="M 149.447368 235.793595 
L 175.878947 235.793595 
L 175.878947 119.387545 
L 149.447368 119.387545 
z
" clip-path="url(#pe988a1f5a3)" style="fill: #a1cde5; stroke: #808080; stroke-linejoin: miter"/>
   </g>
   <g id="patch_73">
    <path d="M 178.815789 137.78072 
L 205.247368 137.78072 
L 205.247368 100.928951 
L 178.815789 100.928951 
z
" clip-path="url(#pe988a1f5a3)" style="fill: #a1cde5; stroke: #808080; stroke-linejoin: miter"/>
   </g>
   <g id="patch_74">
    <path d="M 208.184211 338.4 
L 234.615789 338.4 
L 234.615789 338.4 
L 208.184211 338.4 
z
" clip-path="url(#pe988a1f5a3)" style="fill: #a1cde5; stroke: #808080; stroke-linejoin: miter"/>
   </g>
   <g id="patch_75">
    <path d="M 237.552632 156.517644 
L 263.984211 156.517644 
L 263.984211 113.45108 
L 237.552632 113.45108 
z
" clip-path="url(#pe988a1f5a3)" style="fill: #a1cde5; stroke: #808080; stroke-linejoin: miter"/>
   </g>
   <g id="patch_76">
    <path d="M 266.921053 338.4 
L 293.352632 338.4 
L 293.352632 338.4 
L 266.921053 338.4 
z
" clip-path="url(#pe988a1f5a3)" style="fill: #a1cde5; stroke: #808080; stroke-linejoin: miter"/>
   </g>
   <g id="patch_77">
    <path d="M 296.289474 338.4 
L 322.721053 338.4 
L 322.721053 338.4 
L 296.289474 338.4 
z
" clip-path="url(#pe988a1f5a3)" style="fill: #a1cde5; stroke: #808080; stroke-linejoin: miter"/>
   </g>
   <g id="patch_78">
    <path d="M 325.657895 338.4 
L 352.089474 338.4 
L 352.089474 338.4 
L 325.657895 338.4 
z
" clip-path="url(#pe988a1f5a3)" style="fill: #a1cde5; stroke: #808080; stroke-linejoin: miter"/>
   </g>
   <g id="patch_79">
    <path d="M 355.026316 169.203514 
L 381.457895 169.203514 
L 381.457895 126.876012 
L 355.026316 126.876012 
z
" clip-path="url(#pe988a1f5a3)" style="fill: #a1cde5; stroke: #808080; stroke-linejoin: miter"/>
   </g>
   <g id="patch_80">
    <path d="M 61.342105 268.214192 
L 87.773684 268.214192 
L 87.773684 232.680413 
L 61.342105 232.680413 
z
" clip-path="url(#pe988a1f5a3)" style="fill: #30b0e0; stroke: #808080; stroke-linejoin: miter"/>
   </g>
   <g id="patch_81">
    <path d="M 90.710526 338.4 
L 117.142105 338.4 
L 117.142105 338.4 
L 90.710526 338.4 
z
" clip-path="url(#pe988a1f5a3)" style="fill: #30b0e0; stroke: #808080; stroke-linejoin: miter"/>
   </g>
   <g id="patch_82">
    <path d="M 120.078947 338.4 
L 146.510526 338.4 
L 146.510526 338.4 
L 120.078947 338.4 
z
" clip-path="url(#pe988a1f5a3)" style="fill: #30b0e0; stroke: #808080; stroke-linejoin: miter"/>
   </g>
   <g id="patch_83">
    <path d="M 149.447368 119.387545 
L 175.878947 119.387545 
L 175.878947 116.097426 
L 149.447368 116.097426 
z
" clip-path="url(#pe988a1f5a3)" style="fill: #30b0e0; stroke: #808080; stroke-linejoin: miter"/>
   </g>
   <g id="patch_84">
    <path d="M 178.815789 100.928951 
L 205.247368 100.928951 
L 205.247368 97.423043 
L 178.815789 97.423043 
z
" clip-path="url(#pe988a1f5a3)" style="fill: #30b0e0; stroke: #808080; stroke-linejoin: miter"/>
   </g>
   <g id="patch_85">
    <path d="M 208.184211 95.370581 
L 234.615789 95.370581 
L 234.615789 92.340789 
L 208.184211 92.340789 
z
" clip-path="url(#pe988a1f5a3)" style="fill: #30b0e0; stroke: #808080; stroke-linejoin: miter"/>
   </g>
   <g id="patch_86">
    <path d="M 237.552632 113.45108 
L 263.984211 113.45108 
L 263.984211 106.067771 
L 237.552632 106.067771 
z
" clip-path="url(#pe988a1f5a3)" style="fill: #30b0e0; stroke: #808080; stroke-linejoin: miter"/>
   </g>
   <g id="patch_87">
    <path d="M 266.921053 338.4 
L 293.352632 338.4 
L 293.352632 338.4 
L 266.921053 338.4 
z
" clip-path="url(#pe988a1f5a3)" style="fill: #30b0e0; stroke: #808080; stroke-linejoin: miter"/>
   </g>
   <g id="patch_88">
    <path d="M 296.289474 338.4 
L 322.721053 338.4 
L 322.721053 338.4 
L 296.289474 338.4 
z
" clip-path="url(#pe988a1f5a3)" style="fill: #30b0e0; stroke: #808080; stroke-linejoin: miter"/>
   </g>
   <g id="patch_89">
    <path d="M 325.657895 338.4 
L 352.089474 338.4 
L 352.089474 338.4 
L 325.657895 338.4 
z
" clip-path="url(#pe988a1f5a3)" style="fill: #30b0e0; stroke: #808080; stroke-linejoin: miter"/>
   </g>
   <g id="patch_90">
    <path d="M 355.026316 126.876012 
L 381.457895 126.876012 
L 381.457895 93.588497 
L 355.026316 93.588497 
z
" clip-path="url(#pe988a1f5a3)" style="fill: #30b0e0; stroke: #808080; stroke-linejoin: miter"/>
   </g>
   <g id="patch_91">
    <path d="M 61.342105 232.680413 
L 87.773684 232.680413 
L 87.773684 86.4 
L 61.342105 86.4 
z
" clip-path="url(#pe988a1f5a3)" style="fill: #ffffff; stroke: #808080; stroke-linejoin: miter"/>
   </g>
   <g id="patch_92">
    <path d="M 90.710526 146.129287 
L 117.142105 146.129287 
L 117.142105 86.4 
L 90.710526 86.4 
z
" clip-path="url(#pe988a1f5a3)" style="fill: #ffffff; stroke: #808080; stroke-linejoin: miter"/>
   </g>
   <g id="patch_93">
    <path d="M 120.078947 191.12217 
L 146.510526 191.12217 
L 146.510526 86.4 
L 120.078947 86.4 
z
" clip-path="url(#pe988a1f5a3)" style="fill: #ffffff; stroke: #808080; stroke-linejoin: miter"/>
   </g>
   <g id="patch_94">
    <path d="M 149.447368 116.097426 
L 175.878947 116.097426 
L 175.878947 86.4 
L 149.447368 86.4 
z
" clip-path="url(#pe988a1f5a3)" style="fill: #ffffff; stroke: #808080; stroke-linejoin: miter"/>
   </g>
   <g id="patch_95">
    <path d="M 178.815789 97.423043 
L 205.247368 97.423043 
L 205.247368 86.4 
L 178.815789 86.4 
z
" clip-path="url(#pe988a1f5a3)" style="fill: #ffffff; stroke: #808080; stroke-linejoin: miter"/>
   </g>
   <g id="patch_96">
    <path d="M 208.184211 92.340789 
L 234.615789 92.340789 
L 234.615789 86.4 
L 208.184211 86.4 
z
" clip-path="url(#pe988a1f5a3)" style="fill: #ffffff; stroke: #808080; stroke-linejoin: miter"/>
   </g>
   <g id="patch_97">
    <path d="M 237.552632 106.067771 
L 263.984211 106.067771 
L 263.984211 86.4 
L 237.552632 86.4 
z
" clip-path="url(#pe988a1f5a3)" style="fill: #ffffff; stroke: #808080; stroke-linejoin: miter"/>
   </g>
   <g id="patch_98">
    <path d="M 266.921053 121.1174 
L 293.352632 121.1174 
L 293.352632 86.4 
L 266.921053 86.4 
z
" clip-path="url(#pe988a1f5a3)" style="fill: #ffffff; stroke: #808080; stroke-linejoin: miter"/>
   </g>
   <g id="patch_99">
    <path d="M 296.289474 104.13836 
L 322.721053 104.13836 
L 322.721053 86.4 
L 296.289474 86.4 
z
" clip-path="url(#pe988a1f5a3)" style="fill: #ffffff; stroke: #808080; stroke-linejoin: miter"/>
   </g>
   <g id="patch_100">
    <path d="M 325.657895 213.266537 
L 352.089474 213.266537 
L 352.089474 86.4 
L 325.657895 86.4 
z
" clip-path="url(#pe988a1f5a3)" style="fill: #ffffff; stroke: #808080; stroke-linejoin: miter"/>
   </g>
   <g id="patch_101">
    <path d="M 355.026316 93.588497 
L 381.457895 93.588497 
L 381.457895 86.4 
L 355.026316 86.4 
z
" clip-path="url(#pe988a1f5a3)" style="fill: #ffffff; stroke: #808080; stroke-linejoin: miter"/>
   </g>
   <g id="matplotlib.axis_1">
    <g id="xtick_1">
     <g id="line2d_1">
      <defs>
       <path id="mf6e5b5d0be" d="M 0 0 
L 0 3.5 
" style="stroke: #000000; stroke-width: 0.8"/>
      </defs>
      <g>
       <use xlink:href="#mf6e5b5d0be" x="74.557895" y="338.4" style="stroke: #000000; stroke-width: 0.8"/>
      </g>
     </g>
     <g id="text_1">
      <!-- 3 -->
      <g transform="translate(77.350863 350.859375) rotate(-90) scale(0.1 -0.1)">
       <defs>
        <path id="Tahoma-33" d="M 1597 4209 
Q 1428 4209 1259 4168 
Q 1091 4128 928 4063 
Q 778 4000 667 3931 
Q 556 3863 469 3803 
L 431 3803 
L 431 4463 
Q 634 4572 982 4661 
Q 1331 4750 1647 4750 
Q 1963 4750 2198 4686 
Q 2434 4622 2625 4488 
Q 2831 4338 2936 4125 
Q 3041 3913 3041 3628 
Q 3041 3244 2787 2953 
Q 2534 2663 2181 2584 
L 2181 2541 
Q 2328 2513 2495 2444 
Q 2663 2375 2806 2241 
Q 2950 2106 3040 1895 
Q 3131 1684 3131 1381 
Q 3131 1066 3023 802 
Q 2916 538 2719 334 
Q 2516 122 2228 12 
Q 1941 -97 1575 -97 
Q 1225 -97 881 -12 
Q 538 72 303 191 
L 303 850 
L 347 850 
Q 544 706 875 575 
Q 1206 444 1538 444 
Q 1728 444 1920 505 
Q 2113 566 2241 703 
Q 2366 841 2431 1006 
Q 2497 1172 2497 1425 
Q 2497 1678 2423 1840 
Q 2350 2003 2219 2097 
Q 2088 2191 1908 2227 
Q 1728 2263 1519 2263 
L 1253 2263 
L 1253 2781 
L 1459 2781 
Q 1881 2781 2145 2981 
Q 2409 3181 2409 3563 
Q 2409 3738 2340 3864 
Q 2272 3991 2166 4066 
Q 2047 4147 1903 4178 
Q 1759 4209 1597 4209 
z
" transform="scale(0.015625)"/>
       </defs>
       <use xlink:href="#Tahoma-33"/>
      </g>
     </g>
    </g>
    <g id="xtick_2">
     <g id="line2d_2">
      <g>
       <use xlink:href="#mf6e5b5d0be" x="103.926316" y="338.4" style="stroke: #000000; stroke-width: 0.8"/>
      </g>
     </g>
     <g id="text_2">
      <!-- 4 -->
      <g transform="translate(106.719285 350.859375) rotate(-90) scale(0.1 -0.1)">
       <defs>
        <path id="Tahoma-34" d="M 3334 1600 
L 2781 1600 
L 2781 0 
L 2181 0 
L 2181 1600 
L 125 1600 
L 125 2256 
L 2206 4653 
L 2781 4653 
L 2781 2100 
L 3334 2100 
L 3334 1600 
z
M 2181 2100 
L 2181 3919 
L 613 2100 
L 2181 2100 
z
" transform="scale(0.015625)"/>
       </defs>
       <use xlink:href="#Tahoma-34"/>
      </g>
     </g>
    </g>
    <g id="xtick_3">
     <g id="line2d_3">
      <g>
       <use xlink:href="#mf6e5b5d0be" x="133.294737" y="338.4" style="stroke: #000000; stroke-width: 0.8"/>
      </g>
     </g>
     <g id="text_3">
      <!-- 5 -->
      <g transform="translate(136.087706 350.859375) rotate(-90) scale(0.1 -0.1)">
       <defs>
        <path id="Tahoma-35" d="M 3159 1481 
Q 3159 1144 3051 856 
Q 2944 569 2750 359 
Q 2553 147 2261 25 
Q 1969 -97 1606 -97 
Q 1272 -97 948 -23 
Q 625 50 388 169 
L 388 828 
L 431 828 
Q 503 775 637 708 
Q 772 641 934 581 
Q 1119 516 1272 480 
Q 1425 444 1616 444 
Q 1803 444 1981 511 
Q 2159 578 2288 728 
Q 2403 866 2464 1050 
Q 2525 1234 2525 1484 
Q 2525 1731 2458 1890 
Q 2391 2050 2263 2153 
Q 2128 2272 1933 2320 
Q 1738 2369 1497 2369 
Q 1244 2369 987 2330 
Q 731 2291 578 2256 
L 578 4653 
L 3131 4653 
L 3131 4106 
L 1181 4106 
L 1181 2869 
Q 1294 2881 1403 2887 
Q 1513 2894 1603 2894 
Q 1959 2894 2206 2834 
Q 2453 2775 2681 2603 
Q 2913 2428 3036 2165 
Q 3159 1903 3159 1481 
z
" transform="scale(0.015625)"/>
       </defs>
       <use xlink:href="#Tahoma-35"/>
      </g>
     </g>
    </g>
    <g id="xtick_4">
     <g id="line2d_4">
      <g>
       <use xlink:href="#mf6e5b5d0be" x="162.663158" y="338.4" style="stroke: #000000; stroke-width: 0.8"/>
      </g>
     </g>
     <g id="text_4">
      <!-- 7 -->
      <g transform="translate(165.456127 350.859375) rotate(-90) scale(0.1 -0.1)">
       <defs>
        <path id="Tahoma-37" d="M 3263 3956 
L 1250 0 
L 584 0 
L 2716 4106 
L 309 4106 
L 309 4653 
L 3263 4653 
L 3263 3956 
z
" transform="scale(0.015625)"/>
       </defs>
       <use xlink:href="#Tahoma-37"/>
      </g>
     </g>
    </g>
    <g id="xtick_5">
     <g id="line2d_5">
      <g>
       <use xlink:href="#mf6e5b5d0be" x="192.031579" y="338.4" style="stroke: #000000; stroke-width: 0.8"/>
      </g>
     </g>
     <g id="text_5">
      <!-- 8 -->
      <g transform="translate(194.824548 350.859375) rotate(-90) scale(0.1 -0.1)">
       <defs>
        <path id="Tahoma-38" d="M 2534 3569 
Q 2534 3881 2325 4090 
Q 2116 4300 1744 4300 
Q 1403 4300 1186 4112 
Q 969 3925 969 3606 
Q 969 3375 1080 3215 
Q 1191 3056 1413 2928 
Q 1509 2875 1707 2781 
Q 1906 2688 2069 2634 
Q 2341 2844 2437 3064 
Q 2534 3284 2534 3569 
z
M 2622 1238 
Q 2622 1525 2509 1694 
Q 2397 1863 2075 2038 
Q 1969 2097 1792 2165 
Q 1616 2234 1394 2328 
Q 1134 2156 996 1904 
Q 859 1653 859 1331 
Q 859 909 1114 634 
Q 1369 359 1753 359 
Q 2147 359 2384 595 
Q 2622 831 2622 1238 
z
M 1747 -106 
Q 1400 -106 1115 -3 
Q 831 100 631 294 
Q 434 481 332 739 
Q 231 997 231 1284 
Q 231 1663 432 1980 
Q 634 2297 1019 2484 
L 1019 2503 
Q 675 2703 509 2940 
Q 344 3178 344 3534 
Q 344 4059 741 4409 
Q 1138 4759 1747 4759 
Q 2381 4759 2764 4426 
Q 3147 4094 3147 3575 
Q 3147 3263 2964 2956 
Q 2781 2650 2438 2478 
L 2438 2459 
Q 2844 2269 3053 1997 
Q 3263 1725 3263 1297 
Q 3263 700 2830 297 
Q 2397 -106 1747 -106 
z
" transform="scale(0.015625)"/>
       </defs>
       <use xlink:href="#Tahoma-38"/>
      </g>
     </g>
    </g>
    <g id="xtick_6">
     <g id="line2d_6">
      <g>
       <use xlink:href="#mf6e5b5d0be" x="221.4" y="338.4" style="stroke: #000000; stroke-width: 0.8"/>
      </g>
     </g>
     <g id="text_6">
      <!-- 9 -->
      <g transform="translate(224.192969 350.859375) rotate(-90) scale(0.1 -0.1)">
       <defs>
        <path id="Tahoma-39" d="M 2600 2741 
Q 2600 3216 2512 3514 
Q 2425 3813 2272 3975 
Q 2134 4125 1993 4181 
Q 1853 4238 1684 4238 
Q 1300 4238 1072 3963 
Q 844 3688 844 3166 
Q 844 2872 919 2681 
Q 994 2491 1163 2353 
Q 1281 2256 1431 2223 
Q 1581 2191 1753 2191 
Q 1953 2191 2184 2261 
Q 2416 2331 2588 2447 
Q 2591 2494 2595 2570 
Q 2600 2647 2600 2741 
z
M 209 3141 
Q 209 3500 326 3797 
Q 444 4094 647 4309 
Q 841 4516 1120 4631 
Q 1400 4747 1688 4747 
Q 2009 4747 2270 4639 
Q 2531 4531 2722 4328 
Q 2963 4072 3095 3656 
Q 3228 3241 3228 2606 
Q 3228 2028 3098 1511 
Q 2969 994 2716 653 
Q 2447 291 2070 100 
Q 1694 -91 1141 -91 
Q 1016 -91 875 -77 
Q 734 -63 613 -25 
L 613 572 
L 644 572 
Q 722 528 887 487 
Q 1053 447 1225 447 
Q 1838 447 2188 850 
Q 2538 1253 2584 2003 
Q 2334 1834 2107 1756 
Q 1881 1678 1616 1678 
Q 1356 1678 1143 1734 
Q 931 1791 716 1953 
Q 466 2144 337 2436 
Q 209 2728 209 3141 
z
" transform="scale(0.015625)"/>
       </defs>
       <use xlink:href="#Tahoma-39"/>
      </g>
     </g>
    </g>
    <g id="xtick_7">
     <g id="line2d_7">
      <g>
       <use xlink:href="#mf6e5b5d0be" x="250.768421" y="338.4" style="stroke: #000000; stroke-width: 0.8"/>
      </g>
     </g>
     <g id="text_7">
      <!-- 11 -->
      <g transform="translate(253.56139 356.31875) rotate(-90) scale(0.1 -0.1)">
       <defs>
        <path id="Tahoma-31" d="M 2975 0 
L 706 0 
L 706 475 
L 1550 475 
L 1550 3594 
L 706 3594 
L 706 4019 
Q 1184 4019 1411 4155 
Q 1638 4291 1666 4669 
L 2150 4669 
L 2150 475 
L 2975 475 
L 2975 0 
z
" transform="scale(0.015625)"/>
       </defs>
       <use xlink:href="#Tahoma-31"/>
       <use xlink:href="#Tahoma-31" x="54.589844"/>
      </g>
     </g>
    </g>
    <g id="xtick_8">
     <g id="line2d_8">
      <g>
       <use xlink:href="#mf6e5b5d0be" x="280.136842" y="338.4" style="stroke: #000000; stroke-width: 0.8"/>
      </g>
     </g>
     <g id="text_8">
      <!-- 12 -->
      <g transform="translate(282.929811 356.31875) rotate(-90) scale(0.1 -0.1)">
       <defs>
        <path id="Tahoma-32" d="M 3213 0 
L 341 0 
L 341 653 
Q 650 947 925 1215 
Q 1200 1484 1463 1775 
Q 1994 2359 2187 2711 
Q 2381 3063 2381 3438 
Q 2381 3631 2320 3778 
Q 2259 3925 2153 4022 
Q 2044 4116 1900 4162 
Q 1756 4209 1584 4209 
Q 1419 4209 1248 4167 
Q 1078 4125 922 4063 
Q 791 4009 669 3934 
Q 547 3859 472 3806 
L 438 3806 
L 438 4469 
Q 631 4566 976 4658 
Q 1322 4750 1631 4750 
Q 2281 4750 2650 4404 
Q 3019 4059 3019 3469 
Q 3019 3197 2955 2965 
Q 2891 2734 2778 2538 
Q 2663 2334 2500 2134 
Q 2338 1934 2156 1741 
Q 1863 1422 1502 1078 
Q 1141 734 925 534 
L 3213 534 
L 3213 0 
z
" transform="scale(0.015625)"/>
       </defs>
       <use xlink:href="#Tahoma-31"/>
       <use xlink:href="#Tahoma-32" x="54.589844"/>
      </g>
     </g>
    </g>
    <g id="xtick_9">
     <g id="line2d_9">
      <g>
       <use xlink:href="#mf6e5b5d0be" x="309.505263" y="338.4" style="stroke: #000000; stroke-width: 0.8"/>
      </g>
     </g>
     <g id="text_9">
      <!-- 16 -->
      <g transform="translate(312.298232 356.31875) rotate(-90) scale(0.1 -0.1)">
       <defs>
        <path id="Tahoma-36" d="M 3284 1509 
Q 3284 1150 3165 847 
Q 3047 544 2847 341 
Q 2638 125 2378 14 
Q 2119 -97 1806 -97 
Q 1491 -97 1233 9 
Q 975 116 778 325 
Q 538 578 402 1001 
Q 266 1425 266 2044 
Q 266 2650 391 3139 
Q 516 3628 775 3991 
Q 1028 4344 1428 4542 
Q 1828 4741 2353 4741 
Q 2509 4741 2643 4725 
Q 2778 4709 2881 4675 
L 2881 4078 
L 2853 4078 
Q 2769 4125 2609 4164 
Q 2450 4203 2269 4203 
Q 1688 4203 1330 3811 
Q 972 3419 906 2647 
Q 1128 2803 1362 2887 
Q 1597 2972 1875 2972 
Q 2147 2972 2351 2917 
Q 2556 2863 2778 2697 
Q 3034 2503 3159 2206 
Q 3284 1909 3284 1509 
z
M 2650 1484 
Q 2650 1772 2575 1965 
Q 2500 2159 2331 2297 
Q 2209 2397 2054 2428 
Q 1900 2459 1738 2459 
Q 1519 2459 1312 2393 
Q 1106 2328 906 2203 
Q 900 2134 897 2070 
Q 894 2006 894 1909 
Q 894 1425 989 1128 
Q 1084 831 1225 678 
Q 1359 531 1501 472 
Q 1644 413 1809 413 
Q 2184 413 2417 681 
Q 2650 950 2650 1484 
z
" transform="scale(0.015625)"/>
       </defs>
       <use xlink:href="#Tahoma-31"/>
       <use xlink:href="#Tahoma-36" x="54.589844"/>
      </g>
     </g>
    </g>
    <g id="xtick_10">
     <g id="line2d_10">
      <g>
       <use xlink:href="#mf6e5b5d0be" x="338.873684" y="338.4" style="stroke: #000000; stroke-width: 0.8"/>
      </g>
     </g>
     <g id="text_10">
      <!-- 17 -->
      <g transform="translate(341.666653 356.31875) rotate(-90) scale(0.1 -0.1)">
       <use xlink:href="#Tahoma-31"/>
       <use xlink:href="#Tahoma-37" x="54.589844"/>
      </g>
     </g>
    </g>
    <g id="xtick_11">
     <g id="line2d_11">
      <g>
       <use xlink:href="#mf6e5b5d0be" x="368.242105" y="338.4" style="stroke: #000000; stroke-width: 0.8"/>
      </g>
     </g>
     <g id="text_11">
      <!-- 19 -->
      <g transform="translate(371.035074 356.31875) rotate(-90) scale(0.1 -0.1)">
       <use xlink:href="#Tahoma-31"/>
       <use xlink:href="#Tahoma-39" x="54.589844"/>
      </g>
     </g>
    </g>
   </g>
   <g id="matplotlib.axis_2">
    <g id="ytick_1">
     <g id="line2d_12">
      <defs>
       <path id="m032ead700d" d="M 0 0 
L -3.5 0 
" style="stroke: #000000; stroke-width: 0.8"/>
      </defs>
      <g>
       <use xlink:href="#m032ead700d" x="54" y="338.4" style="stroke: #000000; stroke-width: 0.8"/>
      </g>
     </g>
     <g id="text_12">
      <!-- 0.0 -->
      <g transform="translate(33.053125 342.199219) scale(0.1 -0.1)">
       <defs>
        <path id="Tahoma-30" d="M 3234 2328 
Q 3234 1075 2870 489 
Q 2506 -97 1747 -97 
Q 978 -97 618 500 
Q 259 1097 259 2322 
Q 259 3581 623 4164 
Q 988 4747 1747 4747 
Q 2516 4747 2875 4144 
Q 3234 3541 3234 2328 
z
M 2434 909 
Q 2525 1141 2562 1494 
Q 2600 1847 2600 2328 
Q 2600 2806 2562 3159 
Q 2525 3513 2431 3747 
Q 2338 3984 2173 4107 
Q 2009 4231 1747 4231 
Q 1488 4231 1320 4107 
Q 1153 3984 1056 3741 
Q 963 3503 928 3140 
Q 894 2778 894 2322 
Q 894 1834 923 1506 
Q 953 1178 1053 919 
Q 1144 678 1311 548 
Q 1478 419 1747 419 
Q 2006 419 2173 542 
Q 2341 666 2434 909 
z
" transform="scale(0.015625)"/>
        <path id="Tahoma-2e" d="M 1341 0 
L 594 0 
L 594 891 
L 1341 891 
L 1341 0 
z
" transform="scale(0.015625)"/>
       </defs>
       <use xlink:href="#Tahoma-30"/>
       <use xlink:href="#Tahoma-2e" x="54.589844"/>
       <use xlink:href="#Tahoma-30" x="84.863281"/>
      </g>
     </g>
    </g>
    <g id="ytick_2">
     <g id="line2d_13">
      <g>
       <use xlink:href="#m032ead700d" x="54" y="288" style="stroke: #000000; stroke-width: 0.8"/>
      </g>
     </g>
     <g id="text_13">
      <!-- 0.2 -->
      <g transform="translate(33.053125 291.799219) scale(0.1 -0.1)">
       <use xlink:href="#Tahoma-30"/>
       <use xlink:href="#Tahoma-2e" x="54.589844"/>
       <use xlink:href="#Tahoma-32" x="84.863281"/>
      </g>
     </g>
    </g>
    <g id="ytick_3">
     <g id="line2d_14">
      <g>
       <use xlink:href="#m032ead700d" x="54" y="237.6" style="stroke: #000000; stroke-width: 0.8"/>
      </g>
     </g>
     <g id="text_14">
      <!-- 0.4 -->
      <g transform="translate(33.053125 241.399219) scale(0.1 -0.1)">
       <use xlink:href="#Tahoma-30"/>
       <use xlink:href="#Tahoma-2e" x="54.589844"/>
       <use xlink:href="#Tahoma-34" x="84.863281"/>
      </g>
     </g>
    </g>
    <g id="ytick_4">
     <g id="line2d_15">
      <g>
       <use xlink:href="#m032ead700d" x="54" y="187.2" style="stroke: #000000; stroke-width: 0.8"/>
      </g>
     </g>
     <g id="text_15">
      <!-- 0.6 -->
      <g transform="translate(33.053125 190.999219) scale(0.1 -0.1)">
       <use xlink:href="#Tahoma-30"/>
       <use xlink:href="#Tahoma-2e" x="54.589844"/>
       <use xlink:href="#Tahoma-36" x="84.863281"/>
      </g>
     </g>
    </g>
    <g id="ytick_5">
     <g id="line2d_16">
      <g>
       <use xlink:href="#m032ead700d" x="54" y="136.8" style="stroke: #000000; stroke-width: 0.8"/>
      </g>
     </g>
     <g id="text_16">
      <!-- 0.8 -->
      <g transform="translate(33.053125 140.599219) scale(0.1 -0.1)">
       <use xlink:href="#Tahoma-30"/>
       <use xlink:href="#Tahoma-2e" x="54.589844"/>
       <use xlink:href="#Tahoma-38" x="84.863281"/>
      </g>
     </g>
    </g>
    <g id="ytick_6">
     <g id="line2d_17">
      <g>
       <use xlink:href="#m032ead700d" x="54" y="86.4" style="stroke: #000000; stroke-width: 0.8"/>
      </g>
     </g>
     <g id="text_17">
      <!-- 1.0 -->
      <g transform="translate(33.053125 90.199219) scale(0.1 -0.1)">
       <use xlink:href="#Tahoma-31"/>
       <use xlink:href="#Tahoma-2e" x="54.589844"/>
       <use xlink:href="#Tahoma-30" x="84.863281"/>
      </g>
     </g>
    </g>
   </g>
   <g id="patch_102">
    <path d="M 54 338.4 
L 54 86.4 
" style="fill: none; stroke: #000000; stroke-width: 0.8; stroke-linejoin: miter; stroke-linecap: square"/>
   </g>
   <g id="patch_103">
    <path d="M 388.8 338.4 
L 388.8 86.4 
" style="fill: none; stroke: #000000; stroke-width: 0.8; stroke-linejoin: miter; stroke-linecap: square"/>
   </g>
   <g id="patch_104">
    <path d="M 54 338.4 
L 388.8 338.4 
" style="fill: none; stroke: #000000; stroke-width: 0.8; stroke-linejoin: miter; stroke-linecap: square"/>
   </g>
   <g id="patch_105">
    <path d="M 54 86.4 
L 388.8 86.4 
" style="fill: none; stroke: #000000; stroke-width: 0.8; stroke-linejoin: miter; stroke-linecap: square"/>
   </g>
   <g id="text_18">
    <!-- Leg samples -->
    <g transform="translate(188.674688 80.4) scale(0.12 -0.12)">
     <defs>
      <path id="Tahoma-4c" d="M 3169 0 
L 472 0 
L 472 4653 
L 1091 4653 
L 1091 550 
L 3169 550 
L 3169 0 
z
" transform="scale(0.015625)"/>
      <path id="Tahoma-65" d="M 1941 -81 
Q 1106 -81 645 389 
Q 184 859 184 1725 
Q 184 2578 631 3083 
Q 1078 3588 1800 3588 
Q 2125 3588 2375 3494 
Q 2625 3400 2813 3200 
Q 3000 3000 3100 2711 
Q 3200 2422 3200 2003 
L 3200 1684 
L 781 1684 
Q 781 1075 1087 753 
Q 1394 431 1934 431 
Q 2128 431 2314 475 
Q 2500 519 2650 588 
Q 2809 659 2918 726 
Q 3028 794 3100 853 
L 3134 853 
L 3134 213 
Q 3031 172 2878 111 
Q 2725 50 2603 16 
Q 2431 -31 2292 -56 
Q 2153 -81 1941 -81 
z
M 2628 2134 
Q 2622 2372 2572 2544 
Q 2522 2716 2428 2834 
Q 2325 2966 2164 3034 
Q 2003 3103 1766 3103 
Q 1531 3103 1367 3033 
Q 1203 2963 1069 2828 
Q 938 2691 869 2523 
Q 800 2356 781 2134 
L 2628 2134 
z
" transform="scale(0.015625)"/>
      <path id="Tahoma-67" d="M 2525 947 
L 2525 2863 
Q 2306 2969 2120 3014 
Q 1934 3059 1750 3059 
Q 1303 3059 1047 2731 
Q 791 2403 791 1791 
Q 791 1209 986 906 
Q 1181 603 1619 603 
Q 1847 603 2089 693 
Q 2331 784 2525 947 
z
M 550 -559 
Q 609 -584 725 -626 
Q 841 -669 988 -706 
Q 1150 -747 1287 -772 
Q 1425 -797 1588 -797 
Q 1859 -797 2048 -725 
Q 2238 -653 2344 -525 
Q 2444 -397 2484 -228 
Q 2525 -59 2525 156 
L 2525 463 
Q 2288 256 2059 157 
Q 1831 59 1488 59 
Q 891 59 537 503 
Q 184 947 184 1778 
Q 184 2213 306 2548 
Q 428 2884 634 3119 
Q 831 3344 1100 3466 
Q 1369 3588 1656 3588 
Q 1928 3588 2126 3523 
Q 2325 3459 2525 3341 
L 2559 3491 
L 3113 3491 
L 3113 397 
Q 3113 -491 2725 -906 
Q 2338 -1322 1541 -1322 
Q 1284 -1322 1017 -1281 
Q 750 -1241 519 -1172 
L 519 -559 
L 550 -559 
z
" transform="scale(0.015625)"/>
      <path id="Tahoma-20" transform="scale(0.015625)"/>
      <path id="Tahoma-73" d="M 1369 -84 
Q 1019 -84 714 9 
Q 409 103 209 209 
L 209 869 
L 241 869 
Q 316 809 417 737 
Q 519 666 688 588 
Q 838 519 1017 466 
Q 1197 413 1391 413 
Q 1531 413 1690 445 
Q 1850 478 1928 528 
Q 2038 600 2086 681 
Q 2134 763 2134 925 
Q 2134 1134 2020 1240 
Q 1906 1347 1616 1419 
Q 1503 1447 1322 1484 
Q 1141 1522 988 1566 
Q 588 1681 406 1923 
Q 225 2166 225 2509 
Q 225 2981 581 3278 
Q 938 3575 1528 3575 
Q 1819 3575 2112 3503 
Q 2406 3431 2606 3322 
L 2606 2694 
L 2575 2694 
Q 2350 2872 2073 2975 
Q 1797 3078 1516 3078 
Q 1225 3078 1025 2956 
Q 825 2834 825 2588 
Q 825 2369 944 2261 
Q 1063 2153 1325 2084 
Q 1456 2050 1617 2017 
Q 1778 1984 1956 1941 
Q 2344 1844 2539 1619 
Q 2734 1394 2734 1006 
Q 2734 781 2645 579 
Q 2556 378 2384 234 
Q 2197 78 1961 -3 
Q 1725 -84 1369 -84 
z
" transform="scale(0.015625)"/>
      <path id="Tahoma-61" d="M 2375 859 
L 2375 1828 
Q 2166 1809 1845 1776 
Q 1525 1744 1328 1684 
Q 1094 1613 941 1464 
Q 788 1316 788 1050 
Q 788 750 956 597 
Q 1125 444 1450 444 
Q 1728 444 1953 564 
Q 2178 684 2375 859 
z
M 2375 372 
Q 2303 319 2183 223 
Q 2063 128 1950 72 
Q 1794 -9 1648 -53 
Q 1503 -97 1241 -97 
Q 1025 -97 831 -15 
Q 638 66 491 213 
Q 350 356 265 567 
Q 181 778 181 1013 
Q 181 1375 334 1629 
Q 488 1884 819 2034 
Q 1113 2169 1513 2220 
Q 1913 2272 2375 2297 
L 2375 2409 
Q 2375 2616 2312 2742 
Q 2250 2869 2138 2938 
Q 2025 3009 1862 3032 
Q 1700 3056 1528 3056 
Q 1325 3056 1050 2995 
Q 775 2934 500 2819 
L 466 2819 
L 466 3416 
Q 628 3463 931 3519 
Q 1234 3575 1531 3575 
Q 1891 3575 2137 3519 
Q 2384 3463 2581 3316 
Q 2772 3172 2865 2944 
Q 2959 2716 2959 2388 
L 2959 0 
L 2375 0 
L 2375 372 
z
" transform="scale(0.015625)"/>
      <path id="Tahoma-6d" d="M 4388 0 
L 4388 2019 
Q 4388 2259 4369 2464 
Q 4350 2669 4291 2784 
Q 4228 2909 4112 2968 
Q 3997 3028 3800 3028 
Q 3619 3028 3411 2917 
Q 3203 2806 2981 2597 
Q 2984 2544 2989 2470 
Q 2994 2397 2994 2297 
L 2994 0 
L 2406 0 
L 2406 2019 
Q 2406 2259 2387 2464 
Q 2369 2669 2309 2784 
Q 2247 2909 2131 2968 
Q 2016 3028 1819 3028 
Q 1628 3028 1418 2909 
Q 1209 2791 1013 2606 
L 1013 0 
L 425 0 
L 425 3491 
L 1013 3491 
L 1013 3103 
Q 1244 3334 1470 3461 
Q 1697 3588 1969 3588 
Q 2278 3588 2517 3447 
Q 2756 3306 2881 2984 
Q 3147 3281 3400 3434 
Q 3653 3588 3950 3588 
Q 4175 3588 4359 3517 
Q 4544 3447 4681 3291 
Q 4822 3131 4898 2893 
Q 4975 2656 4975 2297 
L 4975 0 
L 4388 0 
z
" transform="scale(0.015625)"/>
      <path id="Tahoma-70" d="M 3353 1838 
Q 3353 966 2936 448 
Q 2519 -69 1881 -69 
Q 1622 -69 1422 -9 
Q 1222 50 1013 175 
L 1013 -1288 
L 425 -1288 
L 425 3491 
L 1013 3491 
L 1013 3125 
Q 1231 3322 1498 3455 
Q 1766 3588 2081 3588 
Q 2681 3588 3017 3113 
Q 3353 2638 3353 1838 
z
M 2747 1772 
Q 2747 2369 2556 2698 
Q 2366 3028 1938 3028 
Q 1688 3028 1455 2917 
Q 1222 2806 1013 2631 
L 1013 653 
Q 1244 541 1408 500 
Q 1572 459 1784 459 
Q 2241 459 2494 793 
Q 2747 1128 2747 1772 
z
" transform="scale(0.015625)"/>
      <path id="Tahoma-6c" d="M 1025 0 
L 438 0 
L 438 4863 
L 1025 4863 
L 1025 0 
z
" transform="scale(0.015625)"/>
     </defs>
     <use xlink:href="#Tahoma-4c"/>
     <use xlink:href="#Tahoma-65" x="49.755859"/>
     <use xlink:href="#Tahoma-67" x="102.392578"/>
     <use xlink:href="#Tahoma-20" x="157.666016"/>
     <use xlink:href="#Tahoma-73" x="188.916016"/>
     <use xlink:href="#Tahoma-61" x="233.544922"/>
     <use xlink:href="#Tahoma-6d" x="286.035156"/>
     <use xlink:href="#Tahoma-70" x="370.019531"/>
     <use xlink:href="#Tahoma-6c" x="425.292969"/>
     <use xlink:href="#Tahoma-65" x="448.144531"/>
     <use xlink:href="#Tahoma-73" x="500.78125"/>
    </g>
   </g>
   <g id="legend_1">
    <g id="patch_106">
     <path d="M 395.8 225.898438 
L 472.565625 225.898438 
Q 474.565625 225.898438 474.565625 223.898438 
L 474.565625 93.4 
Q 474.565625 91.4 472.565625 91.4 
L 395.8 91.4 
Q 393.8 91.4 393.8 93.4 
L 393.8 223.898438 
Q 393.8 225.898438 395.8 225.898438 
z
" style="fill: #ffffff; opacity: 0.8; stroke: #cccccc; stroke-linejoin: miter"/>
    </g>
    <g id="patch_107">
     <path d="M 397.8 102.998438 
L 417.8 102.998438 
L 417.8 95.998438 
L 397.8 95.998438 
z
" style="fill: #808080; stroke: #808080; stroke-linejoin: miter"/>
    </g>
    <g id="text_19">
     <!-- L -->
     <g transform="translate(425.8 102.998438) scale(0.1 -0.1)">
      <use xlink:href="#Tahoma-4c"/>
     </g>
    </g>
    <g id="patch_108">
     <path d="M 397.8 117.609375 
L 417.8 117.609375 
L 417.8 110.609375 
L 397.8 110.609375 
z
" style="fill: #66c2a5; stroke: #808080; stroke-linejoin: miter"/>
    </g>
    <g id="text_20">
     <!-- K -->
     <g transform="translate(425.8 117.609375) scale(0.1 -0.1)">
      <defs>
       <path id="Tahoma-4b" d="M 3863 0 
L 3059 0 
L 1363 2166 
L 1091 1859 
L 1091 0 
L 472 0 
L 472 4653 
L 1091 4653 
L 1091 2513 
L 2997 4653 
L 3750 4653 
L 1825 2575 
L 3863 0 
z
" transform="scale(0.015625)"/>
      </defs>
      <use xlink:href="#Tahoma-4b"/>
     </g>
    </g>
    <g id="patch_109">
     <path d="M 397.8 132.220312 
L 417.8 132.220312 
L 417.8 125.220312 
L 397.8 125.220312 
z
" style="fill: #abdda4; stroke: #808080; stroke-linejoin: miter"/>
    </g>
    <g id="text_21">
     <!-- H -->
     <g transform="translate(425.8 132.220312) scale(0.1 -0.1)">
      <defs>
       <path id="Tahoma-48" d="M 3850 0 
L 3231 0 
L 3231 2278 
L 1091 2278 
L 1091 0 
L 472 0 
L 472 4653 
L 1091 4653 
L 1091 2828 
L 3231 2828 
L 3231 4653 
L 3850 4653 
L 3850 0 
z
" transform="scale(0.015625)"/>
      </defs>
      <use xlink:href="#Tahoma-48"/>
     </g>
    </g>
    <g id="patch_110">
     <path d="M 397.8 146.83125 
L 417.8 146.83125 
L 417.8 139.83125 
L 397.8 139.83125 
z
" style="fill: #83a79d; stroke: #808080; stroke-linejoin: miter"/>
    </g>
    <g id="text_22">
     <!-- C -->
     <g transform="translate(425.8 146.83125) scale(0.1 -0.1)">
      <defs>
       <path id="Tahoma-43" d="M 2291 -84 
Q 1834 -84 1451 69 
Q 1069 222 791 525 
Q 513 828 359 1281 
Q 206 1734 206 2322 
Q 206 2906 354 3340 
Q 503 3775 788 4097 
Q 1066 4409 1447 4573 
Q 1828 4738 2300 4738 
Q 2534 4738 2739 4703 
Q 2944 4669 3119 4616 
Q 3269 4569 3426 4498 
Q 3584 4428 3738 4344 
L 3738 3597 
L 3688 3597 
Q 3606 3672 3478 3778 
Q 3350 3884 3166 3988 
Q 2988 4084 2778 4146 
Q 2569 4209 2294 4209 
Q 1997 4209 1731 4087 
Q 1466 3966 1266 3728 
Q 1069 3491 959 3131 
Q 850 2772 850 2322 
Q 850 1844 965 1498 
Q 1081 1153 1281 916 
Q 1475 684 1737 567 
Q 2000 450 2294 450 
Q 2563 450 2791 515 
Q 3019 581 3197 681 
Q 3369 778 3494 879 
Q 3619 981 3691 1053 
L 3738 1053 
L 3738 316 
Q 3584 244 3448 178 
Q 3313 113 3119 50 
Q 2916 -16 2742 -50 
Q 2569 -84 2291 -84 
z
" transform="scale(0.015625)"/>
      </defs>
      <use xlink:href="#Tahoma-43"/>
     </g>
    </g>
    <g id="patch_111">
     <path d="M 397.8 161.442188 
L 417.8 161.442188 
L 417.8 154.442188 
L 397.8 154.442188 
z
" style="fill: #4d695d; stroke: #808080; stroke-linejoin: miter"/>
    </g>
    <g id="text_23">
     <!-- B -->
     <g transform="translate(425.8 161.442188) scale(0.1 -0.1)">
      <defs>
       <path id="Tahoma-42" d="M 3628 1428 
Q 3628 1081 3497 815 
Q 3366 550 3144 378 
Q 2881 172 2581 86 
Q 2281 0 1806 0 
L 472 0 
L 472 4653 
L 1706 4653 
Q 2203 4653 2451 4620 
Q 2700 4588 2928 4466 
Q 3178 4331 3293 4114 
Q 3409 3897 3409 3603 
Q 3409 3275 3236 3015 
Q 3063 2756 2756 2609 
L 2756 2584 
Q 3172 2472 3400 2173 
Q 3628 1875 3628 1428 
z
M 2766 3516 
Q 2766 3684 2709 3807 
Q 2653 3931 2528 4003 
Q 2378 4088 2193 4106 
Q 2009 4125 1684 4125 
L 1091 4125 
L 1091 2763 
L 1794 2763 
Q 2084 2763 2221 2792 
Q 2359 2822 2506 2916 
Q 2647 3006 2706 3153 
Q 2766 3300 2766 3516 
z
M 2984 1403 
Q 2984 1666 2909 1836 
Q 2834 2006 2606 2125 
Q 2459 2203 2286 2225 
Q 2113 2247 1794 2247 
L 1091 2247 
L 1091 528 
L 1594 528 
Q 2000 528 2234 565 
Q 2469 603 2647 725 
Q 2822 847 2903 1001 
Q 2984 1156 2984 1403 
z
" transform="scale(0.015625)"/>
      </defs>
      <use xlink:href="#Tahoma-42"/>
     </g>
    </g>
    <g id="patch_112">
     <path d="M 397.8 176.053125 
L 417.8 176.053125 
L 417.8 169.053125 
L 397.8 169.053125 
z
" style="fill: #d2d2cb; stroke: #808080; stroke-linejoin: miter"/>
    </g>
    <g id="text_24">
     <!-- A -->
     <g transform="translate(425.8 176.053125) scale(0.1 -0.1)">
      <defs>
       <path id="Tahoma-41" d="M -31 0 
L 1538 4653 
L 2300 4653 
L 3869 0 
L 3216 0 
L 2794 1300 
L 1016 1300 
L 594 0 
L -31 0 
z
M 2622 1828 
L 1903 4022 
L 1188 1828 
L 2622 1828 
z
" transform="scale(0.015625)"/>
      </defs>
      <use xlink:href="#Tahoma-41"/>
     </g>
    </g>
    <g id="patch_113">
     <path d="M 397.8 190.664062 
L 417.8 190.664062 
L 417.8 183.664062 
L 397.8 183.664062 
z
" style="fill: #a1cde5; stroke: #808080; stroke-linejoin: miter"/>
    </g>
    <g id="text_25">
     <!-- F -->
     <g transform="translate(425.8 190.664062) scale(0.1 -0.1)">
      <defs>
       <path id="Tahoma-46" d="M 3256 4103 
L 1091 4103 
L 1091 2791 
L 3166 2791 
L 3166 2241 
L 1091 2241 
L 1091 0 
L 472 0 
L 472 4653 
L 3256 4653 
L 3256 4103 
z
" transform="scale(0.015625)"/>
      </defs>
      <use xlink:href="#Tahoma-46"/>
     </g>
    </g>
    <g id="patch_114">
     <path d="M 397.8 205.275 
L 417.8 205.275 
L 417.8 198.275 
L 397.8 198.275 
z
" style="fill: #30b0e0; stroke: #808080; stroke-linejoin: miter"/>
    </g>
    <g id="text_26">
     <!-- E -->
     <g transform="translate(425.8 205.275) scale(0.1 -0.1)">
      <defs>
       <path id="Tahoma-45" d="M 472 0 
L 472 4653 
L 3381 4653 
L 3381 4103 
L 1091 4103 
L 1091 2828 
L 3225 2828 
L 3225 2278 
L 1091 2278 
L 1091 550 
L 3381 550 
L 3381 0 
L 472 0 
z
" transform="scale(0.015625)"/>
      </defs>
      <use xlink:href="#Tahoma-45"/>
     </g>
    </g>
    <g id="patch_115">
     <path d="M 397.8 219.885938 
L 417.8 219.885938 
L 417.8 212.885938 
L 397.8 212.885938 
z
" style="fill: #ffffff; stroke: #808080; stroke-linejoin: miter"/>
    </g>
    <g id="text_27">
     <!-- Undefined -->
     <g transform="translate(425.8 219.885938) scale(0.1 -0.1)">
      <defs>
       <path id="Tahoma-55" d="M 2097 -97 
Q 1688 -97 1381 11 
Q 1075 119 859 331 
Q 616 575 516 914 
Q 416 1253 416 1750 
L 416 4653 
L 1034 4653 
L 1034 1750 
Q 1034 1428 1075 1208 
Q 1116 988 1234 813 
Q 1359 625 1573 528 
Q 1788 431 2097 431 
Q 2388 431 2613 528 
Q 2838 625 2963 813 
Q 3078 991 3120 1206 
Q 3163 1422 3163 1734 
L 3163 4653 
L 3781 4653 
L 3781 1750 
Q 3781 1266 3682 919 
Q 3584 572 3338 331 
Q 3116 116 2820 9 
Q 2525 -97 2097 -97 
z
" transform="scale(0.015625)"/>
       <path id="Tahoma-6e" d="M 3169 0 
L 2581 0 
L 2581 1988 
Q 2581 2228 2557 2436 
Q 2534 2644 2469 2769 
Q 2397 2900 2269 2964 
Q 2141 3028 1919 3028 
Q 1700 3028 1467 2911 
Q 1234 2794 1013 2606 
L 1013 0 
L 425 0 
L 425 3491 
L 1013 3491 
L 1013 3103 
Q 1275 3338 1531 3463 
Q 1788 3588 2072 3588 
Q 2588 3588 2878 3248 
Q 3169 2909 3169 2266 
L 3169 0 
z
" transform="scale(0.015625)"/>
       <path id="Tahoma-64" d="M 3113 0 
L 2525 0 
L 2525 356 
Q 2388 241 2288 166 
Q 2188 91 2053 28 
Q 1928 -31 1793 -64 
Q 1659 -97 1481 -97 
Q 1197 -97 955 22 
Q 713 141 544 369 
Q 372 600 278 939 
Q 184 1278 184 1719 
Q 184 2178 303 2514 
Q 422 2850 631 3100 
Q 822 3328 1092 3458 
Q 1363 3588 1659 3588 
Q 1922 3588 2115 3530 
Q 2309 3472 2525 3350 
L 2525 4863 
L 3113 4863 
L 3113 0 
z
M 2525 850 
L 2525 2863 
Q 2306 2969 2132 3009 
Q 1959 3050 1756 3050 
Q 1303 3050 1047 2711 
Q 791 2372 791 1731 
Q 791 1116 987 789 
Q 1184 463 1619 463 
Q 1850 463 2084 567 
Q 2319 672 2525 850 
z
" transform="scale(0.015625)"/>
       <path id="Tahoma-66" d="M 2263 4300 
L 2231 4300 
Q 2153 4328 2006 4354 
Q 1859 4381 1744 4381 
Q 1372 4381 1214 4214 
Q 1056 4047 1056 3609 
L 1056 3491 
L 2028 3491 
L 2028 3003 
L 1075 3003 
L 1075 0 
L 488 0 
L 488 3003 
L 91 3003 
L 91 3491 
L 488 3491 
L 488 3606 
Q 488 4238 791 4566 
Q 1094 4894 1659 4894 
Q 1822 4894 1978 4876 
Q 2134 4859 2263 4838 
L 2263 4300 
z
" transform="scale(0.015625)"/>
       <path id="Tahoma-69" d="M 1025 0 
L 438 0 
L 438 3491 
L 1025 3491 
L 1025 0 
z
M 1066 4075 
L 397 4075 
L 397 4684 
L 1066 4684 
L 1066 4075 
z
" transform="scale(0.015625)"/>
      </defs>
      <use xlink:href="#Tahoma-55"/>
      <use xlink:href="#Tahoma-6e" x="65.576172"/>
      <use xlink:href="#Tahoma-64" x="121.337891"/>
      <use xlink:href="#Tahoma-65" x="176.611328"/>
      <use xlink:href="#Tahoma-66" x="229.248047"/>
      <use xlink:href="#Tahoma-69" x="261.083984"/>
      <use xlink:href="#Tahoma-6e" x="283.935547"/>
      <use xlink:href="#Tahoma-65" x="339.697266"/>
      <use xlink:href="#Tahoma-64" x="392.333984"/>
     </g>
    </g>
   </g>
  </g>
  <g id="axes_2">
   <g id="patch_116">
    <path d="M 54 640.8 
L 388.8 640.8 
L 388.8 388.8 
L 54 388.8 
z
" style="fill: #ffffff"/>
   </g>
   <g id="patch_117">
    <path d="M 61.342105 640.8 
L 87.773684 640.8 
L 87.773684 640.8 
L 61.342105 640.8 
z
" clip-path="url(#p4fa2f63e41)" style="fill: #808080; stroke: #808080; stroke-linejoin: miter"/>
   </g>
   <g id="patch_118">
    <path d="M 90.710526 640.8 
L 117.142105 640.8 
L 117.142105 640.8 
L 90.710526 640.8 
z
" clip-path="url(#p4fa2f63e41)" style="fill: #808080; stroke: #808080; stroke-linejoin: miter"/>
   </g>
   <g id="patch_119">
    <path d="M 120.078947 640.8 
L 146.510526 640.8 
L 146.510526 640.8 
L 120.078947 640.8 
z
" clip-path="url(#p4fa2f63e41)" style="fill: #808080; stroke: #808080; stroke-linejoin: miter"/>
   </g>
   <g id="patch_120">
    <path d="M 149.447368 640.8 
L 175.878947 640.8 
L 175.878947 640.8 
L 149.447368 640.8 
z
" clip-path="url(#p4fa2f63e41)" style="fill: #808080; stroke: #808080; stroke-linejoin: miter"/>
   </g>
   <g id="patch_121">
    <path d="M 178.815789 640.8 
L 205.247368 640.8 
L 205.247368 640.8 
L 178.815789 640.8 
z
" clip-path="url(#p4fa2f63e41)" style="fill: #808080; stroke: #808080; stroke-linejoin: miter"/>
   </g>
   <g id="patch_122">
    <path d="M 208.184211 640.8 
L 234.615789 640.8 
L 234.615789 640.8 
L 208.184211 640.8 
z
" clip-path="url(#p4fa2f63e41)" style="fill: #808080; stroke: #808080; stroke-linejoin: miter"/>
   </g>
   <g id="patch_123">
    <path d="M 237.552632 640.8 
L 263.984211 640.8 
L 263.984211 640.8 
L 237.552632 640.8 
z
" clip-path="url(#p4fa2f63e41)" style="fill: #808080; stroke: #808080; stroke-linejoin: miter"/>
   </g>
   <g id="patch_124">
    <path d="M 266.921053 640.8 
L 293.352632 640.8 
L 293.352632 640.8 
L 266.921053 640.8 
z
" clip-path="url(#p4fa2f63e41)" style="fill: #808080; stroke: #808080; stroke-linejoin: miter"/>
   </g>
   <g id="patch_125">
    <path d="M 296.289474 640.8 
L 322.721053 640.8 
L 322.721053 640.8 
L 296.289474 640.8 
z
" clip-path="url(#p4fa2f63e41)" style="fill: #808080; stroke: #808080; stroke-linejoin: miter"/>
   </g>
   <g id="patch_126">
    <path d="M 325.657895 640.8 
L 352.089474 640.8 
L 352.089474 640.8 
L 325.657895 640.8 
z
" clip-path="url(#p4fa2f63e41)" style="fill: #808080; stroke: #808080; stroke-linejoin: miter"/>
   </g>
   <g id="patch_127">
    <path d="M 355.026316 640.8 
L 381.457895 640.8 
L 381.457895 640.8 
L 355.026316 640.8 
z
" clip-path="url(#p4fa2f63e41)" style="fill: #808080; stroke: #808080; stroke-linejoin: miter"/>
   </g>
   <g id="patch_128">
    <path d="M 61.342105 640.8 
L 87.773684 640.8 
L 87.773684 618.582949 
L 61.342105 618.582949 
z
" clip-path="url(#p4fa2f63e41)" style="fill: #66c2a5; stroke: #808080; stroke-linejoin: miter"/>
   </g>
   <g id="patch_129">
    <path d="M 90.710526 640.8 
L 117.142105 640.8 
L 117.142105 394.645505 
L 90.710526 394.645505 
z
" clip-path="url(#p4fa2f63e41)" style="fill: #66c2a5; stroke: #808080; stroke-linejoin: miter"/>
   </g>
   <g id="patch_130">
    <path d="M 120.078947 640.8 
L 146.510526 640.8 
L 146.510526 640.8 
L 120.078947 640.8 
z
" clip-path="url(#p4fa2f63e41)" style="fill: #66c2a5; stroke: #808080; stroke-linejoin: miter"/>
   </g>
   <g id="patch_131">
    <path d="M 149.447368 640.8 
L 175.878947 640.8 
L 175.878947 634.835493 
L 149.447368 634.835493 
z
" clip-path="url(#p4fa2f63e41)" style="fill: #66c2a5; stroke: #808080; stroke-linejoin: miter"/>
   </g>
   <g id="patch_132">
    <path d="M 178.815789 640.8 
L 205.247368 640.8 
L 205.247368 429.207704 
L 178.815789 429.207704 
z
" clip-path="url(#p4fa2f63e41)" style="fill: #66c2a5; stroke: #808080; stroke-linejoin: miter"/>
   </g>
   <g id="patch_133">
    <path d="M 208.184211 640.8 
L 234.615789 640.8 
L 234.615789 577.530913 
L 208.184211 577.530913 
z
" clip-path="url(#p4fa2f63e41)" style="fill: #66c2a5; stroke: #808080; stroke-linejoin: miter"/>
   </g>
   <g id="patch_134">
    <path d="M 237.552632 640.8 
L 263.984211 640.8 
L 263.984211 640.8 
L 237.552632 640.8 
z
" clip-path="url(#p4fa2f63e41)" style="fill: #66c2a5; stroke: #808080; stroke-linejoin: miter"/>
   </g>
   <g id="patch_135">
    <path d="M 266.921053 640.8 
L 293.352632 640.8 
L 293.352632 400.487239 
L 266.921053 400.487239 
z
" clip-path="url(#p4fa2f63e41)" style="fill: #66c2a5; stroke: #808080; stroke-linejoin: miter"/>
   </g>
   <g id="patch_136">
    <path d="M 296.289474 640.8 
L 322.721053 640.8 
L 322.721053 640.8 
L 296.289474 640.8 
z
" clip-path="url(#p4fa2f63e41)" style="fill: #66c2a5; stroke: #808080; stroke-linejoin: miter"/>
   </g>
   <g id="patch_137">
    <path d="M 325.657895 640.8 
L 352.089474 640.8 
L 352.089474 640.8 
L 325.657895 640.8 
z
" clip-path="url(#p4fa2f63e41)" style="fill: #66c2a5; stroke: #808080; stroke-linejoin: miter"/>
   </g>
   <g id="patch_138">
    <path d="M 355.026316 640.8 
L 381.457895 640.8 
L 381.457895 640.8 
L 355.026316 640.8 
z
" clip-path="url(#p4fa2f63e41)" style="fill: #66c2a5; stroke: #808080; stroke-linejoin: miter"/>
   </g>
   <g id="patch_139">
    <path d="M 61.342105 618.582949 
L 87.773684 618.582949 
L 87.773684 605.786053 
L 61.342105 605.786053 
z
" clip-path="url(#p4fa2f63e41)" style="fill: #abdda4; stroke: #808080; stroke-linejoin: miter"/>
   </g>
   <g id="patch_140">
    <path d="M 90.710526 640.8 
L 117.142105 640.8 
L 117.142105 640.8 
L 90.710526 640.8 
z
" clip-path="url(#p4fa2f63e41)" style="fill: #abdda4; stroke: #808080; stroke-linejoin: miter"/>
   </g>
   <g id="patch_141">
    <path d="M 120.078947 640.8 
L 146.510526 640.8 
L 146.510526 482.8406 
L 120.078947 482.8406 
z
" clip-path="url(#p4fa2f63e41)" style="fill: #abdda4; stroke: #808080; stroke-linejoin: miter"/>
   </g>
   <g id="patch_142">
    <path d="M 149.447368 640.8 
L 175.878947 640.8 
L 175.878947 640.8 
L 149.447368 640.8 
z
" clip-path="url(#p4fa2f63e41)" style="fill: #abdda4; stroke: #808080; stroke-linejoin: miter"/>
   </g>
   <g id="patch_143">
    <path d="M 178.815789 640.8 
L 205.247368 640.8 
L 205.247368 640.8 
L 178.815789 640.8 
z
" clip-path="url(#p4fa2f63e41)" style="fill: #abdda4; stroke: #808080; stroke-linejoin: miter"/>
   </g>
   <g id="patch_144">
    <path d="M 208.184211 577.530913 
L 234.615789 577.530913 
L 234.615789 471.06496 
L 208.184211 471.06496 
z
" clip-path="url(#p4fa2f63e41)" style="fill: #abdda4; stroke: #808080; stroke-linejoin: miter"/>
   </g>
   <g id="patch_145">
    <path d="M 237.552632 640.8 
L 263.984211 640.8 
L 263.984211 640.8 
L 237.552632 640.8 
z
" clip-path="url(#p4fa2f63e41)" style="fill: #abdda4; stroke: #808080; stroke-linejoin: miter"/>
   </g>
   <g id="patch_146">
    <path d="M 266.921053 640.8 
L 293.352632 640.8 
L 293.352632 640.8 
L 266.921053 640.8 
z
" clip-path="url(#p4fa2f63e41)" style="fill: #abdda4; stroke: #808080; stroke-linejoin: miter"/>
   </g>
   <g id="patch_147">
    <path d="M 296.289474 640.8 
L 322.721053 640.8 
L 322.721053 640.8 
L 296.289474 640.8 
z
" clip-path="url(#p4fa2f63e41)" style="fill: #abdda4; stroke: #808080; stroke-linejoin: miter"/>
   </g>
   <g id="patch_148">
    <path d="M 325.657895 640.8 
L 352.089474 640.8 
L 352.089474 640.8 
L 325.657895 640.8 
z
" clip-path="url(#p4fa2f63e41)" style="fill: #abdda4; stroke: #808080; stroke-linejoin: miter"/>
   </g>
   <g id="patch_149">
    <path d="M 355.026316 640.8 
L 381.457895 640.8 
L 381.457895 640.8 
L 355.026316 640.8 
z
" clip-path="url(#p4fa2f63e41)" style="fill: #abdda4; stroke: #808080; stroke-linejoin: miter"/>
   </g>
   <g id="patch_150">
    <path d="M 61.342105 605.786053 
L 87.773684 605.786053 
L 87.773684 583.148367 
L 61.342105 583.148367 
z
" clip-path="url(#p4fa2f63e41)" style="fill: #83a79d; stroke: #808080; stroke-linejoin: miter"/>
   </g>
   <g id="patch_151">
    <path d="M 90.710526 640.8 
L 117.142105 640.8 
L 117.142105 640.8 
L 90.710526 640.8 
z
" clip-path="url(#p4fa2f63e41)" style="fill: #83a79d; stroke: #808080; stroke-linejoin: miter"/>
   </g>
   <g id="patch_152">
    <path d="M 120.078947 640.8 
L 146.510526 640.8 
L 146.510526 640.8 
L 120.078947 640.8 
z
" clip-path="url(#p4fa2f63e41)" style="fill: #83a79d; stroke: #808080; stroke-linejoin: miter"/>
   </g>
   <g id="patch_153">
    <path d="M 149.447368 634.835493 
L 175.878947 634.835493 
L 175.878947 629.69289 
L 149.447368 629.69289 
z
" clip-path="url(#p4fa2f63e41)" style="fill: #83a79d; stroke: #808080; stroke-linejoin: miter"/>
   </g>
   <g id="patch_154">
    <path d="M 178.815789 640.8 
L 205.247368 640.8 
L 205.247368 640.8 
L 178.815789 640.8 
z
" clip-path="url(#p4fa2f63e41)" style="fill: #83a79d; stroke: #808080; stroke-linejoin: miter"/>
   </g>
   <g id="patch_155">
    <path d="M 208.184211 640.8 
L 234.615789 640.8 
L 234.615789 640.8 
L 208.184211 640.8 
z
" clip-path="url(#p4fa2f63e41)" style="fill: #83a79d; stroke: #808080; stroke-linejoin: miter"/>
   </g>
   <g id="patch_156">
    <path d="M 237.552632 640.8 
L 263.984211 640.8 
L 263.984211 640.8 
L 237.552632 640.8 
z
" clip-path="url(#p4fa2f63e41)" style="fill: #83a79d; stroke: #808080; stroke-linejoin: miter"/>
   </g>
   <g id="patch_157">
    <path d="M 266.921053 640.8 
L 293.352632 640.8 
L 293.352632 640.8 
L 266.921053 640.8 
z
" clip-path="url(#p4fa2f63e41)" style="fill: #83a79d; stroke: #808080; stroke-linejoin: miter"/>
   </g>
   <g id="patch_158">
    <path d="M 296.289474 640.8 
L 322.721053 640.8 
L 322.721053 640.8 
L 296.289474 640.8 
z
" clip-path="url(#p4fa2f63e41)" style="fill: #83a79d; stroke: #808080; stroke-linejoin: miter"/>
   </g>
   <g id="patch_159">
    <path d="M 325.657895 640.8 
L 352.089474 640.8 
L 352.089474 640.8 
L 325.657895 640.8 
z
" clip-path="url(#p4fa2f63e41)" style="fill: #83a79d; stroke: #808080; stroke-linejoin: miter"/>
   </g>
   <g id="patch_160">
    <path d="M 355.026316 640.8 
L 381.457895 640.8 
L 381.457895 640.8 
L 355.026316 640.8 
z
" clip-path="url(#p4fa2f63e41)" style="fill: #83a79d; stroke: #808080; stroke-linejoin: miter"/>
   </g>
   <g id="patch_161">
    <path d="M 61.342105 640.8 
L 87.773684 640.8 
L 87.773684 640.8 
L 61.342105 640.8 
z
" clip-path="url(#p4fa2f63e41)" style="fill: #4d695d; stroke: #808080; stroke-linejoin: miter"/>
   </g>
   <g id="patch_162">
    <path d="M 90.710526 640.8 
L 117.142105 640.8 
L 117.142105 640.8 
L 90.710526 640.8 
z
" clip-path="url(#p4fa2f63e41)" style="fill: #4d695d; stroke: #808080; stroke-linejoin: miter"/>
   </g>
   <g id="patch_163">
    <path d="M 120.078947 640.8 
L 146.510526 640.8 
L 146.510526 640.8 
L 120.078947 640.8 
z
" clip-path="url(#p4fa2f63e41)" style="fill: #4d695d; stroke: #808080; stroke-linejoin: miter"/>
   </g>
   <g id="patch_164">
    <path d="M 149.447368 640.8 
L 175.878947 640.8 
L 175.878947 640.8 
L 149.447368 640.8 
z
" clip-path="url(#p4fa2f63e41)" style="fill: #4d695d; stroke: #808080; stroke-linejoin: miter"/>
   </g>
   <g id="patch_165">
    <path d="M 178.815789 640.8 
L 205.247368 640.8 
L 205.247368 640.8 
L 178.815789 640.8 
z
" clip-path="url(#p4fa2f63e41)" style="fill: #4d695d; stroke: #808080; stroke-linejoin: miter"/>
   </g>
   <g id="patch_166">
    <path d="M 208.184211 640.8 
L 234.615789 640.8 
L 234.615789 640.8 
L 208.184211 640.8 
z
" clip-path="url(#p4fa2f63e41)" style="fill: #4d695d; stroke: #808080; stroke-linejoin: miter"/>
   </g>
   <g id="patch_167">
    <path d="M 237.552632 640.8 
L 263.984211 640.8 
L 263.984211 640.8 
L 237.552632 640.8 
z
" clip-path="url(#p4fa2f63e41)" style="fill: #4d695d; stroke: #808080; stroke-linejoin: miter"/>
   </g>
   <g id="patch_168">
    <path d="M 266.921053 640.8 
L 293.352632 640.8 
L 293.352632 640.8 
L 266.921053 640.8 
z
" clip-path="url(#p4fa2f63e41)" style="fill: #4d695d; stroke: #808080; stroke-linejoin: miter"/>
   </g>
   <g id="patch_169">
    <path d="M 296.289474 640.8 
L 322.721053 640.8 
L 322.721053 640.8 
L 296.289474 640.8 
z
" clip-path="url(#p4fa2f63e41)" style="fill: #4d695d; stroke: #808080; stroke-linejoin: miter"/>
   </g>
   <g id="patch_170">
    <path d="M 325.657895 640.8 
L 352.089474 640.8 
L 352.089474 640.8 
L 325.657895 640.8 
z
" clip-path="url(#p4fa2f63e41)" style="fill: #4d695d; stroke: #808080; stroke-linejoin: miter"/>
   </g>
   <g id="patch_171">
    <path d="M 355.026316 640.8 
L 381.457895 640.8 
L 381.457895 640.8 
L 355.026316 640.8 
z
" clip-path="url(#p4fa2f63e41)" style="fill: #4d695d; stroke: #808080; stroke-linejoin: miter"/>
   </g>
   <g id="patch_172">
    <path d="M 61.342105 583.148367 
L 87.773684 583.148367 
L 87.773684 508.910971 
L 61.342105 508.910971 
z
" clip-path="url(#p4fa2f63e41)" style="fill: #d2d2cb; stroke: #808080; stroke-linejoin: miter"/>
   </g>
   <g id="patch_173">
    <path d="M 90.710526 640.8 
L 117.142105 640.8 
L 117.142105 640.8 
L 90.710526 640.8 
z
" clip-path="url(#p4fa2f63e41)" style="fill: #d2d2cb; stroke: #808080; stroke-linejoin: miter"/>
   </g>
   <g id="patch_174">
    <path d="M 120.078947 640.8 
L 146.510526 640.8 
L 146.510526 640.8 
L 120.078947 640.8 
z
" clip-path="url(#p4fa2f63e41)" style="fill: #d2d2cb; stroke: #808080; stroke-linejoin: miter"/>
   </g>
   <g id="patch_175">
    <path d="M 149.447368 629.69289 
L 175.878947 629.69289 
L 175.878947 625.118779 
L 149.447368 625.118779 
z
" clip-path="url(#p4fa2f63e41)" style="fill: #d2d2cb; stroke: #808080; stroke-linejoin: miter"/>
   </g>
   <g id="patch_176">
    <path d="M 178.815789 640.8 
L 205.247368 640.8 
L 205.247368 640.8 
L 178.815789 640.8 
z
" clip-path="url(#p4fa2f63e41)" style="fill: #d2d2cb; stroke: #808080; stroke-linejoin: miter"/>
   </g>
   <g id="patch_177">
    <path d="M 208.184211 471.06496 
L 234.615789 471.06496 
L 234.615789 413.383028 
L 208.184211 413.383028 
z
" clip-path="url(#p4fa2f63e41)" style="fill: #d2d2cb; stroke: #808080; stroke-linejoin: miter"/>
   </g>
   <g id="patch_178">
    <path d="M 237.552632 640.8 
L 263.984211 640.8 
L 263.984211 640.8 
L 237.552632 640.8 
z
" clip-path="url(#p4fa2f63e41)" style="fill: #d2d2cb; stroke: #808080; stroke-linejoin: miter"/>
   </g>
   <g id="patch_179">
    <path d="M 266.921053 400.487239 
L 293.352632 400.487239 
L 293.352632 392.602605 
L 266.921053 392.602605 
z
" clip-path="url(#p4fa2f63e41)" style="fill: #d2d2cb; stroke: #808080; stroke-linejoin: miter"/>
   </g>
   <g id="patch_180">
    <path d="M 296.289474 640.8 
L 322.721053 640.8 
L 322.721053 413.639641 
L 296.289474 413.639641 
z
" clip-path="url(#p4fa2f63e41)" style="fill: #d2d2cb; stroke: #808080; stroke-linejoin: miter"/>
   </g>
   <g id="patch_181">
    <path d="M 325.657895 640.8 
L 352.089474 640.8 
L 352.089474 426.194699 
L 325.657895 426.194699 
z
" clip-path="url(#p4fa2f63e41)" style="fill: #d2d2cb; stroke: #808080; stroke-linejoin: miter"/>
   </g>
   <g id="patch_182">
    <path d="M 355.026316 640.8 
L 381.457895 640.8 
L 381.457895 511.673599 
L 355.026316 511.673599 
z
" clip-path="url(#p4fa2f63e41)" style="fill: #d2d2cb; stroke: #808080; stroke-linejoin: miter"/>
   </g>
   <g id="patch_183">
    <path d="M 61.342105 508.910971 
L 87.773684 508.910971 
L 87.773684 471.871746 
L 61.342105 471.871746 
z
" clip-path="url(#p4fa2f63e41)" style="fill: #a1cde5; stroke: #808080; stroke-linejoin: miter"/>
   </g>
   <g id="patch_184">
    <path d="M 90.710526 394.645505 
L 117.142105 394.645505 
L 117.142105 391.425346 
L 90.710526 391.425346 
z
" clip-path="url(#p4fa2f63e41)" style="fill: #a1cde5; stroke: #808080; stroke-linejoin: miter"/>
   </g>
   <g id="patch_185">
    <path d="M 120.078947 482.8406 
L 146.510526 482.8406 
L 146.510526 409.791572 
L 120.078947 409.791572 
z
" clip-path="url(#p4fa2f63e41)" style="fill: #a1cde5; stroke: #808080; stroke-linejoin: miter"/>
   </g>
   <g id="patch_186">
    <path d="M 149.447368 625.118779 
L 175.878947 625.118779 
L 175.878947 390.198442 
L 149.447368 390.198442 
z
" clip-path="url(#p4fa2f63e41)" style="fill: #a1cde5; stroke: #808080; stroke-linejoin: miter"/>
   </g>
   <g id="patch_187">
    <path d="M 178.815789 429.207704 
L 205.247368 429.207704 
L 205.247368 400.534711 
L 178.815789 400.534711 
z
" clip-path="url(#p4fa2f63e41)" style="fill: #a1cde5; stroke: #808080; stroke-linejoin: miter"/>
   </g>
   <g id="patch_188">
    <path d="M 208.184211 640.8 
L 234.615789 640.8 
L 234.615789 640.8 
L 208.184211 640.8 
z
" clip-path="url(#p4fa2f63e41)" style="fill: #a1cde5; stroke: #808080; stroke-linejoin: miter"/>
   </g>
   <g id="patch_189">
    <path d="M 237.552632 640.8 
L 263.984211 640.8 
L 263.984211 534.564451 
L 237.552632 534.564451 
z
" clip-path="url(#p4fa2f63e41)" style="fill: #a1cde5; stroke: #808080; stroke-linejoin: miter"/>
   </g>
   <g id="patch_190">
    <path d="M 266.921053 640.8 
L 293.352632 640.8 
L 293.352632 640.8 
L 266.921053 640.8 
z
" clip-path="url(#p4fa2f63e41)" style="fill: #a1cde5; stroke: #808080; stroke-linejoin: miter"/>
   </g>
   <g id="patch_191">
    <path d="M 296.289474 640.8 
L 322.721053 640.8 
L 322.721053 640.8 
L 296.289474 640.8 
z
" clip-path="url(#p4fa2f63e41)" style="fill: #a1cde5; stroke: #808080; stroke-linejoin: miter"/>
   </g>
   <g id="patch_192">
    <path d="M 325.657895 640.8 
L 352.089474 640.8 
L 352.089474 640.8 
L 325.657895 640.8 
z
" clip-path="url(#p4fa2f63e41)" style="fill: #a1cde5; stroke: #808080; stroke-linejoin: miter"/>
   </g>
   <g id="patch_193">
    <path d="M 355.026316 511.673599 
L 381.457895 511.673599 
L 381.457895 441.570584 
L 355.026316 441.570584 
z
" clip-path="url(#p4fa2f63e41)" style="fill: #a1cde5; stroke: #808080; stroke-linejoin: miter"/>
   </g>
   <g id="patch_194">
    <path d="M 61.342105 640.8 
L 87.773684 640.8 
L 87.773684 640.8 
L 61.342105 640.8 
z
" clip-path="url(#p4fa2f63e41)" style="fill: #30b0e0; stroke: #808080; stroke-linejoin: miter"/>
   </g>
   <g id="patch_195">
    <path d="M 90.710526 640.8 
L 117.142105 640.8 
L 117.142105 640.8 
L 90.710526 640.8 
z
" clip-path="url(#p4fa2f63e41)" style="fill: #30b0e0; stroke: #808080; stroke-linejoin: miter"/>
   </g>
   <g id="patch_196">
    <path d="M 120.078947 640.8 
L 146.510526 640.8 
L 146.510526 640.8 
L 120.078947 640.8 
z
" clip-path="url(#p4fa2f63e41)" style="fill: #30b0e0; stroke: #808080; stroke-linejoin: miter"/>
   </g>
   <g id="patch_197">
    <path d="M 149.447368 640.8 
L 175.878947 640.8 
L 175.878947 640.8 
L 149.447368 640.8 
z
" clip-path="url(#p4fa2f63e41)" style="fill: #30b0e0; stroke: #808080; stroke-linejoin: miter"/>
   </g>
   <g id="patch_198">
    <path d="M 178.815789 640.8 
L 205.247368 640.8 
L 205.247368 640.8 
L 178.815789 640.8 
z
" clip-path="url(#p4fa2f63e41)" style="fill: #30b0e0; stroke: #808080; stroke-linejoin: miter"/>
   </g>
   <g id="patch_199">
    <path d="M 208.184211 640.8 
L 234.615789 640.8 
L 234.615789 640.8 
L 208.184211 640.8 
z
" clip-path="url(#p4fa2f63e41)" style="fill: #30b0e0; stroke: #808080; stroke-linejoin: miter"/>
   </g>
   <g id="patch_200">
    <path d="M 237.552632 640.8 
L 263.984211 640.8 
L 263.984211 640.8 
L 237.552632 640.8 
z
" clip-path="url(#p4fa2f63e41)" style="fill: #30b0e0; stroke: #808080; stroke-linejoin: miter"/>
   </g>
   <g id="patch_201">
    <path d="M 266.921053 640.8 
L 293.352632 640.8 
L 293.352632 640.8 
L 266.921053 640.8 
z
" clip-path="url(#p4fa2f63e41)" style="fill: #30b0e0; stroke: #808080; stroke-linejoin: miter"/>
   </g>
   <g id="patch_202">
    <path d="M 296.289474 413.639641 
L 322.721053 413.639641 
L 322.721053 407.04425 
L 296.289474 407.04425 
z
" clip-path="url(#p4fa2f63e41)" style="fill: #30b0e0; stroke: #808080; stroke-linejoin: miter"/>
   </g>
   <g id="patch_203">
    <path d="M 325.657895 640.8 
L 352.089474 640.8 
L 352.089474 640.8 
L 325.657895 640.8 
z
" clip-path="url(#p4fa2f63e41)" style="fill: #30b0e0; stroke: #808080; stroke-linejoin: miter"/>
   </g>
   <g id="patch_204">
    <path d="M 355.026316 441.570584 
L 381.457895 441.570584 
L 381.457895 415.266384 
L 355.026316 415.266384 
z
" clip-path="url(#p4fa2f63e41)" style="fill: #30b0e0; stroke: #808080; stroke-linejoin: miter"/>
   </g>
   <g id="patch_205">
    <path d="M 61.342105 471.871746 
L 87.773684 471.871746 
L 87.773684 388.8 
L 61.342105 388.8 
z
" clip-path="url(#p4fa2f63e41)" style="fill: #ffffff; stroke: #808080; stroke-linejoin: miter"/>
   </g>
   <g id="patch_206">
    <path d="M 90.710526 391.425346 
L 117.142105 391.425346 
L 117.142105 388.8 
L 90.710526 388.8 
z
" clip-path="url(#p4fa2f63e41)" style="fill: #ffffff; stroke: #808080; stroke-linejoin: miter"/>
   </g>
   <g id="patch_207">
    <path d="M 120.078947 409.791572 
L 146.510526 409.791572 
L 146.510526 388.8 
L 120.078947 388.8 
z
" clip-path="url(#p4fa2f63e41)" style="fill: #ffffff; stroke: #808080; stroke-linejoin: miter"/>
   </g>
   <g id="patch_208">
    <path d="M 149.447368 390.198442 
L 175.878947 390.198442 
L 175.878947 388.8 
L 149.447368 388.8 
z
" clip-path="url(#p4fa2f63e41)" style="fill: #ffffff; stroke: #808080; stroke-linejoin: miter"/>
   </g>
   <g id="patch_209">
    <path d="M 178.815789 400.534711 
L 205.247368 400.534711 
L 205.247368 388.8 
L 178.815789 388.8 
z
" clip-path="url(#p4fa2f63e41)" style="fill: #ffffff; stroke: #808080; stroke-linejoin: miter"/>
   </g>
   <g id="patch_210">
    <path d="M 208.184211 413.383028 
L 234.615789 413.383028 
L 234.615789 388.8 
L 208.184211 388.8 
z
" clip-path="url(#p4fa2f63e41)" style="fill: #ffffff; stroke: #808080; stroke-linejoin: miter"/>
   </g>
   <g id="patch_211">
    <path d="M 237.552632 534.564451 
L 263.984211 534.564451 
L 263.984211 388.8 
L 237.552632 388.8 
z
" clip-path="url(#p4fa2f63e41)" style="fill: #ffffff; stroke: #808080; stroke-linejoin: miter"/>
   </g>
   <g id="patch_212">
    <path d="M 266.921053 392.602605 
L 293.352632 392.602605 
L 293.352632 388.8 
L 266.921053 388.8 
z
" clip-path="url(#p4fa2f63e41)" style="fill: #ffffff; stroke: #808080; stroke-linejoin: miter"/>
   </g>
   <g id="patch_213">
    <path d="M 296.289474 407.04425 
L 322.721053 407.04425 
L 322.721053 388.8 
L 296.289474 388.8 
z
" clip-path="url(#p4fa2f63e41)" style="fill: #ffffff; stroke: #808080; stroke-linejoin: miter"/>
   </g>
   <g id="patch_214">
    <path d="M 325.657895 426.194699 
L 352.089474 426.194699 
L 352.089474 388.8 
L 325.657895 388.8 
z
" clip-path="url(#p4fa2f63e41)" style="fill: #ffffff; stroke: #808080; stroke-linejoin: miter"/>
   </g>
   <g id="patch_215">
    <path d="M 355.026316 415.266384 
L 381.457895 415.266384 
L 381.457895 388.8 
L 355.026316 388.8 
z
" clip-path="url(#p4fa2f63e41)" style="fill: #ffffff; stroke: #808080; stroke-linejoin: miter"/>
   </g>
   <g id="matplotlib.axis_3">
    <g id="xtick_12">
     <g id="line2d_18">
      <g>
       <use xlink:href="#mf6e5b5d0be" x="74.557895" y="640.8" style="stroke: #000000; stroke-width: 0.8"/>
      </g>
     </g>
     <g id="text_28">
      <!-- 3 -->
      <g transform="translate(77.350863 653.259375) rotate(-90) scale(0.1 -0.1)">
       <use xlink:href="#Tahoma-33"/>
      </g>
     </g>
    </g>
    <g id="xtick_13">
     <g id="line2d_19">
      <g>
       <use xlink:href="#mf6e5b5d0be" x="103.926316" y="640.8" style="stroke: #000000; stroke-width: 0.8"/>
      </g>
     </g>
     <g id="text_29">
      <!-- 4 -->
      <g transform="translate(106.719285 653.259375) rotate(-90) scale(0.1 -0.1)">
       <use xlink:href="#Tahoma-34"/>
      </g>
     </g>
    </g>
    <g id="xtick_14">
     <g id="line2d_20">
      <g>
       <use xlink:href="#mf6e5b5d0be" x="133.294737" y="640.8" style="stroke: #000000; stroke-width: 0.8"/>
      </g>
     </g>
     <g id="text_30">
      <!-- 5 -->
      <g transform="translate(136.087706 653.259375) rotate(-90) scale(0.1 -0.1)">
       <use xlink:href="#Tahoma-35"/>
      </g>
     </g>
    </g>
    <g id="xtick_15">
     <g id="line2d_21">
      <g>
       <use xlink:href="#mf6e5b5d0be" x="162.663158" y="640.8" style="stroke: #000000; stroke-width: 0.8"/>
      </g>
     </g>
     <g id="text_31">
      <!-- 7 -->
      <g transform="translate(165.456127 653.259375) rotate(-90) scale(0.1 -0.1)">
       <use xlink:href="#Tahoma-37"/>
      </g>
     </g>
    </g>
    <g id="xtick_16">
     <g id="line2d_22">
      <g>
       <use xlink:href="#mf6e5b5d0be" x="192.031579" y="640.8" style="stroke: #000000; stroke-width: 0.8"/>
      </g>
     </g>
     <g id="text_32">
      <!-- 8 -->
      <g transform="translate(194.824548 653.259375) rotate(-90) scale(0.1 -0.1)">
       <use xlink:href="#Tahoma-38"/>
      </g>
     </g>
    </g>
    <g id="xtick_17">
     <g id="line2d_23">
      <g>
       <use xlink:href="#mf6e5b5d0be" x="221.4" y="640.8" style="stroke: #000000; stroke-width: 0.8"/>
      </g>
     </g>
     <g id="text_33">
      <!-- 9 -->
      <g transform="translate(224.192969 653.259375) rotate(-90) scale(0.1 -0.1)">
       <use xlink:href="#Tahoma-39"/>
      </g>
     </g>
    </g>
    <g id="xtick_18">
     <g id="line2d_24">
      <g>
       <use xlink:href="#mf6e5b5d0be" x="250.768421" y="640.8" style="stroke: #000000; stroke-width: 0.8"/>
      </g>
     </g>
     <g id="text_34">
      <!-- 11 -->
      <g transform="translate(253.56139 658.71875) rotate(-90) scale(0.1 -0.1)">
       <use xlink:href="#Tahoma-31"/>
       <use xlink:href="#Tahoma-31" x="54.589844"/>
      </g>
     </g>
    </g>
    <g id="xtick_19">
     <g id="line2d_25">
      <g>
       <use xlink:href="#mf6e5b5d0be" x="280.136842" y="640.8" style="stroke: #000000; stroke-width: 0.8"/>
      </g>
     </g>
     <g id="text_35">
      <!-- 12 -->
      <g transform="translate(282.929811 658.71875) rotate(-90) scale(0.1 -0.1)">
       <use xlink:href="#Tahoma-31"/>
       <use xlink:href="#Tahoma-32" x="54.589844"/>
      </g>
     </g>
    </g>
    <g id="xtick_20">
     <g id="line2d_26">
      <g>
       <use xlink:href="#mf6e5b5d0be" x="309.505263" y="640.8" style="stroke: #000000; stroke-width: 0.8"/>
      </g>
     </g>
     <g id="text_36">
      <!-- 16 -->
      <g transform="translate(312.298232 658.71875) rotate(-90) scale(0.1 -0.1)">
       <use xlink:href="#Tahoma-31"/>
       <use xlink:href="#Tahoma-36" x="54.589844"/>
      </g>
     </g>
    </g>
    <g id="xtick_21">
     <g id="line2d_27">
      <g>
       <use xlink:href="#mf6e5b5d0be" x="338.873684" y="640.8" style="stroke: #000000; stroke-width: 0.8"/>
      </g>
     </g>
     <g id="text_37">
      <!-- 17 -->
      <g transform="translate(341.666653 658.71875) rotate(-90) scale(0.1 -0.1)">
       <use xlink:href="#Tahoma-31"/>
       <use xlink:href="#Tahoma-37" x="54.589844"/>
      </g>
     </g>
    </g>
    <g id="xtick_22">
     <g id="line2d_28">
      <g>
       <use xlink:href="#mf6e5b5d0be" x="368.242105" y="640.8" style="stroke: #000000; stroke-width: 0.8"/>
      </g>
     </g>
     <g id="text_38">
      <!-- 19 -->
      <g transform="translate(371.035074 658.71875) rotate(-90) scale(0.1 -0.1)">
       <use xlink:href="#Tahoma-31"/>
       <use xlink:href="#Tahoma-39" x="54.589844"/>
      </g>
     </g>
    </g>
   </g>
   <g id="matplotlib.axis_4">
    <g id="ytick_7">
     <g id="line2d_29">
      <g>
       <use xlink:href="#m032ead700d" x="54" y="640.8" style="stroke: #000000; stroke-width: 0.8"/>
      </g>
     </g>
     <g id="text_39">
      <!-- 0.0 -->
      <g transform="translate(33.053125 644.599219) scale(0.1 -0.1)">
       <use xlink:href="#Tahoma-30"/>
       <use xlink:href="#Tahoma-2e" x="54.589844"/>
       <use xlink:href="#Tahoma-30" x="84.863281"/>
      </g>
     </g>
    </g>
    <g id="ytick_8">
     <g id="line2d_30">
      <g>
       <use xlink:href="#m032ead700d" x="54" y="590.4" style="stroke: #000000; stroke-width: 0.8"/>
      </g>
     </g>
     <g id="text_40">
      <!-- 0.2 -->
      <g transform="translate(33.053125 594.199219) scale(0.1 -0.1)">
       <use xlink:href="#Tahoma-30"/>
       <use xlink:href="#Tahoma-2e" x="54.589844"/>
       <use xlink:href="#Tahoma-32" x="84.863281"/>
      </g>
     </g>
    </g>
    <g id="ytick_9">
     <g id="line2d_31">
      <g>
       <use xlink:href="#m032ead700d" x="54" y="540" style="stroke: #000000; stroke-width: 0.8"/>
      </g>
     </g>
     <g id="text_41">
      <!-- 0.4 -->
      <g transform="translate(33.053125 543.799219) scale(0.1 -0.1)">
       <use xlink:href="#Tahoma-30"/>
       <use xlink:href="#Tahoma-2e" x="54.589844"/>
       <use xlink:href="#Tahoma-34" x="84.863281"/>
      </g>
     </g>
    </g>
    <g id="ytick_10">
     <g id="line2d_32">
      <g>
       <use xlink:href="#m032ead700d" x="54" y="489.6" style="stroke: #000000; stroke-width: 0.8"/>
      </g>
     </g>
     <g id="text_42">
      <!-- 0.6 -->
      <g transform="translate(33.053125 493.399219) scale(0.1 -0.1)">
       <use xlink:href="#Tahoma-30"/>
       <use xlink:href="#Tahoma-2e" x="54.589844"/>
       <use xlink:href="#Tahoma-36" x="84.863281"/>
      </g>
     </g>
    </g>
    <g id="ytick_11">
     <g id="line2d_33">
      <g>
       <use xlink:href="#m032ead700d" x="54" y="439.2" style="stroke: #000000; stroke-width: 0.8"/>
      </g>
     </g>
     <g id="text_43">
      <!-- 0.8 -->
      <g transform="translate(33.053125 442.999219) scale(0.1 -0.1)">
       <use xlink:href="#Tahoma-30"/>
       <use xlink:href="#Tahoma-2e" x="54.589844"/>
       <use xlink:href="#Tahoma-38" x="84.863281"/>
      </g>
     </g>
    </g>
    <g id="ytick_12">
     <g id="line2d_34">
      <g>
       <use xlink:href="#m032ead700d" x="54" y="388.8" style="stroke: #000000; stroke-width: 0.8"/>
      </g>
     </g>
     <g id="text_44">
      <!-- 1.0 -->
      <g transform="translate(33.053125 392.599219) scale(0.1 -0.1)">
       <use xlink:href="#Tahoma-31"/>
       <use xlink:href="#Tahoma-2e" x="54.589844"/>
       <use xlink:href="#Tahoma-30" x="84.863281"/>
      </g>
     </g>
    </g>
   </g>
   <g id="patch_216">
    <path d="M 54 640.8 
L 54 388.8 
" style="fill: none; stroke: #000000; stroke-width: 0.8; stroke-linejoin: miter; stroke-linecap: square"/>
   </g>
   <g id="patch_217">
    <path d="M 388.8 640.8 
L 388.8 388.8 
" style="fill: none; stroke: #000000; stroke-width: 0.8; stroke-linejoin: miter; stroke-linecap: square"/>
   </g>
   <g id="patch_218">
    <path d="M 54 640.8 
L 388.8 640.8 
" style="fill: none; stroke: #000000; stroke-width: 0.8; stroke-linejoin: miter; stroke-linecap: square"/>
   </g>
   <g id="patch_219">
    <path d="M 54 388.8 
L 388.8 388.8 
" style="fill: none; stroke: #000000; stroke-width: 0.8; stroke-linejoin: miter; stroke-linecap: square"/>
   </g>
   <g id="text_45">
    <!-- Forehead samples -->
    <g transform="translate(173.622187 382.8) scale(0.12 -0.12)">
     <defs>
      <path id="Tahoma-6f" d="M 3297 1744 
Q 3297 863 2872 383 
Q 2447 -97 1741 -97 
Q 1013 -97 595 398 
Q 178 894 178 1744 
Q 178 2619 608 3103 
Q 1038 3588 1741 3588 
Q 2447 3588 2872 3105 
Q 3297 2622 3297 1744 
z
M 2691 1744 
Q 2691 2422 2444 2751 
Q 2197 3081 1741 3081 
Q 1281 3081 1032 2751 
Q 784 2422 784 1744 
Q 784 1088 1032 748 
Q 1281 409 1741 409 
Q 2194 409 2442 742 
Q 2691 1075 2691 1744 
z
" transform="scale(0.015625)"/>
      <path id="Tahoma-72" d="M 2275 2859 
L 2244 2859 
Q 2178 2878 2104 2883 
Q 2031 2888 1928 2888 
Q 1691 2888 1456 2784 
Q 1222 2681 1013 2478 
L 1013 0 
L 425 0 
L 425 3491 
L 1013 3491 
L 1013 2972 
Q 1334 3256 1573 3373 
Q 1813 3491 2038 3491 
Q 2128 3491 2173 3486 
Q 2219 3481 2275 3472 
L 2275 2859 
z
" transform="scale(0.015625)"/>
      <path id="Tahoma-68" d="M 3169 0 
L 2581 0 
L 2581 1988 
Q 2581 2228 2557 2436 
Q 2534 2644 2469 2769 
Q 2397 2900 2269 2964 
Q 2141 3028 1919 3028 
Q 1700 3028 1467 2911 
Q 1234 2794 1013 2606 
L 1013 0 
L 425 0 
L 425 4863 
L 1013 4863 
L 1013 3103 
Q 1275 3338 1531 3463 
Q 1788 3588 2072 3588 
Q 2588 3588 2878 3248 
Q 3169 2909 3169 2266 
L 3169 0 
z
" transform="scale(0.015625)"/>
     </defs>
     <use xlink:href="#Tahoma-46"/>
     <use xlink:href="#Tahoma-6f" x="49.898438"/>
     <use xlink:href="#Tahoma-72" x="104.195312"/>
     <use xlink:href="#Tahoma-65" x="139.730469"/>
     <use xlink:href="#Tahoma-68" x="192.367188"/>
     <use xlink:href="#Tahoma-65" x="248.128906"/>
     <use xlink:href="#Tahoma-61" x="300.765625"/>
     <use xlink:href="#Tahoma-64" x="353.255859"/>
     <use xlink:href="#Tahoma-20" x="408.529297"/>
     <use xlink:href="#Tahoma-73" x="439.779297"/>
     <use xlink:href="#Tahoma-61" x="484.408203"/>
     <use xlink:href="#Tahoma-6d" x="536.898438"/>
     <use xlink:href="#Tahoma-70" x="620.882812"/>
     <use xlink:href="#Tahoma-6c" x="676.15625"/>
     <use xlink:href="#Tahoma-65" x="699.007812"/>
     <use xlink:href="#Tahoma-73" x="751.644531"/>
    </g>
   </g>
   <g id="legend_2">
    <g id="patch_220">
     <path d="M 395.8 528.298438 
L 472.565625 528.298438 
Q 474.565625 528.298438 474.565625 526.298438 
L 474.565625 395.8 
Q 474.565625 393.8 472.565625 393.8 
L 395.8 393.8 
Q 393.8 393.8 393.8 395.8 
L 393.8 526.298438 
Q 393.8 528.298438 395.8 528.298438 
z
" style="fill: #ffffff; opacity: 0.8; stroke: #cccccc; stroke-linejoin: miter"/>
    </g>
    <g id="patch_221">
     <path d="M 397.8 405.398438 
L 417.8 405.398438 
L 417.8 398.398438 
L 397.8 398.398438 
z
" style="fill: #808080; stroke: #808080; stroke-linejoin: miter"/>
    </g>
    <g id="text_46">
     <!-- L -->
     <g transform="translate(425.8 405.398438) scale(0.1 -0.1)">
      <use xlink:href="#Tahoma-4c"/>
     </g>
    </g>
    <g id="patch_222">
     <path d="M 397.8 420.009375 
L 417.8 420.009375 
L 417.8 413.009375 
L 397.8 413.009375 
z
" style="fill: #66c2a5; stroke: #808080; stroke-linejoin: miter"/>
    </g>
    <g id="text_47">
     <!-- K -->
     <g transform="translate(425.8 420.009375) scale(0.1 -0.1)">
      <use xlink:href="#Tahoma-4b"/>
     </g>
    </g>
    <g id="patch_223">
     <path d="M 397.8 434.620313 
L 417.8 434.620313 
L 417.8 427.620313 
L 397.8 427.620313 
z
" style="fill: #abdda4; stroke: #808080; stroke-linejoin: miter"/>
    </g>
    <g id="text_48">
     <!-- H -->
     <g transform="translate(425.8 434.620313) scale(0.1 -0.1)">
      <use xlink:href="#Tahoma-48"/>
     </g>
    </g>
    <g id="patch_224">
     <path d="M 397.8 449.23125 
L 417.8 449.23125 
L 417.8 442.23125 
L 397.8 442.23125 
z
" style="fill: #83a79d; stroke: #808080; stroke-linejoin: miter"/>
    </g>
    <g id="text_49">
     <!-- C -->
     <g transform="translate(425.8 449.23125) scale(0.1 -0.1)">
      <use xlink:href="#Tahoma-43"/>
     </g>
    </g>
    <g id="patch_225">
     <path d="M 397.8 463.842188 
L 417.8 463.842188 
L 417.8 456.842188 
L 397.8 456.842188 
z
" style="fill: #4d695d; stroke: #808080; stroke-linejoin: miter"/>
    </g>
    <g id="text_50">
     <!-- B -->
     <g transform="translate(425.8 463.842188) scale(0.1 -0.1)">
      <use xlink:href="#Tahoma-42"/>
     </g>
    </g>
    <g id="patch_226">
     <path d="M 397.8 478.453125 
L 417.8 478.453125 
L 417.8 471.453125 
L 397.8 471.453125 
z
" style="fill: #d2d2cb; stroke: #808080; stroke-linejoin: miter"/>
    </g>
    <g id="text_51">
     <!-- A -->
     <g transform="translate(425.8 478.453125) scale(0.1 -0.1)">
      <use xlink:href="#Tahoma-41"/>
     </g>
    </g>
    <g id="patch_227">
     <path d="M 397.8 493.064062 
L 417.8 493.064062 
L 417.8 486.064062 
L 397.8 486.064062 
z
" style="fill: #a1cde5; stroke: #808080; stroke-linejoin: miter"/>
    </g>
    <g id="text_52">
     <!-- F -->
     <g transform="translate(425.8 493.064062) scale(0.1 -0.1)">
      <use xlink:href="#Tahoma-46"/>
     </g>
    </g>
    <g id="patch_228">
     <path d="M 397.8 507.675 
L 417.8 507.675 
L 417.8 500.675 
L 397.8 500.675 
z
" style="fill: #30b0e0; stroke: #808080; stroke-linejoin: miter"/>
    </g>
    <g id="text_53">
     <!-- E -->
     <g transform="translate(425.8 507.675) scale(0.1 -0.1)">
      <use xlink:href="#Tahoma-45"/>
     </g>
    </g>
    <g id="patch_229">
     <path d="M 397.8 522.285938 
L 417.8 522.285938 
L 417.8 515.285938 
L 397.8 515.285938 
z
" style="fill: #ffffff; stroke: #808080; stroke-linejoin: miter"/>
    </g>
    <g id="text_54">
     <!-- Undefined -->
     <g transform="translate(425.8 522.285938) scale(0.1 -0.1)">
      <use xlink:href="#Tahoma-55"/>
      <use xlink:href="#Tahoma-6e" x="65.576172"/>
      <use xlink:href="#Tahoma-64" x="121.337891"/>
      <use xlink:href="#Tahoma-65" x="176.611328"/>
      <use xlink:href="#Tahoma-66" x="229.248047"/>
      <use xlink:href="#Tahoma-69" x="261.083984"/>
      <use xlink:href="#Tahoma-6e" x="283.935547"/>
      <use xlink:href="#Tahoma-65" x="339.697266"/>
      <use xlink:href="#Tahoma-64" x="392.333984"/>
     </g>
    </g>
   </g>
  </g>
 </g>
 <defs>
  <clipPath id="pe988a1f5a3">
   <rect x="54" y="86.4" width="334.8" height="252"/>
  </clipPath>
  <clipPath id="p4fa2f63e41">
   <rect x="54" y="388.8" width="334.8" height="252"/>
  </clipPath>
 </defs>
</svg>
