<?xml version="1.0" encoding="utf-8" standalone="no"?>
<!DOCTYPE svg PUBLIC "-//W3C//DTD SVG 1.1//EN"
  "http://www.w3.org/Graphics/SVG/1.1/DTD/svg11.dtd">
<svg xmlns:xlink="http://www.w3.org/1999/xlink" width="360pt" height="288pt" viewBox="0 0 360 288" xmlns="http://www.w3.org/2000/svg" version="1.1">
 <metadata>
  <rdf:RDF xmlns:dc="http://purl.org/dc/elements/1.1/" xmlns:cc="http://creativecommons.org/ns#" xmlns:rdf="http://www.w3.org/1999/02/22-rdf-syntax-ns#">
   <cc:Work>
    <dc:type rdf:resource="http://purl.org/dc/dcmitype/StillImage"/>
    <dc:date>2025-06-21T07:00:23.910576</dc:date>
    <dc:format>image/svg+xml</dc:format>
    <dc:creator>
     <cc:Agent>
      <dc:title>Matplotlib v3.9.2, https://matplotlib.org/</dc:title>
     </cc:Agent>
    </dc:creator>
   </cc:Work>
  </rdf:RDF>
 </metadata>
 <defs>
  <style type="text/css">*{stroke-linejoin: round; stroke-linecap: butt}</style>
 </defs>
 <g id="figure_1">
  <g id="patch_1">
   <path d="M 0 288 
L 360 288 
L 360 0 
L 0 0 
z
" style="fill: #ffffff"/>
  </g>
  <g id="axes_1">
   <g id="patch_2">
    <path d="M 45 256.32 
L 324 256.32 
L 324 34.56 
L 45 34.56 
z
" style="fill: #ffffff"/>
   </g>
   <g id="PathCollection_1">
    <defs>
     <path id="C0_0_bc15a64232" d="M 0 3 
C 0.795609 3 1.55874 2.683901 2.12132 2.12132 
C 2.683901 1.55874 3 0.795609 3 -0 
C 3 -0.795609 2.683901 -1.55874 2.12132 -2.12132 
C 1.55874 -2.683901 0.795609 -3 0 -3 
C -0.795609 -3 -1.55874 -2.683901 -2.12132 -2.12132 
C -2.683901 -1.55874 -3 -0.795609 -3 0 
C -3 0.795609 -2.683901 1.55874 -2.12132 2.12132 
C -1.55874 2.683901 -0.795609 3 0 3 
z
"/>
    </defs>
    <g clip-path="url(#p763c3b5f49)">
     <use xlink:href="#C0_0_bc15a64232" x="181.613883" y="251.220422" style="fill: #e8702a; stroke: #808080; stroke-width: 0.8"/>
    </g>
    <g clip-path="url(#p763c3b5f49)">
     <use xlink:href="#C0_0_bc15a64232" x="162.603702" y="223.229947" style="fill: #e5c8c8; stroke: #808080; stroke-width: 0.8"/>
    </g>
    <g clip-path="url(#p763c3b5f49)">
     <use xlink:href="#C0_0_bc15a64232" x="184.87295" y="253.861964" style="fill: #ff8ac0; stroke: #808080; stroke-width: 0.8"/>
    </g>
    <g clip-path="url(#p763c3b5f49)">
     <use xlink:href="#C0_0_bc15a64232" x="180.085488" y="235.899932" style="fill: #306f60; stroke: #808080; stroke-width: 0.8"/>
    </g>
    <g clip-path="url(#p763c3b5f49)">
     <use xlink:href="#C0_0_bc15a64232" x="60.470734" y="216.215089" style="fill: #7f6759; stroke: #808080; stroke-width: 0.8"/>
    </g>
    <g clip-path="url(#p763c3b5f49)">
     <use xlink:href="#C0_0_bc15a64232" x="225.810679" y="226.819791" style="fill: #6bd2db; stroke: #808080; stroke-width: 0.8"/>
    </g>
    <g clip-path="url(#p763c3b5f49)">
     <use xlink:href="#C0_0_bc15a64232" x="189.103396" y="254.471802" style="fill: #db502b; stroke: #808080; stroke-width: 0.8"/>
    </g>
    <g clip-path="url(#p763c3b5f49)">
     <use xlink:href="#C0_0_bc15a64232" x="204.02417" y="239.44875" style="fill: #8daaa3; stroke: #808080; stroke-width: 0.8"/>
    </g>
    <g clip-path="url(#p763c3b5f49)">
     <use xlink:href="#C0_0_bc15a64232" x="211.572849" y="255.139508" style="fill: #46889d; stroke: #808080; stroke-width: 0.8"/>
    </g>
    <g clip-path="url(#p763c3b5f49)">
     <use xlink:href="#C0_0_bc15a64232" x="234.510064" y="210.480473" style="fill: #ffd700; stroke: #808080; stroke-width: 0.8"/>
    </g>
    <g clip-path="url(#p763c3b5f49)">
     <use xlink:href="#C0_0_bc15a64232" x="182.939356" y="251.062087" style="fill: #ffd5c0; stroke: #808080; stroke-width: 0.8"/>
    </g>
    <g clip-path="url(#p763c3b5f49)">
     <use xlink:href="#C0_0_bc15a64232" x="195.38221" y="242.200608" style="fill: #cbffc0; stroke: #808080; stroke-width: 0.8"/>
    </g>
    <g clip-path="url(#p763c3b5f49)">
     <use xlink:href="#C0_0_bc15a64232" x="122.240522" y="242.128811" style="fill: #ffcfda; stroke: #808080; stroke-width: 0.8"/>
    </g>
    <g clip-path="url(#p763c3b5f49)">
     <use xlink:href="#C0_0_bc15a64232" x="189.243914" y="254.629785" style="fill: #ffce00; stroke: #808080; stroke-width: 0.8"/>
    </g>
    <g clip-path="url(#p763c3b5f49)">
     <use xlink:href="#C0_0_bc15a64232" x="161.528362" y="254.629785" style="fill: #ff8da1; stroke: #808080; stroke-width: 0.8"/>
    </g>
    <g clip-path="url(#p763c3b5f49)">
     <use xlink:href="#C0_0_bc15a64232" x="155.813231" y="256.32" style="fill: #cf7e6b; stroke: #808080; stroke-width: 0.8"/>
    </g>
    <g clip-path="url(#p763c3b5f49)">
     <use xlink:href="#C0_0_bc15a64232" x="130.026388" y="254.340976" style="stroke: #808080; stroke-width: 0.8"/>
    </g>
    <g clip-path="url(#p763c3b5f49)">
     <use xlink:href="#C0_0_bc15a64232" x="143.481988" y="254.340976" style="fill: #ffa5a5; stroke: #808080; stroke-width: 0.8"/>
    </g>
    <g clip-path="url(#p763c3b5f49)">
     <use xlink:href="#C0_0_bc15a64232" x="165.206741" y="254.702122" style="fill: #b2d8b2; stroke: #808080; stroke-width: 0.8"/>
    </g>
    <g clip-path="url(#p763c3b5f49)">
     <use xlink:href="#C0_0_bc15a64232" x="210.755818" y="253.98634" style="fill: #3579fe; stroke: #808080; stroke-width: 0.8"/>
    </g>
   </g>
   <g id="matplotlib.axis_1">
    <g id="xtick_1">
     <g id="line2d_1">
      <defs>
       <path id="m8fe0540878" d="M 0 0 
L 0 3.5 
" style="stroke: #000000; stroke-width: 0.8"/>
      </defs>
      <g>
       <use xlink:href="#m8fe0540878" x="64.928571" y="256.32" style="stroke: #000000; stroke-width: 0.8"/>
      </g>
     </g>
     <g id="text_1">
      <!-- −6 -->
      <g transform="translate(58.561384 270.918437) scale(0.1 -0.1)">
       <defs>
        <path id="Tahoma-2212" d="M 4088 1788 
L 569 1788 
L 569 2288 
L 4088 2288 
L 4088 1788 
z
" transform="scale(0.015625)"/>
        <path id="Tahoma-36" d="M 3284 1509 
Q 3284 1150 3165 847 
Q 3047 544 2847 341 
Q 2638 125 2378 14 
Q 2119 -97 1806 -97 
Q 1491 -97 1233 9 
Q 975 116 778 325 
Q 538 578 402 1001 
Q 266 1425 266 2044 
Q 266 2650 391 3139 
Q 516 3628 775 3991 
Q 1028 4344 1428 4542 
Q 1828 4741 2353 4741 
Q 2509 4741 2643 4725 
Q 2778 4709 2881 4675 
L 2881 4078 
L 2853 4078 
Q 2769 4125 2609 4164 
Q 2450 4203 2269 4203 
Q 1688 4203 1330 3811 
Q 972 3419 906 2647 
Q 1128 2803 1362 2887 
Q 1597 2972 1875 2972 
Q 2147 2972 2351 2917 
Q 2556 2863 2778 2697 
Q 3034 2503 3159 2206 
Q 3284 1909 3284 1509 
z
M 2650 1484 
Q 2650 1772 2575 1965 
Q 2500 2159 2331 2297 
Q 2209 2397 2054 2428 
Q 1900 2459 1738 2459 
Q 1519 2459 1312 2393 
Q 1106 2328 906 2203 
Q 900 2134 897 2070 
Q 894 2006 894 1909 
Q 894 1425 989 1128 
Q 1084 831 1225 678 
Q 1359 531 1501 472 
Q 1644 413 1809 413 
Q 2184 413 2417 681 
Q 2650 950 2650 1484 
z
" transform="scale(0.015625)"/>
       </defs>
       <use xlink:href="#Tahoma-2212"/>
       <use xlink:href="#Tahoma-36" x="72.753906"/>
      </g>
     </g>
    </g>
    <g id="xtick_2">
     <g id="line2d_2">
      <g>
       <use xlink:href="#m8fe0540878" x="104.785714" y="256.32" style="stroke: #000000; stroke-width: 0.8"/>
      </g>
     </g>
     <g id="text_2">
      <!-- −4 -->
      <g transform="translate(98.418527 270.918437) scale(0.1 -0.1)">
       <defs>
        <path id="Tahoma-34" d="M 3334 1600 
L 2781 1600 
L 2781 0 
L 2181 0 
L 2181 1600 
L 125 1600 
L 125 2256 
L 2206 4653 
L 2781 4653 
L 2781 2100 
L 3334 2100 
L 3334 1600 
z
M 2181 2100 
L 2181 3919 
L 613 2100 
L 2181 2100 
z
" transform="scale(0.015625)"/>
       </defs>
       <use xlink:href="#Tahoma-2212"/>
       <use xlink:href="#Tahoma-34" x="72.753906"/>
      </g>
     </g>
    </g>
    <g id="xtick_3">
     <g id="line2d_3">
      <g>
       <use xlink:href="#m8fe0540878" x="144.642857" y="256.32" style="stroke: #000000; stroke-width: 0.8"/>
      </g>
     </g>
     <g id="text_3">
      <!-- −2 -->
      <g transform="translate(138.27567 270.918437) scale(0.1 -0.1)">
       <defs>
        <path id="Tahoma-32" d="M 3213 0 
L 341 0 
L 341 653 
Q 650 947 925 1215 
Q 1200 1484 1463 1775 
Q 1994 2359 2187 2711 
Q 2381 3063 2381 3438 
Q 2381 3631 2320 3778 
Q 2259 3925 2153 4022 
Q 2044 4116 1900 4162 
Q 1756 4209 1584 4209 
Q 1419 4209 1248 4167 
Q 1078 4125 922 4063 
Q 791 4009 669 3934 
Q 547 3859 472 3806 
L 438 3806 
L 438 4469 
Q 631 4566 976 4658 
Q 1322 4750 1631 4750 
Q 2281 4750 2650 4404 
Q 3019 4059 3019 3469 
Q 3019 3197 2955 2965 
Q 2891 2734 2778 2538 
Q 2663 2334 2500 2134 
Q 2338 1934 2156 1741 
Q 1863 1422 1502 1078 
Q 1141 734 925 534 
L 3213 534 
L 3213 0 
z
" transform="scale(0.015625)"/>
       </defs>
       <use xlink:href="#Tahoma-2212"/>
       <use xlink:href="#Tahoma-32" x="72.753906"/>
      </g>
     </g>
    </g>
    <g id="xtick_4">
     <g id="line2d_4">
      <g>
       <use xlink:href="#m8fe0540878" x="184.5" y="256.32" style="stroke: #000000; stroke-width: 0.8"/>
      </g>
     </g>
     <g id="text_4">
      <!-- 0 -->
      <g transform="translate(181.770312 270.918437) scale(0.1 -0.1)">
       <defs>
        <path id="Tahoma-30" d="M 3234 2328 
Q 3234 1075 2870 489 
Q 2506 -97 1747 -97 
Q 978 -97 618 500 
Q 259 1097 259 2322 
Q 259 3581 623 4164 
Q 988 4747 1747 4747 
Q 2516 4747 2875 4144 
Q 3234 3541 3234 2328 
z
M 2434 909 
Q 2525 1141 2562 1494 
Q 2600 1847 2600 2328 
Q 2600 2806 2562 3159 
Q 2525 3513 2431 3747 
Q 2338 3984 2173 4107 
Q 2009 4231 1747 4231 
Q 1488 4231 1320 4107 
Q 1153 3984 1056 3741 
Q 963 3503 928 3140 
Q 894 2778 894 2322 
Q 894 1834 923 1506 
Q 953 1178 1053 919 
Q 1144 678 1311 548 
Q 1478 419 1747 419 
Q 2006 419 2173 542 
Q 2341 666 2434 909 
z
" transform="scale(0.015625)"/>
       </defs>
       <use xlink:href="#Tahoma-30"/>
      </g>
     </g>
    </g>
    <g id="xtick_5">
     <g id="line2d_5">
      <g>
       <use xlink:href="#m8fe0540878" x="224.357143" y="256.32" style="stroke: #000000; stroke-width: 0.8"/>
      </g>
     </g>
     <g id="text_5">
      <!-- 2 -->
      <g transform="translate(221.627455 270.918437) scale(0.1 -0.1)">
       <use xlink:href="#Tahoma-32"/>
      </g>
     </g>
    </g>
    <g id="xtick_6">
     <g id="line2d_6">
      <g>
       <use xlink:href="#m8fe0540878" x="264.214286" y="256.32" style="stroke: #000000; stroke-width: 0.8"/>
      </g>
     </g>
     <g id="text_6">
      <!-- 4 -->
      <g transform="translate(261.484598 270.918437) scale(0.1 -0.1)">
       <use xlink:href="#Tahoma-34"/>
      </g>
     </g>
    </g>
    <g id="xtick_7">
     <g id="line2d_7">
      <g>
       <use xlink:href="#m8fe0540878" x="304.071429" y="256.32" style="stroke: #000000; stroke-width: 0.8"/>
      </g>
     </g>
     <g id="text_7">
      <!-- 6 -->
      <g transform="translate(301.341741 270.918437) scale(0.1 -0.1)">
       <use xlink:href="#Tahoma-36"/>
      </g>
     </g>
    </g>
   </g>
   <g id="matplotlib.axis_2">
    <g id="ytick_1">
     <g id="line2d_8">
      <defs>
       <path id="mef86494456" d="M 0 0 
L -3.5 0 
" style="stroke: #000000; stroke-width: 0.8"/>
      </defs>
      <g>
       <use xlink:href="#mef86494456" x="45" y="256.32" style="stroke: #000000; stroke-width: 0.8"/>
      </g>
     </g>
     <g id="text_8">
      <!-- 0 -->
      <g transform="translate(32.540625 260.119219) scale(0.1 -0.1)">
       <use xlink:href="#Tahoma-30"/>
      </g>
     </g>
    </g>
    <g id="ytick_2">
     <g id="line2d_9">
      <g>
       <use xlink:href="#mef86494456" x="45" y="211.968" style="stroke: #000000; stroke-width: 0.8"/>
      </g>
     </g>
     <g id="text_9">
      <!-- 2 -->
      <g transform="translate(32.540625 215.767219) scale(0.1 -0.1)">
       <use xlink:href="#Tahoma-32"/>
      </g>
     </g>
    </g>
    <g id="ytick_3">
     <g id="line2d_10">
      <g>
       <use xlink:href="#mef86494456" x="45" y="167.616" style="stroke: #000000; stroke-width: 0.8"/>
      </g>
     </g>
     <g id="text_10">
      <!-- 4 -->
      <g transform="translate(32.540625 171.415219) scale(0.1 -0.1)">
       <use xlink:href="#Tahoma-34"/>
      </g>
     </g>
    </g>
    <g id="ytick_4">
     <g id="line2d_11">
      <g>
       <use xlink:href="#mef86494456" x="45" y="123.264" style="stroke: #000000; stroke-width: 0.8"/>
      </g>
     </g>
     <g id="text_11">
      <!-- 6 -->
      <g transform="translate(32.540625 127.063219) scale(0.1 -0.1)">
       <use xlink:href="#Tahoma-36"/>
      </g>
     </g>
    </g>
    <g id="ytick_5">
     <g id="line2d_12">
      <g>
       <use xlink:href="#mef86494456" x="45" y="78.912" style="stroke: #000000; stroke-width: 0.8"/>
      </g>
     </g>
     <g id="text_12">
      <!-- 8 -->
      <g transform="translate(32.540625 82.711219) scale(0.1 -0.1)">
       <defs>
        <path id="Tahoma-38" d="M 2534 3569 
Q 2534 3881 2325 4090 
Q 2116 4300 1744 4300 
Q 1403 4300 1186 4112 
Q 969 3925 969 3606 
Q 969 3375 1080 3215 
Q 1191 3056 1413 2928 
Q 1509 2875 1707 2781 
Q 1906 2688 2069 2634 
Q 2341 2844 2437 3064 
Q 2534 3284 2534 3569 
z
M 2622 1238 
Q 2622 1525 2509 1694 
Q 2397 1863 2075 2038 
Q 1969 2097 1792 2165 
Q 1616 2234 1394 2328 
Q 1134 2156 996 1904 
Q 859 1653 859 1331 
Q 859 909 1114 634 
Q 1369 359 1753 359 
Q 2147 359 2384 595 
Q 2622 831 2622 1238 
z
M 1747 -106 
Q 1400 -106 1115 -3 
Q 831 100 631 294 
Q 434 481 332 739 
Q 231 997 231 1284 
Q 231 1663 432 1980 
Q 634 2297 1019 2484 
L 1019 2503 
Q 675 2703 509 2940 
Q 344 3178 344 3534 
Q 344 4059 741 4409 
Q 1138 4759 1747 4759 
Q 2381 4759 2764 4426 
Q 3147 4094 3147 3575 
Q 3147 3263 2964 2956 
Q 2781 2650 2438 2478 
L 2438 2459 
Q 2844 2269 3053 1997 
Q 3263 1725 3263 1297 
Q 3263 700 2830 297 
Q 2397 -106 1747 -106 
z
" transform="scale(0.015625)"/>
       </defs>
       <use xlink:href="#Tahoma-38"/>
      </g>
     </g>
    </g>
    <g id="ytick_6">
     <g id="line2d_13">
      <g>
       <use xlink:href="#mef86494456" x="45" y="34.56" style="stroke: #000000; stroke-width: 0.8"/>
      </g>
     </g>
     <g id="text_13">
      <!-- 10 -->
      <g transform="translate(27.08125 38.359219) scale(0.1 -0.1)">
       <defs>
        <path id="Tahoma-31" d="M 2975 0 
L 706 0 
L 706 475 
L 1550 475 
L 1550 3594 
L 706 3594 
L 706 4019 
Q 1184 4019 1411 4155 
Q 1638 4291 1666 4669 
L 2150 4669 
L 2150 475 
L 2975 475 
L 2975 0 
z
" transform="scale(0.015625)"/>
       </defs>
       <use xlink:href="#Tahoma-31"/>
       <use xlink:href="#Tahoma-30" x="54.589844"/>
      </g>
     </g>
    </g>
   </g>
   <g id="line2d_14"/>
   <g id="line2d_15"/>
   <g id="line2d_16"/>
   <g id="line2d_17"/>
   <g id="line2d_18"/>
   <g id="line2d_19"/>
   <g id="line2d_20"/>
   <g id="line2d_21"/>
   <g id="line2d_22"/>
   <g id="line2d_23"/>
   <g id="line2d_24"/>
   <g id="line2d_25"/>
   <g id="line2d_26"/>
   <g id="line2d_27"/>
   <g id="line2d_28"/>
   <g id="line2d_29"/>
   <g id="line2d_30"/>
   <g id="line2d_31"/>
   <g id="line2d_32"/>
   <g id="line2d_33"/>
   <g id="line2d_34"/>
   <g id="LineCollection_1">
    <path d="M 45 200.65824 
L 324 200.65824 
" clip-path="url(#p763c3b5f49)" style="fill: none; stroke-dasharray: 5.55,2.4; stroke-dashoffset: 0; stroke: #000000; stroke-opacity: 0.7; stroke-width: 1.5"/>
   </g>
   <g id="LineCollection_2">
    <path d="M 204.428571 256.32 
L 204.428571 34.56 
" clip-path="url(#p763c3b5f49)" style="fill: none; stroke-dasharray: 5.55,2.4; stroke-dashoffset: 0; stroke: #000000; stroke-opacity: 0.7; stroke-width: 1.5"/>
   </g>
   <g id="LineCollection_3">
    <path d="M 164.571429 256.32 
L 164.571429 34.56 
" clip-path="url(#p763c3b5f49)" style="fill: none; stroke-dasharray: 5.55,2.4; stroke-dashoffset: 0; stroke: #000000; stroke-opacity: 0.7; stroke-width: 1.5"/>
   </g>
   <g id="patch_3">
    <path d="M 45 256.32 
L 45 34.56 
" style="fill: none; stroke: #000000; stroke-width: 0.8; stroke-linejoin: miter; stroke-linecap: square"/>
   </g>
   <g id="patch_4">
    <path d="M 324 256.32 
L 324 34.56 
" style="fill: none; stroke: #000000; stroke-width: 0.8; stroke-linejoin: miter; stroke-linecap: square"/>
   </g>
   <g id="patch_5">
    <path d="M 45 256.32 
L 324 256.32 
" style="fill: none; stroke: #000000; stroke-width: 0.8; stroke-linejoin: miter; stroke-linecap: square"/>
   </g>
   <g id="patch_6">
    <path d="M 45 34.56 
L 324 34.56 
" style="fill: none; stroke: #000000; stroke-width: 0.8; stroke-linejoin: miter; stroke-linecap: square"/>
   </g>
   <g id="legend_1">
    <g id="patch_7">
     <path d="M 331 349.389687 
L 437.725 349.389687 
Q 439.725 349.389687 439.725 347.389687 
L 439.725 41.56 
Q 439.725 39.56 437.725 39.56 
L 331 39.56 
Q 329 39.56 329 41.56 
L 329 347.389687 
Q 329 349.389687 331 349.389687 
z
" style="fill: #ffffff; opacity: 0.8; stroke: #cccccc; stroke-linejoin: miter"/>
    </g>
    <g id="line2d_35">
     <defs>
      <path id="mfd6bf66d64" d="M 0 3 
C 0.795609 3 1.55874 2.683901 2.12132 2.12132 
C 2.683901 1.55874 3 0.795609 3 0 
C 3 -0.795609 2.683901 -1.55874 2.12132 -2.12132 
C 1.55874 -2.683901 0.795609 -3 0 -3 
C -0.795609 -3 -1.55874 -2.683901 -2.12132 -2.12132 
C -2.683901 -1.55874 -3 -0.795609 -3 0 
C -3 0.795609 -2.683901 1.55874 -2.12132 2.12132 
C -1.55874 2.683901 -0.795609 3 0 3 
z
" style="stroke: #808080; stroke-width: 0.8"/>
     </defs>
     <g>
      <use xlink:href="#mfd6bf66d64" x="343" y="47.658437" style="fill: #e8702a; stroke: #808080; stroke-width: 0.8"/>
     </g>
    </g>
    <g id="text_14">
     <!-- Cutibacterium -->
     <g transform="translate(361 51.158437) scale(0.1 -0.1)">
      <defs>
       <path id="Tahoma-43" d="M 2291 -84 
Q 1834 -84 1451 69 
Q 1069 222 791 525 
Q 513 828 359 1281 
Q 206 1734 206 2322 
Q 206 2906 354 3340 
Q 503 3775 788 4097 
Q 1066 4409 1447 4573 
Q 1828 4738 2300 4738 
Q 2534 4738 2739 4703 
Q 2944 4669 3119 4616 
Q 3269 4569 3426 4498 
Q 3584 4428 3738 4344 
L 3738 3597 
L 3688 3597 
Q 3606 3672 3478 3778 
Q 3350 3884 3166 3988 
Q 2988 4084 2778 4146 
Q 2569 4209 2294 4209 
Q 1997 4209 1731 4087 
Q 1466 3966 1266 3728 
Q 1069 3491 959 3131 
Q 850 2772 850 2322 
Q 850 1844 965 1498 
Q 1081 1153 1281 916 
Q 1475 684 1737 567 
Q 2000 450 2294 450 
Q 2563 450 2791 515 
Q 3019 581 3197 681 
Q 3369 778 3494 879 
Q 3619 981 3691 1053 
L 3738 1053 
L 3738 316 
Q 3584 244 3448 178 
Q 3313 113 3119 50 
Q 2916 -16 2742 -50 
Q 2569 -84 2291 -84 
z
" transform="scale(0.015625)"/>
       <path id="Tahoma-75" d="M 3144 0 
L 2556 0 
L 2556 388 
Q 2284 150 2040 26 
Q 1797 -97 1497 -97 
Q 1269 -97 1067 -22 
Q 866 53 716 216 
Q 566 378 483 625 
Q 400 872 400 1225 
L 400 3491 
L 988 3491 
L 988 1503 
Q 988 1225 1008 1042 
Q 1028 859 1100 722 
Q 1172 588 1295 525 
Q 1419 463 1650 463 
Q 1866 463 2109 584 
Q 2353 706 2556 884 
L 2556 3491 
L 3144 3491 
L 3144 0 
z
" transform="scale(0.015625)"/>
       <path id="Tahoma-74" d="M 1481 -69 
Q 1000 -69 731 204 
Q 463 478 463 1069 
L 463 3003 
L 66 3003 
L 66 3491 
L 463 3491 
L 463 4494 
L 1050 4494 
L 1050 3491 
L 2131 3491 
L 2131 3003 
L 1050 3003 
L 1050 1344 
Q 1050 1078 1059 934 
Q 1069 791 1131 666 
Q 1184 556 1303 501 
Q 1422 447 1625 447 
Q 1769 447 1903 489 
Q 2038 531 2097 559 
L 2131 559 
L 2131 31 
Q 1966 -16 1795 -42 
Q 1625 -69 1481 -69 
z
" transform="scale(0.015625)"/>
       <path id="Tahoma-69" d="M 1025 0 
L 438 0 
L 438 3491 
L 1025 3491 
L 1025 0 
z
M 1066 4075 
L 397 4075 
L 397 4684 
L 1066 4684 
L 1066 4075 
z
" transform="scale(0.015625)"/>
       <path id="Tahoma-62" d="M 2747 1756 
Q 2747 2381 2556 2704 
Q 2366 3028 1944 3028 
Q 1703 3028 1458 2915 
Q 1213 2803 1013 2631 
L 1013 631 
Q 1234 522 1406 476 
Q 1578 431 1784 431 
Q 2234 431 2490 750 
Q 2747 1069 2747 1756 
z
M 3353 1803 
Q 3353 947 2937 425 
Q 2522 -97 1897 -97 
Q 1613 -97 1411 -26 
Q 1209 44 1013 163 
L 975 0 
L 425 0 
L 425 4863 
L 1013 4863 
L 1013 3125 
Q 1234 3325 1493 3456 
Q 1753 3588 2081 3588 
Q 2672 3588 3012 3114 
Q 3353 2641 3353 1803 
z
" transform="scale(0.015625)"/>
       <path id="Tahoma-61" d="M 2375 859 
L 2375 1828 
Q 2166 1809 1845 1776 
Q 1525 1744 1328 1684 
Q 1094 1613 941 1464 
Q 788 1316 788 1050 
Q 788 750 956 597 
Q 1125 444 1450 444 
Q 1728 444 1953 564 
Q 2178 684 2375 859 
z
M 2375 372 
Q 2303 319 2183 223 
Q 2063 128 1950 72 
Q 1794 -9 1648 -53 
Q 1503 -97 1241 -97 
Q 1025 -97 831 -15 
Q 638 66 491 213 
Q 350 356 265 567 
Q 181 778 181 1013 
Q 181 1375 334 1629 
Q 488 1884 819 2034 
Q 1113 2169 1513 2220 
Q 1913 2272 2375 2297 
L 2375 2409 
Q 2375 2616 2312 2742 
Q 2250 2869 2138 2938 
Q 2025 3009 1862 3032 
Q 1700 3056 1528 3056 
Q 1325 3056 1050 2995 
Q 775 2934 500 2819 
L 466 2819 
L 466 3416 
Q 628 3463 931 3519 
Q 1234 3575 1531 3575 
Q 1891 3575 2137 3519 
Q 2384 3463 2581 3316 
Q 2772 3172 2865 2944 
Q 2959 2716 2959 2388 
L 2959 0 
L 2375 0 
L 2375 372 
z
" transform="scale(0.015625)"/>
       <path id="Tahoma-63" d="M 1813 -78 
Q 1453 -78 1153 33 
Q 853 144 638 369 
Q 422 594 303 936 
Q 184 1278 184 1741 
Q 184 2200 307 2534 
Q 431 2869 638 3097 
Q 844 3325 1151 3448 
Q 1459 3572 1813 3572 
Q 2100 3572 2367 3490 
Q 2634 3409 2844 3303 
L 2844 2644 
L 2809 2644 
Q 2747 2697 2648 2765 
Q 2550 2834 2409 2906 
Q 2288 2969 2122 3016 
Q 1956 3063 1803 3063 
Q 1347 3063 1070 2717 
Q 794 2372 794 1741 
Q 794 1122 1061 776 
Q 1328 431 1803 431 
Q 2091 431 2350 550 
Q 2609 669 2809 856 
L 2844 856 
L 2844 197 
Q 2756 156 2625 98 
Q 2494 41 2388 13 
Q 2238 -31 2119 -54 
Q 2000 -78 1813 -78 
z
" transform="scale(0.015625)"/>
       <path id="Tahoma-65" d="M 1941 -81 
Q 1106 -81 645 389 
Q 184 859 184 1725 
Q 184 2578 631 3083 
Q 1078 3588 1800 3588 
Q 2125 3588 2375 3494 
Q 2625 3400 2813 3200 
Q 3000 3000 3100 2711 
Q 3200 2422 3200 2003 
L 3200 1684 
L 781 1684 
Q 781 1075 1087 753 
Q 1394 431 1934 431 
Q 2128 431 2314 475 
Q 2500 519 2650 588 
Q 2809 659 2918 726 
Q 3028 794 3100 853 
L 3134 853 
L 3134 213 
Q 3031 172 2878 111 
Q 2725 50 2603 16 
Q 2431 -31 2292 -56 
Q 2153 -81 1941 -81 
z
M 2628 2134 
Q 2622 2372 2572 2544 
Q 2522 2716 2428 2834 
Q 2325 2966 2164 3034 
Q 2003 3103 1766 3103 
Q 1531 3103 1367 3033 
Q 1203 2963 1069 2828 
Q 938 2691 869 2523 
Q 800 2356 781 2134 
L 2628 2134 
z
" transform="scale(0.015625)"/>
       <path id="Tahoma-72" d="M 2275 2859 
L 2244 2859 
Q 2178 2878 2104 2883 
Q 2031 2888 1928 2888 
Q 1691 2888 1456 2784 
Q 1222 2681 1013 2478 
L 1013 0 
L 425 0 
L 425 3491 
L 1013 3491 
L 1013 2972 
Q 1334 3256 1573 3373 
Q 1813 3491 2038 3491 
Q 2128 3491 2173 3486 
Q 2219 3481 2275 3472 
L 2275 2859 
z
" transform="scale(0.015625)"/>
       <path id="Tahoma-6d" d="M 4388 0 
L 4388 2019 
Q 4388 2259 4369 2464 
Q 4350 2669 4291 2784 
Q 4228 2909 4112 2968 
Q 3997 3028 3800 3028 
Q 3619 3028 3411 2917 
Q 3203 2806 2981 2597 
Q 2984 2544 2989 2470 
Q 2994 2397 2994 2297 
L 2994 0 
L 2406 0 
L 2406 2019 
Q 2406 2259 2387 2464 
Q 2369 2669 2309 2784 
Q 2247 2909 2131 2968 
Q 2016 3028 1819 3028 
Q 1628 3028 1418 2909 
Q 1209 2791 1013 2606 
L 1013 0 
L 425 0 
L 425 3491 
L 1013 3491 
L 1013 3103 
Q 1244 3334 1470 3461 
Q 1697 3588 1969 3588 
Q 2278 3588 2517 3447 
Q 2756 3306 2881 2984 
Q 3147 3281 3400 3434 
Q 3653 3588 3950 3588 
Q 4175 3588 4359 3517 
Q 4544 3447 4681 3291 
Q 4822 3131 4898 2893 
Q 4975 2656 4975 2297 
L 4975 0 
L 4388 0 
z
" transform="scale(0.015625)"/>
      </defs>
      <use xlink:href="#Tahoma-43"/>
      <use xlink:href="#Tahoma-75" x="60.058594"/>
      <use xlink:href="#Tahoma-74" x="115.820312"/>
      <use xlink:href="#Tahoma-69" x="149.267578"/>
      <use xlink:href="#Tahoma-62" x="172.119141"/>
      <use xlink:href="#Tahoma-61" x="227.392578"/>
      <use xlink:href="#Tahoma-63" x="279.882812"/>
      <use xlink:href="#Tahoma-74" x="326.025391"/>
      <use xlink:href="#Tahoma-65" x="359.472656"/>
      <use xlink:href="#Tahoma-72" x="412.109375"/>
      <use xlink:href="#Tahoma-69" x="448.144531"/>
      <use xlink:href="#Tahoma-75" x="470.996094"/>
      <use xlink:href="#Tahoma-6d" x="526.757812"/>
     </g>
    </g>
    <g id="line2d_36">
     <defs>
      <path id="m9472c13acf" d="M 0 3 
C 0.795609 3 1.55874 2.683901 2.12132 2.12132 
C 2.683901 1.55874 3 0.795609 3 0 
C 3 -0.795609 2.683901 -1.55874 2.12132 -2.12132 
C 1.55874 -2.683901 0.795609 -3 0 -3 
C -0.795609 -3 -1.55874 -2.683901 -2.12132 -2.12132 
C -2.683901 -1.55874 -3 -0.795609 -3 0 
C -3 0.795609 -2.683901 1.55874 -2.12132 2.12132 
C -1.55874 2.683901 -0.795609 3 0 3 
z
" style="stroke: #808080; stroke-width: 0.8"/>
     </defs>
     <g>
      <use xlink:href="#m9472c13acf" x="343" y="62.269375" style="fill: #e5c8c8; stroke: #808080; stroke-width: 0.8"/>
     </g>
    </g>
    <g id="text_15">
     <!-- Corynebacterium -->
     <g transform="translate(361 65.769375) scale(0.1 -0.1)">
      <defs>
       <path id="Tahoma-6f" d="M 3297 1744 
Q 3297 863 2872 383 
Q 2447 -97 1741 -97 
Q 1013 -97 595 398 
Q 178 894 178 1744 
Q 178 2619 608 3103 
Q 1038 3588 1741 3588 
Q 2447 3588 2872 3105 
Q 3297 2622 3297 1744 
z
M 2691 1744 
Q 2691 2422 2444 2751 
Q 2197 3081 1741 3081 
Q 1281 3081 1032 2751 
Q 784 2422 784 1744 
Q 784 1088 1032 748 
Q 1281 409 1741 409 
Q 2194 409 2442 742 
Q 2691 1075 2691 1744 
z
" transform="scale(0.015625)"/>
       <path id="Tahoma-79" d="M 3169 3491 
L 1291 -1288 
L 663 -1288 
L 1288 169 
L 19 3491 
L 653 3491 
L 1606 906 
L 2556 3491 
L 3169 3491 
z
" transform="scale(0.015625)"/>
       <path id="Tahoma-6e" d="M 3169 0 
L 2581 0 
L 2581 1988 
Q 2581 2228 2557 2436 
Q 2534 2644 2469 2769 
Q 2397 2900 2269 2964 
Q 2141 3028 1919 3028 
Q 1700 3028 1467 2911 
Q 1234 2794 1013 2606 
L 1013 0 
L 425 0 
L 425 3491 
L 1013 3491 
L 1013 3103 
Q 1275 3338 1531 3463 
Q 1788 3588 2072 3588 
Q 2588 3588 2878 3248 
Q 3169 2909 3169 2266 
L 3169 0 
z
" transform="scale(0.015625)"/>
      </defs>
      <use xlink:href="#Tahoma-43"/>
      <use xlink:href="#Tahoma-6f" x="60.058594"/>
      <use xlink:href="#Tahoma-72" x="114.355469"/>
      <use xlink:href="#Tahoma-79" x="150.390625"/>
      <use xlink:href="#Tahoma-6e" x="200.195312"/>
      <use xlink:href="#Tahoma-65" x="255.957031"/>
      <use xlink:href="#Tahoma-62" x="308.59375"/>
      <use xlink:href="#Tahoma-61" x="363.867188"/>
      <use xlink:href="#Tahoma-63" x="416.357422"/>
      <use xlink:href="#Tahoma-74" x="462.5"/>
      <use xlink:href="#Tahoma-65" x="495.947266"/>
      <use xlink:href="#Tahoma-72" x="548.583984"/>
      <use xlink:href="#Tahoma-69" x="584.619141"/>
      <use xlink:href="#Tahoma-75" x="607.470703"/>
      <use xlink:href="#Tahoma-6d" x="663.232422"/>
     </g>
    </g>
    <g id="line2d_37">
     <defs>
      <path id="m3f7bd84cdd" d="M 0 3 
C 0.795609 3 1.55874 2.683901 2.12132 2.12132 
C 2.683901 1.55874 3 0.795609 3 0 
C 3 -0.795609 2.683901 -1.55874 2.12132 -2.12132 
C 1.55874 -2.683901 0.795609 -3 0 -3 
C -0.795609 -3 -1.55874 -2.683901 -2.12132 -2.12132 
C -2.683901 -1.55874 -3 -0.795609 -3 0 
C -3 0.795609 -2.683901 1.55874 -2.12132 2.12132 
C -1.55874 2.683901 -0.795609 3 0 3 
z
" style="stroke: #808080; stroke-width: 0.8"/>
     </defs>
     <g>
      <use xlink:href="#m3f7bd84cdd" x="343" y="76.880313" style="fill: #ff8ac0; stroke: #808080; stroke-width: 0.8"/>
     </g>
    </g>
    <g id="text_16">
     <!-- Gardnerella -->
     <g transform="translate(361 80.380313) scale(0.1 -0.1)">
      <defs>
       <path id="Tahoma-47" d="M 2419 -91 
Q 1925 -91 1515 59 
Q 1106 209 813 516 
Q 519 825 362 1281 
Q 206 1738 206 2331 
Q 206 2894 364 3339 
Q 522 3784 816 4100 
Q 1100 4406 1515 4572 
Q 1931 4738 2425 4738 
Q 2659 4738 2875 4703 
Q 3091 4669 3288 4609 
Q 3444 4563 3636 4480 
Q 3828 4397 3947 4338 
L 3947 3591 
L 3894 3591 
Q 3778 3694 3654 3786 
Q 3531 3878 3306 3984 
Q 3119 4078 2875 4140 
Q 2631 4203 2350 4203 
Q 1678 4203 1264 3697 
Q 850 3191 850 2350 
Q 850 1881 959 1531 
Q 1069 1181 1275 938 
Q 1475 697 1758 570 
Q 2041 444 2394 444 
Q 2656 444 2915 481 
Q 3175 519 3353 594 
L 3353 1797 
L 2278 1797 
L 2278 2341 
L 3966 2341 
L 3966 309 
Q 3847 256 3648 175 
Q 3450 94 3278 47 
Q 3050 -22 2865 -56 
Q 2681 -91 2419 -91 
z
" transform="scale(0.015625)"/>
       <path id="Tahoma-64" d="M 3113 0 
L 2525 0 
L 2525 356 
Q 2388 241 2288 166 
Q 2188 91 2053 28 
Q 1928 -31 1793 -64 
Q 1659 -97 1481 -97 
Q 1197 -97 955 22 
Q 713 141 544 369 
Q 372 600 278 939 
Q 184 1278 184 1719 
Q 184 2178 303 2514 
Q 422 2850 631 3100 
Q 822 3328 1092 3458 
Q 1363 3588 1659 3588 
Q 1922 3588 2115 3530 
Q 2309 3472 2525 3350 
L 2525 4863 
L 3113 4863 
L 3113 0 
z
M 2525 850 
L 2525 2863 
Q 2306 2969 2132 3009 
Q 1959 3050 1756 3050 
Q 1303 3050 1047 2711 
Q 791 2372 791 1731 
Q 791 1116 987 789 
Q 1184 463 1619 463 
Q 1850 463 2084 567 
Q 2319 672 2525 850 
z
" transform="scale(0.015625)"/>
       <path id="Tahoma-6c" d="M 1025 0 
L 438 0 
L 438 4863 
L 1025 4863 
L 1025 0 
z
" transform="scale(0.015625)"/>
      </defs>
      <use xlink:href="#Tahoma-47"/>
      <use xlink:href="#Tahoma-61" x="66.748047"/>
      <use xlink:href="#Tahoma-72" x="119.238281"/>
      <use xlink:href="#Tahoma-64" x="154.773438"/>
      <use xlink:href="#Tahoma-6e" x="210.046875"/>
      <use xlink:href="#Tahoma-65" x="265.808594"/>
      <use xlink:href="#Tahoma-72" x="318.445312"/>
      <use xlink:href="#Tahoma-65" x="353.980469"/>
      <use xlink:href="#Tahoma-6c" x="406.617188"/>
      <use xlink:href="#Tahoma-6c" x="429.71875"/>
      <use xlink:href="#Tahoma-61" x="452.570312"/>
     </g>
    </g>
    <g id="line2d_38">
     <defs>
      <path id="m21008b9287" d="M 0 3 
C 0.795609 3 1.55874 2.683901 2.12132 2.12132 
C 2.683901 1.55874 3 0.795609 3 0 
C 3 -0.795609 2.683901 -1.55874 2.12132 -2.12132 
C 1.55874 -2.683901 0.795609 -3 0 -3 
C -0.795609 -3 -1.55874 -2.683901 -2.12132 -2.12132 
C -2.683901 -1.55874 -3 -0.795609 -3 0 
C -3 0.795609 -2.683901 1.55874 -2.12132 2.12132 
C -1.55874 2.683901 -0.795609 3 0 3 
z
" style="stroke: #808080; stroke-width: 0.8"/>
     </defs>
     <g>
      <use xlink:href="#m21008b9287" x="343" y="91.49125" style="fill: #306f60; stroke: #808080; stroke-width: 0.8"/>
     </g>
    </g>
    <g id="text_17">
     <!-- Dermacoccus -->
     <g transform="translate(361 94.99125) scale(0.1 -0.1)">
      <defs>
       <path id="Tahoma-44" d="M 4141 2322 
Q 4141 1684 3883 1171 
Q 3625 659 3191 372 
Q 2838 150 2473 75 
Q 2109 0 1544 0 
L 472 0 
L 472 4653 
L 1531 4653 
Q 2188 4653 2561 4554 
Q 2934 4456 3197 4284 
Q 3647 3988 3894 3495 
Q 4141 3003 4141 2322 
z
M 3497 2331 
Q 3497 2869 3319 3248 
Q 3141 3628 2791 3841 
Q 2544 3991 2262 4056 
Q 1981 4122 1563 4122 
L 1091 4122 
L 1091 531 
L 1563 531 
Q 1975 531 2284 597 
Q 2594 663 2850 841 
Q 3172 1059 3334 1423 
Q 3497 1788 3497 2331 
z
" transform="scale(0.015625)"/>
       <path id="Tahoma-73" d="M 1369 -84 
Q 1019 -84 714 9 
Q 409 103 209 209 
L 209 869 
L 241 869 
Q 316 809 417 737 
Q 519 666 688 588 
Q 838 519 1017 466 
Q 1197 413 1391 413 
Q 1531 413 1690 445 
Q 1850 478 1928 528 
Q 2038 600 2086 681 
Q 2134 763 2134 925 
Q 2134 1134 2020 1240 
Q 1906 1347 1616 1419 
Q 1503 1447 1322 1484 
Q 1141 1522 988 1566 
Q 588 1681 406 1923 
Q 225 2166 225 2509 
Q 225 2981 581 3278 
Q 938 3575 1528 3575 
Q 1819 3575 2112 3503 
Q 2406 3431 2606 3322 
L 2606 2694 
L 2575 2694 
Q 2350 2872 2073 2975 
Q 1797 3078 1516 3078 
Q 1225 3078 1025 2956 
Q 825 2834 825 2588 
Q 825 2369 944 2261 
Q 1063 2153 1325 2084 
Q 1456 2050 1617 2017 
Q 1778 1984 1956 1941 
Q 2344 1844 2539 1619 
Q 2734 1394 2734 1006 
Q 2734 781 2645 579 
Q 2556 378 2384 234 
Q 2197 78 1961 -3 
Q 1725 -84 1369 -84 
z
" transform="scale(0.015625)"/>
      </defs>
      <use xlink:href="#Tahoma-44"/>
      <use xlink:href="#Tahoma-65" x="67.822266"/>
      <use xlink:href="#Tahoma-72" x="120.458984"/>
      <use xlink:href="#Tahoma-6d" x="156.494141"/>
      <use xlink:href="#Tahoma-61" x="240.478516"/>
      <use xlink:href="#Tahoma-63" x="292.96875"/>
      <use xlink:href="#Tahoma-6f" x="339.111328"/>
      <use xlink:href="#Tahoma-63" x="393.408203"/>
      <use xlink:href="#Tahoma-63" x="439.300781"/>
      <use xlink:href="#Tahoma-75" x="485.443359"/>
      <use xlink:href="#Tahoma-73" x="541.205078"/>
     </g>
    </g>
    <g id="line2d_39">
     <defs>
      <path id="md658235041" d="M 0 3 
C 0.795609 3 1.55874 2.683901 2.12132 2.12132 
C 2.683901 1.55874 3 0.795609 3 0 
C 3 -0.795609 2.683901 -1.55874 2.12132 -2.12132 
C 1.55874 -2.683901 0.795609 -3 0 -3 
C -0.795609 -3 -1.55874 -2.683901 -2.12132 -2.12132 
C -2.683901 -1.55874 -3 -0.795609 -3 0 
C -3 0.795609 -2.683901 1.55874 -2.12132 2.12132 
C -1.55874 2.683901 -0.795609 3 0 3 
z
" style="stroke: #808080; stroke-width: 0.8"/>
     </defs>
     <g>
      <use xlink:href="#md658235041" x="343" y="106.102188" style="fill: #7f6759; stroke: #808080; stroke-width: 0.8"/>
     </g>
    </g>
    <g id="text_18">
     <!-- Micrococcus -->
     <g transform="translate(361 109.602188) scale(0.1 -0.1)">
      <defs>
       <path id="Tahoma-4d" d="M 4459 0 
L 3841 0 
L 3841 4009 
L 2628 1281 
L 2253 1281 
L 1050 4009 
L 1050 0 
L 472 0 
L 472 4653 
L 1316 4653 
L 2478 2063 
L 3600 4653 
L 4459 4653 
L 4459 0 
z
" transform="scale(0.015625)"/>
      </defs>
      <use xlink:href="#Tahoma-4d"/>
      <use xlink:href="#Tahoma-69" x="77.050781"/>
      <use xlink:href="#Tahoma-63" x="99.902344"/>
      <use xlink:href="#Tahoma-72" x="146.044922"/>
      <use xlink:href="#Tahoma-6f" x="181.580078"/>
      <use xlink:href="#Tahoma-63" x="235.876953"/>
      <use xlink:href="#Tahoma-6f" x="282.019531"/>
      <use xlink:href="#Tahoma-63" x="336.316406"/>
      <use xlink:href="#Tahoma-63" x="382.208984"/>
      <use xlink:href="#Tahoma-75" x="428.351562"/>
      <use xlink:href="#Tahoma-73" x="484.113281"/>
     </g>
    </g>
    <g id="line2d_40">
     <defs>
      <path id="m606ef92b5a" d="M 0 3 
C 0.795609 3 1.55874 2.683901 2.12132 2.12132 
C 2.683901 1.55874 3 0.795609 3 0 
C 3 -0.795609 2.683901 -1.55874 2.12132 -2.12132 
C 1.55874 -2.683901 0.795609 -3 0 -3 
C -0.795609 -3 -1.55874 -2.683901 -2.12132 -2.12132 
C -2.683901 -1.55874 -3 -0.795609 -3 0 
C -3 0.795609 -2.683901 1.55874 -2.12132 2.12132 
C -1.55874 2.683901 -0.795609 3 0 3 
z
" style="stroke: #808080; stroke-width: 0.8"/>
     </defs>
     <g>
      <use xlink:href="#m606ef92b5a" x="343" y="120.713125" style="fill: #6bd2db; stroke: #808080; stroke-width: 0.8"/>
     </g>
    </g>
    <g id="text_19">
     <!-- Staphylococcus -->
     <g transform="translate(361 124.213125) scale(0.1 -0.1)">
      <defs>
       <path id="Tahoma-53" d="M 1769 -84 
Q 1263 -84 908 20 
Q 553 125 241 278 
L 241 1053 
L 284 1053 
Q 591 766 978 608 
Q 1366 450 1725 450 
Q 2238 450 2500 664 
Q 2763 878 2763 1228 
Q 2763 1506 2625 1681 
Q 2488 1856 2188 1941 
Q 1972 2003 1794 2043 
Q 1616 2084 1347 2153 
Q 1106 2216 915 2312 
Q 725 2409 578 2566 
Q 434 2719 354 2926 
Q 275 3134 275 3406 
Q 275 3972 715 4355 
Q 1156 4738 1841 4738 
Q 2231 4738 2579 4659 
Q 2928 4581 3225 4438 
L 3225 3697 
L 3178 3697 
Q 2956 3900 2609 4051 
Q 2263 4203 1881 4203 
Q 1450 4203 1184 4001 
Q 919 3800 919 3472 
Q 919 3175 1075 3000 
Q 1231 2825 1528 2744 
Q 1725 2691 2009 2623 
Q 2294 2556 2481 2500 
Q 2963 2353 3184 2056 
Q 3406 1759 3406 1325 
Q 3406 1053 3295 787 
Q 3184 522 2984 338 
Q 2759 134 2476 25 
Q 2194 -84 1769 -84 
z
" transform="scale(0.015625)"/>
       <path id="Tahoma-70" d="M 3353 1838 
Q 3353 966 2936 448 
Q 2519 -69 1881 -69 
Q 1622 -69 1422 -9 
Q 1222 50 1013 175 
L 1013 -1288 
L 425 -1288 
L 425 3491 
L 1013 3491 
L 1013 3125 
Q 1231 3322 1498 3455 
Q 1766 3588 2081 3588 
Q 2681 3588 3017 3113 
Q 3353 2638 3353 1838 
z
M 2747 1772 
Q 2747 2369 2556 2698 
Q 2366 3028 1938 3028 
Q 1688 3028 1455 2917 
Q 1222 2806 1013 2631 
L 1013 653 
Q 1244 541 1408 500 
Q 1572 459 1784 459 
Q 2241 459 2494 793 
Q 2747 1128 2747 1772 
z
" transform="scale(0.015625)"/>
       <path id="Tahoma-68" d="M 3169 0 
L 2581 0 
L 2581 1988 
Q 2581 2228 2557 2436 
Q 2534 2644 2469 2769 
Q 2397 2900 2269 2964 
Q 2141 3028 1919 3028 
Q 1700 3028 1467 2911 
Q 1234 2794 1013 2606 
L 1013 0 
L 425 0 
L 425 4863 
L 1013 4863 
L 1013 3103 
Q 1275 3338 1531 3463 
Q 1788 3588 2072 3588 
Q 2588 3588 2878 3248 
Q 3169 2909 3169 2266 
L 3169 0 
z
" transform="scale(0.015625)"/>
      </defs>
      <use xlink:href="#Tahoma-53"/>
      <use xlink:href="#Tahoma-74" x="55.712891"/>
      <use xlink:href="#Tahoma-61" x="89.160156"/>
      <use xlink:href="#Tahoma-70" x="141.650391"/>
      <use xlink:href="#Tahoma-68" x="196.923828"/>
      <use xlink:href="#Tahoma-79" x="251.810547"/>
      <use xlink:href="#Tahoma-6c" x="301.615234"/>
      <use xlink:href="#Tahoma-6f" x="324.466797"/>
      <use xlink:href="#Tahoma-63" x="378.763672"/>
      <use xlink:href="#Tahoma-6f" x="424.90625"/>
      <use xlink:href="#Tahoma-63" x="479.203125"/>
      <use xlink:href="#Tahoma-63" x="525.095703"/>
      <use xlink:href="#Tahoma-75" x="571.238281"/>
      <use xlink:href="#Tahoma-73" x="627"/>
     </g>
    </g>
    <g id="line2d_41">
     <defs>
      <path id="m0d13c8f8cd" d="M 0 3 
C 0.795609 3 1.55874 2.683901 2.12132 2.12132 
C 2.683901 1.55874 3 0.795609 3 0 
C 3 -0.795609 2.683901 -1.55874 2.12132 -2.12132 
C 1.55874 -2.683901 0.795609 -3 0 -3 
C -0.795609 -3 -1.55874 -2.683901 -2.12132 -2.12132 
C -2.683901 -1.55874 -3 -0.795609 -3 0 
C -3 0.795609 -2.683901 1.55874 -2.12132 2.12132 
C -1.55874 2.683901 -0.795609 3 0 3 
z
" style="stroke: #808080; stroke-width: 0.8"/>
     </defs>
     <g>
      <use xlink:href="#m0d13c8f8cd" x="343" y="135.324063" style="fill: #db502b; stroke: #808080; stroke-width: 0.8"/>
     </g>
    </g>
    <g id="text_20">
     <!-- Malassezia -->
     <g transform="translate(361 138.824063) scale(0.1 -0.1)">
      <defs>
       <path id="Tahoma-7a" d="M 2719 0 
L 153 0 
L 153 434 
L 1978 3006 
L 228 3006 
L 228 3491 
L 2684 3491 
L 2684 3072 
L 850 491 
L 2719 491 
L 2719 0 
z
" transform="scale(0.015625)"/>
      </defs>
      <use xlink:href="#Tahoma-4d"/>
      <use xlink:href="#Tahoma-61" x="77.050781"/>
      <use xlink:href="#Tahoma-6c" x="129.541016"/>
      <use xlink:href="#Tahoma-61" x="152.392578"/>
      <use xlink:href="#Tahoma-73" x="204.882812"/>
      <use xlink:href="#Tahoma-73" x="249.511719"/>
      <use xlink:href="#Tahoma-65" x="294.140625"/>
      <use xlink:href="#Tahoma-7a" x="346.777344"/>
      <use xlink:href="#Tahoma-69" x="391.210938"/>
      <use xlink:href="#Tahoma-61" x="414.0625"/>
     </g>
    </g>
    <g id="line2d_42">
     <defs>
      <path id="mdf4b3642ac" d="M 0 3 
C 0.795609 3 1.55874 2.683901 2.12132 2.12132 
C 2.683901 1.55874 3 0.795609 3 0 
C 3 -0.795609 2.683901 -1.55874 2.12132 -2.12132 
C 1.55874 -2.683901 0.795609 -3 0 -3 
C -0.795609 -3 -1.55874 -2.683901 -2.12132 -2.12132 
C -2.683901 -1.55874 -3 -0.795609 -3 0 
C -3 0.795609 -2.683901 1.55874 -2.12132 2.12132 
C -1.55874 2.683901 -0.795609 3 0 3 
z
" style="stroke: #808080; stroke-width: 0.8"/>
     </defs>
     <g>
      <use xlink:href="#mdf4b3642ac" x="343" y="149.935" style="fill: #8daaa3; stroke: #808080; stroke-width: 0.8"/>
     </g>
    </g>
    <g id="text_21">
     <!-- Lactobacillus -->
     <g transform="translate(361 153.435) scale(0.1 -0.1)">
      <defs>
       <path id="Tahoma-4c" d="M 3169 0 
L 472 0 
L 472 4653 
L 1091 4653 
L 1091 550 
L 3169 550 
L 3169 0 
z
" transform="scale(0.015625)"/>
      </defs>
      <use xlink:href="#Tahoma-4c"/>
      <use xlink:href="#Tahoma-61" x="49.755859"/>
      <use xlink:href="#Tahoma-63" x="102.246094"/>
      <use xlink:href="#Tahoma-74" x="148.388672"/>
      <use xlink:href="#Tahoma-6f" x="181.835938"/>
      <use xlink:href="#Tahoma-62" x="236.132812"/>
      <use xlink:href="#Tahoma-61" x="291.40625"/>
      <use xlink:href="#Tahoma-63" x="343.896484"/>
      <use xlink:href="#Tahoma-69" x="390.039062"/>
      <use xlink:href="#Tahoma-6c" x="413.015625"/>
      <use xlink:href="#Tahoma-6c" x="436.117188"/>
      <use xlink:href="#Tahoma-75" x="458.96875"/>
      <use xlink:href="#Tahoma-73" x="514.730469"/>
     </g>
    </g>
    <g id="line2d_43">
     <defs>
      <path id="m8b4e980e71" d="M 0 3 
C 0.795609 3 1.55874 2.683901 2.12132 2.12132 
C 2.683901 1.55874 3 0.795609 3 0 
C 3 -0.795609 2.683901 -1.55874 2.12132 -2.12132 
C 1.55874 -2.683901 0.795609 -3 0 -3 
C -0.795609 -3 -1.55874 -2.683901 -2.12132 -2.12132 
C -2.683901 -1.55874 -3 -0.795609 -3 0 
C -3 0.795609 -2.683901 1.55874 -2.12132 2.12132 
C -1.55874 2.683901 -0.795609 3 0 3 
z
" style="stroke: #808080; stroke-width: 0.8"/>
     </defs>
     <g>
      <use xlink:href="#m8b4e980e71" x="343" y="164.545938" style="fill: #46889d; stroke: #808080; stroke-width: 0.8"/>
     </g>
    </g>
    <g id="text_22">
     <!-- Fannyhessea -->
     <g transform="translate(361 168.045938) scale(0.1 -0.1)">
      <defs>
       <path id="Tahoma-46" d="M 3256 4103 
L 1091 4103 
L 1091 2791 
L 3166 2791 
L 3166 2241 
L 1091 2241 
L 1091 0 
L 472 0 
L 472 4653 
L 3256 4653 
L 3256 4103 
z
" transform="scale(0.015625)"/>
      </defs>
      <use xlink:href="#Tahoma-46"/>
      <use xlink:href="#Tahoma-61" x="47.523438"/>
      <use xlink:href="#Tahoma-6e" x="100.013672"/>
      <use xlink:href="#Tahoma-6e" x="155.775391"/>
      <use xlink:href="#Tahoma-79" x="210.662109"/>
      <use xlink:href="#Tahoma-68" x="260.466797"/>
      <use xlink:href="#Tahoma-65" x="316.228516"/>
      <use xlink:href="#Tahoma-73" x="368.865234"/>
      <use xlink:href="#Tahoma-73" x="413.494141"/>
      <use xlink:href="#Tahoma-65" x="458.123047"/>
      <use xlink:href="#Tahoma-61" x="510.759766"/>
     </g>
    </g>
    <g id="line2d_44">
     <defs>
      <path id="m8d1394cf7f" d="M 0 3 
C 0.795609 3 1.55874 2.683901 2.12132 2.12132 
C 2.683901 1.55874 3 0.795609 3 0 
C 3 -0.795609 2.683901 -1.55874 2.12132 -2.12132 
C 1.55874 -2.683901 0.795609 -3 0 -3 
C -0.795609 -3 -1.55874 -2.683901 -2.12132 -2.12132 
C -2.683901 -1.55874 -3 -0.795609 -3 0 
C -3 0.795609 -2.683901 1.55874 -2.12132 2.12132 
C -1.55874 2.683901 -0.795609 3 0 3 
z
" style="stroke: #808080; stroke-width: 0.8"/>
     </defs>
     <g>
      <use xlink:href="#m8d1394cf7f" x="343" y="179.156875" style="fill: #ffd700; stroke: #808080; stroke-width: 0.8"/>
     </g>
    </g>
    <g id="text_23">
     <!-- Streptococcus -->
     <g transform="translate(361 182.656875) scale(0.1 -0.1)">
      <use xlink:href="#Tahoma-53"/>
      <use xlink:href="#Tahoma-74" x="55.712891"/>
      <use xlink:href="#Tahoma-72" x="89.160156"/>
      <use xlink:href="#Tahoma-65" x="124.695312"/>
      <use xlink:href="#Tahoma-70" x="177.332031"/>
      <use xlink:href="#Tahoma-74" x="232.605469"/>
      <use xlink:href="#Tahoma-6f" x="266.052734"/>
      <use xlink:href="#Tahoma-63" x="320.349609"/>
      <use xlink:href="#Tahoma-6f" x="366.492188"/>
      <use xlink:href="#Tahoma-63" x="420.789062"/>
      <use xlink:href="#Tahoma-63" x="466.681641"/>
      <use xlink:href="#Tahoma-75" x="512.824219"/>
      <use xlink:href="#Tahoma-73" x="568.585938"/>
     </g>
    </g>
    <g id="line2d_45">
     <defs>
      <path id="m3dc1120667" d="M 0 3 
C 0.795609 3 1.55874 2.683901 2.12132 2.12132 
C 2.683901 1.55874 3 0.795609 3 0 
C 3 -0.795609 2.683901 -1.55874 2.12132 -2.12132 
C 1.55874 -2.683901 0.795609 -3 0 -3 
C -0.795609 -3 -1.55874 -2.683901 -2.12132 -2.12132 
C -2.683901 -1.55874 -3 -0.795609 -3 0 
C -3 0.795609 -2.683901 1.55874 -2.12132 2.12132 
C -1.55874 2.683901 -0.795609 3 0 3 
z
" style="stroke: #808080; stroke-width: 0.8"/>
     </defs>
     <g>
      <use xlink:href="#m3dc1120667" x="343" y="193.767813" style="fill: #ffd5c0; stroke: #808080; stroke-width: 0.8"/>
     </g>
    </g>
    <g id="text_24">
     <!-- Prevotella -->
     <g transform="translate(361 197.267813) scale(0.1 -0.1)">
      <defs>
       <path id="Tahoma-50" d="M 3409 3250 
Q 3409 2947 3301 2676 
Q 3194 2406 3003 2216 
Q 2763 1978 2438 1856 
Q 2113 1734 1616 1734 
L 1091 1734 
L 1091 0 
L 472 0 
L 472 4653 
L 1641 4653 
Q 2053 4653 2343 4584 
Q 2634 4516 2856 4363 
Q 3116 4184 3262 3911 
Q 3409 3638 3409 3250 
z
M 2766 3234 
Q 2766 3475 2683 3653 
Q 2600 3831 2431 3944 
Q 2284 4041 2089 4081 
Q 1894 4122 1603 4122 
L 1091 4122 
L 1091 2263 
L 1513 2263 
Q 1888 2263 2119 2323 
Q 2350 2384 2503 2541 
Q 2641 2681 2703 2847 
Q 2766 3013 2766 3234 
z
" transform="scale(0.015625)"/>
       <path id="Tahoma-76" d="M 3169 3491 
L 1853 0 
L 1325 0 
L 19 3491 
L 653 3491 
L 1609 797 
L 2556 3491 
L 3169 3491 
z
" transform="scale(0.015625)"/>
      </defs>
      <use xlink:href="#Tahoma-50"/>
      <use xlink:href="#Tahoma-72" x="55.126953"/>
      <use xlink:href="#Tahoma-65" x="90.662109"/>
      <use xlink:href="#Tahoma-76" x="143.298828"/>
      <use xlink:href="#Tahoma-6f" x="192.353516"/>
      <use xlink:href="#Tahoma-74" x="246.650391"/>
      <use xlink:href="#Tahoma-65" x="280.097656"/>
      <use xlink:href="#Tahoma-6c" x="332.734375"/>
      <use xlink:href="#Tahoma-6c" x="355.835938"/>
      <use xlink:href="#Tahoma-61" x="378.6875"/>
     </g>
    </g>
    <g id="line2d_46">
     <defs>
      <path id="m7dc4c5b86d" d="M 0 3 
C 0.795609 3 1.55874 2.683901 2.12132 2.12132 
C 2.683901 1.55874 3 0.795609 3 0 
C 3 -0.795609 2.683901 -1.55874 2.12132 -2.12132 
C 1.55874 -2.683901 0.795609 -3 0 -3 
C -0.795609 -3 -1.55874 -2.683901 -2.12132 -2.12132 
C -2.683901 -1.55874 -3 -0.795609 -3 0 
C -3 0.795609 -2.683901 1.55874 -2.12132 2.12132 
C -1.55874 2.683901 -0.795609 3 0 3 
z
" style="stroke: #808080; stroke-width: 0.8"/>
     </defs>
     <g>
      <use xlink:href="#m7dc4c5b86d" x="343" y="208.37875" style="fill: #cbffc0; stroke: #808080; stroke-width: 0.8"/>
     </g>
    </g>
    <g id="text_25">
     <!-- Moraxella -->
     <g transform="translate(361 211.87875) scale(0.1 -0.1)">
      <defs>
       <path id="Tahoma-78" d="M 3138 0 
L 2416 0 
L 1569 1319 
L 697 0 
L 31 0 
L 1244 1731 
L 44 3491 
L 766 3491 
L 1606 2184 
L 2469 3491 
L 3138 3491 
L 1931 1772 
L 3138 0 
z
" transform="scale(0.015625)"/>
      </defs>
      <use xlink:href="#Tahoma-4d"/>
      <use xlink:href="#Tahoma-6f" x="77.050781"/>
      <use xlink:href="#Tahoma-72" x="131.347656"/>
      <use xlink:href="#Tahoma-61" x="165.632812"/>
      <use xlink:href="#Tahoma-78" x="218.123047"/>
      <use xlink:href="#Tahoma-65" x="266.384766"/>
      <use xlink:href="#Tahoma-6c" x="319.021484"/>
      <use xlink:href="#Tahoma-6c" x="342.123047"/>
      <use xlink:href="#Tahoma-61" x="364.974609"/>
     </g>
    </g>
    <g id="line2d_47">
     <defs>
      <path id="mbe3189cc38" d="M 0 3 
C 0.795609 3 1.55874 2.683901 2.12132 2.12132 
C 2.683901 1.55874 3 0.795609 3 0 
C 3 -0.795609 2.683901 -1.55874 2.12132 -2.12132 
C 1.55874 -2.683901 0.795609 -3 0 -3 
C -0.795609 -3 -1.55874 -2.683901 -2.12132 -2.12132 
C -2.683901 -1.55874 -3 -0.795609 -3 0 
C -3 0.795609 -2.683901 1.55874 -2.12132 2.12132 
C -1.55874 2.683901 -0.795609 3 0 3 
z
" style="stroke: #808080; stroke-width: 0.8"/>
     </defs>
     <g>
      <use xlink:href="#mbe3189cc38" x="343" y="222.989688" style="fill: #ffcfda; stroke: #808080; stroke-width: 0.8"/>
     </g>
    </g>
    <g id="text_26">
     <!-- Kocuria -->
     <g transform="translate(361 226.489688) scale(0.1 -0.1)">
      <defs>
       <path id="Tahoma-4b" d="M 3863 0 
L 3059 0 
L 1363 2166 
L 1091 1859 
L 1091 0 
L 472 0 
L 472 4653 
L 1091 4653 
L 1091 2513 
L 2997 4653 
L 3750 4653 
L 1825 2575 
L 3863 0 
z
" transform="scale(0.015625)"/>
      </defs>
      <use xlink:href="#Tahoma-4b"/>
      <use xlink:href="#Tahoma-6f" x="56.039062"/>
      <use xlink:href="#Tahoma-63" x="110.335938"/>
      <use xlink:href="#Tahoma-75" x="156.478516"/>
      <use xlink:href="#Tahoma-72" x="212.240234"/>
      <use xlink:href="#Tahoma-69" x="248.275391"/>
      <use xlink:href="#Tahoma-61" x="271.126953"/>
     </g>
    </g>
    <g id="line2d_48">
     <defs>
      <path id="m3933d3958a" d="M 0 3 
C 0.795609 3 1.55874 2.683901 2.12132 2.12132 
C 2.683901 1.55874 3 0.795609 3 0 
C 3 -0.795609 2.683901 -1.55874 2.12132 -2.12132 
C 1.55874 -2.683901 0.795609 -3 0 -3 
C -0.795609 -3 -1.55874 -2.683901 -2.12132 -2.12132 
C -2.683901 -1.55874 -3 -0.795609 -3 0 
C -3 0.795609 -2.683901 1.55874 -2.12132 2.12132 
C -1.55874 2.683901 -0.795609 3 0 3 
z
" style="stroke: #808080; stroke-width: 0.8"/>
     </defs>
     <g>
      <use xlink:href="#m3933d3958a" x="343" y="237.600625" style="fill: #ffce00; stroke: #808080; stroke-width: 0.8"/>
     </g>
    </g>
    <g id="text_27">
     <!-- Hoylesella -->
     <g transform="translate(361 241.100625) scale(0.1 -0.1)">
      <defs>
       <path id="Tahoma-48" d="M 3850 0 
L 3231 0 
L 3231 2278 
L 1091 2278 
L 1091 0 
L 472 0 
L 472 4653 
L 1091 4653 
L 1091 2828 
L 3231 2828 
L 3231 4653 
L 3850 4653 
L 3850 0 
z
" transform="scale(0.015625)"/>
      </defs>
      <use xlink:href="#Tahoma-48"/>
      <use xlink:href="#Tahoma-6f" x="67.529297"/>
      <use xlink:href="#Tahoma-79" x="121.201172"/>
      <use xlink:href="#Tahoma-6c" x="171.005859"/>
      <use xlink:href="#Tahoma-65" x="193.857422"/>
      <use xlink:href="#Tahoma-73" x="246.494141"/>
      <use xlink:href="#Tahoma-65" x="291.123047"/>
      <use xlink:href="#Tahoma-6c" x="343.759766"/>
      <use xlink:href="#Tahoma-6c" x="366.861328"/>
      <use xlink:href="#Tahoma-61" x="389.712891"/>
     </g>
    </g>
    <g id="line2d_49">
     <defs>
      <path id="mcbaed62dc1" d="M 0 3 
C 0.795609 3 1.55874 2.683901 2.12132 2.12132 
C 2.683901 1.55874 3 0.795609 3 0 
C 3 -0.795609 2.683901 -1.55874 2.12132 -2.12132 
C 1.55874 -2.683901 0.795609 -3 0 -3 
C -0.795609 -3 -1.55874 -2.683901 -2.12132 -2.12132 
C -2.683901 -1.55874 -3 -0.795609 -3 0 
C -3 0.795609 -2.683901 1.55874 -2.12132 2.12132 
C -1.55874 2.683901 -0.795609 3 0 3 
z
" style="stroke: #808080; stroke-width: 0.8"/>
     </defs>
     <g>
      <use xlink:href="#mcbaed62dc1" x="343" y="252.211563" style="fill: #ff8da1; stroke: #808080; stroke-width: 0.8"/>
     </g>
    </g>
    <g id="text_28">
     <!-- Peptoniphilus -->
     <g transform="translate(361 255.711563) scale(0.1 -0.1)">
      <use xlink:href="#Tahoma-50"/>
      <use xlink:href="#Tahoma-65" x="52.876953"/>
      <use xlink:href="#Tahoma-70" x="105.513672"/>
      <use xlink:href="#Tahoma-74" x="160.787109"/>
      <use xlink:href="#Tahoma-6f" x="194.234375"/>
      <use xlink:href="#Tahoma-6e" x="248.53125"/>
      <use xlink:href="#Tahoma-69" x="304.292969"/>
      <use xlink:href="#Tahoma-70" x="327.144531"/>
      <use xlink:href="#Tahoma-68" x="382.417969"/>
      <use xlink:href="#Tahoma-69" x="438.179688"/>
      <use xlink:href="#Tahoma-6c" x="461.15625"/>
      <use xlink:href="#Tahoma-75" x="484.007812"/>
      <use xlink:href="#Tahoma-73" x="539.769531"/>
     </g>
    </g>
    <g id="line2d_50">
     <defs>
      <path id="m84ac04fb4e" d="M 0 3 
C 0.795609 3 1.55874 2.683901 2.12132 2.12132 
C 2.683901 1.55874 3 0.795609 3 0 
C 3 -0.795609 2.683901 -1.55874 2.12132 -2.12132 
C 1.55874 -2.683901 0.795609 -3 0 -3 
C -0.795609 -3 -1.55874 -2.683901 -2.12132 -2.12132 
C -2.683901 -1.55874 -3 -0.795609 -3 0 
C -3 0.795609 -2.683901 1.55874 -2.12132 2.12132 
C -1.55874 2.683901 -0.795609 3 0 3 
z
" style="stroke: #808080; stroke-width: 0.8"/>
     </defs>
     <g>
      <use xlink:href="#m84ac04fb4e" x="343" y="266.8225" style="fill: #cf7e6b; stroke: #808080; stroke-width: 0.8"/>
     </g>
    </g>
    <g id="text_29">
     <!-- Rothia -->
     <g transform="translate(361 270.3225) scale(0.1 -0.1)">
      <defs>
       <path id="Tahoma-52" d="M 4075 0 
L 3272 0 
L 1797 1850 
L 1091 1850 
L 1091 0 
L 472 0 
L 472 4653 
L 1672 4653 
Q 2072 4653 2342 4609 
Q 2613 4566 2856 4406 
Q 3100 4250 3242 4003 
Q 3384 3756 3384 3391 
Q 3384 2878 3125 2534 
Q 2866 2191 2419 2025 
L 4075 0 
z
M 2738 3344 
Q 2738 3547 2666 3705 
Q 2594 3863 2444 3963 
Q 2313 4050 2138 4086 
Q 1963 4122 1703 4122 
L 1091 4122 
L 1091 2366 
L 1634 2366 
Q 1900 2366 2112 2412 
Q 2325 2459 2475 2606 
Q 2609 2738 2673 2919 
Q 2738 3100 2738 3344 
z
" transform="scale(0.015625)"/>
      </defs>
      <use xlink:href="#Tahoma-52"/>
      <use xlink:href="#Tahoma-6f" x="60.310547"/>
      <use xlink:href="#Tahoma-74" x="114.607422"/>
      <use xlink:href="#Tahoma-68" x="148.054688"/>
      <use xlink:href="#Tahoma-69" x="203.816406"/>
      <use xlink:href="#Tahoma-61" x="226.667969"/>
     </g>
    </g>
    <g id="line2d_51">
     <defs>
      <path id="m92ac5851ca" d="M 0 3 
C 0.795609 3 1.55874 2.683901 2.12132 2.12132 
C 2.683901 1.55874 3 0.795609 3 0 
C 3 -0.795609 2.683901 -1.55874 2.12132 -2.12132 
C 1.55874 -2.683901 0.795609 -3 0 -3 
C -0.795609 -3 -1.55874 -2.683901 -2.12132 -2.12132 
C -2.683901 -1.55874 -3 -0.795609 -3 0 
C -3 0.795609 -2.683901 1.55874 -2.12132 2.12132 
C -1.55874 2.683901 -0.795609 3 0 3 
z
" style="stroke: #808080; stroke-width: 0.8"/>
     </defs>
     <g>
      <use xlink:href="#m92ac5851ca" x="343" y="281.433438" style="stroke: #808080; stroke-width: 0.8"/>
     </g>
    </g>
    <g id="text_30">
     <!-- Acinetobacter -->
     <g transform="translate(361 284.933438) scale(0.1 -0.1)">
      <defs>
       <path id="Tahoma-41" d="M -31 0 
L 1538 4653 
L 2300 4653 
L 3869 0 
L 3216 0 
L 2794 1300 
L 1016 1300 
L 594 0 
L -31 0 
z
M 2622 1828 
L 1903 4022 
L 1188 1828 
L 2622 1828 
z
" transform="scale(0.015625)"/>
      </defs>
      <use xlink:href="#Tahoma-41"/>
      <use xlink:href="#Tahoma-63" x="59.960938"/>
      <use xlink:href="#Tahoma-69" x="106.103516"/>
      <use xlink:href="#Tahoma-6e" x="128.955078"/>
      <use xlink:href="#Tahoma-65" x="184.716797"/>
      <use xlink:href="#Tahoma-74" x="237.353516"/>
      <use xlink:href="#Tahoma-6f" x="270.800781"/>
      <use xlink:href="#Tahoma-62" x="325.097656"/>
      <use xlink:href="#Tahoma-61" x="380.371094"/>
      <use xlink:href="#Tahoma-63" x="432.861328"/>
      <use xlink:href="#Tahoma-74" x="479.003906"/>
      <use xlink:href="#Tahoma-65" x="512.451172"/>
      <use xlink:href="#Tahoma-72" x="565.087891"/>
     </g>
    </g>
    <g id="line2d_52">
     <defs>
      <path id="mf06ae83404" d="M 0 3 
C 0.795609 3 1.55874 2.683901 2.12132 2.12132 
C 2.683901 1.55874 3 0.795609 3 0 
C 3 -0.795609 2.683901 -1.55874 2.12132 -2.12132 
C 1.55874 -2.683901 0.795609 -3 0 -3 
C -0.795609 -3 -1.55874 -2.683901 -2.12132 -2.12132 
C -2.683901 -1.55874 -3 -0.795609 -3 0 
C -3 0.795609 -2.683901 1.55874 -2.12132 2.12132 
C -1.55874 2.683901 -0.795609 3 0 3 
z
" style="stroke: #808080; stroke-width: 0.8"/>
     </defs>
     <g>
      <use xlink:href="#mf06ae83404" x="343" y="296.044375" style="fill: #ffa5a5; stroke: #808080; stroke-width: 0.8"/>
     </g>
    </g>
    <g id="text_31">
     <!-- Mobiluncus -->
     <g transform="translate(361 299.544375) scale(0.1 -0.1)">
      <use xlink:href="#Tahoma-4d"/>
      <use xlink:href="#Tahoma-6f" x="77.050781"/>
      <use xlink:href="#Tahoma-62" x="131.347656"/>
      <use xlink:href="#Tahoma-69" x="186.621094"/>
      <use xlink:href="#Tahoma-6c" x="209.597656"/>
      <use xlink:href="#Tahoma-75" x="232.449219"/>
      <use xlink:href="#Tahoma-6e" x="288.210938"/>
      <use xlink:href="#Tahoma-63" x="343.972656"/>
      <use xlink:href="#Tahoma-75" x="390.115234"/>
      <use xlink:href="#Tahoma-73" x="445.876953"/>
     </g>
    </g>
    <g id="line2d_53">
     <defs>
      <path id="ma8757f05ff" d="M 0 3 
C 0.795609 3 1.55874 2.683901 2.12132 2.12132 
C 2.683901 1.55874 3 0.795609 3 0 
C 3 -0.795609 2.683901 -1.55874 2.12132 -2.12132 
C 1.55874 -2.683901 0.795609 -3 0 -3 
C -0.795609 -3 -1.55874 -2.683901 -2.12132 -2.12132 
C -2.683901 -1.55874 -3 -0.795609 -3 0 
C -3 0.795609 -2.683901 1.55874 -2.12132 2.12132 
C -1.55874 2.683901 -0.795609 3 0 3 
z
" style="stroke: #808080; stroke-width: 0.8"/>
     </defs>
     <g>
      <use xlink:href="#ma8757f05ff" x="343" y="310.655313" style="fill: #b2d8b2; stroke: #808080; stroke-width: 0.8"/>
     </g>
    </g>
    <g id="text_32">
     <!-- Roseomonas -->
     <g transform="translate(361 314.155313) scale(0.1 -0.1)">
      <use xlink:href="#Tahoma-52"/>
      <use xlink:href="#Tahoma-6f" x="60.310547"/>
      <use xlink:href="#Tahoma-73" x="114.607422"/>
      <use xlink:href="#Tahoma-65" x="159.236328"/>
      <use xlink:href="#Tahoma-6f" x="211.873047"/>
      <use xlink:href="#Tahoma-6d" x="266.169922"/>
      <use xlink:href="#Tahoma-6f" x="350.154297"/>
      <use xlink:href="#Tahoma-6e" x="404.451172"/>
      <use xlink:href="#Tahoma-61" x="460.212891"/>
      <use xlink:href="#Tahoma-73" x="512.703125"/>
     </g>
    </g>
    <g id="line2d_54">
     <defs>
      <path id="mf434318143" d="M 0 3 
C 0.795609 3 1.55874 2.683901 2.12132 2.12132 
C 2.683901 1.55874 3 0.795609 3 0 
C 3 -0.795609 2.683901 -1.55874 2.12132 -2.12132 
C 1.55874 -2.683901 0.795609 -3 0 -3 
C -0.795609 -3 -1.55874 -2.683901 -2.12132 -2.12132 
C -2.683901 -1.55874 -3 -0.795609 -3 0 
C -3 0.795609 -2.683901 1.55874 -2.12132 2.12132 
C -1.55874 2.683901 -0.795609 3 0 3 
z
" style="stroke: #808080; stroke-width: 0.8"/>
     </defs>
     <g>
      <use xlink:href="#mf434318143" x="343" y="325.26625" style="fill: #3579fe; stroke: #808080; stroke-width: 0.8"/>
     </g>
    </g>
    <g id="text_33">
     <!-- Aerococcus -->
     <g transform="translate(361 328.76625) scale(0.1 -0.1)">
      <use xlink:href="#Tahoma-41"/>
      <use xlink:href="#Tahoma-65" x="59.960938"/>
      <use xlink:href="#Tahoma-72" x="112.597656"/>
      <use xlink:href="#Tahoma-6f" x="148.132812"/>
      <use xlink:href="#Tahoma-63" x="202.429688"/>
      <use xlink:href="#Tahoma-6f" x="248.572266"/>
      <use xlink:href="#Tahoma-63" x="302.869141"/>
      <use xlink:href="#Tahoma-63" x="348.761719"/>
      <use xlink:href="#Tahoma-75" x="394.904297"/>
      <use xlink:href="#Tahoma-73" x="450.666016"/>
     </g>
    </g>
    <g id="line2d_55">
     <defs>
      <path id="m10cbb512de" d="M 0 3 
C 0.795609 3 1.55874 2.683901 2.12132 2.12132 
C 2.683901 1.55874 3 0.795609 3 0 
C 3 -0.795609 2.683901 -1.55874 2.12132 -2.12132 
C 1.55874 -2.683901 0.795609 -3 0 -3 
C -0.795609 -3 -1.55874 -2.683901 -2.12132 -2.12132 
C -2.683901 -1.55874 -3 -0.795609 -3 0 
C -3 0.795609 -2.683901 1.55874 -2.12132 2.12132 
C -1.55874 2.683901 -0.795609 3 0 3 
z
" style="stroke: #808080; stroke-width: 0.8"/>
     </defs>
     <g>
      <use xlink:href="#m10cbb512de" x="343" y="339.877187" style="fill: #7dd78f; stroke: #808080; stroke-width: 0.8"/>
     </g>
    </g>
    <g id="text_34">
     <!-- Escherichia -->
     <g transform="translate(361 343.377187) scale(0.1 -0.1)">
      <defs>
       <path id="Tahoma-45" d="M 472 0 
L 472 4653 
L 3381 4653 
L 3381 4103 
L 1091 4103 
L 1091 2828 
L 3225 2828 
L 3225 2278 
L 1091 2278 
L 1091 550 
L 3381 550 
L 3381 0 
L 472 0 
z
" transform="scale(0.015625)"/>
      </defs>
      <use xlink:href="#Tahoma-45"/>
      <use xlink:href="#Tahoma-73" x="56.103516"/>
      <use xlink:href="#Tahoma-63" x="100.732422"/>
      <use xlink:href="#Tahoma-68" x="146.875"/>
      <use xlink:href="#Tahoma-65" x="202.636719"/>
      <use xlink:href="#Tahoma-72" x="255.273438"/>
      <use xlink:href="#Tahoma-69" x="291.308594"/>
      <use xlink:href="#Tahoma-63" x="314.160156"/>
      <use xlink:href="#Tahoma-68" x="360.302734"/>
      <use xlink:href="#Tahoma-69" x="416.064453"/>
      <use xlink:href="#Tahoma-61" x="438.916016"/>
     </g>
    </g>
   </g>
  </g>
 </g>
 <defs>
  <clipPath id="p763c3b5f49">
   <rect x="45" y="34.56" width="279" height="221.76"/>
  </clipPath>
 </defs>
</svg>
