<?xml version="1.0" encoding="utf-8" standalone="no"?>
<!DOCTYPE svg PUBLIC "-//W3C//DTD SVG 1.1//EN"
  "http://www.w3.org/Graphics/SVG/1.1/DTD/svg11.dtd">
<svg xmlns:xlink="http://www.w3.org/1999/xlink" width="440.9375pt" height="360pt" viewBox="0 0 440.9375 360" xmlns="http://www.w3.org/2000/svg" version="1.1">
 <metadata>
  <rdf:RDF xmlns:dc="http://purl.org/dc/elements/1.1/" xmlns:cc="http://creativecommons.org/ns#" xmlns:rdf="http://www.w3.org/1999/02/22-rdf-syntax-ns#">
   <cc:Work>
    <dc:type rdf:resource="http://purl.org/dc/dcmitype/StillImage"/>
    <dc:date>2025-06-21T07:00:06.966723</dc:date>
    <dc:format>image/svg+xml</dc:format>
    <dc:creator>
     <cc:Agent>
      <dc:title>Matplotlib v3.9.2, https://matplotlib.org/</dc:title>
     </cc:Agent>
    </dc:creator>
   </cc:Work>
  </rdf:RDF>
 </metadata>
 <defs>
  <style type="text/css">*{stroke-linejoin: round; stroke-linecap: butt}</style>
 </defs>
 <g id="figure_1">
  <g id="patch_1">
   <path d="M 0 360 
L 440.9375 360 
L 440.9375 0 
L 0 0 
z
" style="fill: #ffffff"/>
  </g>
  <g id="axes_1">
   <g id="patch_2">
    <path d="M 46.757747 319.2 
L 355.590625 319.2 
L 355.590625 10.8 
L 46.757747 10.8 
z
" style="fill: #ffffff"/>
   </g>
   <g id="PathCollection_1">
    <defs>
     <path id="mdd3d352c35" d="M 0 3 
C 0.795609 3 1.55874 2.683901 2.12132 2.12132 
C 2.683901 1.55874 3 0.795609 3 0 
C 3 -0.795609 2.683901 -1.55874 2.12132 -2.12132 
C 1.55874 -2.683901 0.795609 -3 0 -3 
C -0.795609 -3 -1.55874 -2.683901 -2.12132 -2.12132 
C -2.683901 -1.55874 -3 -0.795609 -3 0 
C -3 0.795609 -2.683901 1.55874 -2.12132 2.12132 
C -1.55874 2.683901 -0.795609 3 0 3 
z
" style="stroke: #911c1c; stroke-opacity: 0.8"/>
    </defs>
    <g clip-path="url(#p8c7afe1cbf)">
     <use xlink:href="#mdd3d352c35" x="216.931418" y="105.307502" style="fill: #911c1c; fill-opacity: 0.8; stroke: #911c1c; stroke-opacity: 0.8"/>
     <use xlink:href="#mdd3d352c35" x="159.772015" y="196.588686" style="fill: #911c1c; fill-opacity: 0.8; stroke: #911c1c; stroke-opacity: 0.8"/>
     <use xlink:href="#mdd3d352c35" x="269.228972" y="138.582416" style="fill: #911c1c; fill-opacity: 0.8; stroke: #911c1c; stroke-opacity: 0.8"/>
     <use xlink:href="#mdd3d352c35" x="341.552767" y="48.425385" style="fill: #911c1c; fill-opacity: 0.8; stroke: #911c1c; stroke-opacity: 0.8"/>
     <use xlink:href="#mdd3d352c35" x="235.630947" y="210.303346" style="fill: #911c1c; fill-opacity: 0.8; stroke: #911c1c; stroke-opacity: 0.8"/>
     <use xlink:href="#mdd3d352c35" x="162.986815" y="305.181818" style="fill: #911c1c; fill-opacity: 0.8; stroke: #911c1c; stroke-opacity: 0.8"/>
     <use xlink:href="#mdd3d352c35" x="254.006726" y="92.042502" style="fill: #911c1c; fill-opacity: 0.8; stroke: #911c1c; stroke-opacity: 0.8"/>
     <use xlink:href="#mdd3d352c35" x="240.271325" y="112.277247" style="fill: #911c1c; fill-opacity: 0.8; stroke: #911c1c; stroke-opacity: 0.8"/>
     <use xlink:href="#mdd3d352c35" x="182.085802" y="68.88496" style="fill: #911c1c; fill-opacity: 0.8; stroke: #911c1c; stroke-opacity: 0.8"/>
     <use xlink:href="#mdd3d352c35" x="280.211661" y="113.4014" style="fill: #911c1c; fill-opacity: 0.8; stroke: #911c1c; stroke-opacity: 0.8"/>
     <use xlink:href="#mdd3d352c35" x="193.344052" y="241.779617" style="fill: #911c1c; fill-opacity: 0.8; stroke: #911c1c; stroke-opacity: 0.8"/>
     <use xlink:href="#mdd3d352c35" x="243.581561" y="63.264198" style="fill: #911c1c; fill-opacity: 0.8; stroke: #911c1c; stroke-opacity: 0.8"/>
     <use xlink:href="#mdd3d352c35" x="150.571038" y="199.736313" style="fill: #911c1c; fill-opacity: 0.8; stroke: #911c1c; stroke-opacity: 0.8"/>
     <use xlink:href="#mdd3d352c35" x="296.121173" y="153.64606" style="fill: #911c1c; fill-opacity: 0.8; stroke: #911c1c; stroke-opacity: 0.8"/>
     <use xlink:href="#mdd3d352c35" x="99.81654" y="241.779617" style="fill: #911c1c; fill-opacity: 0.8; stroke: #911c1c; stroke-opacity: 0.8"/>
     <use xlink:href="#mdd3d352c35" x="149.701546" y="276.403514" style="fill: #911c1c; fill-opacity: 0.8; stroke: #911c1c; stroke-opacity: 0.8"/>
     <use xlink:href="#mdd3d352c35" x="74.864068" y="250.997667" style="fill: #911c1c; fill-opacity: 0.8; stroke: #911c1c; stroke-opacity: 0.8"/>
     <use xlink:href="#mdd3d352c35" x="223.846662" y="117.89801" style="fill: #911c1c; fill-opacity: 0.8; stroke: #911c1c; stroke-opacity: 0.8"/>
     <use xlink:href="#mdd3d352c35" x="60.795605" y="209.853685" style="fill: #911c1c; fill-opacity: 0.8; stroke: #911c1c; stroke-opacity: 0.8"/>
     <use xlink:href="#mdd3d352c35" x="294.575203" y="24.818182" style="fill: #911c1c; fill-opacity: 0.8; stroke: #911c1c; stroke-opacity: 0.8"/>
    </g>
   </g>
   <g id="matplotlib.axis_1">
    <g id="xtick_1">
     <g id="line2d_1">
      <defs>
       <path id="m0f139113bd" d="M 0 0 
L 0 3.5 
" style="stroke: #000000; stroke-width: 0.8"/>
      </defs>
      <g>
       <use xlink:href="#m0f139113bd" x="62.000971" y="319.2" style="stroke: #000000; stroke-width: 0.8"/>
      </g>
     </g>
     <g id="text_1">
      <!-- −3 -->
      <g transform="translate(54.629877 333.798437) scale(0.1 -0.1)">
       <defs>
        <path id="DejaVuSans-2212" d="M 678 2272 
L 4684 2272 
L 4684 1741 
L 678 1741 
L 678 2272 
z
" transform="scale(0.015625)"/>
        <path id="DejaVuSans-33" d="M 2597 2516 
Q 3050 2419 3304 2112 
Q 3559 1806 3559 1356 
Q 3559 666 3084 287 
Q 2609 -91 1734 -91 
Q 1441 -91 1130 -33 
Q 819 25 488 141 
L 488 750 
Q 750 597 1062 519 
Q 1375 441 1716 441 
Q 2309 441 2620 675 
Q 2931 909 2931 1356 
Q 2931 1769 2642 2001 
Q 2353 2234 1838 2234 
L 1294 2234 
L 1294 2753 
L 1863 2753 
Q 2328 2753 2575 2939 
Q 2822 3125 2822 3475 
Q 2822 3834 2567 4026 
Q 2313 4219 1838 4219 
Q 1578 4219 1281 4162 
Q 984 4106 628 3988 
L 628 4550 
Q 988 4650 1302 4700 
Q 1616 4750 1894 4750 
Q 2613 4750 3031 4423 
Q 3450 4097 3450 3541 
Q 3450 3153 3228 2886 
Q 3006 2619 2597 2516 
z
" transform="scale(0.015625)"/>
       </defs>
       <use xlink:href="#DejaVuSans-2212"/>
       <use xlink:href="#DejaVuSans-33" x="83.789062"/>
      </g>
     </g>
    </g>
    <g id="xtick_2">
     <g id="line2d_2">
      <g>
       <use xlink:href="#m0f139113bd" x="110.474449" y="319.2" style="stroke: #000000; stroke-width: 0.8"/>
      </g>
     </g>
     <g id="text_2">
      <!-- −2 -->
      <g transform="translate(103.103355 333.798437) scale(0.1 -0.1)">
       <defs>
        <path id="DejaVuSans-32" d="M 1228 531 
L 3431 531 
L 3431 0 
L 469 0 
L 469 531 
Q 828 903 1448 1529 
Q 2069 2156 2228 2338 
Q 2531 2678 2651 2914 
Q 2772 3150 2772 3378 
Q 2772 3750 2511 3984 
Q 2250 4219 1831 4219 
Q 1534 4219 1204 4116 
Q 875 4013 500 3803 
L 500 4441 
Q 881 4594 1212 4672 
Q 1544 4750 1819 4750 
Q 2544 4750 2975 4387 
Q 3406 4025 3406 3419 
Q 3406 3131 3298 2873 
Q 3191 2616 2906 2266 
Q 2828 2175 2409 1742 
Q 1991 1309 1228 531 
z
" transform="scale(0.015625)"/>
       </defs>
       <use xlink:href="#DejaVuSans-2212"/>
       <use xlink:href="#DejaVuSans-32" x="83.789062"/>
      </g>
     </g>
    </g>
    <g id="xtick_3">
     <g id="line2d_3">
      <g>
       <use xlink:href="#m0f139113bd" x="158.947927" y="319.2" style="stroke: #000000; stroke-width: 0.8"/>
      </g>
     </g>
     <g id="text_3">
      <!-- −1 -->
      <g transform="translate(151.576833 333.798437) scale(0.1 -0.1)">
       <defs>
        <path id="DejaVuSans-31" d="M 794 531 
L 1825 531 
L 1825 4091 
L 703 3866 
L 703 4441 
L 1819 4666 
L 2450 4666 
L 2450 531 
L 3481 531 
L 3481 0 
L 794 0 
L 794 531 
z
" transform="scale(0.015625)"/>
       </defs>
       <use xlink:href="#DejaVuSans-2212"/>
       <use xlink:href="#DejaVuSans-31" x="83.789062"/>
      </g>
     </g>
    </g>
    <g id="xtick_4">
     <g id="line2d_4">
      <g>
       <use xlink:href="#m0f139113bd" x="207.421405" y="319.2" style="stroke: #000000; stroke-width: 0.8"/>
      </g>
     </g>
     <g id="text_4">
      <!-- 0 -->
      <g transform="translate(204.240155 333.798437) scale(0.1 -0.1)">
       <defs>
        <path id="DejaVuSans-30" d="M 2034 4250 
Q 1547 4250 1301 3770 
Q 1056 3291 1056 2328 
Q 1056 1369 1301 889 
Q 1547 409 2034 409 
Q 2525 409 2770 889 
Q 3016 1369 3016 2328 
Q 3016 3291 2770 3770 
Q 2525 4250 2034 4250 
z
M 2034 4750 
Q 2819 4750 3233 4129 
Q 3647 3509 3647 2328 
Q 3647 1150 3233 529 
Q 2819 -91 2034 -91 
Q 1250 -91 836 529 
Q 422 1150 422 2328 
Q 422 3509 836 4129 
Q 1250 4750 2034 4750 
z
" transform="scale(0.015625)"/>
       </defs>
       <use xlink:href="#DejaVuSans-30"/>
      </g>
     </g>
    </g>
    <g id="xtick_5">
     <g id="line2d_5">
      <g>
       <use xlink:href="#m0f139113bd" x="255.894883" y="319.2" style="stroke: #000000; stroke-width: 0.8"/>
      </g>
     </g>
     <g id="text_5">
      <!-- 1 -->
      <g transform="translate(252.713633 333.798437) scale(0.1 -0.1)">
       <use xlink:href="#DejaVuSans-31"/>
      </g>
     </g>
    </g>
    <g id="xtick_6">
     <g id="line2d_6">
      <g>
       <use xlink:href="#m0f139113bd" x="304.368361" y="319.2" style="stroke: #000000; stroke-width: 0.8"/>
      </g>
     </g>
     <g id="text_6">
      <!-- 2 -->
      <g transform="translate(301.187111 333.798437) scale(0.1 -0.1)">
       <use xlink:href="#DejaVuSans-32"/>
      </g>
     </g>
    </g>
    <g id="xtick_7">
     <g id="line2d_7">
      <g>
       <use xlink:href="#m0f139113bd" x="352.841839" y="319.2" style="stroke: #000000; stroke-width: 0.8"/>
      </g>
     </g>
     <g id="text_7">
      <!-- 3 -->
      <g transform="translate(349.660589 333.798437) scale(0.1 -0.1)">
       <use xlink:href="#DejaVuSans-33"/>
      </g>
     </g>
    </g>
   </g>
   <g id="matplotlib.axis_2">
    <g id="ytick_1">
     <g id="line2d_8">
      <defs>
       <path id="mf136d82a5e" d="M 0 0 
L -3.5 0 
" style="stroke: #000000; stroke-width: 0.8"/>
      </defs>
      <g>
       <use xlink:href="#mf136d82a5e" x="46.757747" y="268.246819" style="stroke: #000000; stroke-width: 0.8"/>
      </g>
     </g>
     <g id="text_8">
      <!-- 3 -->
      <g transform="translate(33.395247 272.046038) scale(0.1 -0.1)">
       <use xlink:href="#DejaVuSans-33"/>
      </g>
     </g>
    </g>
    <g id="ytick_2">
     <g id="line2d_9">
      <g>
       <use xlink:href="#mf136d82a5e" x="46.757747" y="202.641279" style="stroke: #000000; stroke-width: 0.8"/>
      </g>
     </g>
     <g id="text_9">
      <!-- 4 -->
      <g transform="translate(33.395247 206.440498) scale(0.1 -0.1)">
       <defs>
        <path id="DejaVuSans-34" d="M 2419 4116 
L 825 1625 
L 2419 1625 
L 2419 4116 
z
M 2253 4666 
L 3047 4666 
L 3047 1625 
L 3713 1625 
L 3713 1100 
L 3047 1100 
L 3047 0 
L 2419 0 
L 2419 1100 
L 313 1100 
L 313 1709 
L 2253 4666 
z
" transform="scale(0.015625)"/>
       </defs>
       <use xlink:href="#DejaVuSans-34"/>
      </g>
     </g>
    </g>
    <g id="ytick_3">
     <g id="line2d_10">
      <g>
       <use xlink:href="#mf136d82a5e" x="46.757747" y="137.035738" style="stroke: #000000; stroke-width: 0.8"/>
      </g>
     </g>
     <g id="text_10">
      <!-- 5 -->
      <g transform="translate(33.395247 140.834957) scale(0.1 -0.1)">
       <defs>
        <path id="DejaVuSans-35" d="M 691 4666 
L 3169 4666 
L 3169 4134 
L 1269 4134 
L 1269 2991 
Q 1406 3038 1543 3061 
Q 1681 3084 1819 3084 
Q 2600 3084 3056 2656 
Q 3513 2228 3513 1497 
Q 3513 744 3044 326 
Q 2575 -91 1722 -91 
Q 1428 -91 1123 -41 
Q 819 9 494 109 
L 494 744 
Q 775 591 1075 516 
Q 1375 441 1709 441 
Q 2250 441 2565 725 
Q 2881 1009 2881 1497 
Q 2881 1984 2565 2268 
Q 2250 2553 1709 2553 
Q 1456 2553 1204 2497 
Q 953 2441 691 2322 
L 691 4666 
z
" transform="scale(0.015625)"/>
       </defs>
       <use xlink:href="#DejaVuSans-35"/>
      </g>
     </g>
    </g>
    <g id="ytick_4">
     <g id="line2d_11">
      <g>
       <use xlink:href="#mf136d82a5e" x="46.757747" y="71.430198" style="stroke: #000000; stroke-width: 0.8"/>
      </g>
     </g>
     <g id="text_11">
      <!-- 6 -->
      <g transform="translate(33.395247 75.229416) scale(0.1 -0.1)">
       <defs>
        <path id="DejaVuSans-36" d="M 2113 2584 
Q 1688 2584 1439 2293 
Q 1191 2003 1191 1497 
Q 1191 994 1439 701 
Q 1688 409 2113 409 
Q 2538 409 2786 701 
Q 3034 994 3034 1497 
Q 3034 2003 2786 2293 
Q 2538 2584 2113 2584 
z
M 3366 4563 
L 3366 3988 
Q 3128 4100 2886 4159 
Q 2644 4219 2406 4219 
Q 1781 4219 1451 3797 
Q 1122 3375 1075 2522 
Q 1259 2794 1537 2939 
Q 1816 3084 2150 3084 
Q 2853 3084 3261 2657 
Q 3669 2231 3669 1497 
Q 3669 778 3244 343 
Q 2819 -91 2113 -91 
Q 1303 -91 875 529 
Q 447 1150 447 2328 
Q 447 3434 972 4092 
Q 1497 4750 2381 4750 
Q 2619 4750 2861 4703 
Q 3103 4656 3366 4563 
z
" transform="scale(0.015625)"/>
       </defs>
       <use xlink:href="#DejaVuSans-36"/>
      </g>
     </g>
    </g>
   </g>
   <g id="line2d_12">
    <path d="M 60.795605 269.598131 
L 63.631536 267.436826 
L 66.467467 265.275521 
L 69.303398 263.114216 
L 72.139329 260.95291 
L 74.97526 258.791605 
L 77.811191 256.6303 
L 80.647122 254.468995 
L 83.483053 252.307689 
L 86.318984 250.146384 
L 89.154915 247.985079 
L 91.990846 245.823774 
L 94.826777 243.662468 
L 97.662707 241.501163 
L 100.498638 239.339858 
L 103.334569 237.178553 
L 106.1705 235.017247 
L 109.006431 232.855942 
L 111.842362 230.694637 
L 114.678293 228.533332 
L 117.514224 226.372026 
L 120.350155 224.210721 
L 123.186086 222.049416 
L 126.022017 219.88811 
L 128.857948 217.726805 
L 131.693879 215.5655 
L 134.529809 213.404195 
L 137.36574 211.242889 
L 140.201671 209.081584 
L 143.037602 206.920279 
L 145.873533 204.758974 
L 148.709464 202.597668 
L 151.545395 200.436363 
L 154.381326 198.275058 
L 157.217257 196.113753 
L 160.053188 193.952447 
L 162.889119 191.791142 
L 165.72505 189.629837 
L 168.560981 187.468532 
L 171.396911 185.307226 
L 174.232842 183.145921 
L 177.068773 180.984616 
L 179.904704 178.823311 
L 182.740635 176.662005 
L 185.576566 174.5007 
L 188.412497 172.339395 
L 191.248428 170.17809 
L 194.084359 168.016784 
L 196.92029 165.855479 
L 199.756221 163.694174 
L 202.592152 161.532869 
L 205.428083 159.371563 
L 208.264014 157.210258 
L 211.099944 155.048953 
L 213.935875 152.887648 
L 216.771806 150.726342 
L 219.607737 148.565037 
L 222.443668 146.403732 
L 225.279599 144.242427 
L 228.11553 142.081121 
L 230.951461 139.919816 
L 233.787392 137.758511 
L 236.623323 135.597206 
L 239.459254 133.4359 
L 242.295185 131.274595 
L 245.131116 129.11329 
L 247.967046 126.951985 
L 250.802977 124.790679 
L 253.638908 122.629374 
L 256.474839 120.468069 
L 259.31077 118.306764 
L 262.146701 116.145458 
L 264.982632 113.984153 
L 267.818563 111.822848 
L 270.654494 109.661543 
L 273.490425 107.500237 
L 276.326356 105.338932 
L 279.162287 103.177627 
L 281.998218 101.016322 
L 284.834148 98.855016 
L 287.670079 96.693711 
L 290.50601 94.532406 
L 293.341941 92.371101 
L 296.177872 90.209795 
L 299.013803 88.04849 
L 301.849734 85.887185 
L 304.685665 83.72588 
L 307.521596 81.564574 
L 310.357527 79.403269 
L 313.193458 77.241964 
L 316.029389 75.080659 
L 318.86532 72.919353 
L 321.70125 70.758048 
L 324.537181 68.596743 
L 327.373112 66.435438 
L 330.209043 64.274132 
L 333.044974 62.112827 
L 335.880905 59.951522 
L 338.716836 57.790217 
L 341.552767 55.628911 
" clip-path="url(#p8c7afe1cbf)" style="fill: none; stroke: #911c1c; stroke-width: 2.25; stroke-linecap: square"/>
   </g>
   <g id="patch_3">
    <path d="M 46.757747 319.2 
L 46.757747 10.8 
" style="fill: none; stroke: #000000; stroke-width: 0.8; stroke-linejoin: miter; stroke-linecap: square"/>
   </g>
   <g id="patch_4">
    <path d="M 46.757747 319.2 
L 355.590625 319.2 
" style="fill: none; stroke: #000000; stroke-width: 0.8; stroke-linejoin: miter; stroke-linecap: square"/>
   </g>
   <g id="legend_1"/>
  </g>
  <g id="legend_2">
   <g id="text_12">
    <!-- source_x -->
    <g transform="translate(373.553906 175.28125) scale(0.1 -0.1)">
     <defs>
      <path id="DejaVuSans-73" d="M 2834 3397 
L 2834 2853 
Q 2591 2978 2328 3040 
Q 2066 3103 1784 3103 
Q 1356 3103 1142 2972 
Q 928 2841 928 2578 
Q 928 2378 1081 2264 
Q 1234 2150 1697 2047 
L 1894 2003 
Q 2506 1872 2764 1633 
Q 3022 1394 3022 966 
Q 3022 478 2636 193 
Q 2250 -91 1575 -91 
Q 1294 -91 989 -36 
Q 684 19 347 128 
L 347 722 
Q 666 556 975 473 
Q 1284 391 1588 391 
Q 1994 391 2212 530 
Q 2431 669 2431 922 
Q 2431 1156 2273 1281 
Q 2116 1406 1581 1522 
L 1381 1569 
Q 847 1681 609 1914 
Q 372 2147 372 2553 
Q 372 3047 722 3315 
Q 1072 3584 1716 3584 
Q 2034 3584 2315 3537 
Q 2597 3491 2834 3397 
z
" transform="scale(0.015625)"/>
      <path id="DejaVuSans-6f" d="M 1959 3097 
Q 1497 3097 1228 2736 
Q 959 2375 959 1747 
Q 959 1119 1226 758 
Q 1494 397 1959 397 
Q 2419 397 2687 759 
Q 2956 1122 2956 1747 
Q 2956 2369 2687 2733 
Q 2419 3097 1959 3097 
z
M 1959 3584 
Q 2709 3584 3137 3096 
Q 3566 2609 3566 1747 
Q 3566 888 3137 398 
Q 2709 -91 1959 -91 
Q 1206 -91 779 398 
Q 353 888 353 1747 
Q 353 2609 779 3096 
Q 1206 3584 1959 3584 
z
" transform="scale(0.015625)"/>
      <path id="DejaVuSans-75" d="M 544 1381 
L 544 3500 
L 1119 3500 
L 1119 1403 
Q 1119 906 1312 657 
Q 1506 409 1894 409 
Q 2359 409 2629 706 
Q 2900 1003 2900 1516 
L 2900 3500 
L 3475 3500 
L 3475 0 
L 2900 0 
L 2900 538 
Q 2691 219 2414 64 
Q 2138 -91 1772 -91 
Q 1169 -91 856 284 
Q 544 659 544 1381 
z
M 1991 3584 
L 1991 3584 
z
" transform="scale(0.015625)"/>
      <path id="DejaVuSans-72" d="M 2631 2963 
Q 2534 3019 2420 3045 
Q 2306 3072 2169 3072 
Q 1681 3072 1420 2755 
Q 1159 2438 1159 1844 
L 1159 0 
L 581 0 
L 581 3500 
L 1159 3500 
L 1159 2956 
Q 1341 3275 1631 3429 
Q 1922 3584 2338 3584 
Q 2397 3584 2469 3576 
Q 2541 3569 2628 3553 
L 2631 2963 
z
" transform="scale(0.015625)"/>
      <path id="DejaVuSans-63" d="M 3122 3366 
L 3122 2828 
Q 2878 2963 2633 3030 
Q 2388 3097 2138 3097 
Q 1578 3097 1268 2742 
Q 959 2388 959 1747 
Q 959 1106 1268 751 
Q 1578 397 2138 397 
Q 2388 397 2633 464 
Q 2878 531 3122 666 
L 3122 134 
Q 2881 22 2623 -34 
Q 2366 -91 2075 -91 
Q 1284 -91 818 406 
Q 353 903 353 1747 
Q 353 2603 823 3093 
Q 1294 3584 2113 3584 
Q 2378 3584 2631 3529 
Q 2884 3475 3122 3366 
z
" transform="scale(0.015625)"/>
      <path id="DejaVuSans-65" d="M 3597 1894 
L 3597 1613 
L 953 1613 
Q 991 1019 1311 708 
Q 1631 397 2203 397 
Q 2534 397 2845 478 
Q 3156 559 3463 722 
L 3463 178 
Q 3153 47 2828 -22 
Q 2503 -91 2169 -91 
Q 1331 -91 842 396 
Q 353 884 353 1716 
Q 353 2575 817 3079 
Q 1281 3584 2069 3584 
Q 2775 3584 3186 3129 
Q 3597 2675 3597 1894 
z
M 3022 2063 
Q 3016 2534 2758 2815 
Q 2500 3097 2075 3097 
Q 1594 3097 1305 2825 
Q 1016 2553 972 2059 
L 3022 2063 
z
" transform="scale(0.015625)"/>
      <path id="DejaVuSans-5f" d="M 3263 -1063 
L 3263 -1509 
L -63 -1509 
L -63 -1063 
L 3263 -1063 
z
" transform="scale(0.015625)"/>
      <path id="DejaVuSans-78" d="M 3513 3500 
L 2247 1797 
L 3578 0 
L 2900 0 
L 1881 1375 
L 863 0 
L 184 0 
L 1544 1831 
L 300 3500 
L 978 3500 
L 1906 2253 
L 2834 3500 
L 3513 3500 
z
" transform="scale(0.015625)"/>
     </defs>
     <use xlink:href="#DejaVuSans-73"/>
     <use xlink:href="#DejaVuSans-6f" x="52.099609"/>
     <use xlink:href="#DejaVuSans-75" x="113.28125"/>
     <use xlink:href="#DejaVuSans-72" x="176.660156"/>
     <use xlink:href="#DejaVuSans-63" x="215.523438"/>
     <use xlink:href="#DejaVuSans-65" x="270.503906"/>
     <use xlink:href="#DejaVuSans-5f" x="332.027344"/>
     <use xlink:href="#DejaVuSans-78" x="382.027344"/>
    </g>
   </g>
   <g id="PathCollection_2">
    <g>
     <use xlink:href="#mdd3d352c35" x="369.292188" y="187.6125" style="fill: #911c1c; fill-opacity: 0.8; stroke: #911c1c; stroke-opacity: 0.8"/>
    </g>
   </g>
   <g id="text_13">
    <!-- forehead -->
    <g transform="translate(387.292188 190.2375) scale(0.1 -0.1)">
     <defs>
      <path id="DejaVuSans-66" d="M 2375 4863 
L 2375 4384 
L 1825 4384 
Q 1516 4384 1395 4259 
Q 1275 4134 1275 3809 
L 1275 3500 
L 2222 3500 
L 2222 3053 
L 1275 3053 
L 1275 0 
L 697 0 
L 697 3053 
L 147 3053 
L 147 3500 
L 697 3500 
L 697 3744 
Q 697 4328 969 4595 
Q 1241 4863 1831 4863 
L 2375 4863 
z
" transform="scale(0.015625)"/>
      <path id="DejaVuSans-68" d="M 3513 2113 
L 3513 0 
L 2938 0 
L 2938 2094 
Q 2938 2591 2744 2837 
Q 2550 3084 2163 3084 
Q 1697 3084 1428 2787 
Q 1159 2491 1159 1978 
L 1159 0 
L 581 0 
L 581 4863 
L 1159 4863 
L 1159 2956 
Q 1366 3272 1645 3428 
Q 1925 3584 2291 3584 
Q 2894 3584 3203 3211 
Q 3513 2838 3513 2113 
z
" transform="scale(0.015625)"/>
      <path id="DejaVuSans-61" d="M 2194 1759 
Q 1497 1759 1228 1600 
Q 959 1441 959 1056 
Q 959 750 1161 570 
Q 1363 391 1709 391 
Q 2188 391 2477 730 
Q 2766 1069 2766 1631 
L 2766 1759 
L 2194 1759 
z
M 3341 1997 
L 3341 0 
L 2766 0 
L 2766 531 
Q 2569 213 2275 61 
Q 1981 -91 1556 -91 
Q 1019 -91 701 211 
Q 384 513 384 1019 
Q 384 1609 779 1909 
Q 1175 2209 1959 2209 
L 2766 2209 
L 2766 2266 
Q 2766 2663 2505 2880 
Q 2244 3097 1772 3097 
Q 1472 3097 1187 3025 
Q 903 2953 641 2809 
L 641 3341 
Q 956 3463 1253 3523 
Q 1550 3584 1831 3584 
Q 2591 3584 2966 3190 
Q 3341 2797 3341 1997 
z
" transform="scale(0.015625)"/>
      <path id="DejaVuSans-64" d="M 2906 2969 
L 2906 4863 
L 3481 4863 
L 3481 0 
L 2906 0 
L 2906 525 
Q 2725 213 2448 61 
Q 2172 -91 1784 -91 
Q 1150 -91 751 415 
Q 353 922 353 1747 
Q 353 2572 751 3078 
Q 1150 3584 1784 3584 
Q 2172 3584 2448 3432 
Q 2725 3281 2906 2969 
z
M 947 1747 
Q 947 1113 1208 752 
Q 1469 391 1925 391 
Q 2381 391 2643 752 
Q 2906 1113 2906 1747 
Q 2906 2381 2643 2742 
Q 2381 3103 1925 3103 
Q 1469 3103 1208 2742 
Q 947 2381 947 1747 
z
" transform="scale(0.015625)"/>
     </defs>
     <use xlink:href="#DejaVuSans-66"/>
     <use xlink:href="#DejaVuSans-6f" x="35.205078"/>
     <use xlink:href="#DejaVuSans-72" x="96.386719"/>
     <use xlink:href="#DejaVuSans-65" x="135.25"/>
     <use xlink:href="#DejaVuSans-68" x="196.773438"/>
     <use xlink:href="#DejaVuSans-65" x="260.152344"/>
     <use xlink:href="#DejaVuSans-61" x="321.675781"/>
     <use xlink:href="#DejaVuSans-64" x="382.955078"/>
    </g>
   </g>
  </g>
 </g>
 <defs>
  <clipPath id="p8c7afe1cbf">
   <rect x="46.757747" y="10.8" width="308.832878" height="308.4"/>
  </clipPath>
 </defs>
</svg>
