<?xml version="1.0" encoding="utf-8" standalone="no"?>
<!DOCTYPE svg PUBLIC "-//W3C//DTD SVG 1.1//EN"
  "http://www.w3.org/Graphics/SVG/1.1/DTD/svg11.dtd">
<svg xmlns:xlink="http://www.w3.org/1999/xlink" width="557.021875pt" height="275.727344pt" viewBox="0 0 557.021875 275.727344" xmlns="http://www.w3.org/2000/svg" version="1.1">
 <metadata>
  <rdf:RDF xmlns:dc="http://purl.org/dc/elements/1.1/" xmlns:cc="http://creativecommons.org/ns#" xmlns:rdf="http://www.w3.org/1999/02/22-rdf-syntax-ns#">
   <cc:Work>
    <dc:type rdf:resource="http://purl.org/dc/dcmitype/StillImage"/>
    <dc:date>2025-06-24T11:21:03.113261</dc:date>
    <dc:format>image/svg+xml</dc:format>
    <dc:creator>
     <cc:Agent>
      <dc:title>Matplotlib v3.9.2, https://matplotlib.org/</dc:title>
     </cc:Agent>
    </dc:creator>
   </cc:Work>
  </rdf:RDF>
 </metadata>
 <defs>
  <style type="text/css">*{stroke-linejoin: round; stroke-linecap: butt}</style>
 </defs>
 <g id="figure_1">
  <g id="patch_1">
   <path d="M 0 275.727344 
L 557.021875 275.727344 
L 557.021875 0 
L 0 0 
z
" style="fill: #ffffff"/>
  </g>
  <g id="axes_1">
   <g id="patch_2">
    <path d="M 30.103125 232.759219 
L 309.103125 232.759219 
L 309.103125 10.999219 
L 30.103125 10.999219 
z
" style="fill: #ffffff"/>
   </g>
   <g id="patch_3">
    <path d="M 45.955398 232.759219 
L 103.02358 232.759219 
L 103.02358 182.986784 
L 45.955398 182.986784 
z
" clip-path="url(#p015ba2b97d)" style="fill: #e8702a; stroke: #000000; stroke-width: 0.9; stroke-linejoin: miter"/>
   </g>
   <g id="patch_4">
    <path d="M 109.364489 232.759219 
L 166.43267 232.759219 
L 166.43267 191.214939 
L 109.364489 191.214939 
z
" clip-path="url(#p015ba2b97d)" style="fill: #e8702a; stroke: #000000; stroke-width: 0.9; stroke-linejoin: miter"/>
   </g>
   <g id="patch_5">
    <path d="M 172.77358 232.759219 
L 229.841761 232.759219 
L 229.841761 166.438704 
L 172.77358 166.438704 
z
" clip-path="url(#p015ba2b97d)" style="fill: #e8702a; stroke: #000000; stroke-width: 0.9; stroke-linejoin: miter"/>
   </g>
   <g id="patch_6">
    <path d="M 236.18267 232.759219 
L 293.250852 232.759219 
L 293.250852 166.626171 
L 236.18267 166.626171 
z
" clip-path="url(#p015ba2b97d)" style="fill: #e8702a; stroke: #000000; stroke-width: 0.9; stroke-linejoin: miter"/>
   </g>
   <g id="patch_7">
    <path d="M 45.955398 182.986784 
L 103.02358 182.986784 
L 103.02358 138.520524 
L 45.955398 138.520524 
z
" clip-path="url(#p015ba2b97d)" style="fill: #ff00ff; stroke: #000000; stroke-width: 0.9; stroke-linejoin: miter"/>
   </g>
   <g id="patch_8">
    <path d="M 109.364489 191.214939 
L 166.43267 191.214939 
L 166.43267 140.444072 
L 109.364489 140.444072 
z
" clip-path="url(#p015ba2b97d)" style="fill: #ff00ff; stroke: #000000; stroke-width: 0.9; stroke-linejoin: miter"/>
   </g>
   <g id="patch_9">
    <path d="M 172.77358 232.759219 
L 229.841761 232.759219 
L 229.841761 232.759219 
L 172.77358 232.759219 
z
" clip-path="url(#p015ba2b97d)" style="fill: #ff00ff; stroke: #000000; stroke-width: 0.9; stroke-linejoin: miter"/>
   </g>
   <g id="patch_10">
    <path d="M 236.18267 232.759219 
L 293.250852 232.759219 
L 293.250852 232.759219 
L 236.18267 232.759219 
z
" clip-path="url(#p015ba2b97d)" style="fill: #ff00ff; stroke: #000000; stroke-width: 0.9; stroke-linejoin: miter"/>
   </g>
   <g id="patch_11">
    <path d="M 45.955398 138.520524 
L 103.02358 138.520524 
L 103.02358 126.179124 
L 45.955398 126.179124 
z
" clip-path="url(#p015ba2b97d)" style="fill: #abc32f; stroke: #000000; stroke-width: 0.9; stroke-linejoin: miter"/>
   </g>
   <g id="patch_12">
    <path d="M 109.364489 140.444072 
L 166.43267 140.444072 
L 166.43267 128.028087 
L 109.364489 128.028087 
z
" clip-path="url(#p015ba2b97d)" style="fill: #abc32f; stroke: #000000; stroke-width: 0.9; stroke-linejoin: miter"/>
   </g>
   <g id="patch_13">
    <path d="M 172.77358 232.759219 
L 229.841761 232.759219 
L 229.841761 232.759219 
L 172.77358 232.759219 
z
" clip-path="url(#p015ba2b97d)" style="fill: #abc32f; stroke: #000000; stroke-width: 0.9; stroke-linejoin: miter"/>
   </g>
   <g id="patch_14">
    <path d="M 236.18267 166.626171 
L 293.250852 166.626171 
L 293.250852 119.468893 
L 236.18267 119.468893 
z
" clip-path="url(#p015ba2b97d)" style="fill: #abc32f; stroke: #000000; stroke-width: 0.9; stroke-linejoin: miter"/>
   </g>
   <g id="patch_15">
    <path d="M 45.955398 232.759219 
L 103.02358 232.759219 
L 103.02358 232.759219 
L 45.955398 232.759219 
z
" clip-path="url(#p015ba2b97d)" style="fill: #ffa900; stroke: #000000; stroke-width: 0.9; stroke-linejoin: miter"/>
   </g>
   <g id="patch_16">
    <path d="M 109.364489 232.759219 
L 166.43267 232.759219 
L 166.43267 232.759219 
L 109.364489 232.759219 
z
" clip-path="url(#p015ba2b97d)" style="fill: #ffa900; stroke: #000000; stroke-width: 0.9; stroke-linejoin: miter"/>
   </g>
   <g id="patch_17">
    <path d="M 172.77358 166.438704 
L 229.841761 166.438704 
L 229.841761 99.61391 
L 172.77358 99.61391 
z
" clip-path="url(#p015ba2b97d)" style="fill: #ffa900; stroke: #000000; stroke-width: 0.9; stroke-linejoin: miter"/>
   </g>
   <g id="patch_18">
    <path d="M 236.18267 119.468893 
L 293.250852 119.468893 
L 293.250852 115.049458 
L 236.18267 115.049458 
z
" clip-path="url(#p015ba2b97d)" style="fill: #ffa900; stroke: #000000; stroke-width: 0.9; stroke-linejoin: miter"/>
   </g>
   <g id="patch_19">
    <path d="M 45.955398 126.179124 
L 103.02358 126.179124 
L 103.02358 107.12061 
L 45.955398 107.12061 
z
" clip-path="url(#p015ba2b97d)" style="fill: #306f60; stroke: #000000; stroke-width: 0.9; stroke-linejoin: miter"/>
   </g>
   <g id="patch_20">
    <path d="M 109.364489 128.028087 
L 166.43267 128.028087 
L 166.43267 106.126027 
L 109.364489 106.126027 
z
" clip-path="url(#p015ba2b97d)" style="fill: #306f60; stroke: #000000; stroke-width: 0.9; stroke-linejoin: miter"/>
   </g>
   <g id="patch_21">
    <path d="M 172.77358 232.759219 
L 229.841761 232.759219 
L 229.841761 232.759219 
L 172.77358 232.759219 
z
" clip-path="url(#p015ba2b97d)" style="fill: #306f60; stroke: #000000; stroke-width: 0.9; stroke-linejoin: miter"/>
   </g>
   <g id="patch_22">
    <path d="M 236.18267 115.049458 
L 293.250852 115.049458 
L 293.250852 85.6592 
L 236.18267 85.6592 
z
" clip-path="url(#p015ba2b97d)" style="fill: #306f60; stroke: #000000; stroke-width: 0.9; stroke-linejoin: miter"/>
   </g>
   <g id="patch_23">
    <path d="M 45.955398 107.12061 
L 103.02358 107.12061 
L 103.02358 76.415346 
L 45.955398 76.415346 
z
" clip-path="url(#p015ba2b97d)" style="fill: #cddc98; stroke: #000000; stroke-width: 0.9; stroke-linejoin: miter"/>
   </g>
   <g id="patch_24">
    <path d="M 109.364489 106.126027 
L 166.43267 106.126027 
L 166.43267 78.77473 
L 109.364489 78.77473 
z
" clip-path="url(#p015ba2b97d)" style="fill: #cddc98; stroke: #000000; stroke-width: 0.9; stroke-linejoin: miter"/>
   </g>
   <g id="patch_25">
    <path d="M 172.77358 232.759219 
L 229.841761 232.759219 
L 229.841761 232.759219 
L 172.77358 232.759219 
z
" clip-path="url(#p015ba2b97d)" style="fill: #cddc98; stroke: #000000; stroke-width: 0.9; stroke-linejoin: miter"/>
   </g>
   <g id="patch_26">
    <path d="M 236.18267 232.759219 
L 293.250852 232.759219 
L 293.250852 232.759219 
L 236.18267 232.759219 
z
" clip-path="url(#p015ba2b97d)" style="fill: #cddc98; stroke: #000000; stroke-width: 0.9; stroke-linejoin: miter"/>
   </g>
   <g id="patch_27">
    <path d="M 45.955398 76.415346 
L 103.02358 76.415346 
L 103.02358 64.885453 
L 45.955398 64.885453 
z
" clip-path="url(#p015ba2b97d)" style="fill: #aa494a; stroke: #000000; stroke-width: 0.9; stroke-linejoin: miter"/>
   </g>
   <g id="patch_28">
    <path d="M 109.364489 78.77473 
L 166.43267 78.77473 
L 166.43267 67.803992 
L 109.364489 67.803992 
z
" clip-path="url(#p015ba2b97d)" style="fill: #aa494a; stroke: #000000; stroke-width: 0.9; stroke-linejoin: miter"/>
   </g>
   <g id="patch_29">
    <path d="M 172.77358 99.61391 
L 229.841761 99.61391 
L 229.841761 82.693733 
L 172.77358 82.693733 
z
" clip-path="url(#p015ba2b97d)" style="fill: #aa494a; stroke: #000000; stroke-width: 0.9; stroke-linejoin: miter"/>
   </g>
   <g id="patch_30">
    <path d="M 236.18267 85.6592 
L 293.250852 85.6592 
L 293.250852 68.642656 
L 236.18267 68.642656 
z
" clip-path="url(#p015ba2b97d)" style="fill: #aa494a; stroke: #000000; stroke-width: 0.9; stroke-linejoin: miter"/>
   </g>
   <g id="patch_31">
    <path d="M 45.955398 64.885453 
L 103.02358 64.885453 
L 103.02358 46.815895 
L 45.955398 46.815895 
z
" clip-path="url(#p015ba2b97d)" style="fill: #b0e4f4; stroke: #000000; stroke-width: 0.9; stroke-linejoin: miter"/>
   </g>
   <g id="patch_32">
    <path d="M 109.364489 67.803992 
L 166.43267 67.803992 
L 166.43267 48.096079 
L 109.364489 48.096079 
z
" clip-path="url(#p015ba2b97d)" style="fill: #b0e4f4; stroke: #000000; stroke-width: 0.9; stroke-linejoin: miter"/>
   </g>
   <g id="patch_33">
    <path d="M 172.77358 232.759219 
L 229.841761 232.759219 
L 229.841761 232.759219 
L 172.77358 232.759219 
z
" clip-path="url(#p015ba2b97d)" style="fill: #b0e4f4; stroke: #000000; stroke-width: 0.9; stroke-linejoin: miter"/>
   </g>
   <g id="patch_34">
    <path d="M 236.18267 232.759219 
L 293.250852 232.759219 
L 293.250852 232.759219 
L 236.18267 232.759219 
z
" clip-path="url(#p015ba2b97d)" style="fill: #b0e4f4; stroke: #000000; stroke-width: 0.9; stroke-linejoin: miter"/>
   </g>
   <g id="patch_35">
    <path d="M 45.955398 232.759219 
L 103.02358 232.759219 
L 103.02358 232.759219 
L 45.955398 232.759219 
z
" clip-path="url(#p015ba2b97d)" style="fill: #68af2c; stroke: #000000; stroke-width: 0.9; stroke-linejoin: miter"/>
   </g>
   <g id="patch_36">
    <path d="M 109.364489 232.759219 
L 166.43267 232.759219 
L 166.43267 232.759219 
L 109.364489 232.759219 
z
" clip-path="url(#p015ba2b97d)" style="fill: #68af2c; stroke: #000000; stroke-width: 0.9; stroke-linejoin: miter"/>
   </g>
   <g id="patch_37">
    <path d="M 172.77358 82.693733 
L 229.841761 82.693733 
L 229.841761 73.160874 
L 172.77358 73.160874 
z
" clip-path="url(#p015ba2b97d)" style="fill: #68af2c; stroke: #000000; stroke-width: 0.9; stroke-linejoin: miter"/>
   </g>
   <g id="patch_38">
    <path d="M 236.18267 68.642656 
L 293.250852 68.642656 
L 293.250852 56.538782 
L 236.18267 56.538782 
z
" clip-path="url(#p015ba2b97d)" style="fill: #68af2c; stroke: #000000; stroke-width: 0.9; stroke-linejoin: miter"/>
   </g>
   <g id="patch_39">
    <path d="M 45.955398 232.759219 
L 103.02358 232.759219 
L 103.02358 232.759219 
L 45.955398 232.759219 
z
" clip-path="url(#p015ba2b97d)" style="fill: #407e83; stroke: #000000; stroke-width: 0.9; stroke-linejoin: miter"/>
   </g>
   <g id="patch_40">
    <path d="M 109.364489 232.759219 
L 166.43267 232.759219 
L 166.43267 232.759219 
L 109.364489 232.759219 
z
" clip-path="url(#p015ba2b97d)" style="fill: #407e83; stroke: #000000; stroke-width: 0.9; stroke-linejoin: miter"/>
   </g>
   <g id="patch_41">
    <path d="M 172.77358 73.160874 
L 229.841761 73.160874 
L 229.841761 55.589796 
L 172.77358 55.589796 
z
" clip-path="url(#p015ba2b97d)" style="fill: #407e83; stroke: #000000; stroke-width: 0.9; stroke-linejoin: miter"/>
   </g>
   <g id="patch_42">
    <path d="M 236.18267 56.538782 
L 293.250852 56.538782 
L 293.250852 55.100779 
L 236.18267 55.100779 
z
" clip-path="url(#p015ba2b97d)" style="fill: #407e83; stroke: #000000; stroke-width: 0.9; stroke-linejoin: miter"/>
   </g>
   <g id="patch_43">
    <path d="M 45.955398 232.759219 
L 103.02358 232.759219 
L 103.02358 232.759219 
L 45.955398 232.759219 
z
" clip-path="url(#p015ba2b97d)" style="fill: #e9da5e; stroke: #000000; stroke-width: 0.9; stroke-linejoin: miter"/>
   </g>
   <g id="patch_44">
    <path d="M 109.364489 232.759219 
L 166.43267 232.759219 
L 166.43267 232.759219 
L 109.364489 232.759219 
z
" clip-path="url(#p015ba2b97d)" style="fill: #e9da5e; stroke: #000000; stroke-width: 0.9; stroke-linejoin: miter"/>
   </g>
   <g id="patch_45">
    <path d="M 172.77358 55.589796 
L 229.841761 55.589796 
L 229.841761 46.257496 
L 172.77358 46.257496 
z
" clip-path="url(#p015ba2b97d)" style="fill: #e9da5e; stroke: #000000; stroke-width: 0.9; stroke-linejoin: miter"/>
   </g>
   <g id="patch_46">
    <path d="M 236.18267 55.100779 
L 293.250852 55.100779 
L 293.250852 45.784172 
L 236.18267 45.784172 
z
" clip-path="url(#p015ba2b97d)" style="fill: #e9da5e; stroke: #000000; stroke-width: 0.9; stroke-linejoin: miter"/>
   </g>
   <g id="patch_47">
    <path d="M 45.955398 232.759219 
L 103.02358 232.759219 
L 103.02358 232.759219 
L 45.955398 232.759219 
z
" clip-path="url(#p015ba2b97d)" style="fill: #0c457d; stroke: #000000; stroke-width: 0.9; stroke-linejoin: miter"/>
   </g>
   <g id="patch_48">
    <path d="M 109.364489 232.759219 
L 166.43267 232.759219 
L 166.43267 232.759219 
L 109.364489 232.759219 
z
" clip-path="url(#p015ba2b97d)" style="fill: #0c457d; stroke: #000000; stroke-width: 0.9; stroke-linejoin: miter"/>
   </g>
   <g id="patch_49">
    <path d="M 172.77358 46.257496 
L 229.841761 46.257496 
L 229.841761 38.87476 
L 172.77358 38.87476 
z
" clip-path="url(#p015ba2b97d)" style="fill: #0c457d; stroke: #000000; stroke-width: 0.9; stroke-linejoin: miter"/>
   </g>
   <g id="patch_50">
    <path d="M 236.18267 45.784172 
L 293.250852 45.784172 
L 293.250852 36.617397 
L 236.18267 36.617397 
z
" clip-path="url(#p015ba2b97d)" style="fill: #0c457d; stroke: #000000; stroke-width: 0.9; stroke-linejoin: miter"/>
   </g>
   <g id="patch_51">
    <path d="M 45.955398 46.815895 
L 103.02358 46.815895 
L 103.02358 40.512108 
L 45.955398 40.512108 
z
" clip-path="url(#p015ba2b97d)" style="fill: #86a086; stroke: #000000; stroke-width: 0.9; stroke-linejoin: miter"/>
   </g>
   <g id="patch_52">
    <path d="M 109.364489 48.096079 
L 166.43267 48.096079 
L 166.43267 41.470936 
L 109.364489 41.470936 
z
" clip-path="url(#p015ba2b97d)" style="fill: #86a086; stroke: #000000; stroke-width: 0.9; stroke-linejoin: miter"/>
   </g>
   <g id="patch_53">
    <path d="M 172.77358 232.759219 
L 229.841761 232.759219 
L 229.841761 232.759219 
L 172.77358 232.759219 
z
" clip-path="url(#p015ba2b97d)" style="fill: #86a086; stroke: #000000; stroke-width: 0.9; stroke-linejoin: miter"/>
   </g>
   <g id="patch_54">
    <path d="M 236.18267 232.759219 
L 293.250852 232.759219 
L 293.250852 232.759219 
L 236.18267 232.759219 
z
" clip-path="url(#p015ba2b97d)" style="fill: #86a086; stroke: #000000; stroke-width: 0.9; stroke-linejoin: miter"/>
   </g>
   <g id="patch_55">
    <path d="M 45.955398 232.759219 
L 103.02358 232.759219 
L 103.02358 232.759219 
L 45.955398 232.759219 
z
" clip-path="url(#p015ba2b97d)" style="fill: #2aa2e8; stroke: #000000; stroke-width: 0.9; stroke-linejoin: miter"/>
   </g>
   <g id="patch_56">
    <path d="M 109.364489 232.759219 
L 166.43267 232.759219 
L 166.43267 232.759219 
L 109.364489 232.759219 
z
" clip-path="url(#p015ba2b97d)" style="fill: #2aa2e8; stroke: #000000; stroke-width: 0.9; stroke-linejoin: miter"/>
   </g>
   <g id="patch_57">
    <path d="M 172.77358 38.87476 
L 229.841761 38.87476 
L 229.841761 26.711195 
L 172.77358 26.711195 
z
" clip-path="url(#p015ba2b97d)" style="fill: #2aa2e8; stroke: #000000; stroke-width: 0.9; stroke-linejoin: miter"/>
   </g>
   <g id="patch_58">
    <path d="M 236.18267 232.759219 
L 293.250852 232.759219 
L 293.250852 232.759219 
L 236.18267 232.759219 
z
" clip-path="url(#p015ba2b97d)" style="fill: #2aa2e8; stroke: #000000; stroke-width: 0.9; stroke-linejoin: miter"/>
   </g>
   <g id="patch_59">
    <path d="M 45.955398 40.512108 
L 103.02358 40.512108 
L 103.02358 34.71903 
L 45.955398 34.71903 
z
" clip-path="url(#p015ba2b97d)" style="fill: #006884; stroke: #000000; stroke-width: 0.9; stroke-linejoin: miter"/>
   </g>
   <g id="patch_60">
    <path d="M 109.364489 41.470936 
L 166.43267 41.470936 
L 166.43267 35.634109 
L 109.364489 35.634109 
z
" clip-path="url(#p015ba2b97d)" style="fill: #006884; stroke: #000000; stroke-width: 0.9; stroke-linejoin: miter"/>
   </g>
   <g id="patch_61">
    <path d="M 172.77358 232.759219 
L 229.841761 232.759219 
L 229.841761 232.759219 
L 172.77358 232.759219 
z
" clip-path="url(#p015ba2b97d)" style="fill: #006884; stroke: #000000; stroke-width: 0.9; stroke-linejoin: miter"/>
   </g>
   <g id="patch_62">
    <path d="M 236.18267 232.759219 
L 293.250852 232.759219 
L 293.250852 232.759219 
L 236.18267 232.759219 
z
" clip-path="url(#p015ba2b97d)" style="fill: #006884; stroke: #000000; stroke-width: 0.9; stroke-linejoin: miter"/>
   </g>
   <g id="patch_63">
    <path d="M 45.955398 34.71903 
L 103.02358 34.71903 
L 103.02358 30.126982 
L 45.955398 30.126982 
z
" clip-path="url(#p015ba2b97d)" style="fill: #a9a9a9; stroke: #000000; stroke-width: 0.9; stroke-linejoin: miter"/>
   </g>
   <g id="patch_64">
    <path d="M 109.364489 35.634109 
L 166.43267 35.634109 
L 166.43267 30.677569 
L 109.364489 30.677569 
z
" clip-path="url(#p015ba2b97d)" style="fill: #a9a9a9; stroke: #000000; stroke-width: 0.9; stroke-linejoin: miter"/>
   </g>
   <g id="patch_65">
    <path d="M 172.77358 232.759219 
L 229.841761 232.759219 
L 229.841761 232.759219 
L 172.77358 232.759219 
z
" clip-path="url(#p015ba2b97d)" style="fill: #a9a9a9; stroke: #000000; stroke-width: 0.9; stroke-linejoin: miter"/>
   </g>
   <g id="patch_66">
    <path d="M 236.18267 232.759219 
L 293.250852 232.759219 
L 293.250852 232.759219 
L 236.18267 232.759219 
z
" clip-path="url(#p015ba2b97d)" style="fill: #a9a9a9; stroke: #000000; stroke-width: 0.9; stroke-linejoin: miter"/>
   </g>
   <g id="patch_67">
    <path d="M 45.955398 30.126982 
L 103.02358 30.126982 
L 103.02358 10.999219 
L 45.955398 10.999219 
z
" clip-path="url(#p015ba2b97d)" style="fill: #d3d3d3; stroke: #000000; stroke-width: 0.9; stroke-linejoin: miter"/>
   </g>
   <g id="patch_68">
    <path d="M 109.364489 30.677569 
L 166.43267 30.677569 
L 166.43267 10.999219 
L 109.364489 10.999219 
z
" clip-path="url(#p015ba2b97d)" style="fill: #d3d3d3; stroke: #000000; stroke-width: 0.9; stroke-linejoin: miter"/>
   </g>
   <g id="patch_69">
    <path d="M 172.77358 26.711195 
L 229.841761 26.711195 
L 229.841761 10.999219 
L 172.77358 10.999219 
z
" clip-path="url(#p015ba2b97d)" style="fill: #d3d3d3; stroke: #000000; stroke-width: 0.9; stroke-linejoin: miter"/>
   </g>
   <g id="patch_70">
    <path d="M 236.18267 36.617397 
L 293.250852 36.617397 
L 293.250852 10.999219 
L 236.18267 10.999219 
z
" clip-path="url(#p015ba2b97d)" style="fill: #d3d3d3; stroke: #000000; stroke-width: 0.9; stroke-linejoin: miter"/>
   </g>
   <g id="matplotlib.axis_1"/>
   <g id="matplotlib.axis_2">
    <g id="ytick_1">
     <g id="line2d_1">
      <defs>
       <path id="m4fdf2b70a2" d="M 0 0 
L -3.5 0 
" style="stroke: #000000; stroke-width: 0.8"/>
      </defs>
      <g>
       <use xlink:href="#m4fdf2b70a2" x="30.103125" y="232.759219" style="stroke: #000000; stroke-width: 0.8"/>
      </g>
     </g>
     <g id="text_1">
      <!-- 0.0 -->
      <g transform="translate(7.2 236.558437) scale(0.1 -0.1)">
       <defs>
        <path id="DejaVuSans-30" d="M 2034 4250 
Q 1547 4250 1301 3770 
Q 1056 3291 1056 2328 
Q 1056 1369 1301 889 
Q 1547 409 2034 409 
Q 2525 409 2770 889 
Q 3016 1369 3016 2328 
Q 3016 3291 2770 3770 
Q 2525 4250 2034 4250 
z
M 2034 4750 
Q 2819 4750 3233 4129 
Q 3647 3509 3647 2328 
Q 3647 1150 3233 529 
Q 2819 -91 2034 -91 
Q 1250 -91 836 529 
Q 422 1150 422 2328 
Q 422 3509 836 4129 
Q 1250 4750 2034 4750 
z
" transform="scale(0.015625)"/>
        <path id="DejaVuSans-2e" d="M 684 794 
L 1344 794 
L 1344 0 
L 684 0 
L 684 794 
z
" transform="scale(0.015625)"/>
       </defs>
       <use xlink:href="#DejaVuSans-30"/>
       <use xlink:href="#DejaVuSans-2e" x="63.623047"/>
       <use xlink:href="#DejaVuSans-30" x="95.410156"/>
      </g>
     </g>
    </g>
    <g id="ytick_2">
     <g id="line2d_2">
      <g>
       <use xlink:href="#m4fdf2b70a2" x="30.103125" y="188.407219" style="stroke: #000000; stroke-width: 0.8"/>
      </g>
     </g>
     <g id="text_2">
      <!-- 0.2 -->
      <g transform="translate(7.2 192.206437) scale(0.1 -0.1)">
       <defs>
        <path id="DejaVuSans-32" d="M 1228 531 
L 3431 531 
L 3431 0 
L 469 0 
L 469 531 
Q 828 903 1448 1529 
Q 2069 2156 2228 2338 
Q 2531 2678 2651 2914 
Q 2772 3150 2772 3378 
Q 2772 3750 2511 3984 
Q 2250 4219 1831 4219 
Q 1534 4219 1204 4116 
Q 875 4013 500 3803 
L 500 4441 
Q 881 4594 1212 4672 
Q 1544 4750 1819 4750 
Q 2544 4750 2975 4387 
Q 3406 4025 3406 3419 
Q 3406 3131 3298 2873 
Q 3191 2616 2906 2266 
Q 2828 2175 2409 1742 
Q 1991 1309 1228 531 
z
" transform="scale(0.015625)"/>
       </defs>
       <use xlink:href="#DejaVuSans-30"/>
       <use xlink:href="#DejaVuSans-2e" x="63.623047"/>
       <use xlink:href="#DejaVuSans-32" x="95.410156"/>
      </g>
     </g>
    </g>
    <g id="ytick_3">
     <g id="line2d_3">
      <g>
       <use xlink:href="#m4fdf2b70a2" x="30.103125" y="144.055219" style="stroke: #000000; stroke-width: 0.8"/>
      </g>
     </g>
     <g id="text_3">
      <!-- 0.4 -->
      <g transform="translate(7.2 147.854437) scale(0.1 -0.1)">
       <defs>
        <path id="DejaVuSans-34" d="M 2419 4116 
L 825 1625 
L 2419 1625 
L 2419 4116 
z
M 2253 4666 
L 3047 4666 
L 3047 1625 
L 3713 1625 
L 3713 1100 
L 3047 1100 
L 3047 0 
L 2419 0 
L 2419 1100 
L 313 1100 
L 313 1709 
L 2253 4666 
z
" transform="scale(0.015625)"/>
       </defs>
       <use xlink:href="#DejaVuSans-30"/>
       <use xlink:href="#DejaVuSans-2e" x="63.623047"/>
       <use xlink:href="#DejaVuSans-34" x="95.410156"/>
      </g>
     </g>
    </g>
    <g id="ytick_4">
     <g id="line2d_4">
      <g>
       <use xlink:href="#m4fdf2b70a2" x="30.103125" y="99.703219" style="stroke: #000000; stroke-width: 0.8"/>
      </g>
     </g>
     <g id="text_4">
      <!-- 0.6 -->
      <g transform="translate(7.2 103.502437) scale(0.1 -0.1)">
       <defs>
        <path id="DejaVuSans-36" d="M 2113 2584 
Q 1688 2584 1439 2293 
Q 1191 2003 1191 1497 
Q 1191 994 1439 701 
Q 1688 409 2113 409 
Q 2538 409 2786 701 
Q 3034 994 3034 1497 
Q 3034 2003 2786 2293 
Q 2538 2584 2113 2584 
z
M 3366 4563 
L 3366 3988 
Q 3128 4100 2886 4159 
Q 2644 4219 2406 4219 
Q 1781 4219 1451 3797 
Q 1122 3375 1075 2522 
Q 1259 2794 1537 2939 
Q 1816 3084 2150 3084 
Q 2853 3084 3261 2657 
Q 3669 2231 3669 1497 
Q 3669 778 3244 343 
Q 2819 -91 2113 -91 
Q 1303 -91 875 529 
Q 447 1150 447 2328 
Q 447 3434 972 4092 
Q 1497 4750 2381 4750 
Q 2619 4750 2861 4703 
Q 3103 4656 3366 4563 
z
" transform="scale(0.015625)"/>
       </defs>
       <use xlink:href="#DejaVuSans-30"/>
       <use xlink:href="#DejaVuSans-2e" x="63.623047"/>
       <use xlink:href="#DejaVuSans-36" x="95.410156"/>
      </g>
     </g>
    </g>
    <g id="ytick_5">
     <g id="line2d_5">
      <g>
       <use xlink:href="#m4fdf2b70a2" x="30.103125" y="55.351219" style="stroke: #000000; stroke-width: 0.8"/>
      </g>
     </g>
     <g id="text_5">
      <!-- 0.8 -->
      <g transform="translate(7.2 59.150437) scale(0.1 -0.1)">
       <defs>
        <path id="DejaVuSans-38" d="M 2034 2216 
Q 1584 2216 1326 1975 
Q 1069 1734 1069 1313 
Q 1069 891 1326 650 
Q 1584 409 2034 409 
Q 2484 409 2743 651 
Q 3003 894 3003 1313 
Q 3003 1734 2745 1975 
Q 2488 2216 2034 2216 
z
M 1403 2484 
Q 997 2584 770 2862 
Q 544 3141 544 3541 
Q 544 4100 942 4425 
Q 1341 4750 2034 4750 
Q 2731 4750 3128 4425 
Q 3525 4100 3525 3541 
Q 3525 3141 3298 2862 
Q 3072 2584 2669 2484 
Q 3125 2378 3379 2068 
Q 3634 1759 3634 1313 
Q 3634 634 3220 271 
Q 2806 -91 2034 -91 
Q 1263 -91 848 271 
Q 434 634 434 1313 
Q 434 1759 690 2068 
Q 947 2378 1403 2484 
z
M 1172 3481 
Q 1172 3119 1398 2916 
Q 1625 2713 2034 2713 
Q 2441 2713 2670 2916 
Q 2900 3119 2900 3481 
Q 2900 3844 2670 4047 
Q 2441 4250 2034 4250 
Q 1625 4250 1398 4047 
Q 1172 3844 1172 3481 
z
" transform="scale(0.015625)"/>
       </defs>
       <use xlink:href="#DejaVuSans-30"/>
       <use xlink:href="#DejaVuSans-2e" x="63.623047"/>
       <use xlink:href="#DejaVuSans-38" x="95.410156"/>
      </g>
     </g>
    </g>
    <g id="ytick_6">
     <g id="line2d_6">
      <g>
       <use xlink:href="#m4fdf2b70a2" x="30.103125" y="10.999219" style="stroke: #000000; stroke-width: 0.8"/>
      </g>
     </g>
     <g id="text_6">
      <!-- 1.0 -->
      <g transform="translate(7.2 14.798438) scale(0.1 -0.1)">
       <defs>
        <path id="DejaVuSans-31" d="M 794 531 
L 1825 531 
L 1825 4091 
L 703 3866 
L 703 4441 
L 1819 4666 
L 2450 4666 
L 2450 531 
L 3481 531 
L 3481 0 
L 794 0 
L 794 531 
z
" transform="scale(0.015625)"/>
       </defs>
       <use xlink:href="#DejaVuSans-31"/>
       <use xlink:href="#DejaVuSans-2e" x="63.623047"/>
       <use xlink:href="#DejaVuSans-30" x="95.410156"/>
      </g>
     </g>
    </g>
   </g>
   <g id="patch_71">
    <path d="M 30.103125 232.759219 
L 30.103125 10.999219 
" style="fill: none; stroke: #000000; stroke-width: 0.8; stroke-linejoin: miter; stroke-linecap: square"/>
   </g>
   <g id="patch_72">
    <path d="M 309.103125 232.759219 
L 309.103125 10.999219 
" style="fill: none; stroke: #000000; stroke-width: 0.8; stroke-linejoin: miter; stroke-linecap: square"/>
   </g>
   <g id="patch_73">
    <path d="M 30.103125 232.759219 
L 309.103125 232.759219 
" style="fill: none; stroke: #000000; stroke-width: 0.8; stroke-linejoin: miter; stroke-linecap: square"/>
   </g>
   <g id="patch_74">
    <path d="M 30.103125 10.999219 
L 309.103125 10.999219 
" style="fill: none; stroke: #000000; stroke-width: 0.8; stroke-linejoin: miter; stroke-linecap: square"/>
   </g>
   <g id="legend_1">
    <g id="patch_75">
     <path d="M 316.103125 268.527344 
L 547.821875 268.527344 
Q 549.821875 268.527344 549.821875 266.527344 
L 549.821875 17.999219 
Q 549.821875 15.999219 547.821875 15.999219 
L 316.103125 15.999219 
Q 314.103125 15.999219 314.103125 17.999219 
L 314.103125 266.527344 
Q 314.103125 268.527344 316.103125 268.527344 
z
" style="fill: #ffffff; opacity: 0.8; stroke: #cccccc; stroke-linejoin: miter"/>
    </g>
    <g id="patch_76">
     <path d="M 318.103125 27.597656 
L 338.103125 27.597656 
L 338.103125 20.597656 
L 318.103125 20.597656 
z
" style="fill: #e8702a; stroke: #000000; stroke-width: 0.9; stroke-linejoin: miter"/>
    </g>
    <g id="text_7">
     <!-- Cutibacterium acnes -->
     <g transform="translate(346.103125 27.597656) scale(0.1 -0.1)">
      <defs>
       <path id="DejaVuSans-43" d="M 4122 4306 
L 4122 3641 
Q 3803 3938 3442 4084 
Q 3081 4231 2675 4231 
Q 1875 4231 1450 3742 
Q 1025 3253 1025 2328 
Q 1025 1406 1450 917 
Q 1875 428 2675 428 
Q 3081 428 3442 575 
Q 3803 722 4122 1019 
L 4122 359 
Q 3791 134 3420 21 
Q 3050 -91 2638 -91 
Q 1578 -91 968 557 
Q 359 1206 359 2328 
Q 359 3453 968 4101 
Q 1578 4750 2638 4750 
Q 3056 4750 3426 4639 
Q 3797 4528 4122 4306 
z
" transform="scale(0.015625)"/>
       <path id="DejaVuSans-75" d="M 544 1381 
L 544 3500 
L 1119 3500 
L 1119 1403 
Q 1119 906 1312 657 
Q 1506 409 1894 409 
Q 2359 409 2629 706 
Q 2900 1003 2900 1516 
L 2900 3500 
L 3475 3500 
L 3475 0 
L 2900 0 
L 2900 538 
Q 2691 219 2414 64 
Q 2138 -91 1772 -91 
Q 1169 -91 856 284 
Q 544 659 544 1381 
z
M 1991 3584 
L 1991 3584 
z
" transform="scale(0.015625)"/>
       <path id="DejaVuSans-74" d="M 1172 4494 
L 1172 3500 
L 2356 3500 
L 2356 3053 
L 1172 3053 
L 1172 1153 
Q 1172 725 1289 603 
Q 1406 481 1766 481 
L 2356 481 
L 2356 0 
L 1766 0 
Q 1100 0 847 248 
Q 594 497 594 1153 
L 594 3053 
L 172 3053 
L 172 3500 
L 594 3500 
L 594 4494 
L 1172 4494 
z
" transform="scale(0.015625)"/>
       <path id="DejaVuSans-69" d="M 603 3500 
L 1178 3500 
L 1178 0 
L 603 0 
L 603 3500 
z
M 603 4863 
L 1178 4863 
L 1178 4134 
L 603 4134 
L 603 4863 
z
" transform="scale(0.015625)"/>
       <path id="DejaVuSans-62" d="M 3116 1747 
Q 3116 2381 2855 2742 
Q 2594 3103 2138 3103 
Q 1681 3103 1420 2742 
Q 1159 2381 1159 1747 
Q 1159 1113 1420 752 
Q 1681 391 2138 391 
Q 2594 391 2855 752 
Q 3116 1113 3116 1747 
z
M 1159 2969 
Q 1341 3281 1617 3432 
Q 1894 3584 2278 3584 
Q 2916 3584 3314 3078 
Q 3713 2572 3713 1747 
Q 3713 922 3314 415 
Q 2916 -91 2278 -91 
Q 1894 -91 1617 61 
Q 1341 213 1159 525 
L 1159 0 
L 581 0 
L 581 4863 
L 1159 4863 
L 1159 2969 
z
" transform="scale(0.015625)"/>
       <path id="DejaVuSans-61" d="M 2194 1759 
Q 1497 1759 1228 1600 
Q 959 1441 959 1056 
Q 959 750 1161 570 
Q 1363 391 1709 391 
Q 2188 391 2477 730 
Q 2766 1069 2766 1631 
L 2766 1759 
L 2194 1759 
z
M 3341 1997 
L 3341 0 
L 2766 0 
L 2766 531 
Q 2569 213 2275 61 
Q 1981 -91 1556 -91 
Q 1019 -91 701 211 
Q 384 513 384 1019 
Q 384 1609 779 1909 
Q 1175 2209 1959 2209 
L 2766 2209 
L 2766 2266 
Q 2766 2663 2505 2880 
Q 2244 3097 1772 3097 
Q 1472 3097 1187 3025 
Q 903 2953 641 2809 
L 641 3341 
Q 956 3463 1253 3523 
Q 1550 3584 1831 3584 
Q 2591 3584 2966 3190 
Q 3341 2797 3341 1997 
z
" transform="scale(0.015625)"/>
       <path id="DejaVuSans-63" d="M 3122 3366 
L 3122 2828 
Q 2878 2963 2633 3030 
Q 2388 3097 2138 3097 
Q 1578 3097 1268 2742 
Q 959 2388 959 1747 
Q 959 1106 1268 751 
Q 1578 397 2138 397 
Q 2388 397 2633 464 
Q 2878 531 3122 666 
L 3122 134 
Q 2881 22 2623 -34 
Q 2366 -91 2075 -91 
Q 1284 -91 818 406 
Q 353 903 353 1747 
Q 353 2603 823 3093 
Q 1294 3584 2113 3584 
Q 2378 3584 2631 3529 
Q 2884 3475 3122 3366 
z
" transform="scale(0.015625)"/>
       <path id="DejaVuSans-65" d="M 3597 1894 
L 3597 1613 
L 953 1613 
Q 991 1019 1311 708 
Q 1631 397 2203 397 
Q 2534 397 2845 478 
Q 3156 559 3463 722 
L 3463 178 
Q 3153 47 2828 -22 
Q 2503 -91 2169 -91 
Q 1331 -91 842 396 
Q 353 884 353 1716 
Q 353 2575 817 3079 
Q 1281 3584 2069 3584 
Q 2775 3584 3186 3129 
Q 3597 2675 3597 1894 
z
M 3022 2063 
Q 3016 2534 2758 2815 
Q 2500 3097 2075 3097 
Q 1594 3097 1305 2825 
Q 1016 2553 972 2059 
L 3022 2063 
z
" transform="scale(0.015625)"/>
       <path id="DejaVuSans-72" d="M 2631 2963 
Q 2534 3019 2420 3045 
Q 2306 3072 2169 3072 
Q 1681 3072 1420 2755 
Q 1159 2438 1159 1844 
L 1159 0 
L 581 0 
L 581 3500 
L 1159 3500 
L 1159 2956 
Q 1341 3275 1631 3429 
Q 1922 3584 2338 3584 
Q 2397 3584 2469 3576 
Q 2541 3569 2628 3553 
L 2631 2963 
z
" transform="scale(0.015625)"/>
       <path id="DejaVuSans-6d" d="M 3328 2828 
Q 3544 3216 3844 3400 
Q 4144 3584 4550 3584 
Q 5097 3584 5394 3201 
Q 5691 2819 5691 2113 
L 5691 0 
L 5113 0 
L 5113 2094 
Q 5113 2597 4934 2840 
Q 4756 3084 4391 3084 
Q 3944 3084 3684 2787 
Q 3425 2491 3425 1978 
L 3425 0 
L 2847 0 
L 2847 2094 
Q 2847 2600 2669 2842 
Q 2491 3084 2119 3084 
Q 1678 3084 1418 2786 
Q 1159 2488 1159 1978 
L 1159 0 
L 581 0 
L 581 3500 
L 1159 3500 
L 1159 2956 
Q 1356 3278 1631 3431 
Q 1906 3584 2284 3584 
Q 2666 3584 2933 3390 
Q 3200 3197 3328 2828 
z
" transform="scale(0.015625)"/>
       <path id="DejaVuSans-20" transform="scale(0.015625)"/>
       <path id="DejaVuSans-6e" d="M 3513 2113 
L 3513 0 
L 2938 0 
L 2938 2094 
Q 2938 2591 2744 2837 
Q 2550 3084 2163 3084 
Q 1697 3084 1428 2787 
Q 1159 2491 1159 1978 
L 1159 0 
L 581 0 
L 581 3500 
L 1159 3500 
L 1159 2956 
Q 1366 3272 1645 3428 
Q 1925 3584 2291 3584 
Q 2894 3584 3203 3211 
Q 3513 2838 3513 2113 
z
" transform="scale(0.015625)"/>
       <path id="DejaVuSans-73" d="M 2834 3397 
L 2834 2853 
Q 2591 2978 2328 3040 
Q 2066 3103 1784 3103 
Q 1356 3103 1142 2972 
Q 928 2841 928 2578 
Q 928 2378 1081 2264 
Q 1234 2150 1697 2047 
L 1894 2003 
Q 2506 1872 2764 1633 
Q 3022 1394 3022 966 
Q 3022 478 2636 193 
Q 2250 -91 1575 -91 
Q 1294 -91 989 -36 
Q 684 19 347 128 
L 347 722 
Q 666 556 975 473 
Q 1284 391 1588 391 
Q 1994 391 2212 530 
Q 2431 669 2431 922 
Q 2431 1156 2273 1281 
Q 2116 1406 1581 1522 
L 1381 1569 
Q 847 1681 609 1914 
Q 372 2147 372 2553 
Q 372 3047 722 3315 
Q 1072 3584 1716 3584 
Q 2034 3584 2315 3537 
Q 2597 3491 2834 3397 
z
" transform="scale(0.015625)"/>
      </defs>
      <use xlink:href="#DejaVuSans-43"/>
      <use xlink:href="#DejaVuSans-75" x="69.824219"/>
      <use xlink:href="#DejaVuSans-74" x="133.203125"/>
      <use xlink:href="#DejaVuSans-69" x="172.412109"/>
      <use xlink:href="#DejaVuSans-62" x="200.195312"/>
      <use xlink:href="#DejaVuSans-61" x="263.671875"/>
      <use xlink:href="#DejaVuSans-63" x="324.951172"/>
      <use xlink:href="#DejaVuSans-74" x="379.931641"/>
      <use xlink:href="#DejaVuSans-65" x="419.140625"/>
      <use xlink:href="#DejaVuSans-72" x="480.664062"/>
      <use xlink:href="#DejaVuSans-69" x="521.777344"/>
      <use xlink:href="#DejaVuSans-75" x="549.560547"/>
      <use xlink:href="#DejaVuSans-6d" x="612.939453"/>
      <use xlink:href="#DejaVuSans-20" x="710.351562"/>
      <use xlink:href="#DejaVuSans-61" x="742.138672"/>
      <use xlink:href="#DejaVuSans-63" x="803.417969"/>
      <use xlink:href="#DejaVuSans-6e" x="858.398438"/>
      <use xlink:href="#DejaVuSans-65" x="921.777344"/>
      <use xlink:href="#DejaVuSans-73" x="983.300781"/>
     </g>
    </g>
    <g id="patch_77">
     <path d="M 318.103125 42.275781 
L 338.103125 42.275781 
L 338.103125 35.275781 
L 318.103125 35.275781 
z
" style="fill: #ff00ff; stroke: #000000; stroke-width: 0.9; stroke-linejoin: miter"/>
    </g>
    <g id="text_8">
     <!-- Micrococcus luteus -->
     <g transform="translate(346.103125 42.275781) scale(0.1 -0.1)">
      <defs>
       <path id="DejaVuSans-4d" d="M 628 4666 
L 1569 4666 
L 2759 1491 
L 3956 4666 
L 4897 4666 
L 4897 0 
L 4281 0 
L 4281 4097 
L 3078 897 
L 2444 897 
L 1241 4097 
L 1241 0 
L 628 0 
L 628 4666 
z
" transform="scale(0.015625)"/>
       <path id="DejaVuSans-6f" d="M 1959 3097 
Q 1497 3097 1228 2736 
Q 959 2375 959 1747 
Q 959 1119 1226 758 
Q 1494 397 1959 397 
Q 2419 397 2687 759 
Q 2956 1122 2956 1747 
Q 2956 2369 2687 2733 
Q 2419 3097 1959 3097 
z
M 1959 3584 
Q 2709 3584 3137 3096 
Q 3566 2609 3566 1747 
Q 3566 888 3137 398 
Q 2709 -91 1959 -91 
Q 1206 -91 779 398 
Q 353 888 353 1747 
Q 353 2609 779 3096 
Q 1206 3584 1959 3584 
z
" transform="scale(0.015625)"/>
       <path id="DejaVuSans-6c" d="M 603 4863 
L 1178 4863 
L 1178 0 
L 603 0 
L 603 4863 
z
" transform="scale(0.015625)"/>
      </defs>
      <use xlink:href="#DejaVuSans-4d"/>
      <use xlink:href="#DejaVuSans-69" x="86.279297"/>
      <use xlink:href="#DejaVuSans-63" x="114.0625"/>
      <use xlink:href="#DejaVuSans-72" x="169.042969"/>
      <use xlink:href="#DejaVuSans-6f" x="207.90625"/>
      <use xlink:href="#DejaVuSans-63" x="269.087891"/>
      <use xlink:href="#DejaVuSans-6f" x="324.068359"/>
      <use xlink:href="#DejaVuSans-63" x="385.25"/>
      <use xlink:href="#DejaVuSans-63" x="440.230469"/>
      <use xlink:href="#DejaVuSans-75" x="495.210938"/>
      <use xlink:href="#DejaVuSans-73" x="558.589844"/>
      <use xlink:href="#DejaVuSans-20" x="610.689453"/>
      <use xlink:href="#DejaVuSans-6c" x="642.476562"/>
      <use xlink:href="#DejaVuSans-75" x="670.259766"/>
      <use xlink:href="#DejaVuSans-74" x="733.638672"/>
      <use xlink:href="#DejaVuSans-65" x="772.847656"/>
      <use xlink:href="#DejaVuSans-75" x="834.371094"/>
      <use xlink:href="#DejaVuSans-73" x="897.75"/>
     </g>
    </g>
    <g id="patch_78">
     <path d="M 318.103125 56.953906 
L 338.103125 56.953906 
L 338.103125 49.953906 
L 318.103125 49.953906 
z
" style="fill: #abc32f; stroke: #000000; stroke-width: 0.9; stroke-linejoin: miter"/>
    </g>
    <g id="text_9">
     <!-- Moraxella osloensis -->
     <g transform="translate(346.103125 56.953906) scale(0.1 -0.1)">
      <defs>
       <path id="DejaVuSans-78" d="M 3513 3500 
L 2247 1797 
L 3578 0 
L 2900 0 
L 1881 1375 
L 863 0 
L 184 0 
L 1544 1831 
L 300 3500 
L 978 3500 
L 1906 2253 
L 2834 3500 
L 3513 3500 
z
" transform="scale(0.015625)"/>
      </defs>
      <use xlink:href="#DejaVuSans-4d"/>
      <use xlink:href="#DejaVuSans-6f" x="86.279297"/>
      <use xlink:href="#DejaVuSans-72" x="147.460938"/>
      <use xlink:href="#DejaVuSans-61" x="188.574219"/>
      <use xlink:href="#DejaVuSans-78" x="249.853516"/>
      <use xlink:href="#DejaVuSans-65" x="305.908203"/>
      <use xlink:href="#DejaVuSans-6c" x="367.431641"/>
      <use xlink:href="#DejaVuSans-6c" x="395.214844"/>
      <use xlink:href="#DejaVuSans-61" x="422.998047"/>
      <use xlink:href="#DejaVuSans-20" x="484.277344"/>
      <use xlink:href="#DejaVuSans-6f" x="516.064453"/>
      <use xlink:href="#DejaVuSans-73" x="577.246094"/>
      <use xlink:href="#DejaVuSans-6c" x="629.345703"/>
      <use xlink:href="#DejaVuSans-6f" x="657.128906"/>
      <use xlink:href="#DejaVuSans-65" x="718.310547"/>
      <use xlink:href="#DejaVuSans-6e" x="779.833984"/>
      <use xlink:href="#DejaVuSans-73" x="843.212891"/>
      <use xlink:href="#DejaVuSans-69" x="895.3125"/>
      <use xlink:href="#DejaVuSans-73" x="923.095703"/>
     </g>
    </g>
    <g id="patch_79">
     <path d="M 318.103125 71.632031 
L 338.103125 71.632031 
L 338.103125 64.632031 
L 318.103125 64.632031 
z
" style="fill: #ffa900; stroke: #000000; stroke-width: 0.9; stroke-linejoin: miter"/>
    </g>
    <g id="text_10">
     <!-- Finegoldia magna -->
     <g transform="translate(346.103125 71.632031) scale(0.1 -0.1)">
      <defs>
       <path id="DejaVuSans-46" d="M 628 4666 
L 3309 4666 
L 3309 4134 
L 1259 4134 
L 1259 2759 
L 3109 2759 
L 3109 2228 
L 1259 2228 
L 1259 0 
L 628 0 
L 628 4666 
z
" transform="scale(0.015625)"/>
       <path id="DejaVuSans-67" d="M 2906 1791 
Q 2906 2416 2648 2759 
Q 2391 3103 1925 3103 
Q 1463 3103 1205 2759 
Q 947 2416 947 1791 
Q 947 1169 1205 825 
Q 1463 481 1925 481 
Q 2391 481 2648 825 
Q 2906 1169 2906 1791 
z
M 3481 434 
Q 3481 -459 3084 -895 
Q 2688 -1331 1869 -1331 
Q 1566 -1331 1297 -1286 
Q 1028 -1241 775 -1147 
L 775 -588 
Q 1028 -725 1275 -790 
Q 1522 -856 1778 -856 
Q 2344 -856 2625 -561 
Q 2906 -266 2906 331 
L 2906 616 
Q 2728 306 2450 153 
Q 2172 0 1784 0 
Q 1141 0 747 490 
Q 353 981 353 1791 
Q 353 2603 747 3093 
Q 1141 3584 1784 3584 
Q 2172 3584 2450 3431 
Q 2728 3278 2906 2969 
L 2906 3500 
L 3481 3500 
L 3481 434 
z
" transform="scale(0.015625)"/>
       <path id="DejaVuSans-64" d="M 2906 2969 
L 2906 4863 
L 3481 4863 
L 3481 0 
L 2906 0 
L 2906 525 
Q 2725 213 2448 61 
Q 2172 -91 1784 -91 
Q 1150 -91 751 415 
Q 353 922 353 1747 
Q 353 2572 751 3078 
Q 1150 3584 1784 3584 
Q 2172 3584 2448 3432 
Q 2725 3281 2906 2969 
z
M 947 1747 
Q 947 1113 1208 752 
Q 1469 391 1925 391 
Q 2381 391 2643 752 
Q 2906 1113 2906 1747 
Q 2906 2381 2643 2742 
Q 2381 3103 1925 3103 
Q 1469 3103 1208 2742 
Q 947 2381 947 1747 
z
" transform="scale(0.015625)"/>
      </defs>
      <use xlink:href="#DejaVuSans-46"/>
      <use xlink:href="#DejaVuSans-69" x="50.269531"/>
      <use xlink:href="#DejaVuSans-6e" x="78.052734"/>
      <use xlink:href="#DejaVuSans-65" x="141.431641"/>
      <use xlink:href="#DejaVuSans-67" x="202.955078"/>
      <use xlink:href="#DejaVuSans-6f" x="266.431641"/>
      <use xlink:href="#DejaVuSans-6c" x="327.613281"/>
      <use xlink:href="#DejaVuSans-64" x="355.396484"/>
      <use xlink:href="#DejaVuSans-69" x="418.873047"/>
      <use xlink:href="#DejaVuSans-61" x="446.65625"/>
      <use xlink:href="#DejaVuSans-20" x="507.935547"/>
      <use xlink:href="#DejaVuSans-6d" x="539.722656"/>
      <use xlink:href="#DejaVuSans-61" x="637.134766"/>
      <use xlink:href="#DejaVuSans-67" x="698.414062"/>
      <use xlink:href="#DejaVuSans-6e" x="761.890625"/>
      <use xlink:href="#DejaVuSans-61" x="825.269531"/>
     </g>
    </g>
    <g id="patch_80">
     <path d="M 318.103125 86.310156 
L 338.103125 86.310156 
L 338.103125 79.310156 
L 318.103125 79.310156 
z
" style="fill: #306f60; stroke: #000000; stroke-width: 0.9; stroke-linejoin: miter"/>
    </g>
    <g id="text_11">
     <!-- Dermacoccus nishinomiyaensis -->
     <g transform="translate(346.103125 86.310156) scale(0.1 -0.1)">
      <defs>
       <path id="DejaVuSans-44" d="M 1259 4147 
L 1259 519 
L 2022 519 
Q 2988 519 3436 956 
Q 3884 1394 3884 2338 
Q 3884 3275 3436 3711 
Q 2988 4147 2022 4147 
L 1259 4147 
z
M 628 4666 
L 1925 4666 
Q 3281 4666 3915 4102 
Q 4550 3538 4550 2338 
Q 4550 1131 3912 565 
Q 3275 0 1925 0 
L 628 0 
L 628 4666 
z
" transform="scale(0.015625)"/>
       <path id="DejaVuSans-68" d="M 3513 2113 
L 3513 0 
L 2938 0 
L 2938 2094 
Q 2938 2591 2744 2837 
Q 2550 3084 2163 3084 
Q 1697 3084 1428 2787 
Q 1159 2491 1159 1978 
L 1159 0 
L 581 0 
L 581 4863 
L 1159 4863 
L 1159 2956 
Q 1366 3272 1645 3428 
Q 1925 3584 2291 3584 
Q 2894 3584 3203 3211 
Q 3513 2838 3513 2113 
z
" transform="scale(0.015625)"/>
       <path id="DejaVuSans-79" d="M 2059 -325 
Q 1816 -950 1584 -1140 
Q 1353 -1331 966 -1331 
L 506 -1331 
L 506 -850 
L 844 -850 
Q 1081 -850 1212 -737 
Q 1344 -625 1503 -206 
L 1606 56 
L 191 3500 
L 800 3500 
L 1894 763 
L 2988 3500 
L 3597 3500 
L 2059 -325 
z
" transform="scale(0.015625)"/>
      </defs>
      <use xlink:href="#DejaVuSans-44"/>
      <use xlink:href="#DejaVuSans-65" x="77.001953"/>
      <use xlink:href="#DejaVuSans-72" x="138.525391"/>
      <use xlink:href="#DejaVuSans-6d" x="177.888672"/>
      <use xlink:href="#DejaVuSans-61" x="275.300781"/>
      <use xlink:href="#DejaVuSans-63" x="336.580078"/>
      <use xlink:href="#DejaVuSans-6f" x="391.560547"/>
      <use xlink:href="#DejaVuSans-63" x="452.742188"/>
      <use xlink:href="#DejaVuSans-63" x="507.722656"/>
      <use xlink:href="#DejaVuSans-75" x="562.703125"/>
      <use xlink:href="#DejaVuSans-73" x="626.082031"/>
      <use xlink:href="#DejaVuSans-20" x="678.181641"/>
      <use xlink:href="#DejaVuSans-6e" x="709.96875"/>
      <use xlink:href="#DejaVuSans-69" x="773.347656"/>
      <use xlink:href="#DejaVuSans-73" x="801.130859"/>
      <use xlink:href="#DejaVuSans-68" x="853.230469"/>
      <use xlink:href="#DejaVuSans-69" x="916.609375"/>
      <use xlink:href="#DejaVuSans-6e" x="944.392578"/>
      <use xlink:href="#DejaVuSans-6f" x="1007.771484"/>
      <use xlink:href="#DejaVuSans-6d" x="1068.953125"/>
      <use xlink:href="#DejaVuSans-69" x="1166.365234"/>
      <use xlink:href="#DejaVuSans-79" x="1194.148438"/>
      <use xlink:href="#DejaVuSans-61" x="1253.328125"/>
      <use xlink:href="#DejaVuSans-65" x="1314.607422"/>
      <use xlink:href="#DejaVuSans-6e" x="1376.130859"/>
      <use xlink:href="#DejaVuSans-73" x="1439.509766"/>
      <use xlink:href="#DejaVuSans-69" x="1491.609375"/>
      <use xlink:href="#DejaVuSans-73" x="1519.392578"/>
     </g>
    </g>
    <g id="patch_81">
     <path d="M 318.103125 100.988281 
L 338.103125 100.988281 
L 338.103125 93.988281 
L 318.103125 93.988281 
z
" style="fill: #cddc98; stroke: #000000; stroke-width: 0.9; stroke-linejoin: miter"/>
    </g>
    <g id="text_12">
     <!-- Streptococcus thermophilus -->
     <g transform="translate(346.103125 100.988281) scale(0.1 -0.1)">
      <defs>
       <path id="DejaVuSans-53" d="M 3425 4513 
L 3425 3897 
Q 3066 4069 2747 4153 
Q 2428 4238 2131 4238 
Q 1616 4238 1336 4038 
Q 1056 3838 1056 3469 
Q 1056 3159 1242 3001 
Q 1428 2844 1947 2747 
L 2328 2669 
Q 3034 2534 3370 2195 
Q 3706 1856 3706 1288 
Q 3706 609 3251 259 
Q 2797 -91 1919 -91 
Q 1588 -91 1214 -16 
Q 841 59 441 206 
L 441 856 
Q 825 641 1194 531 
Q 1563 422 1919 422 
Q 2459 422 2753 634 
Q 3047 847 3047 1241 
Q 3047 1584 2836 1778 
Q 2625 1972 2144 2069 
L 1759 2144 
Q 1053 2284 737 2584 
Q 422 2884 422 3419 
Q 422 4038 858 4394 
Q 1294 4750 2059 4750 
Q 2388 4750 2728 4690 
Q 3069 4631 3425 4513 
z
" transform="scale(0.015625)"/>
       <path id="DejaVuSans-70" d="M 1159 525 
L 1159 -1331 
L 581 -1331 
L 581 3500 
L 1159 3500 
L 1159 2969 
Q 1341 3281 1617 3432 
Q 1894 3584 2278 3584 
Q 2916 3584 3314 3078 
Q 3713 2572 3713 1747 
Q 3713 922 3314 415 
Q 2916 -91 2278 -91 
Q 1894 -91 1617 61 
Q 1341 213 1159 525 
z
M 3116 1747 
Q 3116 2381 2855 2742 
Q 2594 3103 2138 3103 
Q 1681 3103 1420 2742 
Q 1159 2381 1159 1747 
Q 1159 1113 1420 752 
Q 1681 391 2138 391 
Q 2594 391 2855 752 
Q 3116 1113 3116 1747 
z
" transform="scale(0.015625)"/>
      </defs>
      <use xlink:href="#DejaVuSans-53"/>
      <use xlink:href="#DejaVuSans-74" x="63.476562"/>
      <use xlink:href="#DejaVuSans-72" x="102.685547"/>
      <use xlink:href="#DejaVuSans-65" x="141.548828"/>
      <use xlink:href="#DejaVuSans-70" x="203.072266"/>
      <use xlink:href="#DejaVuSans-74" x="266.548828"/>
      <use xlink:href="#DejaVuSans-6f" x="305.757812"/>
      <use xlink:href="#DejaVuSans-63" x="366.939453"/>
      <use xlink:href="#DejaVuSans-6f" x="421.919922"/>
      <use xlink:href="#DejaVuSans-63" x="483.101562"/>
      <use xlink:href="#DejaVuSans-63" x="538.082031"/>
      <use xlink:href="#DejaVuSans-75" x="593.0625"/>
      <use xlink:href="#DejaVuSans-73" x="656.441406"/>
      <use xlink:href="#DejaVuSans-20" x="708.541016"/>
      <use xlink:href="#DejaVuSans-74" x="740.328125"/>
      <use xlink:href="#DejaVuSans-68" x="779.537109"/>
      <use xlink:href="#DejaVuSans-65" x="842.916016"/>
      <use xlink:href="#DejaVuSans-72" x="904.439453"/>
      <use xlink:href="#DejaVuSans-6d" x="943.802734"/>
      <use xlink:href="#DejaVuSans-6f" x="1041.214844"/>
      <use xlink:href="#DejaVuSans-70" x="1102.396484"/>
      <use xlink:href="#DejaVuSans-68" x="1165.873047"/>
      <use xlink:href="#DejaVuSans-69" x="1229.251953"/>
      <use xlink:href="#DejaVuSans-6c" x="1257.035156"/>
      <use xlink:href="#DejaVuSans-75" x="1284.818359"/>
      <use xlink:href="#DejaVuSans-73" x="1348.197266"/>
     </g>
    </g>
    <g id="patch_82">
     <path d="M 318.103125 115.666406 
L 338.103125 115.666406 
L 338.103125 108.666406 
L 318.103125 108.666406 
z
" style="fill: #aa494a; stroke: #000000; stroke-width: 0.9; stroke-linejoin: miter"/>
    </g>
    <g id="text_13">
     <!-- Corynebacterium tuberculostearicum -->
     <g transform="translate(346.103125 115.666406) scale(0.1 -0.1)">
      <use xlink:href="#DejaVuSans-43"/>
      <use xlink:href="#DejaVuSans-6f" x="69.824219"/>
      <use xlink:href="#DejaVuSans-72" x="131.005859"/>
      <use xlink:href="#DejaVuSans-79" x="172.119141"/>
      <use xlink:href="#DejaVuSans-6e" x="231.298828"/>
      <use xlink:href="#DejaVuSans-65" x="294.677734"/>
      <use xlink:href="#DejaVuSans-62" x="356.201172"/>
      <use xlink:href="#DejaVuSans-61" x="419.677734"/>
      <use xlink:href="#DejaVuSans-63" x="480.957031"/>
      <use xlink:href="#DejaVuSans-74" x="535.9375"/>
      <use xlink:href="#DejaVuSans-65" x="575.146484"/>
      <use xlink:href="#DejaVuSans-72" x="636.669922"/>
      <use xlink:href="#DejaVuSans-69" x="677.783203"/>
      <use xlink:href="#DejaVuSans-75" x="705.566406"/>
      <use xlink:href="#DejaVuSans-6d" x="768.945312"/>
      <use xlink:href="#DejaVuSans-20" x="866.357422"/>
      <use xlink:href="#DejaVuSans-74" x="898.144531"/>
      <use xlink:href="#DejaVuSans-75" x="937.353516"/>
      <use xlink:href="#DejaVuSans-62" x="1000.732422"/>
      <use xlink:href="#DejaVuSans-65" x="1064.208984"/>
      <use xlink:href="#DejaVuSans-72" x="1125.732422"/>
      <use xlink:href="#DejaVuSans-63" x="1164.595703"/>
      <use xlink:href="#DejaVuSans-75" x="1219.576172"/>
      <use xlink:href="#DejaVuSans-6c" x="1282.955078"/>
      <use xlink:href="#DejaVuSans-6f" x="1310.738281"/>
      <use xlink:href="#DejaVuSans-73" x="1371.919922"/>
      <use xlink:href="#DejaVuSans-74" x="1424.019531"/>
      <use xlink:href="#DejaVuSans-65" x="1463.228516"/>
      <use xlink:href="#DejaVuSans-61" x="1524.751953"/>
      <use xlink:href="#DejaVuSans-72" x="1586.03125"/>
      <use xlink:href="#DejaVuSans-69" x="1627.144531"/>
      <use xlink:href="#DejaVuSans-63" x="1654.927734"/>
      <use xlink:href="#DejaVuSans-75" x="1709.908203"/>
      <use xlink:href="#DejaVuSans-6d" x="1773.287109"/>
     </g>
    </g>
    <g id="patch_83">
     <path d="M 318.103125 130.344531 
L 338.103125 130.344531 
L 338.103125 123.344531 
L 318.103125 123.344531 
z
" style="fill: #b0e4f4; stroke: #000000; stroke-width: 0.9; stroke-linejoin: miter"/>
    </g>
    <g id="text_14">
     <!-- Corynebacterium pseudodiphtheriticum -->
     <g transform="translate(346.103125 130.344531) scale(0.1 -0.1)">
      <use xlink:href="#DejaVuSans-43"/>
      <use xlink:href="#DejaVuSans-6f" x="69.824219"/>
      <use xlink:href="#DejaVuSans-72" x="131.005859"/>
      <use xlink:href="#DejaVuSans-79" x="172.119141"/>
      <use xlink:href="#DejaVuSans-6e" x="231.298828"/>
      <use xlink:href="#DejaVuSans-65" x="294.677734"/>
      <use xlink:href="#DejaVuSans-62" x="356.201172"/>
      <use xlink:href="#DejaVuSans-61" x="419.677734"/>
      <use xlink:href="#DejaVuSans-63" x="480.957031"/>
      <use xlink:href="#DejaVuSans-74" x="535.9375"/>
      <use xlink:href="#DejaVuSans-65" x="575.146484"/>
      <use xlink:href="#DejaVuSans-72" x="636.669922"/>
      <use xlink:href="#DejaVuSans-69" x="677.783203"/>
      <use xlink:href="#DejaVuSans-75" x="705.566406"/>
      <use xlink:href="#DejaVuSans-6d" x="768.945312"/>
      <use xlink:href="#DejaVuSans-20" x="866.357422"/>
      <use xlink:href="#DejaVuSans-70" x="898.144531"/>
      <use xlink:href="#DejaVuSans-73" x="961.621094"/>
      <use xlink:href="#DejaVuSans-65" x="1013.720703"/>
      <use xlink:href="#DejaVuSans-75" x="1075.244141"/>
      <use xlink:href="#DejaVuSans-64" x="1138.623047"/>
      <use xlink:href="#DejaVuSans-6f" x="1202.099609"/>
      <use xlink:href="#DejaVuSans-64" x="1263.28125"/>
      <use xlink:href="#DejaVuSans-69" x="1326.757812"/>
      <use xlink:href="#DejaVuSans-70" x="1354.541016"/>
      <use xlink:href="#DejaVuSans-68" x="1418.017578"/>
      <use xlink:href="#DejaVuSans-74" x="1481.396484"/>
      <use xlink:href="#DejaVuSans-68" x="1520.605469"/>
      <use xlink:href="#DejaVuSans-65" x="1583.984375"/>
      <use xlink:href="#DejaVuSans-72" x="1645.507812"/>
      <use xlink:href="#DejaVuSans-69" x="1686.621094"/>
      <use xlink:href="#DejaVuSans-74" x="1714.404297"/>
      <use xlink:href="#DejaVuSans-69" x="1753.613281"/>
      <use xlink:href="#DejaVuSans-63" x="1781.396484"/>
      <use xlink:href="#DejaVuSans-75" x="1836.376953"/>
      <use xlink:href="#DejaVuSans-6d" x="1899.755859"/>
     </g>
    </g>
    <g id="patch_84">
     <path d="M 318.103125 145.022656 
L 338.103125 145.022656 
L 338.103125 138.022656 
L 318.103125 138.022656 
z
" style="fill: #68af2c; stroke: #000000; stroke-width: 0.9; stroke-linejoin: miter"/>
    </g>
    <g id="text_15">
     <!-- Cutibacterium namnetense -->
     <g transform="translate(346.103125 145.022656) scale(0.1 -0.1)">
      <use xlink:href="#DejaVuSans-43"/>
      <use xlink:href="#DejaVuSans-75" x="69.824219"/>
      <use xlink:href="#DejaVuSans-74" x="133.203125"/>
      <use xlink:href="#DejaVuSans-69" x="172.412109"/>
      <use xlink:href="#DejaVuSans-62" x="200.195312"/>
      <use xlink:href="#DejaVuSans-61" x="263.671875"/>
      <use xlink:href="#DejaVuSans-63" x="324.951172"/>
      <use xlink:href="#DejaVuSans-74" x="379.931641"/>
      <use xlink:href="#DejaVuSans-65" x="419.140625"/>
      <use xlink:href="#DejaVuSans-72" x="480.664062"/>
      <use xlink:href="#DejaVuSans-69" x="521.777344"/>
      <use xlink:href="#DejaVuSans-75" x="549.560547"/>
      <use xlink:href="#DejaVuSans-6d" x="612.939453"/>
      <use xlink:href="#DejaVuSans-20" x="710.351562"/>
      <use xlink:href="#DejaVuSans-6e" x="742.138672"/>
      <use xlink:href="#DejaVuSans-61" x="805.517578"/>
      <use xlink:href="#DejaVuSans-6d" x="866.796875"/>
      <use xlink:href="#DejaVuSans-6e" x="964.208984"/>
      <use xlink:href="#DejaVuSans-65" x="1027.587891"/>
      <use xlink:href="#DejaVuSans-74" x="1089.111328"/>
      <use xlink:href="#DejaVuSans-65" x="1128.320312"/>
      <use xlink:href="#DejaVuSans-6e" x="1189.84375"/>
      <use xlink:href="#DejaVuSans-73" x="1253.222656"/>
      <use xlink:href="#DejaVuSans-65" x="1305.322266"/>
     </g>
    </g>
    <g id="patch_85">
     <path d="M 318.103125 159.700781 
L 338.103125 159.700781 
L 338.103125 152.700781 
L 318.103125 152.700781 
z
" style="fill: #407e83; stroke: #000000; stroke-width: 0.9; stroke-linejoin: miter"/>
    </g>
    <g id="text_16">
     <!-- Staphylococcus hominis -->
     <g transform="translate(346.103125 159.700781) scale(0.1 -0.1)">
      <use xlink:href="#DejaVuSans-53"/>
      <use xlink:href="#DejaVuSans-74" x="63.476562"/>
      <use xlink:href="#DejaVuSans-61" x="102.685547"/>
      <use xlink:href="#DejaVuSans-70" x="163.964844"/>
      <use xlink:href="#DejaVuSans-68" x="227.441406"/>
      <use xlink:href="#DejaVuSans-79" x="290.820312"/>
      <use xlink:href="#DejaVuSans-6c" x="350"/>
      <use xlink:href="#DejaVuSans-6f" x="377.783203"/>
      <use xlink:href="#DejaVuSans-63" x="438.964844"/>
      <use xlink:href="#DejaVuSans-6f" x="493.945312"/>
      <use xlink:href="#DejaVuSans-63" x="555.126953"/>
      <use xlink:href="#DejaVuSans-63" x="610.107422"/>
      <use xlink:href="#DejaVuSans-75" x="665.087891"/>
      <use xlink:href="#DejaVuSans-73" x="728.466797"/>
      <use xlink:href="#DejaVuSans-20" x="780.566406"/>
      <use xlink:href="#DejaVuSans-68" x="812.353516"/>
      <use xlink:href="#DejaVuSans-6f" x="875.732422"/>
      <use xlink:href="#DejaVuSans-6d" x="936.914062"/>
      <use xlink:href="#DejaVuSans-69" x="1034.326172"/>
      <use xlink:href="#DejaVuSans-6e" x="1062.109375"/>
      <use xlink:href="#DejaVuSans-69" x="1125.488281"/>
      <use xlink:href="#DejaVuSans-73" x="1153.271484"/>
     </g>
    </g>
    <g id="patch_86">
     <path d="M 318.103125 174.378906 
L 338.103125 174.378906 
L 338.103125 167.378906 
L 318.103125 167.378906 
z
" style="fill: #e9da5e; stroke: #000000; stroke-width: 0.9; stroke-linejoin: miter"/>
    </g>
    <g id="text_17">
     <!-- Malassezia (genus) -->
     <g transform="translate(346.103125 174.378906) scale(0.1 -0.1)">
      <defs>
       <path id="DejaVuSans-7a" d="M 353 3500 
L 3084 3500 
L 3084 2975 
L 922 459 
L 3084 459 
L 3084 0 
L 275 0 
L 275 525 
L 2438 3041 
L 353 3041 
L 353 3500 
z
" transform="scale(0.015625)"/>
       <path id="DejaVuSans-28" d="M 1984 4856 
Q 1566 4138 1362 3434 
Q 1159 2731 1159 2009 
Q 1159 1288 1364 580 
Q 1569 -128 1984 -844 
L 1484 -844 
Q 1016 -109 783 600 
Q 550 1309 550 2009 
Q 550 2706 781 3412 
Q 1013 4119 1484 4856 
L 1984 4856 
z
" transform="scale(0.015625)"/>
       <path id="DejaVuSans-29" d="M 513 4856 
L 1013 4856 
Q 1481 4119 1714 3412 
Q 1947 2706 1947 2009 
Q 1947 1309 1714 600 
Q 1481 -109 1013 -844 
L 513 -844 
Q 928 -128 1133 580 
Q 1338 1288 1338 2009 
Q 1338 2731 1133 3434 
Q 928 4138 513 4856 
z
" transform="scale(0.015625)"/>
      </defs>
      <use xlink:href="#DejaVuSans-4d"/>
      <use xlink:href="#DejaVuSans-61" x="86.279297"/>
      <use xlink:href="#DejaVuSans-6c" x="147.558594"/>
      <use xlink:href="#DejaVuSans-61" x="175.341797"/>
      <use xlink:href="#DejaVuSans-73" x="236.621094"/>
      <use xlink:href="#DejaVuSans-73" x="288.720703"/>
      <use xlink:href="#DejaVuSans-65" x="340.820312"/>
      <use xlink:href="#DejaVuSans-7a" x="402.34375"/>
      <use xlink:href="#DejaVuSans-69" x="454.833984"/>
      <use xlink:href="#DejaVuSans-61" x="482.617188"/>
      <use xlink:href="#DejaVuSans-20" x="543.896484"/>
      <use xlink:href="#DejaVuSans-28" x="575.683594"/>
      <use xlink:href="#DejaVuSans-67" x="614.697266"/>
      <use xlink:href="#DejaVuSans-65" x="678.173828"/>
      <use xlink:href="#DejaVuSans-6e" x="739.697266"/>
      <use xlink:href="#DejaVuSans-75" x="803.076172"/>
      <use xlink:href="#DejaVuSans-73" x="866.455078"/>
      <use xlink:href="#DejaVuSans-29" x="918.554688"/>
     </g>
    </g>
    <g id="patch_87">
     <path d="M 318.103125 189.057031 
L 338.103125 189.057031 
L 338.103125 182.057031 
L 318.103125 182.057031 
z
" style="fill: #0c457d; stroke: #000000; stroke-width: 0.9; stroke-linejoin: miter"/>
    </g>
    <g id="text_18">
     <!-- Staphylococcus capitis -->
     <g transform="translate(346.103125 189.057031) scale(0.1 -0.1)">
      <use xlink:href="#DejaVuSans-53"/>
      <use xlink:href="#DejaVuSans-74" x="63.476562"/>
      <use xlink:href="#DejaVuSans-61" x="102.685547"/>
      <use xlink:href="#DejaVuSans-70" x="163.964844"/>
      <use xlink:href="#DejaVuSans-68" x="227.441406"/>
      <use xlink:href="#DejaVuSans-79" x="290.820312"/>
      <use xlink:href="#DejaVuSans-6c" x="350"/>
      <use xlink:href="#DejaVuSans-6f" x="377.783203"/>
      <use xlink:href="#DejaVuSans-63" x="438.964844"/>
      <use xlink:href="#DejaVuSans-6f" x="493.945312"/>
      <use xlink:href="#DejaVuSans-63" x="555.126953"/>
      <use xlink:href="#DejaVuSans-63" x="610.107422"/>
      <use xlink:href="#DejaVuSans-75" x="665.087891"/>
      <use xlink:href="#DejaVuSans-73" x="728.466797"/>
      <use xlink:href="#DejaVuSans-20" x="780.566406"/>
      <use xlink:href="#DejaVuSans-63" x="812.353516"/>
      <use xlink:href="#DejaVuSans-61" x="867.333984"/>
      <use xlink:href="#DejaVuSans-70" x="928.613281"/>
      <use xlink:href="#DejaVuSans-69" x="992.089844"/>
      <use xlink:href="#DejaVuSans-74" x="1019.873047"/>
      <use xlink:href="#DejaVuSans-69" x="1059.082031"/>
      <use xlink:href="#DejaVuSans-73" x="1086.865234"/>
     </g>
    </g>
    <g id="patch_88">
     <path d="M 318.103125 203.735156 
L 338.103125 203.735156 
L 338.103125 196.735156 
L 318.103125 196.735156 
z
" style="fill: #86a086; stroke: #000000; stroke-width: 0.9; stroke-linejoin: miter"/>
    </g>
    <g id="text_19">
     <!-- Micrococcus yunnanensis -->
     <g transform="translate(346.103125 203.735156) scale(0.1 -0.1)">
      <use xlink:href="#DejaVuSans-4d"/>
      <use xlink:href="#DejaVuSans-69" x="86.279297"/>
      <use xlink:href="#DejaVuSans-63" x="114.0625"/>
      <use xlink:href="#DejaVuSans-72" x="169.042969"/>
      <use xlink:href="#DejaVuSans-6f" x="207.90625"/>
      <use xlink:href="#DejaVuSans-63" x="269.087891"/>
      <use xlink:href="#DejaVuSans-6f" x="324.068359"/>
      <use xlink:href="#DejaVuSans-63" x="385.25"/>
      <use xlink:href="#DejaVuSans-63" x="440.230469"/>
      <use xlink:href="#DejaVuSans-75" x="495.210938"/>
      <use xlink:href="#DejaVuSans-73" x="558.589844"/>
      <use xlink:href="#DejaVuSans-20" x="610.689453"/>
      <use xlink:href="#DejaVuSans-79" x="642.476562"/>
      <use xlink:href="#DejaVuSans-75" x="701.65625"/>
      <use xlink:href="#DejaVuSans-6e" x="765.035156"/>
      <use xlink:href="#DejaVuSans-6e" x="828.414062"/>
      <use xlink:href="#DejaVuSans-61" x="891.792969"/>
      <use xlink:href="#DejaVuSans-6e" x="953.072266"/>
      <use xlink:href="#DejaVuSans-65" x="1016.451172"/>
      <use xlink:href="#DejaVuSans-6e" x="1077.974609"/>
      <use xlink:href="#DejaVuSans-73" x="1141.353516"/>
      <use xlink:href="#DejaVuSans-69" x="1193.453125"/>
      <use xlink:href="#DejaVuSans-73" x="1221.236328"/>
     </g>
    </g>
    <g id="patch_89">
     <path d="M 318.103125 218.413281 
L 338.103125 218.413281 
L 338.103125 211.413281 
L 318.103125 211.413281 
z
" style="fill: #2aa2e8; stroke: #000000; stroke-width: 0.9; stroke-linejoin: miter"/>
    </g>
    <g id="text_20">
     <!-- Lactobacillus crispatus -->
     <g transform="translate(346.103125 218.413281) scale(0.1 -0.1)">
      <defs>
       <path id="DejaVuSans-4c" d="M 628 4666 
L 1259 4666 
L 1259 531 
L 3531 531 
L 3531 0 
L 628 0 
L 628 4666 
z
" transform="scale(0.015625)"/>
      </defs>
      <use xlink:href="#DejaVuSans-4c"/>
      <use xlink:href="#DejaVuSans-61" x="55.712891"/>
      <use xlink:href="#DejaVuSans-63" x="116.992188"/>
      <use xlink:href="#DejaVuSans-74" x="171.972656"/>
      <use xlink:href="#DejaVuSans-6f" x="211.181641"/>
      <use xlink:href="#DejaVuSans-62" x="272.363281"/>
      <use xlink:href="#DejaVuSans-61" x="335.839844"/>
      <use xlink:href="#DejaVuSans-63" x="397.119141"/>
      <use xlink:href="#DejaVuSans-69" x="452.099609"/>
      <use xlink:href="#DejaVuSans-6c" x="479.882812"/>
      <use xlink:href="#DejaVuSans-6c" x="507.666016"/>
      <use xlink:href="#DejaVuSans-75" x="535.449219"/>
      <use xlink:href="#DejaVuSans-73" x="598.828125"/>
      <use xlink:href="#DejaVuSans-20" x="650.927734"/>
      <use xlink:href="#DejaVuSans-63" x="682.714844"/>
      <use xlink:href="#DejaVuSans-72" x="737.695312"/>
      <use xlink:href="#DejaVuSans-69" x="778.808594"/>
      <use xlink:href="#DejaVuSans-73" x="806.591797"/>
      <use xlink:href="#DejaVuSans-70" x="858.691406"/>
      <use xlink:href="#DejaVuSans-61" x="922.167969"/>
      <use xlink:href="#DejaVuSans-74" x="983.447266"/>
      <use xlink:href="#DejaVuSans-75" x="1022.65625"/>
      <use xlink:href="#DejaVuSans-73" x="1086.035156"/>
     </g>
    </g>
    <g id="patch_90">
     <path d="M 318.103125 233.091406 
L 338.103125 233.091406 
L 338.103125 226.091406 
L 318.103125 226.091406 
z
" style="fill: #006884; stroke: #000000; stroke-width: 0.9; stroke-linejoin: miter"/>
    </g>
    <g id="text_21">
     <!-- Lactobacillus delbrueckii -->
     <g transform="translate(346.103125 233.091406) scale(0.1 -0.1)">
      <defs>
       <path id="DejaVuSans-6b" d="M 581 4863 
L 1159 4863 
L 1159 1991 
L 2875 3500 
L 3609 3500 
L 1753 1863 
L 3688 0 
L 2938 0 
L 1159 1709 
L 1159 0 
L 581 0 
L 581 4863 
z
" transform="scale(0.015625)"/>
      </defs>
      <use xlink:href="#DejaVuSans-4c"/>
      <use xlink:href="#DejaVuSans-61" x="55.712891"/>
      <use xlink:href="#DejaVuSans-63" x="116.992188"/>
      <use xlink:href="#DejaVuSans-74" x="171.972656"/>
      <use xlink:href="#DejaVuSans-6f" x="211.181641"/>
      <use xlink:href="#DejaVuSans-62" x="272.363281"/>
      <use xlink:href="#DejaVuSans-61" x="335.839844"/>
      <use xlink:href="#DejaVuSans-63" x="397.119141"/>
      <use xlink:href="#DejaVuSans-69" x="452.099609"/>
      <use xlink:href="#DejaVuSans-6c" x="479.882812"/>
      <use xlink:href="#DejaVuSans-6c" x="507.666016"/>
      <use xlink:href="#DejaVuSans-75" x="535.449219"/>
      <use xlink:href="#DejaVuSans-73" x="598.828125"/>
      <use xlink:href="#DejaVuSans-20" x="650.927734"/>
      <use xlink:href="#DejaVuSans-64" x="682.714844"/>
      <use xlink:href="#DejaVuSans-65" x="746.191406"/>
      <use xlink:href="#DejaVuSans-6c" x="807.714844"/>
      <use xlink:href="#DejaVuSans-62" x="835.498047"/>
      <use xlink:href="#DejaVuSans-72" x="898.974609"/>
      <use xlink:href="#DejaVuSans-75" x="940.087891"/>
      <use xlink:href="#DejaVuSans-65" x="1003.466797"/>
      <use xlink:href="#DejaVuSans-63" x="1064.990234"/>
      <use xlink:href="#DejaVuSans-6b" x="1119.970703"/>
      <use xlink:href="#DejaVuSans-69" x="1177.880859"/>
      <use xlink:href="#DejaVuSans-69" x="1205.664062"/>
     </g>
    </g>
    <g id="patch_91">
     <path d="M 318.103125 247.769531 
L 338.103125 247.769531 
L 338.103125 240.769531 
L 318.103125 240.769531 
z
" style="fill: #a9a9a9; stroke: #000000; stroke-width: 0.9; stroke-linejoin: miter"/>
    </g>
    <g id="text_22">
     <!-- Deinococcus wulumuqiensis -->
     <g transform="translate(346.103125 247.769531) scale(0.1 -0.1)">
      <defs>
       <path id="DejaVuSans-77" d="M 269 3500 
L 844 3500 
L 1563 769 
L 2278 3500 
L 2956 3500 
L 3675 769 
L 4391 3500 
L 4966 3500 
L 4050 0 
L 3372 0 
L 2619 2869 
L 1863 0 
L 1184 0 
L 269 3500 
z
" transform="scale(0.015625)"/>
       <path id="DejaVuSans-71" d="M 947 1747 
Q 947 1113 1208 752 
Q 1469 391 1925 391 
Q 2381 391 2643 752 
Q 2906 1113 2906 1747 
Q 2906 2381 2643 2742 
Q 2381 3103 1925 3103 
Q 1469 3103 1208 2742 
Q 947 2381 947 1747 
z
M 2906 525 
Q 2725 213 2448 61 
Q 2172 -91 1784 -91 
Q 1150 -91 751 415 
Q 353 922 353 1747 
Q 353 2572 751 3078 
Q 1150 3584 1784 3584 
Q 2172 3584 2448 3432 
Q 2725 3281 2906 2969 
L 2906 3500 
L 3481 3500 
L 3481 -1331 
L 2906 -1331 
L 2906 525 
z
" transform="scale(0.015625)"/>
      </defs>
      <use xlink:href="#DejaVuSans-44"/>
      <use xlink:href="#DejaVuSans-65" x="77.001953"/>
      <use xlink:href="#DejaVuSans-69" x="138.525391"/>
      <use xlink:href="#DejaVuSans-6e" x="166.308594"/>
      <use xlink:href="#DejaVuSans-6f" x="229.6875"/>
      <use xlink:href="#DejaVuSans-63" x="290.869141"/>
      <use xlink:href="#DejaVuSans-6f" x="345.849609"/>
      <use xlink:href="#DejaVuSans-63" x="407.03125"/>
      <use xlink:href="#DejaVuSans-63" x="462.011719"/>
      <use xlink:href="#DejaVuSans-75" x="516.992188"/>
      <use xlink:href="#DejaVuSans-73" x="580.371094"/>
      <use xlink:href="#DejaVuSans-20" x="632.470703"/>
      <use xlink:href="#DejaVuSans-77" x="664.257812"/>
      <use xlink:href="#DejaVuSans-75" x="746.044922"/>
      <use xlink:href="#DejaVuSans-6c" x="809.423828"/>
      <use xlink:href="#DejaVuSans-75" x="837.207031"/>
      <use xlink:href="#DejaVuSans-6d" x="900.585938"/>
      <use xlink:href="#DejaVuSans-75" x="997.998047"/>
      <use xlink:href="#DejaVuSans-71" x="1061.376953"/>
      <use xlink:href="#DejaVuSans-69" x="1124.853516"/>
      <use xlink:href="#DejaVuSans-65" x="1152.636719"/>
      <use xlink:href="#DejaVuSans-6e" x="1214.160156"/>
      <use xlink:href="#DejaVuSans-73" x="1277.539062"/>
      <use xlink:href="#DejaVuSans-69" x="1329.638672"/>
      <use xlink:href="#DejaVuSans-73" x="1357.421875"/>
     </g>
    </g>
    <g id="patch_92">
     <path d="M 318.103125 262.447656 
L 338.103125 262.447656 
L 338.103125 255.447656 
L 318.103125 255.447656 
z
" style="fill: #d3d3d3; stroke: #000000; stroke-width: 0.9; stroke-linejoin: miter"/>
    </g>
    <g id="text_23">
     <!-- other -->
     <g transform="translate(346.103125 262.447656) scale(0.1 -0.1)">
      <use xlink:href="#DejaVuSans-6f"/>
      <use xlink:href="#DejaVuSans-74" x="61.181641"/>
      <use xlink:href="#DejaVuSans-68" x="100.390625"/>
      <use xlink:href="#DejaVuSans-65" x="163.769531"/>
      <use xlink:href="#DejaVuSans-72" x="225.292969"/>
     </g>
    </g>
   </g>
  </g>
 </g>
 <defs>
  <clipPath id="p015ba2b97d">
   <rect x="30.103125" y="10.999219" width="279" height="221.76"/>
  </clipPath>
 </defs>
</svg>
