<?xml version="1.0" encoding="utf-8" standalone="no"?>
<!DOCTYPE svg PUBLIC "-//W3C//DTD SVG 1.1//EN"
  "http://www.w3.org/Graphics/SVG/1.1/DTD/svg11.dtd">
<svg xmlns:xlink="http://www.w3.org/1999/xlink" width="216pt" height="216pt" viewBox="0 0 216 216" xmlns="http://www.w3.org/2000/svg" version="1.1">
 <metadata>
  <rdf:RDF xmlns:dc="http://purl.org/dc/elements/1.1/" xmlns:cc="http://creativecommons.org/ns#" xmlns:rdf="http://www.w3.org/1999/02/22-rdf-syntax-ns#">
   <cc:Work>
    <dc:type rdf:resource="http://purl.org/dc/dcmitype/StillImage"/>
    <dc:date>2025-06-21T07:00:24.861513</dc:date>
    <dc:format>image/svg+xml</dc:format>
    <dc:creator>
     <cc:Agent>
      <dc:title>Matplotlib v3.9.2, https://matplotlib.org/</dc:title>
     </cc:Agent>
    </dc:creator>
   </cc:Work>
  </rdf:RDF>
 </metadata>
 <defs>
  <style type="text/css">*{stroke-linejoin: round; stroke-linecap: butt}</style>
 </defs>
 <g id="figure_1">
  <g id="patch_1">
   <path d="M 0 216 
L 216 216 
L 216 0 
L 0 0 
z
" style="fill: #ffffff"/>
  </g>
  <g id="axes_1">
   <g id="patch_2">
    <path d="M 27 192.24 
L 194.4 192.24 
L 194.4 25.92 
L 27 25.92 
z
" style="fill: #ffffff"/>
   </g>
   <g id="patch_3">
    <path d="M 33.642857 192.24 
L 54.9 192.24 
L 54.9 157.401948 
L 33.642857 157.401948 
z
" clip-path="url(#pfcf5c1641f)" style="fill: #e8702a; stroke: #808080; stroke-linejoin: miter"/>
   </g>
   <g id="patch_4">
    <path d="M 60.214286 192.24 
L 81.471429 192.24 
L 81.471429 94.491075 
L 60.214286 94.491075 
z
" clip-path="url(#pfcf5c1641f)" style="fill: #e8702a; stroke: #808080; stroke-linejoin: miter"/>
   </g>
   <g id="patch_5">
    <path d="M 86.785714 192.24 
L 108.042857 192.24 
L 108.042857 192.24 
L 86.785714 192.24 
z
" clip-path="url(#pfcf5c1641f)" style="fill: #e8702a; stroke: #808080; stroke-linejoin: miter"/>
   </g>
   <g id="patch_6">
    <path d="M 113.357143 192.24 
L 134.614286 192.24 
L 134.614286 192.24 
L 113.357143 192.24 
z
" clip-path="url(#pfcf5c1641f)" style="fill: #e8702a; stroke: #808080; stroke-linejoin: miter"/>
   </g>
   <g id="patch_7">
    <path d="M 139.928571 192.24 
L 161.185714 192.24 
L 161.185714 192.24 
L 139.928571 192.24 
z
" clip-path="url(#pfcf5c1641f)" style="fill: #e8702a; stroke: #808080; stroke-linejoin: miter"/>
   </g>
   <g id="patch_8">
    <path d="M 166.5 192.24 
L 187.757143 192.24 
L 187.757143 192.24 
L 166.5 192.24 
z
" clip-path="url(#pfcf5c1641f)" style="fill: #e8702a; stroke: #808080; stroke-linejoin: miter"/>
   </g>
   <g id="patch_9">
    <path d="M 33.642857 192.24 
L 54.9 192.24 
L 54.9 192.24 
L 33.642857 192.24 
z
" clip-path="url(#pfcf5c1641f)" style="fill: #306f60; stroke: #808080; stroke-linejoin: miter"/>
   </g>
   <g id="patch_10">
    <path d="M 60.214286 94.491075 
L 81.471429 94.491075 
L 81.471429 76.801945 
L 60.214286 76.801945 
z
" clip-path="url(#pfcf5c1641f)" style="fill: #306f60; stroke: #808080; stroke-linejoin: miter"/>
   </g>
   <g id="patch_11">
    <path d="M 86.785714 192.24 
L 108.042857 192.24 
L 108.042857 192.24 
L 86.785714 192.24 
z
" clip-path="url(#pfcf5c1641f)" style="fill: #306f60; stroke: #808080; stroke-linejoin: miter"/>
   </g>
   <g id="patch_12">
    <path d="M 113.357143 192.24 
L 134.614286 192.24 
L 134.614286 192.24 
L 113.357143 192.24 
z
" clip-path="url(#pfcf5c1641f)" style="fill: #306f60; stroke: #808080; stroke-linejoin: miter"/>
   </g>
   <g id="patch_13">
    <path d="M 139.928571 192.24 
L 161.185714 192.24 
L 161.185714 192.24 
L 139.928571 192.24 
z
" clip-path="url(#pfcf5c1641f)" style="fill: #306f60; stroke: #808080; stroke-linejoin: miter"/>
   </g>
   <g id="patch_14">
    <path d="M 166.5 192.24 
L 187.757143 192.24 
L 187.757143 192.24 
L 166.5 192.24 
z
" clip-path="url(#pfcf5c1641f)" style="fill: #306f60; stroke: #808080; stroke-linejoin: miter"/>
   </g>
   <g id="patch_15">
    <path d="M 33.642857 157.401948 
L 54.9 157.401948 
L 54.9 152.818168 
L 33.642857 152.818168 
z
" clip-path="url(#pfcf5c1641f)" style="fill: #ffbf43; stroke: #808080; stroke-linejoin: miter"/>
   </g>
   <g id="patch_16">
    <path d="M 60.214286 76.801945 
L 81.471429 76.801945 
L 81.471429 69.487857 
L 60.214286 69.487857 
z
" clip-path="url(#pfcf5c1641f)" style="fill: #ffbf43; stroke: #808080; stroke-linejoin: miter"/>
   </g>
   <g id="patch_17">
    <path d="M 86.785714 192.24 
L 108.042857 192.24 
L 108.042857 192.24 
L 86.785714 192.24 
z
" clip-path="url(#pfcf5c1641f)" style="fill: #ffbf43; stroke: #808080; stroke-linejoin: miter"/>
   </g>
   <g id="patch_18">
    <path d="M 113.357143 192.24 
L 134.614286 192.24 
L 134.614286 192.24 
L 113.357143 192.24 
z
" clip-path="url(#pfcf5c1641f)" style="fill: #ffbf43; stroke: #808080; stroke-linejoin: miter"/>
   </g>
   <g id="patch_19">
    <path d="M 139.928571 192.24 
L 161.185714 192.24 
L 161.185714 192.24 
L 139.928571 192.24 
z
" clip-path="url(#pfcf5c1641f)" style="fill: #ffbf43; stroke: #808080; stroke-linejoin: miter"/>
   </g>
   <g id="patch_20">
    <path d="M 166.5 192.24 
L 187.757143 192.24 
L 187.757143 188.433268 
L 166.5 188.433268 
z
" clip-path="url(#pfcf5c1641f)" style="fill: #ffbf43; stroke: #808080; stroke-linejoin: miter"/>
   </g>
   <g id="patch_21">
    <path d="M 33.642857 192.24 
L 54.9 192.24 
L 54.9 192.24 
L 33.642857 192.24 
z
" clip-path="url(#pfcf5c1641f)" style="fill: #fff3b2; stroke: #808080; stroke-linejoin: miter"/>
   </g>
   <g id="patch_22">
    <path d="M 60.214286 69.487857 
L 81.471429 69.487857 
L 81.471429 49.749664 
L 60.214286 49.749664 
z
" clip-path="url(#pfcf5c1641f)" style="fill: #fff3b2; stroke: #808080; stroke-linejoin: miter"/>
   </g>
   <g id="patch_23">
    <path d="M 86.785714 192.24 
L 108.042857 192.24 
L 108.042857 192.24 
L 86.785714 192.24 
z
" clip-path="url(#pfcf5c1641f)" style="fill: #fff3b2; stroke: #808080; stroke-linejoin: miter"/>
   </g>
   <g id="patch_24">
    <path d="M 113.357143 192.24 
L 134.614286 192.24 
L 134.614286 192.24 
L 113.357143 192.24 
z
" clip-path="url(#pfcf5c1641f)" style="fill: #fff3b2; stroke: #808080; stroke-linejoin: miter"/>
   </g>
   <g id="patch_25">
    <path d="M 139.928571 192.24 
L 161.185714 192.24 
L 161.185714 192.24 
L 139.928571 192.24 
z
" clip-path="url(#pfcf5c1641f)" style="fill: #fff3b2; stroke: #808080; stroke-linejoin: miter"/>
   </g>
   <g id="patch_26">
    <path d="M 166.5 192.24 
L 187.757143 192.24 
L 187.757143 192.24 
L 166.5 192.24 
z
" clip-path="url(#pfcf5c1641f)" style="fill: #fff3b2; stroke: #808080; stroke-linejoin: miter"/>
   </g>
   <g id="patch_27">
    <path d="M 33.642857 192.24 
L 54.9 192.24 
L 54.9 192.24 
L 33.642857 192.24 
z
" clip-path="url(#pfcf5c1641f)" style="fill: #6a7ced; stroke: #808080; stroke-linejoin: miter"/>
   </g>
   <g id="patch_28">
    <path d="M 60.214286 192.24 
L 81.471429 192.24 
L 81.471429 192.24 
L 60.214286 192.24 
z
" clip-path="url(#pfcf5c1641f)" style="fill: #6a7ced; stroke: #808080; stroke-linejoin: miter"/>
   </g>
   <g id="patch_29">
    <path d="M 86.785714 192.24 
L 108.042857 192.24 
L 108.042857 192.24 
L 86.785714 192.24 
z
" clip-path="url(#pfcf5c1641f)" style="fill: #6a7ced; stroke: #808080; stroke-linejoin: miter"/>
   </g>
   <g id="patch_30">
    <path d="M 113.357143 192.24 
L 134.614286 192.24 
L 134.614286 192.24 
L 113.357143 192.24 
z
" clip-path="url(#pfcf5c1641f)" style="fill: #6a7ced; stroke: #808080; stroke-linejoin: miter"/>
   </g>
   <g id="patch_31">
    <path d="M 139.928571 192.24 
L 161.185714 192.24 
L 161.185714 174.401182 
L 139.928571 174.401182 
z
" clip-path="url(#pfcf5c1641f)" style="fill: #6a7ced; stroke: #808080; stroke-linejoin: miter"/>
   </g>
   <g id="patch_32">
    <path d="M 166.5 192.24 
L 187.757143 192.24 
L 187.757143 192.24 
L 166.5 192.24 
z
" clip-path="url(#pfcf5c1641f)" style="fill: #6a7ced; stroke: #808080; stroke-linejoin: miter"/>
   </g>
   <g id="matplotlib.axis_1"/>
   <g id="matplotlib.axis_2">
    <g id="ytick_1">
     <g id="line2d_1">
      <defs>
       <path id="m3ae37eead9" d="M 0 0 
L -3.5 0 
" style="stroke: #000000; stroke-width: 0.8"/>
      </defs>
      <g>
       <use xlink:href="#m3ae37eead9" x="27" y="192.24" style="stroke: #000000; stroke-width: 0.8"/>
      </g>
     </g>
     <g id="text_1">
      <!-- 0 -->
      <g transform="translate(14.540625 196.039219) scale(0.1 -0.1)">
       <defs>
        <path id="Tahoma-30" d="M 3234 2328 
Q 3234 1075 2870 489 
Q 2506 -97 1747 -97 
Q 978 -97 618 500 
Q 259 1097 259 2322 
Q 259 3581 623 4164 
Q 988 4747 1747 4747 
Q 2516 4747 2875 4144 
Q 3234 3541 3234 2328 
z
M 2434 909 
Q 2525 1141 2562 1494 
Q 2600 1847 2600 2328 
Q 2600 2806 2562 3159 
Q 2525 3513 2431 3747 
Q 2338 3984 2173 4107 
Q 2009 4231 1747 4231 
Q 1488 4231 1320 4107 
Q 1153 3984 1056 3741 
Q 963 3503 928 3140 
Q 894 2778 894 2322 
Q 894 1834 923 1506 
Q 953 1178 1053 919 
Q 1144 678 1311 548 
Q 1478 419 1747 419 
Q 2006 419 2173 542 
Q 2341 666 2434 909 
z
" transform="scale(0.015625)"/>
       </defs>
       <use xlink:href="#Tahoma-30"/>
      </g>
     </g>
    </g>
    <g id="ytick_2">
     <g id="line2d_2">
      <g>
       <use xlink:href="#m3ae37eead9" x="27" y="158.976" style="stroke: #000000; stroke-width: 0.8"/>
      </g>
     </g>
     <g id="text_2">
      <!-- 500 -->
      <g transform="translate(3.621875 162.775219) scale(0.1 -0.1)">
       <defs>
        <path id="Tahoma-35" d="M 3159 1481 
Q 3159 1144 3051 856 
Q 2944 569 2750 359 
Q 2553 147 2261 25 
Q 1969 -97 1606 -97 
Q 1272 -97 948 -23 
Q 625 50 388 169 
L 388 828 
L 431 828 
Q 503 775 637 708 
Q 772 641 934 581 
Q 1119 516 1272 480 
Q 1425 444 1616 444 
Q 1803 444 1981 511 
Q 2159 578 2288 728 
Q 2403 866 2464 1050 
Q 2525 1234 2525 1484 
Q 2525 1731 2458 1890 
Q 2391 2050 2263 2153 
Q 2128 2272 1933 2320 
Q 1738 2369 1497 2369 
Q 1244 2369 987 2330 
Q 731 2291 578 2256 
L 578 4653 
L 3131 4653 
L 3131 4106 
L 1181 4106 
L 1181 2869 
Q 1294 2881 1403 2887 
Q 1513 2894 1603 2894 
Q 1959 2894 2206 2834 
Q 2453 2775 2681 2603 
Q 2913 2428 3036 2165 
Q 3159 1903 3159 1481 
z
" transform="scale(0.015625)"/>
       </defs>
       <use xlink:href="#Tahoma-35"/>
       <use xlink:href="#Tahoma-30" x="54.589844"/>
       <use xlink:href="#Tahoma-30" x="109.179688"/>
      </g>
     </g>
    </g>
    <g id="ytick_3">
     <g id="line2d_3">
      <g>
       <use xlink:href="#m3ae37eead9" x="27" y="125.712" style="stroke: #000000; stroke-width: 0.8"/>
      </g>
     </g>
     <g id="text_3">
      <!-- 1000 -->
      <g transform="translate(-1.8375 129.511219) scale(0.1 -0.1)">
       <defs>
        <path id="Tahoma-31" d="M 2975 0 
L 706 0 
L 706 475 
L 1550 475 
L 1550 3594 
L 706 3594 
L 706 4019 
Q 1184 4019 1411 4155 
Q 1638 4291 1666 4669 
L 2150 4669 
L 2150 475 
L 2975 475 
L 2975 0 
z
" transform="scale(0.015625)"/>
       </defs>
       <use xlink:href="#Tahoma-31"/>
       <use xlink:href="#Tahoma-30" x="54.589844"/>
       <use xlink:href="#Tahoma-30" x="109.179688"/>
       <use xlink:href="#Tahoma-30" x="163.769531"/>
      </g>
     </g>
    </g>
    <g id="ytick_4">
     <g id="line2d_4">
      <g>
       <use xlink:href="#m3ae37eead9" x="27" y="92.448" style="stroke: #000000; stroke-width: 0.8"/>
      </g>
     </g>
     <g id="text_4">
      <!-- 1500 -->
      <g transform="translate(-1.8375 96.247219) scale(0.1 -0.1)">
       <use xlink:href="#Tahoma-31"/>
       <use xlink:href="#Tahoma-35" x="54.589844"/>
       <use xlink:href="#Tahoma-30" x="109.179688"/>
       <use xlink:href="#Tahoma-30" x="163.769531"/>
      </g>
     </g>
    </g>
    <g id="ytick_5">
     <g id="line2d_5">
      <g>
       <use xlink:href="#m3ae37eead9" x="27" y="59.184" style="stroke: #000000; stroke-width: 0.8"/>
      </g>
     </g>
     <g id="text_5">
      <!-- 2000 -->
      <g transform="translate(-1.8375 62.983219) scale(0.1 -0.1)">
       <defs>
        <path id="Tahoma-32" d="M 3213 0 
L 341 0 
L 341 653 
Q 650 947 925 1215 
Q 1200 1484 1463 1775 
Q 1994 2359 2187 2711 
Q 2381 3063 2381 3438 
Q 2381 3631 2320 3778 
Q 2259 3925 2153 4022 
Q 2044 4116 1900 4162 
Q 1756 4209 1584 4209 
Q 1419 4209 1248 4167 
Q 1078 4125 922 4063 
Q 791 4009 669 3934 
Q 547 3859 472 3806 
L 438 3806 
L 438 4469 
Q 631 4566 976 4658 
Q 1322 4750 1631 4750 
Q 2281 4750 2650 4404 
Q 3019 4059 3019 3469 
Q 3019 3197 2955 2965 
Q 2891 2734 2778 2538 
Q 2663 2334 2500 2134 
Q 2338 1934 2156 1741 
Q 1863 1422 1502 1078 
Q 1141 734 925 534 
L 3213 534 
L 3213 0 
z
" transform="scale(0.015625)"/>
       </defs>
       <use xlink:href="#Tahoma-32"/>
       <use xlink:href="#Tahoma-30" x="54.589844"/>
       <use xlink:href="#Tahoma-30" x="109.179688"/>
       <use xlink:href="#Tahoma-30" x="163.769531"/>
      </g>
     </g>
    </g>
    <g id="ytick_6">
     <g id="line2d_6">
      <g>
       <use xlink:href="#m3ae37eead9" x="27" y="25.92" style="stroke: #000000; stroke-width: 0.8"/>
      </g>
     </g>
     <g id="text_6">
      <!-- 2500 -->
      <g transform="translate(-1.8375 29.719219) scale(0.1 -0.1)">
       <use xlink:href="#Tahoma-32"/>
       <use xlink:href="#Tahoma-35" x="54.589844"/>
       <use xlink:href="#Tahoma-30" x="109.179688"/>
       <use xlink:href="#Tahoma-30" x="163.769531"/>
      </g>
     </g>
    </g>
   </g>
   <g id="patch_33">
    <path d="M 27 192.24 
L 27 25.92 
" style="fill: none; stroke: #000000; stroke-width: 0.8; stroke-linejoin: miter; stroke-linecap: square"/>
   </g>
   <g id="patch_34">
    <path d="M 27 192.24 
L 194.4 192.24 
" style="fill: none; stroke: #000000; stroke-width: 0.8; stroke-linejoin: miter; stroke-linecap: square"/>
   </g>
   <g id="legend_1">
    <g id="patch_35">
     <path d="M 201.4 107.080937 
L 369.079687 107.080937 
Q 371.079687 107.080937 371.079687 105.080937 
L 371.079687 32.92 
Q 371.079687 30.92 369.079687 30.92 
L 201.4 30.92 
Q 199.4 30.92 199.4 32.92 
L 199.4 105.080937 
Q 199.4 107.080937 201.4 107.080937 
z
" style="fill: #ffffff; opacity: 0.8; stroke: #cccccc; stroke-linejoin: miter"/>
    </g>
    <g id="patch_36">
     <path d="M 203.4 42.518438 
L 223.4 42.518438 
L 223.4 35.518438 
L 203.4 35.518438 
z
" style="fill: #e8702a; stroke: #808080; stroke-linejoin: miter"/>
    </g>
    <g id="text_7">
     <!-- Cutibacterium acnes -->
     <g transform="translate(231.4 42.518438) scale(0.1 -0.1)">
      <defs>
       <path id="Tahoma-43" d="M 2291 -84 
Q 1834 -84 1451 69 
Q 1069 222 791 525 
Q 513 828 359 1281 
Q 206 1734 206 2322 
Q 206 2906 354 3340 
Q 503 3775 788 4097 
Q 1066 4409 1447 4573 
Q 1828 4738 2300 4738 
Q 2534 4738 2739 4703 
Q 2944 4669 3119 4616 
Q 3269 4569 3426 4498 
Q 3584 4428 3738 4344 
L 3738 3597 
L 3688 3597 
Q 3606 3672 3478 3778 
Q 3350 3884 3166 3988 
Q 2988 4084 2778 4146 
Q 2569 4209 2294 4209 
Q 1997 4209 1731 4087 
Q 1466 3966 1266 3728 
Q 1069 3491 959 3131 
Q 850 2772 850 2322 
Q 850 1844 965 1498 
Q 1081 1153 1281 916 
Q 1475 684 1737 567 
Q 2000 450 2294 450 
Q 2563 450 2791 515 
Q 3019 581 3197 681 
Q 3369 778 3494 879 
Q 3619 981 3691 1053 
L 3738 1053 
L 3738 316 
Q 3584 244 3448 178 
Q 3313 113 3119 50 
Q 2916 -16 2742 -50 
Q 2569 -84 2291 -84 
z
" transform="scale(0.015625)"/>
       <path id="Tahoma-75" d="M 3144 0 
L 2556 0 
L 2556 388 
Q 2284 150 2040 26 
Q 1797 -97 1497 -97 
Q 1269 -97 1067 -22 
Q 866 53 716 216 
Q 566 378 483 625 
Q 400 872 400 1225 
L 400 3491 
L 988 3491 
L 988 1503 
Q 988 1225 1008 1042 
Q 1028 859 1100 722 
Q 1172 588 1295 525 
Q 1419 463 1650 463 
Q 1866 463 2109 584 
Q 2353 706 2556 884 
L 2556 3491 
L 3144 3491 
L 3144 0 
z
" transform="scale(0.015625)"/>
       <path id="Tahoma-74" d="M 1481 -69 
Q 1000 -69 731 204 
Q 463 478 463 1069 
L 463 3003 
L 66 3003 
L 66 3491 
L 463 3491 
L 463 4494 
L 1050 4494 
L 1050 3491 
L 2131 3491 
L 2131 3003 
L 1050 3003 
L 1050 1344 
Q 1050 1078 1059 934 
Q 1069 791 1131 666 
Q 1184 556 1303 501 
Q 1422 447 1625 447 
Q 1769 447 1903 489 
Q 2038 531 2097 559 
L 2131 559 
L 2131 31 
Q 1966 -16 1795 -42 
Q 1625 -69 1481 -69 
z
" transform="scale(0.015625)"/>
       <path id="Tahoma-69" d="M 1025 0 
L 438 0 
L 438 3491 
L 1025 3491 
L 1025 0 
z
M 1066 4075 
L 397 4075 
L 397 4684 
L 1066 4684 
L 1066 4075 
z
" transform="scale(0.015625)"/>
       <path id="Tahoma-62" d="M 2747 1756 
Q 2747 2381 2556 2704 
Q 2366 3028 1944 3028 
Q 1703 3028 1458 2915 
Q 1213 2803 1013 2631 
L 1013 631 
Q 1234 522 1406 476 
Q 1578 431 1784 431 
Q 2234 431 2490 750 
Q 2747 1069 2747 1756 
z
M 3353 1803 
Q 3353 947 2937 425 
Q 2522 -97 1897 -97 
Q 1613 -97 1411 -26 
Q 1209 44 1013 163 
L 975 0 
L 425 0 
L 425 4863 
L 1013 4863 
L 1013 3125 
Q 1234 3325 1493 3456 
Q 1753 3588 2081 3588 
Q 2672 3588 3012 3114 
Q 3353 2641 3353 1803 
z
" transform="scale(0.015625)"/>
       <path id="Tahoma-61" d="M 2375 859 
L 2375 1828 
Q 2166 1809 1845 1776 
Q 1525 1744 1328 1684 
Q 1094 1613 941 1464 
Q 788 1316 788 1050 
Q 788 750 956 597 
Q 1125 444 1450 444 
Q 1728 444 1953 564 
Q 2178 684 2375 859 
z
M 2375 372 
Q 2303 319 2183 223 
Q 2063 128 1950 72 
Q 1794 -9 1648 -53 
Q 1503 -97 1241 -97 
Q 1025 -97 831 -15 
Q 638 66 491 213 
Q 350 356 265 567 
Q 181 778 181 1013 
Q 181 1375 334 1629 
Q 488 1884 819 2034 
Q 1113 2169 1513 2220 
Q 1913 2272 2375 2297 
L 2375 2409 
Q 2375 2616 2312 2742 
Q 2250 2869 2138 2938 
Q 2025 3009 1862 3032 
Q 1700 3056 1528 3056 
Q 1325 3056 1050 2995 
Q 775 2934 500 2819 
L 466 2819 
L 466 3416 
Q 628 3463 931 3519 
Q 1234 3575 1531 3575 
Q 1891 3575 2137 3519 
Q 2384 3463 2581 3316 
Q 2772 3172 2865 2944 
Q 2959 2716 2959 2388 
L 2959 0 
L 2375 0 
L 2375 372 
z
" transform="scale(0.015625)"/>
       <path id="Tahoma-63" d="M 1813 -78 
Q 1453 -78 1153 33 
Q 853 144 638 369 
Q 422 594 303 936 
Q 184 1278 184 1741 
Q 184 2200 307 2534 
Q 431 2869 638 3097 
Q 844 3325 1151 3448 
Q 1459 3572 1813 3572 
Q 2100 3572 2367 3490 
Q 2634 3409 2844 3303 
L 2844 2644 
L 2809 2644 
Q 2747 2697 2648 2765 
Q 2550 2834 2409 2906 
Q 2288 2969 2122 3016 
Q 1956 3063 1803 3063 
Q 1347 3063 1070 2717 
Q 794 2372 794 1741 
Q 794 1122 1061 776 
Q 1328 431 1803 431 
Q 2091 431 2350 550 
Q 2609 669 2809 856 
L 2844 856 
L 2844 197 
Q 2756 156 2625 98 
Q 2494 41 2388 13 
Q 2238 -31 2119 -54 
Q 2000 -78 1813 -78 
z
" transform="scale(0.015625)"/>
       <path id="Tahoma-65" d="M 1941 -81 
Q 1106 -81 645 389 
Q 184 859 184 1725 
Q 184 2578 631 3083 
Q 1078 3588 1800 3588 
Q 2125 3588 2375 3494 
Q 2625 3400 2813 3200 
Q 3000 3000 3100 2711 
Q 3200 2422 3200 2003 
L 3200 1684 
L 781 1684 
Q 781 1075 1087 753 
Q 1394 431 1934 431 
Q 2128 431 2314 475 
Q 2500 519 2650 588 
Q 2809 659 2918 726 
Q 3028 794 3100 853 
L 3134 853 
L 3134 213 
Q 3031 172 2878 111 
Q 2725 50 2603 16 
Q 2431 -31 2292 -56 
Q 2153 -81 1941 -81 
z
M 2628 2134 
Q 2622 2372 2572 2544 
Q 2522 2716 2428 2834 
Q 2325 2966 2164 3034 
Q 2003 3103 1766 3103 
Q 1531 3103 1367 3033 
Q 1203 2963 1069 2828 
Q 938 2691 869 2523 
Q 800 2356 781 2134 
L 2628 2134 
z
" transform="scale(0.015625)"/>
       <path id="Tahoma-72" d="M 2275 2859 
L 2244 2859 
Q 2178 2878 2104 2883 
Q 2031 2888 1928 2888 
Q 1691 2888 1456 2784 
Q 1222 2681 1013 2478 
L 1013 0 
L 425 0 
L 425 3491 
L 1013 3491 
L 1013 2972 
Q 1334 3256 1573 3373 
Q 1813 3491 2038 3491 
Q 2128 3491 2173 3486 
Q 2219 3481 2275 3472 
L 2275 2859 
z
" transform="scale(0.015625)"/>
       <path id="Tahoma-6d" d="M 4388 0 
L 4388 2019 
Q 4388 2259 4369 2464 
Q 4350 2669 4291 2784 
Q 4228 2909 4112 2968 
Q 3997 3028 3800 3028 
Q 3619 3028 3411 2917 
Q 3203 2806 2981 2597 
Q 2984 2544 2989 2470 
Q 2994 2397 2994 2297 
L 2994 0 
L 2406 0 
L 2406 2019 
Q 2406 2259 2387 2464 
Q 2369 2669 2309 2784 
Q 2247 2909 2131 2968 
Q 2016 3028 1819 3028 
Q 1628 3028 1418 2909 
Q 1209 2791 1013 2606 
L 1013 0 
L 425 0 
L 425 3491 
L 1013 3491 
L 1013 3103 
Q 1244 3334 1470 3461 
Q 1697 3588 1969 3588 
Q 2278 3588 2517 3447 
Q 2756 3306 2881 2984 
Q 3147 3281 3400 3434 
Q 3653 3588 3950 3588 
Q 4175 3588 4359 3517 
Q 4544 3447 4681 3291 
Q 4822 3131 4898 2893 
Q 4975 2656 4975 2297 
L 4975 0 
L 4388 0 
z
" transform="scale(0.015625)"/>
       <path id="Tahoma-20" transform="scale(0.015625)"/>
       <path id="Tahoma-6e" d="M 3169 0 
L 2581 0 
L 2581 1988 
Q 2581 2228 2557 2436 
Q 2534 2644 2469 2769 
Q 2397 2900 2269 2964 
Q 2141 3028 1919 3028 
Q 1700 3028 1467 2911 
Q 1234 2794 1013 2606 
L 1013 0 
L 425 0 
L 425 3491 
L 1013 3491 
L 1013 3103 
Q 1275 3338 1531 3463 
Q 1788 3588 2072 3588 
Q 2588 3588 2878 3248 
Q 3169 2909 3169 2266 
L 3169 0 
z
" transform="scale(0.015625)"/>
       <path id="Tahoma-73" d="M 1369 -84 
Q 1019 -84 714 9 
Q 409 103 209 209 
L 209 869 
L 241 869 
Q 316 809 417 737 
Q 519 666 688 588 
Q 838 519 1017 466 
Q 1197 413 1391 413 
Q 1531 413 1690 445 
Q 1850 478 1928 528 
Q 2038 600 2086 681 
Q 2134 763 2134 925 
Q 2134 1134 2020 1240 
Q 1906 1347 1616 1419 
Q 1503 1447 1322 1484 
Q 1141 1522 988 1566 
Q 588 1681 406 1923 
Q 225 2166 225 2509 
Q 225 2981 581 3278 
Q 938 3575 1528 3575 
Q 1819 3575 2112 3503 
Q 2406 3431 2606 3322 
L 2606 2694 
L 2575 2694 
Q 2350 2872 2073 2975 
Q 1797 3078 1516 3078 
Q 1225 3078 1025 2956 
Q 825 2834 825 2588 
Q 825 2369 944 2261 
Q 1063 2153 1325 2084 
Q 1456 2050 1617 2017 
Q 1778 1984 1956 1941 
Q 2344 1844 2539 1619 
Q 2734 1394 2734 1006 
Q 2734 781 2645 579 
Q 2556 378 2384 234 
Q 2197 78 1961 -3 
Q 1725 -84 1369 -84 
z
" transform="scale(0.015625)"/>
      </defs>
      <use xlink:href="#Tahoma-43"/>
      <use xlink:href="#Tahoma-75" x="60.058594"/>
      <use xlink:href="#Tahoma-74" x="115.820312"/>
      <use xlink:href="#Tahoma-69" x="149.267578"/>
      <use xlink:href="#Tahoma-62" x="172.119141"/>
      <use xlink:href="#Tahoma-61" x="227.392578"/>
      <use xlink:href="#Tahoma-63" x="279.882812"/>
      <use xlink:href="#Tahoma-74" x="326.025391"/>
      <use xlink:href="#Tahoma-65" x="359.472656"/>
      <use xlink:href="#Tahoma-72" x="412.109375"/>
      <use xlink:href="#Tahoma-69" x="448.144531"/>
      <use xlink:href="#Tahoma-75" x="470.996094"/>
      <use xlink:href="#Tahoma-6d" x="526.757812"/>
      <use xlink:href="#Tahoma-20" x="610.742188"/>
      <use xlink:href="#Tahoma-61" x="641.992188"/>
      <use xlink:href="#Tahoma-63" x="694.482422"/>
      <use xlink:href="#Tahoma-6e" x="740.625"/>
      <use xlink:href="#Tahoma-65" x="796.386719"/>
      <use xlink:href="#Tahoma-73" x="849.023438"/>
     </g>
    </g>
    <g id="patch_37">
     <path d="M 203.4 57.129375 
L 223.4 57.129375 
L 223.4 50.129375 
L 203.4 50.129375 
z
" style="fill: #306f60; stroke: #808080; stroke-linejoin: miter"/>
    </g>
    <g id="text_8">
     <!-- Dermacoccus nishinomiyaensis -->
     <g transform="translate(231.4 57.129375) scale(0.1 -0.1)">
      <defs>
       <path id="Tahoma-44" d="M 4141 2322 
Q 4141 1684 3883 1171 
Q 3625 659 3191 372 
Q 2838 150 2473 75 
Q 2109 0 1544 0 
L 472 0 
L 472 4653 
L 1531 4653 
Q 2188 4653 2561 4554 
Q 2934 4456 3197 4284 
Q 3647 3988 3894 3495 
Q 4141 3003 4141 2322 
z
M 3497 2331 
Q 3497 2869 3319 3248 
Q 3141 3628 2791 3841 
Q 2544 3991 2262 4056 
Q 1981 4122 1563 4122 
L 1091 4122 
L 1091 531 
L 1563 531 
Q 1975 531 2284 597 
Q 2594 663 2850 841 
Q 3172 1059 3334 1423 
Q 3497 1788 3497 2331 
z
" transform="scale(0.015625)"/>
       <path id="Tahoma-6f" d="M 3297 1744 
Q 3297 863 2872 383 
Q 2447 -97 1741 -97 
Q 1013 -97 595 398 
Q 178 894 178 1744 
Q 178 2619 608 3103 
Q 1038 3588 1741 3588 
Q 2447 3588 2872 3105 
Q 3297 2622 3297 1744 
z
M 2691 1744 
Q 2691 2422 2444 2751 
Q 2197 3081 1741 3081 
Q 1281 3081 1032 2751 
Q 784 2422 784 1744 
Q 784 1088 1032 748 
Q 1281 409 1741 409 
Q 2194 409 2442 742 
Q 2691 1075 2691 1744 
z
" transform="scale(0.015625)"/>
       <path id="Tahoma-68" d="M 3169 0 
L 2581 0 
L 2581 1988 
Q 2581 2228 2557 2436 
Q 2534 2644 2469 2769 
Q 2397 2900 2269 2964 
Q 2141 3028 1919 3028 
Q 1700 3028 1467 2911 
Q 1234 2794 1013 2606 
L 1013 0 
L 425 0 
L 425 4863 
L 1013 4863 
L 1013 3103 
Q 1275 3338 1531 3463 
Q 1788 3588 2072 3588 
Q 2588 3588 2878 3248 
Q 3169 2909 3169 2266 
L 3169 0 
z
" transform="scale(0.015625)"/>
       <path id="Tahoma-79" d="M 3169 3491 
L 1291 -1288 
L 663 -1288 
L 1288 169 
L 19 3491 
L 653 3491 
L 1606 906 
L 2556 3491 
L 3169 3491 
z
" transform="scale(0.015625)"/>
      </defs>
      <use xlink:href="#Tahoma-44"/>
      <use xlink:href="#Tahoma-65" x="67.822266"/>
      <use xlink:href="#Tahoma-72" x="120.458984"/>
      <use xlink:href="#Tahoma-6d" x="156.494141"/>
      <use xlink:href="#Tahoma-61" x="240.478516"/>
      <use xlink:href="#Tahoma-63" x="292.96875"/>
      <use xlink:href="#Tahoma-6f" x="339.111328"/>
      <use xlink:href="#Tahoma-63" x="393.408203"/>
      <use xlink:href="#Tahoma-63" x="439.300781"/>
      <use xlink:href="#Tahoma-75" x="485.443359"/>
      <use xlink:href="#Tahoma-73" x="541.205078"/>
      <use xlink:href="#Tahoma-20" x="585.833984"/>
      <use xlink:href="#Tahoma-6e" x="617.083984"/>
      <use xlink:href="#Tahoma-69" x="672.845703"/>
      <use xlink:href="#Tahoma-73" x="695.697266"/>
      <use xlink:href="#Tahoma-68" x="740.326172"/>
      <use xlink:href="#Tahoma-69" x="796.087891"/>
      <use xlink:href="#Tahoma-6e" x="818.939453"/>
      <use xlink:href="#Tahoma-6f" x="874.701172"/>
      <use xlink:href="#Tahoma-6d" x="928.998047"/>
      <use xlink:href="#Tahoma-69" x="1012.982422"/>
      <use xlink:href="#Tahoma-79" x="1035.833984"/>
      <use xlink:href="#Tahoma-61" x="1083.763672"/>
      <use xlink:href="#Tahoma-65" x="1136.253906"/>
      <use xlink:href="#Tahoma-6e" x="1188.890625"/>
      <use xlink:href="#Tahoma-73" x="1244.652344"/>
      <use xlink:href="#Tahoma-69" x="1289.28125"/>
      <use xlink:href="#Tahoma-73" x="1312.132812"/>
     </g>
    </g>
    <g id="patch_38">
     <path d="M 203.4 71.740313 
L 223.4 71.740313 
L 223.4 64.740313 
L 203.4 64.740313 
z
" style="fill: #ffbf43; stroke: #808080; stroke-linejoin: miter"/>
    </g>
    <g id="text_9">
     <!-- Malassezia (genus) -->
     <g transform="translate(231.4 71.740313) scale(0.1 -0.1)">
      <defs>
       <path id="Tahoma-4d" d="M 4459 0 
L 3841 0 
L 3841 4009 
L 2628 1281 
L 2253 1281 
L 1050 4009 
L 1050 0 
L 472 0 
L 472 4653 
L 1316 4653 
L 2478 2063 
L 3600 4653 
L 4459 4653 
L 4459 0 
z
" transform="scale(0.015625)"/>
       <path id="Tahoma-6c" d="M 1025 0 
L 438 0 
L 438 4863 
L 1025 4863 
L 1025 0 
z
" transform="scale(0.015625)"/>
       <path id="Tahoma-7a" d="M 2719 0 
L 153 0 
L 153 434 
L 1978 3006 
L 228 3006 
L 228 3491 
L 2684 3491 
L 2684 3072 
L 850 491 
L 2719 491 
L 2719 0 
z
" transform="scale(0.015625)"/>
       <path id="Tahoma-28" d="M 2219 -1288 
L 1503 -1288 
Q 959 -641 648 81 
Q 338 803 338 1788 
Q 338 2750 645 3483 
Q 953 4216 1503 4863 
L 2219 4863 
L 2219 4831 
Q 1966 4603 1736 4304 
Q 1506 4006 1309 3609 
Q 1122 3225 1005 2762 
Q 888 2300 888 1788 
Q 888 1253 1002 809 
Q 1116 366 1309 -34 
Q 1497 -419 1737 -730 
Q 1978 -1041 2219 -1256 
L 2219 -1288 
z
" transform="scale(0.015625)"/>
       <path id="Tahoma-67" d="M 2525 947 
L 2525 2863 
Q 2306 2969 2120 3014 
Q 1934 3059 1750 3059 
Q 1303 3059 1047 2731 
Q 791 2403 791 1791 
Q 791 1209 986 906 
Q 1181 603 1619 603 
Q 1847 603 2089 693 
Q 2331 784 2525 947 
z
M 550 -559 
Q 609 -584 725 -626 
Q 841 -669 988 -706 
Q 1150 -747 1287 -772 
Q 1425 -797 1588 -797 
Q 1859 -797 2048 -725 
Q 2238 -653 2344 -525 
Q 2444 -397 2484 -228 
Q 2525 -59 2525 156 
L 2525 463 
Q 2288 256 2059 157 
Q 1831 59 1488 59 
Q 891 59 537 503 
Q 184 947 184 1778 
Q 184 2213 306 2548 
Q 428 2884 634 3119 
Q 831 3344 1100 3466 
Q 1369 3588 1656 3588 
Q 1928 3588 2126 3523 
Q 2325 3459 2525 3341 
L 2559 3491 
L 3113 3491 
L 3113 397 
Q 3113 -491 2725 -906 
Q 2338 -1322 1541 -1322 
Q 1284 -1322 1017 -1281 
Q 750 -1241 519 -1172 
L 519 -559 
L 550 -559 
z
" transform="scale(0.015625)"/>
       <path id="Tahoma-29" d="M 2113 1788 
Q 2113 822 1803 90 
Q 1494 -641 947 -1288 
L 231 -1288 
L 231 -1256 
Q 472 -1041 715 -727 
Q 959 -413 1141 -34 
Q 1334 369 1448 817 
Q 1563 1266 1563 1788 
Q 1563 2303 1447 2762 
Q 1331 3222 1141 3609 
Q 950 3997 709 4306 
Q 469 4616 231 4831 
L 231 4863 
L 947 4863 
Q 1491 4216 1802 3487 
Q 2113 2759 2113 1788 
z
" transform="scale(0.015625)"/>
      </defs>
      <use xlink:href="#Tahoma-4d"/>
      <use xlink:href="#Tahoma-61" x="77.050781"/>
      <use xlink:href="#Tahoma-6c" x="129.541016"/>
      <use xlink:href="#Tahoma-61" x="152.392578"/>
      <use xlink:href="#Tahoma-73" x="204.882812"/>
      <use xlink:href="#Tahoma-73" x="249.511719"/>
      <use xlink:href="#Tahoma-65" x="294.140625"/>
      <use xlink:href="#Tahoma-7a" x="346.777344"/>
      <use xlink:href="#Tahoma-69" x="391.210938"/>
      <use xlink:href="#Tahoma-61" x="414.0625"/>
      <use xlink:href="#Tahoma-20" x="466.552734"/>
      <use xlink:href="#Tahoma-28" x="497.802734"/>
      <use xlink:href="#Tahoma-67" x="536.083984"/>
      <use xlink:href="#Tahoma-65" x="591.357422"/>
      <use xlink:href="#Tahoma-6e" x="643.994141"/>
      <use xlink:href="#Tahoma-75" x="699.755859"/>
      <use xlink:href="#Tahoma-73" x="755.517578"/>
      <use xlink:href="#Tahoma-29" x="800.146484"/>
     </g>
    </g>
    <g id="patch_39">
     <path d="M 203.4 86.404375 
L 223.4 86.404375 
L 223.4 79.404375 
L 203.4 79.404375 
z
" style="fill: #fff3b2; stroke: #808080; stroke-linejoin: miter"/>
    </g>
    <g id="text_10">
     <!-- Streptococcus mitis -->
     <g transform="translate(231.4 86.404375) scale(0.1 -0.1)">
      <defs>
       <path id="Tahoma-53" d="M 1769 -84 
Q 1263 -84 908 20 
Q 553 125 241 278 
L 241 1053 
L 284 1053 
Q 591 766 978 608 
Q 1366 450 1725 450 
Q 2238 450 2500 664 
Q 2763 878 2763 1228 
Q 2763 1506 2625 1681 
Q 2488 1856 2188 1941 
Q 1972 2003 1794 2043 
Q 1616 2084 1347 2153 
Q 1106 2216 915 2312 
Q 725 2409 578 2566 
Q 434 2719 354 2926 
Q 275 3134 275 3406 
Q 275 3972 715 4355 
Q 1156 4738 1841 4738 
Q 2231 4738 2579 4659 
Q 2928 4581 3225 4438 
L 3225 3697 
L 3178 3697 
Q 2956 3900 2609 4051 
Q 2263 4203 1881 4203 
Q 1450 4203 1184 4001 
Q 919 3800 919 3472 
Q 919 3175 1075 3000 
Q 1231 2825 1528 2744 
Q 1725 2691 2009 2623 
Q 2294 2556 2481 2500 
Q 2963 2353 3184 2056 
Q 3406 1759 3406 1325 
Q 3406 1053 3295 787 
Q 3184 522 2984 338 
Q 2759 134 2476 25 
Q 2194 -84 1769 -84 
z
" transform="scale(0.015625)"/>
       <path id="Tahoma-70" d="M 3353 1838 
Q 3353 966 2936 448 
Q 2519 -69 1881 -69 
Q 1622 -69 1422 -9 
Q 1222 50 1013 175 
L 1013 -1288 
L 425 -1288 
L 425 3491 
L 1013 3491 
L 1013 3125 
Q 1231 3322 1498 3455 
Q 1766 3588 2081 3588 
Q 2681 3588 3017 3113 
Q 3353 2638 3353 1838 
z
M 2747 1772 
Q 2747 2369 2556 2698 
Q 2366 3028 1938 3028 
Q 1688 3028 1455 2917 
Q 1222 2806 1013 2631 
L 1013 653 
Q 1244 541 1408 500 
Q 1572 459 1784 459 
Q 2241 459 2494 793 
Q 2747 1128 2747 1772 
z
" transform="scale(0.015625)"/>
      </defs>
      <use xlink:href="#Tahoma-53"/>
      <use xlink:href="#Tahoma-74" x="55.712891"/>
      <use xlink:href="#Tahoma-72" x="89.160156"/>
      <use xlink:href="#Tahoma-65" x="124.695312"/>
      <use xlink:href="#Tahoma-70" x="177.332031"/>
      <use xlink:href="#Tahoma-74" x="232.605469"/>
      <use xlink:href="#Tahoma-6f" x="266.052734"/>
      <use xlink:href="#Tahoma-63" x="320.349609"/>
      <use xlink:href="#Tahoma-6f" x="366.492188"/>
      <use xlink:href="#Tahoma-63" x="420.789062"/>
      <use xlink:href="#Tahoma-63" x="466.681641"/>
      <use xlink:href="#Tahoma-75" x="512.824219"/>
      <use xlink:href="#Tahoma-73" x="568.585938"/>
      <use xlink:href="#Tahoma-20" x="613.214844"/>
      <use xlink:href="#Tahoma-6d" x="644.464844"/>
      <use xlink:href="#Tahoma-69" x="728.449219"/>
      <use xlink:href="#Tahoma-74" x="751.550781"/>
      <use xlink:href="#Tahoma-69" x="784.998047"/>
      <use xlink:href="#Tahoma-73" x="807.849609"/>
     </g>
    </g>
    <g id="patch_40">
     <path d="M 203.4 101.015312 
L 223.4 101.015312 
L 223.4 94.015312 
L 203.4 94.015312 
z
" style="fill: #6a7ced; stroke: #808080; stroke-linejoin: miter"/>
    </g>
    <g id="text_11">
     <!-- Streptococcus sanguinis -->
     <g transform="translate(231.4 101.015312) scale(0.1 -0.1)">
      <use xlink:href="#Tahoma-53"/>
      <use xlink:href="#Tahoma-74" x="55.712891"/>
      <use xlink:href="#Tahoma-72" x="89.160156"/>
      <use xlink:href="#Tahoma-65" x="124.695312"/>
      <use xlink:href="#Tahoma-70" x="177.332031"/>
      <use xlink:href="#Tahoma-74" x="232.605469"/>
      <use xlink:href="#Tahoma-6f" x="266.052734"/>
      <use xlink:href="#Tahoma-63" x="320.349609"/>
      <use xlink:href="#Tahoma-6f" x="366.492188"/>
      <use xlink:href="#Tahoma-63" x="420.789062"/>
      <use xlink:href="#Tahoma-63" x="466.681641"/>
      <use xlink:href="#Tahoma-75" x="512.824219"/>
      <use xlink:href="#Tahoma-73" x="568.585938"/>
      <use xlink:href="#Tahoma-20" x="613.214844"/>
      <use xlink:href="#Tahoma-73" x="644.464844"/>
      <use xlink:href="#Tahoma-61" x="689.09375"/>
      <use xlink:href="#Tahoma-6e" x="741.583984"/>
      <use xlink:href="#Tahoma-67" x="797.345703"/>
      <use xlink:href="#Tahoma-75" x="852.619141"/>
      <use xlink:href="#Tahoma-69" x="908.380859"/>
      <use xlink:href="#Tahoma-6e" x="931.232422"/>
      <use xlink:href="#Tahoma-69" x="986.994141"/>
      <use xlink:href="#Tahoma-73" x="1009.845703"/>
     </g>
    </g>
   </g>
  </g>
 </g>
 <defs>
  <clipPath id="pfcf5c1641f">
   <rect x="27" y="25.92" width="167.4" height="166.32"/>
  </clipPath>
 </defs>
</svg>
